  0
SECTION
  2
HEADER
  9
$ACADVER
  1
AC1024
  9
$ACADMAINTVER
 70
6
  9
$DWGCODEPAGE
  3
ANSI_1252
  9
$LASTSAVEDBY
  1
ezdxf
  9
$INSBASE
 10
0.0
 20
0.0
 30
0.0
  9
$EXTMIN
 10
1e+20
 20
1e+20
 30
1e+20
  9
$EXTMAX
 10
-1e+20
 20
-1e+20
 30
-1e+20
  9
$LIMMIN
 10
0.0
 20
0.0
  9
$LIMMAX
 10
420.0
 20
297.0
  9
$ORTHOMODE
 70
0
  9
$REGENMODE
 70
1
  9
$FILLMODE
 70
1
  9
$QTEXTMODE
 70
0
  9
$MIRRTEXT
 70
1
  9
$LTSCALE
 40
1.0
  9
$ATTMODE
 70
1
  9
$TEXTSIZE
 40
2.5
  9
$TRACEWID
 40
1.0
  9
$TEXTSTYLE
  7
Standard
  9
$CLAYER
  8
0
  9
$CELTYPE
  6
ByLayer
  9
$CECOLOR
 62
256
  9
$CELTSCALE
 40
1.0
  9
$DISPSILH
 70
0
  9
$DIMSCALE
 40
1.0
  9
$DIMASZ
 40
2.5
  9
$DIMEXO
 40
0.625
  9
$DIMDLI
 40
3.75
  9
$DIMRND
 40
0.0
  9
$DIMDLE
 40
0.0
  9
$DIMEXE
 40
1.25
  9
$DIMTP
 40
0.0
  9
$DIMTM
 40
0.0
  9
$DIMTXT
 40
2.5
  9
$DIMCEN
 40
2.5
  9
$DIMTSZ
 40
0.0
  9
$DIMTOL
 70
0
  9
$DIMLIM
 70
0
  9
$DIMTIH
 70
0
  9
$DIMTOH
 70
0
  9
$DIMSE1
 70
0
  9
$DIMSE2
 70
0
  9
$DIMTAD
 70
1
  9
$DIMZIN
 70
8
  9
$DIMBLK
  1

  9
$DIMASO
 70
1
  9
$DIMSHO
 70
1
  9
$DIMPOST
  1

  9
$DIMAPOST
  1

  9
$DIMALT
 70
0
  9
$DIMALTD
 70
3
  9
$DIMALTF
 40
0.03937007874
  9
$DIMLFAC
 40
1.0
  9
$DIMTOFL
 70
1
  9
$DIMTVP
 40
0.0
  9
$DIMTIX
 70
0
  9
$DIMSOXD
 70
0
  9
$DIMSAH
 70
0
  9
$DIMBLK1
  1

  9
$DIMBLK2
  1

  9
$DIMSTYLE
  2
ISO-25
  9
$DIMCLRD
 70
0
  9
$DIMCLRE
 70
0
  9
$DIMCLRT
 70
0
  9
$DIMTFAC
 40
1.0
  9
$DIMGAP
 40
0.625
  9
$DIMJUST
 70
0
  9
$DIMSD1
 70
0
  9
$DIMSD2
 70
0
  9
$DIMTOLJ
 70
0
  9
$DIMTZIN
 70
8
  9
$DIMALTZ
 70
0
  9
$DIMALTTZ
 70
0
  9
$DIMUPT
 70
0
  9
$DIMDEC
 70
2
  9
$DIMTDEC
 70
2
  9
$DIMALTU
 70
2
  9
$DIMALTTD
 70
3
  9
$DIMTXSTY
  7
Standard
  9
$DIMAUNIT
 70
0
  9
$DIMADEC
 70
0
  9
$DIMALTRND
 40
0.0
  9
$DIMAZIN
 70
0
  9
$DIMDSEP
 70
44
  9
$DIMATFIT
 70
3
  9
$DIMFRAC
 70
0
  9
$DIMLDRBLK
  1

  9
$DIMLUNIT
 70
2
  9
$DIMLWD
 70
-2
  9
$DIMLWE
 70
-2
  9
$DIMTMOVE
 70
0
  9
$DIMFXL
 40
1.0
  9
$DIMFXLON
 70
0
  9
$DIMJOGANG
 40
0.785398163397
  9
$DIMTFILL
 70
0
  9
$DIMTFILLCLR
 70
0
  9
$DIMARCSYM
 70
0
  9
$DIMLTYPE
  6

  9
$DIMLTEX1
  6

  9
$DIMLTEX2
  6

  9
$DIMTXTDIRECTION
 70
0
  9
$LUNITS
 70
2
  9
$LUPREC
 70
4
  9
$SKETCHINC
 40
1.0
  9
$FILLETRAD
 40
10.0
  9
$AUNITS
 70
0
  9
$AUPREC
 70
2
  9
$MENU
  1
.
  9
$ELEVATION
 40
0.0
  9
$PELEVATION
 40
0.0
  9
$THICKNESS
 40
0.0
  9
$LIMCHECK
 70
0
  9
$CHAMFERA
 40
0.0
  9
$CHAMFERB
 40
0.0
  9
$CHAMFERC
 40
0.0
  9
$CHAMFERD
 40
0.0
  9
$SKPOLY
 70
0
  9
$TDCREATE
 40
2459655.4367824076
  9
$TDUCREATE
 40
2458532.153996898
  9
$TDUPDATE
 40
2459655.4367824076
  9
$TDUUPDATE
 40
2458532.1544311
  9
$TDINDWG
 40
0.0
  9
$TDUSRTIMER
 40
0.0
  9
$USRTIMER
 70
1
  9
$ANGBASE
 50
0.0
  9
$ANGDIR
 70
0
  9
$PDMODE
 70
0
  9
$PDSIZE
 40
0.0
  9
$PLINEWID
 40
0.0
  9
$SPLFRAME
 70
0
  9
$SPLINETYPE
 70
6
  9
$SPLINESEGS
 70
8
  9
$HANDSEED
  5
3C
  9
$SURFTAB1
 70
6
  9
$SURFTAB2
 70
6
  9
$SURFTYPE
 70
6
  9
$SURFU
 70
6
  9
$SURFV
 70
6
  9
$UCSBASE
  2

  9
$UCSNAME
  2

  9
$UCSORG
 10
0.0
 20
0.0
 30
0.0
  9
$UCSXDIR
 10
1.0
 20
0.0
 30
0.0
  9
$UCSYDIR
 10
0.0
 20
1.0
 30
0.0
  9
$UCSORTHOREF
  2

  9
$UCSORTHOVIEW
 70
0
  9
$UCSORGTOP
 10
0.0
 20
0.0
 30
0.0
  9
$UCSORGBOTTOM
 10
0.0
 20
0.0
 30
0.0
  9
$UCSORGLEFT
 10
0.0
 20
0.0
 30
0.0
  9
$UCSORGRIGHT
 10
0.0
 20
0.0
 30
0.0
  9
$UCSORGFRONT
 10
0.0
 20
0.0
 30
0.0
  9
$UCSORGBACK
 10
0.0
 20
0.0
 30
0.0
  9
$PUCSBASE
  2

  9
$PUCSNAME
  2

  9
$PUCSORG
 10
0.0
 20
0.0
 30
0.0
  9
$PUCSXDIR
 10
1.0
 20
0.0
 30
0.0
  9
$PUCSYDIR
 10
0.0
 20
1.0
 30
0.0
  9
$PUCSORTHOREF
  2

  9
$PUCSORTHOVIEW
 70
0
  9
$PUCSORGTOP
 10
0.0
 20
0.0
 30
0.0
  9
$PUCSORGBOTTOM
 10
0.0
 20
0.0
 30
0.0
  9
$PUCSORGLEFT
 10
0.0
 20
0.0
 30
0.0
  9
$PUCSORGRIGHT
 10
0.0
 20
0.0
 30
0.0
  9
$PUCSORGFRONT
 10
0.0
 20
0.0
 30
0.0
  9
$PUCSORGBACK
 10
0.0
 20
0.0
 30
0.0
  9
$USERI1
 70
0
  9
$USERI2
 70
0
  9
$USERI3
 70
0
  9
$USERI4
 70
0
  9
$USERI5
 70
0
  9
$USERR1
 40
0.0
  9
$USERR2
 40
0.0
  9
$USERR3
 40
0.0
  9
$USERR4
 40
0.0
  9
$USERR5
 40
0.0
  9
$WORLDVIEW
 70
1
  9
$SHADEDGE
 70
3
  9
$SHADEDIF
 70
70
  9
$TILEMODE
 70
1
  9
$MAXACTVP
 70
64
  9
$PINSBASE
 10
0.0
 20
0.0
 30
0.0
  9
$PLIMCHECK
 70
0
  9
$PEXTMIN
 10
1e+20
 20
1e+20
 30
1e+20
  9
$PEXTMAX
 10
-1e+20
 20
-1e+20
 30
-1e+20
  9
$PLIMMIN
 10
0.0
 20
0.0
  9
$PLIMMAX
 10
420.0
 20
297.0
  9
$UNITMODE
 70
0
  9
$VISRETAIN
 70
1
  9
$PLINEGEN
 70
0
  9
$PSLTSCALE
 70
1
  9
$TREEDEPTH
 70
3020
  9
$CMLSTYLE
  2
Standard
  9
$CMLJUST
 70
0
  9
$CMLSCALE
 40
20.0
  9
$PROXYGRAPHICS
 70
1
  9
$MEASUREMENT
 70
1
  9
$CELWEIGHT
370
-1
  9
$ENDCAPS
280
0
  9
$JOINSTYLE
280
0
  9
$LWDISPLAY
290
0
  9
$INSUNITS
 70
6
  9
$HYPERLINKBASE
  1

  9
$STYLESHEET
  1

  9
$XEDIT
290
1
  9
$CEPSNTYPE
380
0
  9
$PSTYLEMODE
290
1
  9
$FINGERPRINTGUID
  2
{85AFC1B4-C30B-484E-9E0A-285F54A79D26}
  9
$VERSIONGUID
  2
{17F663AD-0F8F-4F0B-B25C-CF89B71D7189}
  9
$EXTNAMES
290
1
  9
$PSVPSCALE
 40
0.0
  9
$OLESTARTUP
290
0
  9
$SORTENTS
280
127
  9
$INDEXCTL
280
0
  9
$HIDETEXT
280
1
  9
$XCLIPFRAME
280
0
  9
$HALOGAP
280
0
  9
$OBSCOLOR
 70
257
  9
$OBSLTYPE
280
0
  9
$INTERSECTIONDISPLAY
280
0
  9
$INTERSECTIONCOLOR
 70
257
  9
$DIMASSOC
280
2
  9
$PROJECTNAME
  1

  9
$CAMERADISPLAY
290
0
  9
$LENSLENGTH
 40
50.0
  9
$CAMERAHEIGHT
 40
0.0
  9
$STEPSPERSEC
 40
24.0
  9
$STEPSIZE
 40
100.0
  9
$3DDWFPREC
 40
2.0
  9
$PSOLWIDTH
 40
0.005
  9
$PSOLHEIGHT
 40
0.08
  9
$LOFTANG1
 40
1.570796326795
  9
$LOFTANG2
 40
1.570796326795
  9
$LOFTMAG1
 40
0.0
  9
$LOFTMAG2
 40
0.0
  9
$LOFTPARAM
 70
7
  9
$LOFTNORMALS
280
1
  9
$LATITUDE
 40
37.795
  9
$LONGITUDE
 40
-122.394
  9
$NORTHDIRECTION
 40
0.0
  9
$TIMEZONE
 70
-8000
  9
$LIGHTGLYPHDISPLAY
280
1
  9
$TILEMODELIGHTSYNCH
280
1
  9
$CMATERIAL
347
20
  9
$SOLIDHIST
280
0
  9
$SHOWHIST
280
1
  9
$DWFFRAME
280
2
  9
$DGNFRAME
280
2
  9
$REALWORLDSCALE
290
1
  9
$INTERFERECOLOR
 62
256
  9
$CSHADOW
280
0
  9
$SHADOWPLANELOCATION
 40
0.0
  0
ENDSEC
  0
SECTION
  2
CLASSES
  0
CLASS
  1
ACDBDICTIONARYWDFLT
  2
AcDbDictionaryWithDefault
  3
ObjectDBX Classes
 90
0
 91
0
280
0
281
0
  0
CLASS
  1
SUN
  2
AcDbSun
  3
SCENEOE
 90
1153
 91
0
280
0
281
0
  0
CLASS
  1
VISUALSTYLE
  2
AcDbVisualStyle
  3
ObjectDBX Classes
 90
4095
 91
0
280
0
281
0
  0
CLASS
  1
MATERIAL
  2
AcDbMaterial
  3
ObjectDBX Classes
 90
1153
 91
0
280
0
281
0
  0
CLASS
  1
SCALE
  2
AcDbScale
  3
ObjectDBX Classes
 90
1153
 91
0
280
0
281
0
  0
CLASS
  1
TABLESTYLE
  2
AcDbTableStyle
  3
ObjectDBX Classes
 90
4095
 91
0
280
0
281
0
  0
CLASS
  1
MLEADERSTYLE
  2
AcDbMLeaderStyle
  3
ACDB_MLEADERSTYLE_CLASS
 90
4095
 91
0
280
0
281
0
  0
CLASS
  1
DICTIONARYVAR
  2
AcDbDictionaryVar
  3
ObjectDBX Classes
 90
0
 91
0
280
0
281
0
  0
CLASS
  1
CELLSTYLEMAP
  2
AcDbCellStyleMap
  3
ObjectDBX Classes
 90
1152
 91
0
280
0
281
0
  0
CLASS
  1
MENTALRAYRENDERSETTINGS
  2
AcDbMentalRayRenderSettings
  3
SCENEOE
 90
1024
 91
0
280
0
281
0
  0
CLASS
  1
ACDBDETAILVIEWSTYLE
  2
AcDbDetailViewStyle
  3
ObjectDBX Classes
 90
1025
 91
0
280
0
281
0
  0
CLASS
  1
ACDBSECTIONVIEWSTYLE
  2
AcDbSectionViewStyle
  3
ObjectDBX Classes
 90
1025
 91
0
280
0
281
0
  0
CLASS
  1
RASTERVARIABLES
  2
AcDbRasterVariables
  3
ISM
 90
0
 91
0
280
0
281
0
  0
CLASS
  1
ACDBPLACEHOLDER
  2
AcDbPlaceHolder
  3
ObjectDBX Classes
 90
0
 91
0
280
0
281
0
  0
CLASS
  1
LAYOUT
  2
AcDbLayout
  3
ObjectDBX Classes
 90
0
 91
0
280
0
281
0
  0
ENDSEC
  0
SECTION
  2
TABLES
  0
TABLE
  2
VPORT
  5
8
330
0
100
AcDbSymbolTable
 70
1
  0
VPORT
  5
23
330
8
100
AcDbSymbolTableRecord
100
AcDbViewportTableRecord
  2
*Active
 70
0
 10
0.0
 20
0.0
 11
1.0
 21
1.0
 12
0.0
 22
0.0
 13
0.0
 23
0.0
 14
0.5
 24
0.5
 15
0.5
 25
0.5
 16
0.0
 26
0.0
 36
1.0
 17
0.0
 27
0.0
 37
0.0
 40
1000.0
 41
1.34
 42
50.0
 43
0.0
 44
0.0
 50
0.0
 51
0.0
 71
0
 72
1000
 73
1
 74
3
 75
0
 76
0
 77
0
 78
0
281
0
 65
0
146
0.0
  0
ENDTAB
  0
TABLE
  2
LTYPE
  5
2
330
0
100
AcDbSymbolTable
 70
3
  0
LTYPE
  5
24
330
2
100
AcDbSymbolTableRecord
100
AcDbLinetypeTableRecord
  2
ByBlock
 70
0
  3

 72
65
 73
0
 40
0.0
  0
LTYPE
  5
25
330
2
100
AcDbSymbolTableRecord
100
AcDbLinetypeTableRecord
  2
ByLayer
 70
0
  3

 72
65
 73
0
 40
0.0
  0
LTYPE
  5
26
330
2
100
AcDbSymbolTableRecord
100
AcDbLinetypeTableRecord
  2
Continuous
 70
0
  3

 72
65
 73
0
 40
0.0
  0
ENDTAB
  0
TABLE
  2
LAYER
  5
1
330
0
100
AcDbSymbolTable
 70
2
  0
LAYER
  5
27
330
1
100
AcDbSymbolTableRecord
100
AcDbLayerTableRecord
  2
0
 70
0
 62
7
  6
Continuous
370
-3
390
13
347
21
  0
LAYER
  5
28
330
1
100
AcDbSymbolTableRecord
100
AcDbLayerTableRecord
  2
Defpoints
 70
0
 62
7
  6
Continuous
290
0
370
-3
390
13
347
21
  0
ENDTAB
  0
TABLE
  2
STYLE
  5
5
330
0
100
AcDbSymbolTable
 70
1
  0
STYLE
  5
29
330
5
100
AcDbSymbolTableRecord
100
AcDbTextStyleTableRecord
  2
Standard
 70
0
 40
0.0
 41
1.0
 50
0.0
 71
0
 42
2.5
  3
txt
  4

  0
ENDTAB
  0
TABLE
  2
VIEW
  5
7
330
0
100
AcDbSymbolTable
 70
0
  0
ENDTAB
  0
TABLE
  2
UCS
  5
6
330
0
100
AcDbSymbolTable
 70
0
  0
ENDTAB
  0
TABLE
  2
APPID
  5
3
330
0
100
AcDbSymbolTable
 70
3
  0
APPID
  5
2A
330
3
100
AcDbSymbolTableRecord
100
AcDbRegAppTableRecord
  2
ACAD
 70
0
  0
APPID
  5
39
330
3
100
AcDbSymbolTableRecord
100
AcDbRegAppTableRecord
  2
HATCHBACKGROUNDCOLOR
 70
0
  0
APPID
  5
3A
330
3
100
AcDbSymbolTableRecord
100
AcDbRegAppTableRecord
  2
EZDXF
 70
0
  0
ENDTAB
  0
TABLE
  2
DIMSTYLE
  5
4
330
0
100
AcDbSymbolTable
 70
1
100
AcDbDimStyleTable
  0
DIMSTYLE
105
2B
330
4
100
AcDbSymbolTableRecord
100
AcDbDimStyleTableRecord
  2
Standard
 70
0
 40
1.0
 41
2.5
 42
0.625
 43
3.75
 44
1.25
 45
0.0
 46
0.0
 47
0.0
 48
0.0
 49
2.5
140
2.5
141
2.5
142
0.0
143
0.03937007874
144
1.0
145
0.0
146
1.0
147
0.625
148
0.0
 69
0
 70
0
 71
0
 72
0
 73
0
 74
0
 75
0
 76
0
 77
1
 78
8
 79
3
170
0
171
3
172
1
173
0
174
0
175
0
176
0
177
0
178
0
179
2
271
2
272
2
273
2
274
3
275
0
276
0
277
2
278
44
279
0
280
0
281
0
282
0
283
0
284
8
285
0
286
0
288
0
289
3
290
0
371
-2
372
-2
  0
ENDTAB
  0
TABLE
  2
BLOCK_RECORD
  5
9
330
0
100
AcDbSymbolTable
 70
2
  0
BLOCK_RECORD
  5
17
330
9
100
AcDbSymbolTableRecord
100
AcDbBlockTableRecord
  2
*Model_Space
340
1A
 70
0
280
1
281
0
  0
BLOCK_RECORD
  5
1B
330
9
100
AcDbSymbolTableRecord
100
AcDbBlockTableRecord
  2
*Paper_Space
340
1E
 70
0
280
1
281
0
  0
ENDTAB
  0
ENDSEC
  0
SECTION
  2
BLOCKS
  0
BLOCK
  5
18
330
17
100
AcDbEntity
  8
0
100
AcDbBlockBegin
  2
*Model_Space
 70
0
 10
0.0
 20
0.0
 30
0.0
  3
*Model_Space
  1

  0
ENDBLK
  5
19
330
17
100
AcDbEntity
  8
0
100
AcDbBlockEnd
  0
BLOCK
  5
1C
330
1B
100
AcDbEntity
  8
0
100
AcDbBlockBegin
  2
*Paper_Space
 70
0
 10
0.0
 20
0.0
 30
0.0
  3
*Paper_Space
  1

  0
ENDBLK
  5
1D
330
1B
100
AcDbEntity
  8
0
100
AcDbBlockEnd
  0
ENDSEC
  0
SECTION
  2
ENTITIES
  0
LWPOLYLINE
  5
2F
330
17
100
AcDbEntity
  8
0
100
AcDbPolyline
 90
13
 70
0
 10
34.46978020164168
 20
-23.059345064017815
 10
34.43829453434531
 20
-23.10634136977583
 10
33.93494297619692
 20
-23.85765667485869
 10
33.90719540852309
 20
-23.863140513677067
 10
22.455747692350783
 20
-16.19112317023357
 10
22.450263853532405
 20
-16.163375602559736
 10
22.953615411680797
 20
-15.41206029747689
 10
22.98510107897718
 20
-15.365063991718866
 10
23.488452637125572
 20
-14.613748686636015
 10
23.516200204799407
 20
-14.608264847817637
 10
34.96764792097169
 20
-22.280282191261126
 10
34.97313175979008
 20
-22.30802975893496
 10
34.46978020164168
 20
-23.059345064017815
  0
LWPOLYLINE
  5
30
330
17
100
AcDbEntity
  8
0
100
AcDbPolyline
 90
13
 70
0
 10
4.894754198489057
 20
-37.944652496599275
 10
4.876925045218991
 20
-37.96660975721331
 10
3.977410253617052
 20
-38.05994045115412
 10
3.9211437675039744
 20
-38.065778476546896
 10
3.0216289759020323
 20
-38.159109170487696
 10
2.999671715288
 20
-38.14128001721763
 10
1.6873741524451302
 20
-25.493446609818232
 10
1.7052033057151952
 20
-25.4714893492042
 10
2.6047180973171327
 20
-25.37815865526339
 10
2.660984583430216
 20
-25.37232062987062
 10
3.5604993750321534
 20
-25.27898993592981
 10
3.5824566356461855
 20
-25.296819089199875
 10
4.894754198489057
 20
-37.944652496599275
  0
LWPOLYLINE
  5
31
330
17
100
AcDbEntity
  8
0
100
AcDbPolyline
 90
7
 70
0
 10
-26.09593398211451
 20
-27.398781389386127
 10
-9.766910006019447
 20
-17.74651388351656
 10
-9.727719368991579
 20
-17.772268847919083
 10
-11.977425118705591
 20
-35.55220138598156
 10
-12.017898573538755
 20
-35.57228816811705
 10
-26.095696883589348
 20
-27.44489945303633
 10
-26.09593398211451
 20
-27.398781389386127
  0
LWPOLYLINE
  5
32
330
17
100
AcDbEntity
  8
0
100
AcDbPolyline
 90
5
 70
0
 10
91.39240021457013
 20
-85.864317874853
 10
-73.5112943188738
 20
-85.864317874853
 10
-73.5112943188738
 20
59.039376658590925
 10
91.39240021457013
 20
59.039376658590925
 10
91.39240021457013
 20
-85.864317874853
  0
LWPOLYLINE
  5
33
330
17
100
AcDbEntity
  8
0
100
AcDbPolyline
 90
46
 70
0
 10
-51.274661243870604
 20
-22.57446368922625
 10
-51.269678339658334
 20
-22.582314701439884
 10
-51.27037526857078
 20
-22.58527591680777
 10
-51.266283924519925
 20
-22.602646665394015
 10
-50.65202302067875
 20
-23.34120455441495
 10
-21.77543751747001
 20
-58.06102783800243
 10
-21.763776791883533
 20
-58.06789069746031
 10
5.604142620694271
 20
-63.24299098484019
 10
6.551064985301179
 20
-63.422048008771334
 10
6.557511922587465
 20
-63.420205463047814
 10
6.557697637395111
 20
-63.421757514098005
 10
6.5792770964233975
 20
-63.41917536637673
 10
6.581003782233137
 20
-63.41896875518119
 10
6.600619993579671
 20
-63.41662152509715
 10
6.607059603080885
 20
-63.4147153844762
 10
7.492337449656209
 20
-62.97998072767582
 10
56.426178836780394
 20
-38.94996933221309
 10
57.38379420790155
 20
-38.479711783894665
 10
57.391463925627455
 20
-38.4730833343143
 10
57.40231676811614
 20
-38.457283368362376
 10
57.41338150815716
 20
-38.44117491418574
 10
57.41174400267012
 20
-38.44005012764004
 10
57.41783300437785
 20
-38.431605803212236
 10
57.53458860676911
 20
-37.39924047680523
 10
65.90477923340664
 20
36.61086611662105
 10
66.03333947439772
 20
37.74760930012109
 10
66.02445767497639
 20
37.76656575827262
 10
66.01681927353994
 20
37.77159048479724
 10
66.0165800395634
 20
37.772373115420244
 10
66.0146662242938
 20
37.77863397543005
 10
66.01390793358944
 20
37.77895066991139
 10
66.00620028233183
 20
37.78049553208771
 10
64.11255554001244
 20
37.78049553208771
 10
-16.646990649261056
 20
37.78049553208771
 10
-17.66596012257298
 20
37.78049553208771
 10
-17.67895265248036
 20
37.77336009027367
 10
-17.692327657871406
 20
37.76631480814843
 10
-17.705932130093277
 20
37.75914865440376
 10
-17.714088130844196
 20
37.751177470342334
 10
-18.269539328039667
 20
36.75286653484237
 10
-50.51303342516606
 20
-21.198278261344228
 10
-51.27199921199431
 20
-22.56236541875177
 10
-51.26853633220094
 20
-22.56429213382478
 10
-51.275203593221484
 20
-22.56732760919976
 10
-51.276200660334624
 20
-22.572038200606354
 10
-51.274661243870604
 20
-22.57446368922625
  0
LWPOLYLINE
  5
34
330
17
100
AcDbEntity
  8
0
100
AcDbPolyline
 90
13
 70
0
 10
-20.920241342620116
 20
-8.169593251550744
 10
-20.893877990363176
 20
-8.179838916867189
 10
-20.5294797851965
 20
-9.007517252220639
 10
-20.50668593373117
 20
-9.059290221378074
 10
-20.142287728564497
 20
-9.886968556731526
 10
-20.15253339388094
 20
-9.913331908988464
 10
-30.374965806039473
 20
-14.413916090447652
 10
-30.401329158296413
 20
-14.403670425131207
 10
-30.76572736346309
 20
-13.575992089777754
 10
-30.78852121492842
 20
-13.524219120620321
 10
-31.152919420095092
 20
-12.696540785266869
 10
-31.14267375477865
 20
-12.67017743300993
 10
-20.920241342620116
 20
-8.169593251550744
  0
LWPOLYLINE
  5
35
330
17
100
AcDbEntity
  8
0
100
AcDbPolyline
 90
1560
 70
0
 10
42.038579697700094
 20
1.1999244686900814
 10
42.05849746092944
 20
1.199883898992023
 10
42.07837393159495
 20
1.1997632505016627
 10
42.09824975421448
 20
1.1995624420674431
 10
42.11812460534454
 20
1.1992814769564961
 10
42.13799816172436
 20
1.1989203597386646
 10
42.1578701001151
 20
1.1984790962874474
 10
42.177740097303136
 20
1.1979576937799004
 10
42.19760783010747
 20
1.1973561606965304
 10
42.217472975383245
 20
1.1966745068211497
 10
42.23733521002794
 20
1.1959127432407226
 10
42.25719421098639
 20
1.1950708823451852
 10
42.27704965525579
 20
1.1941489378272254
 10
42.296901219891666
 20
1.1931469246820767
 10
42.31674858201197
 20
1.1920648592073049
 10
42.336591418804005
 20
1.1909027590024397
 10
42.3564294075275
 20
1.1896606429688599
 10
42.37626222552149
 20
1.1883385313093064
 10
42.39608955020994
 20
1.1869364455276339
 10
42.41591105910468
 20
1.1854544084285163
 10
42.43572642981351
 20
1.183892444116957
 10
42.45553534004293
 20
1.1822505779980323
 10
42.475337467605314
 20
1.1805288367763134
 10
42.49513249042316
 20
1.17872724845559
 10
42.514920086533984
 20
1.1768458423383583
 10
42.534699934097624
 20
1.1748846490252083
 10
42.55447171139723
 20
1.1728437004147185
 10
42.574235096850366
 20
1.170723029702339
 10
42.59398976900869
 20
1.1685226713804542
 10
42.61373540656699
 20
1.1662426612373762
 10
42.6334716883661
 20
1.1638830363570658
 10
42.6531982933998
 20
1.1614438351182788
 10
42.67291490081858
 20
1.1589250971941725
 10
42.6926211899354
 20
1.1563268635515658
 10
42.71231684023259
 20
1.1536491764500516
 10
42.73200153136345
 20
1.1508920794417827
 10
42.75167494316104
 20
1.1480556173703194
 10
42.77133675564078
 20
1.1451398363702063
 10
42.79098664900758
 20
1.1421447838659866
 10
42.810624303659736
 20
1.1390705085716197
 10
42.83024940019585
 20
1.135917060489399
 10
42.84986161941548
 20
1.1326844909098637
 10
42.869460642332434
 20
1.129372852409685
 10
42.88904615017074
 20
1.125982198852288
 10
42.908617824376535
 20
1.1225125853859355
 10
42.928175346621124
 20
1.1189640684430087
 10
42.94771839880439
 20
1.1153367057396446
 10
42.96724666306385
 20
1.1116305562739144
 10
42.98675982177458
 20
1.1078456803258923
 10
43.006257557560666
 20
1.1039821394554834
 10
43.02573955329446
 20
1.100039996502619
 10
43.045205492105794
 20
1.096019315585308
 10
43.064655057384556
 20
1.0919201620992585
 10
43.08408793278683
 20
1.0877426027164647
 10
43.103503802243466
 20
1.0834867053835888
 10
43.122902349956455
 20
1.0791525393224917
 10
43.14228326041423
 20
1.0747401750271386
 10
43.1616462183886
 20
1.0702496842640754
 10
43.1809909089472
 20
1.0656811400697075
 10
43.20031701745007
 20
1.0610346167511058
 10
43.219624229563756
 20
1.0563101898825284
 10
43.23891223125917
 20
1.0515079363061977
 10
43.25818070882246
 20
1.0466279341293558
 10
43.27742934885437
 20
1.0416702627245746
 10
43.29665783828001
 20
1.0366350027273277
 10
43.3158658643512
 20
1.0315222360352498
 10
43.335053114655715
 20
1.0263320458058582
 10
43.354219277114524
 20
1.0210645164571328
 10
43.373364039994
 20
1.015719733664317
 10
43.39248709190979
 20
1.0102977843588778
 10
43.41158812182796
 20
1.0047987567281254
 10
43.43066681907564
 20
0.9992227402121431
 10
43.449722873340164
 20
0.9935698255041951
 10
43.46875597467949
 20
0.9878401045475248
 10
43.48776581352343
 20
0.9820336705350694
 10
43.506752080681984
 20
0.9761506179070124
 10
43.5257144673466
 20
0.9701910423501798
 10
43.54465266509822
 20
0.9641550407957635
 10
43.563566365910155
 20
0.9580427114183777
 10
43.58245526215599
 20
0.9518541536334646
 10
43.60131904661037
 20
0.9455894680970443
 10
43.62015741245897
 20
0.9392487567025536
 10
43.63897005329976
 20
0.9328321225803157
 10
43.65775666314681
 20
0.9263396700962799
 10
43.6765169364427
 20
0.9197715048479111
 10
43.6952505680518
 20
0.9131277336663043
 10
43.713957253279524
 20
0.9064084646095798
 10
43.73263668786282
 20
0.8996138069662011
 10
43.751288567984105
 20
0.8927438712500702
 10
43.769912590277
 20
0.8857987691983323
 10
43.788508451822345
 20
0.8787786137727911
 10
43.80707585016381
 20
0.8716835191542848
 10
43.8256144833073
 20
0.8645136007428111
 10
43.844124049724016
 20
0.8572689751561727
 10
43.86260424836059
 20
0.849949760226509
 10
43.88105477863993
 20
0.8425560749993888
 10
43.89947534046877
 20
0.8350880397313234
 10
43.91786563423891
 20
0.827545775888958
 10
43.93622536083665
 20
0.8199294061454401
 10
43.954554221645495
 20
0.8122390543791939
 10
43.97285191854914
 20
0.80447484567263
 10
43.99111815394156
 20
0.7966369063081193
 10
44.009352630721935
 20
0.7887253637698907
 10
44.02755505231383
 20
0.7807403467360139
 10
44.045725122657394
 20
0.7726819850816977
 10
44.063862546219674
 20
0.7645504098747875
 10
44.081967027999774
 20
0.7563457533734128
 10
44.100038273531894
 20
0.7480681490246474
 10
44.11807598889085
 20
0.7397177314620638
 10
44.136079880696826
 20
0.7312946365035847
 10
44.154049656119014
 20
0.7227990011496077
 10
44.171985022884996
 20
0.7142309635788773
 10
44.18988568927868
 20
0.705590663149197
 10
44.20775136414909
 20
0.6968782403935465
 10
44.22558175691432
 20
0.6880938370177045
 10
44.243376577565925
 20
0.6792375958986925
 10
44.26113553667799
 20
0.6703096610798818
 10
44.27885834540172
 20
0.6613101777737113
 10
44.29654471547963
 20
0.652239292354775
 10
44.314194359247615
 20
0.6430971523586082
 10
44.33180698963682
 20
0.633883906480781
 10
44.34938232018153
 20
0.6245997045727656
 10
44.36692006502288
 20
0.6152446976400856
 10
44.384419938912835
 20
0.6058190378401395
 10
44.40188165722067
 20
0.5963228784787176
 10
44.41930493593204
 20
0.5867563740105686
 10
44.436689491663
 20
0.5771196800317718
 10
44.454035041658635
 20
0.5674129532804498
 10
44.47134130379388
 20
0.5576363516363091
 10
44.48860799658876
 20
0.5477900341122514
 10
44.505834839202684
 20
0.5378741608572968
 10
44.52302155144302
 20
0.5278888931521002
 10
44.54016785377482
 20
0.5178343934029673
 10
44.55727346731516
 20
0.5077108251453029
 10
44.57433811384328
 20
0.4975183530377908
 10
44.591361515808416
 20
0.4872571428575433
 10
44.60834339632809
 20
0.4769273615013108
 10
44.62528347919536
 20
0.4665291769808826
 10
44.642181488881164
 20
0.45606275842186933
 10
44.65903715054521
 20
0.4455282760570179
 10
44.67585019003337
 20
0.4349259012276502
 10
44.69262033388287
 20
0.4242558063805328
 10
44.70934730933502
 20
0.41351816505992156
 10
44.72603084432398
 20
0.40271315191455925
 10
44.74267066749856
 20
0.3918409426836915
 10
44.759266508213926
 20
0.3809017142026236
 10
44.77581809654394
 20
0.3698956443944922
 10
44.79232516327793
 20
0.35882291227239216
 10
44.808787439934285
 20
0.3476836979304089
 10
44.82520465875417
 20
0.3364781825477541
 10
44.841576552718294
 20
0.32520654837761387
 10
44.857902855540225
 20
0.31386897875136954
 10
44.8741833016755
 20
0.30246565807258186
 10
44.89041762632449
 20
0.29099677181504663
 10
44.90660556544177
 20
0.2794625065160786
 10
44.92274685573077
 20
0.2678630497802135
 10
44.938841234661375
 20
0.25619859026704345
 10
44.9548884404581
 20
0.2444693176991497
 10
44.97088821211613
 20
0.2326754228510286
 10
44.98684028940352
 20
0.22081709754713813
 10
45.00274441286519
 20
0.208894534659152
 10
45.018600323820294
 20
0.19690792810778585
 10
45.03440776437564
 20
0.18485747285264573
 10
45.050166477429364
 20
0.17274336488980346
 10
45.065876206669124
 20
0.16056580125280803
 10
45.08153669657385
 20
0.14832498001144412
 10
45.09714769243642
 20
0.13602110025440933
 10
45.112708940341676
 20
0.12365436210599595
 10
45.12822018719315
 20
0.11122496670555203
 10
45.14368118069878
 20
0.09873311621850986
 10
45.15909166939253
 20
0.0861790138190217
 10
45.17445140262463
 20
0.07356286369819652
 10
45.189760130571656
 20
0.06088487105552989
 10
45.20501760424203
 20
0.04814524209445772
 10
45.22022357547356
 20
0.03534418402457591
 10
45.23537779694792
 20
0.022481905049406878
 10
45.250480022178806
 20
0.009558614376307461
 10
45.26553000553703
 20
-0.0034254778046027513
 10
45.280527502235245
 20
-0.016470160307674866
 10
45.29547226834352
 20
-0.029575220964932435
 10
45.31036406078702
 20
-0.0427404466240996
 10
45.32520263735409
 20
-0.055965623155740184
 10
45.33998775669845
 20
-0.06925053545522936
 10
45.35471917834326
 20
-0.0825949674462614
 10
45.369396662683485
 20
-0.09599870208294897
 10
45.38401997099649
 20
-0.10946152135965971
 10
45.39858886543402
 20
-0.12298320630360057
 10
45.413103109034616
 20
-0.1365635369860183
 10
45.42756246573182
 20
-0.15020229253001632
 10
45.44196670034411
 20
-0.16389925110115905
 10
45.45631557858843
 20
-0.17765418992014823
 10
45.47060886708599
 20
-0.1914668852684525
 10
45.48484633335704
 20
-0.20533711248295125
 10
45.49902774583468
 20
-0.21926464596999276
 10
45.51315287385728
 20
-0.23324925919718406
 10
45.52722148768702
 20
-0.24729072471209423
 10
45.54123335849701
 20
-0.26138881412947595
 10
45.55518825838773
 20
-0.27554329814734824
 10
45.569085960387895
 20
-0.2897539465484156
 10
45.5829262384531
 20
-0.30402052819805997
 10
45.596708867470625
 20
-0.3183428110500061
 10
45.61043362327572
 20
-0.33272056216213775
 10
45.624100282629975
 20
-0.3471535476748429
 10
45.637708623255854
 20
-0.3616415328470691
 10
45.651258423809196
 20
-0.37618428202682014
 10
45.664749463911186
 20
-0.3907815586856976
 10
45.67818152412999
 20
-0.40543312539880444
 10
45.69155438599359
 20
-0.42013874385892497
 10
45.70486783200179
 20
-0.43489817488961097
 10
45.718121645605414
 20
-0.4497111784220449
 10
45.73131561124315
 20
-0.46457751353594073
 10
45.744449514309416
 20
-0.47949693842409413
 10
45.757523141189694
 20
-0.49446921043160563
 10
45.770536279241895
 20
-0.5094940860348822
 10
45.783488716808904
 20
-0.5245713208561485
 10
45.79638024322382
 20
-0.5397006696695962
 10
45.809210648808445
 20
-0.5548818863990321
 10
45.821979724877714
 20
-0.5701147241238579
 10
45.83468726374644
 20
-0.5853989350864786
 10
45.84733305872814
 20
-0.6007342706911902
 10
45.85991690414258
 20
-0.6161204815132608
 10
45.87243859531382
 20
-0.6315573172962995
 10
45.88489792858215
 20
-0.647044526966905
 10
45.897294701296005
 20
-0.6625818586250956
 10
45.90962871182747
 20
-0.6781690595632658
 10
45.921899759564276
 20
-0.6938058762559913
 10
45.93410764491977
 20
-0.7094920543729885
 10
45.94625216933837
 20
-0.7252273387857614
 10
45.958333135288235
 20
-0.7410114735585597
 10
45.970350346276874
 20
-0.75684420196814
 10
45.98230360684595
 20
-0.7727252664972535
 10
45.9941927225794
 20
-0.7886544088452742
 10
46.00601750010098
 20
-0.8046313699251912
 10
46.0177777470859
 20
-0.8206558898786764
 10
46.029473272253746
 20
-0.8367277080668203
 10
46.04110388537925
 20
-0.8528465630850728
 10
46.052669397295766
 20
-0.8690121927672507
 10
46.06416961988871
 20
-0.8852243341775776
 10
46.07560436611192
 20
-0.9014827236325069
 10
46.08697344997972
 20
-0.917787096689789
 10
46.09827668657888
 20
-0.9341371881661473
 10
46.10951389206099
 20
-0.9505327321252192
 10
46.1206848836575
 20
-0.9669734619003675
 10
46.131789479675724
 20
-0.9834591100882302
 10
46.14282749949955
 20
-0.9999894085498623
 10
46.1537987635973
 20
-1.0165640884226999
 10
46.164703093525574
 20
-1.0331828801257552
 10
46.17554031192692
 20
-1.0498455133568427
 10
46.18631024253454
 20
-1.066551717098889
 10
46.19701271018058
 20
-1.0833012196333822
 10
46.207647540789566
 20
-1.1000937485299624
 10
46.218214561389104
 20
-1.1169290306630957
 10
46.22871360010768
 20
-1.1338067922087671
 10
46.239144486181296
 20
-1.1507267586543937
 10
46.24950704995501
 20
-1.1676886548027468
 10
46.259801122880376
 20
-1.184692204765996
 10
46.27002653753083
 20
-1.20173713199232
 10
46.280183127588
 20
-1.2188231592428045
 10
46.29027072785904
 20
-1.2359500086199706
 10
46.3002891742715
 20
-1.2531174015595923
 10
46.31023830387568
 20
-1.2703250588344734
 10
46.320117954853416
 20
-1.2875727005701598
 10
46.329927966512706
 20
-1.3048600462341864
 10
46.33966817929422
 20
-1.3221868146490294
 10
46.349338434780094
 20
-1.339552724006577
 10
46.35893857567927
 20
-1.3569574918427554
 10
46.36846844585266
 20
-1.374400835081866
 10
46.37792789029587
 20
-1.3918824700058412
 10
46.38731675515555
 20
-1.4094021122846971
 10
46.396634887719884
 20
-1.4269594769573573
 10
46.40588213643505
 20
-1.4445542784641694
 10
46.41505835089449
 20
-1.4621862306253963
 10
46.424163381849354
 20
-1.4798550466617786
 10
46.433197081209144
 20
-1.4975604391956252
 10
46.442159302040324
 20
-1.51530212024777
 10
46.45104989857655
 20
-1.5330798012582383
 10
46.45986872621192
 20
-1.5508931930720877
 10
46.46861564151185
 20
-1.5687420059618407
 10
46.47729050220904
 20
-1.5866259496194275
 10
46.48589316720825
 20
-1.6045447331652025
 10
46.494423496588055
 20
-1.622498065152103
 10
46.50288135160754
 20
-1.6404856535793209
 10
46.511266594696195
 20
-1.658507205871588
 10
46.51957908947533
 20
-1.6765624289237697
 10
46.52781870074065
 20
-1.6946510290642682
 10
46.53598529447673
 20
-1.7127727120861136
 10
46.54407873785692
 20
-1.7309271832470314
 10
46.55209889924136
 20
-1.7491141472642122
 10
46.56004564818507
 20
-1.767333308333272
 10
46.56791885543496
 20
-1.785584370121741
 10
46.57571839293573
 20
-1.8038670357815563
 10
46.58344413382965
 20
-1.8221810079489218
 10
46.591095952456755
 20
-1.840525988745875
 10
46.59867372436436
 20
-1.8589016798004485
 10
46.60617732630121
 20
-1.8773077822355166
 10
46.613606636221725
 20
-1.895743996677117
 10
46.62096153329013
 20
-1.9142100232646257
 10
46.62824189788111
 20
-1.9327055616535338
 10
46.635447611579785
 20
-1.9512303110148992
 10
46.64257855718779
 20
-1.9697839700496027
 10
46.64963461872111
 20
-1.9883662369850907
 10
46.656615681414685
 20
-2.0069768095851734
 10
46.663521631722844
 20
-2.0256153851525243
 10
46.67035235732164
 20
-2.044281660534232
 10
46.67710774711043
 20
-2.06297533212644
 10
46.683787691214796
 20
-2.081696095881919
 10
46.690392080987124
 20
-2.1004436473124906
 10
46.69692080900648
 20
-2.119217681487285
 10
46.70337376908716
 20
-2.138017893058681
 10
46.70975085627065
 20
-2.1568439762377563
 10
46.716051966835664
 20
-2.1756956248242916
 10
46.72227699829658
 20
-2.194572532202025
 10
46.7284258494041
 20
-2.2134743913409447
 10
46.73449842014826
 20
-2.232400894805186
 10
46.74049461176018
 20
-2.251351734760204
 10
46.746414326712454
 20
-2.2703266029723905
 10
46.7522574687238
 20
-2.2893251908246253
 10
46.75802394275369
 20
-2.3083471892992296
 10
46.76371365501494
 20
-2.3273922890182535
 10
46.76932651296285
 20
-2.3464601802081164
 10
46.774862425307255
 20
-2.3655505527394385
 10
46.780321302006676
 20
-2.384663096107651
 10
46.7857030542743
 20
-2.40379749945404
 10
46.791007594575156
 20
-2.422953451554512
 10
46.79623483663533
 20
-2.442130640853381
 10
46.80138469543206
 20
-2.4613287554280636
 10
46.80645708720455
 20
-2.48054748302689
 10
46.811451929451344
 20
-2.4997865110609783
 10
46.81636914093313
 20
-2.5190455266148395
 10
46.821208641672115
 20
-2.5383242164433235
 10
46.8259703529538
 20
-2.5576222669777913
 10
46.8306541973311
 20
-2.5769393643444323
 10
46.835260098622065
 20
-2.5962751943538285
 10
46.839787981912316
 20
-2.6156294425116173
 10
46.84423777355687
 20
-2.6350017940252743
 10
46.84860940118018
 20
-2.6543919338044284
 10
46.852902793680435
 20
-2.6737995464808844
 10
46.85711788122434
 20
-2.6932243163838665
 10
46.86125459525508
 20
-2.7126659275771074
 10
46.865312868490946
 20
-2.732124063851488
 10
46.86929263492363
 20
-2.7515984087184813
 10
46.87319382982258
 20
-2.7710886454295522
 10
46.877016389737946
 20
-2.790594456990994
 10
46.88076025249399
 20
-2.8101155261319812
 10
46.8844253571995
 20
-2.8296515353564025
 10
46.8880116442405
 20
-2.8492021669055725
 10
46.8915190552889
 20
-2.8687671028039134
 10
46.89494753329529
 20
-2.8883460248201094
 10
46.89829702249739
 20
-2.9079386145138693
 10
46.90156746841604
 20
-2.9275445532132345
 10
46.90475881785857
 20
-2.947163522035003
 10
46.90787101891789
 20
-2.96679520187777
 10
46.91090402097419
 20
-2.9864392734331453
 10
46.913857774697576
 20
-3.0060954172020122
 10
46.91673223204473
 20
-3.0257633134741173
 10
46.91952734626353
 20
-3.0454426423573264
 10
46.9222430718921
 20
-3.0651330837724564
 10
46.924879364759796
 20
-3.0848343174580446
 10
46.92743618198784
 20
-3.104546022978616
 10
46.929913481989935
 20
-3.1242678797251675
 10
46.93231122447354
 20
-3.1439995669279206
 10
46.934629370439495
 20
-3.1637407636523194
 10
46.936867882183655
 20
-3.1834911488114557
 10
46.93902672329783
 20
-3.2032504011754375
 10
46.941105858667584
 20
-3.223018199353489
 10
46.9431052544775
 20
-3.242794221837141
 10
46.94502487820716
 20
-3.262578146967971
 10
46.94686469863455
 20
-3.2823696529663575
 10
46.94862468583479
 20
-3.3021684179229074
 10
46.950304811182974
 20
-3.3219741198228396
 10
46.95190504735127
 20
-3.3417864365216383
 10
46.95342536831254
 20
-3.361605045779777
 10
46.95486574933948
 20
-3.3814296252573652
 10
46.95622616700381
 20
-3.4012598525000013
 10
46.95750659917936
 20
-3.421095404984272
 10
46.9587070250396
 20
-3.44093596008093
 10
46.959827425060276
 20
-3.4607811950933716
 10
46.96086778101793
 20
-3.480630787237399
 10
46.96182807599157
 20
-3.500484413665343
 10
46.96270829436225
 20
-3.520341751467075
 10
46.96350842181322
 20
-3.5402024776575476
 10
46.964228445330654
 20
-3.560066269211235
 10
46.96486835320374
 20
-3.5799328030528343
 10
46.96542813502414
 20
-3.5998017560484046
 10
46.9659077816872
 20
-3.6196728050339915
 10
46.9663072853919
 20
-3.6395456268205666
 10
46.96662663963997
 20
-3.6594198981692347
 10
46.96686583923728
 20
-3.679295295835308
 10
46.9670248802935
 20
-3.6991714965487343
 10
46.96710376022162
 20
-3.71904817702287
 10
46.96710247773887
 20
-3.738925013977491
 10
46.967021032865944
 20
-3.758801684108835
 10
46.9668594269276
 20
-3.778677864134744
 10
46.96661766255239
 20
-3.798553230765798
 10
46.966295743672404
 20
-3.818427460741571
 10
46.9658936755237
 20
-3.838300230805796
 10
46.965411464645804
 20
-3.858171217734017
 10
46.9648491188818
 20
-3.8780400983280487
 10
46.96420664737812
 20
-3.8979065494257275
 10
46.96348406058446
 20
-3.917770247902107
 10
46.962681370253605
 20
-3.937630870676608
 10
46.96179858944078
 20
-3.957488094726151
 10
46.96083573250472
 20
-3.9773415970710464
 10
46.95979281510578
 20
-3.997191054800733
 10
46.95866985420711
 20
-4.0170361450628596
 10
46.95746686807299
 20
-4.036876545092327
 10
46.956183876270124
 20
-4.056711932178029
 10
46.954820899665975
 20
-4.076541983705825
 10
46.95337796042912
 20
-4.096366377143489
 10
46.95185508202861
 20
-4.116184790052544
 10
46.95025228923378
 20
-4.135996900089129
 10
46.94856960811384
 20
-4.155802385011428
 10
46.94680706603686
 20
-4.175600922694456
 10
46.94496469167083
 20
-4.195392191109188
 10
46.94304251498143
 20
-4.215175868358793
 10
46.94104056723166
 20
-4.234951632672651
 10
46.93895888098404
 20
-4.254719162390725
 10
46.93679749009636
 20
-4.274478136001014
 10
46.93455642972234
 20
-4.294228232137079
 10
46.932235736313636
 20
-4.313969129555771
 10
46.929835447614984
 20
-4.333700507181869
 10
46.92735560266733
 20
-4.353422044083761
 10
46.92479624180399
 20
-4.373133419501317
 10
46.922157406653
 20
-4.3928343128286835
 10
46.91943914013419
 20
-4.412524403636176
 10
46.91664148646022
 20
-4.432203371665178
 10
46.913764491133556
 20
-4.451870896846256
 10
46.91080820094831
 20
-4.4715266592884335
 10
46.90777266398822
 20
-4.491170339293669
 10
46.90465792962513
 20
-4.510801617364757
 10
46.90146404851976
 20
-4.530420174201055
 10
46.89819107262017
 20
-4.550025690710248
 10
46.894839055160425
 20
-4.5696178480132446
 10
46.89140805066035
 20
-4.58919632744818
 10
46.88789811492502
 20
-4.6087608105723765
 10
46.88430930504236
 20
-4.628310979175604
 10
46.8806416793834
 20
-4.647846515280385
 10
46.876895297601635
 20
-4.667367101142916
 10
46.873070220631924
 20
-4.686872419261597
 10
46.869166510686625
 20
-4.706362152395079
 10
46.86518423126052
 20
-4.725835983537667
 10
46.8611234471238
 20
-4.745293595955915
 10
46.85698422432457
 20
-4.764734673173965
 10
46.8527666301857
 20
-4.784158898990563
 10
46.848470733306456
 20
-4.803565957469895
 10
46.84409660355817
 20
-4.822955532962513
 10
46.83964431208541
 20
-4.842327310100434
 10
46.83511393130372
 20
-4.861680973805318
 10
46.83050553489917
 20
-4.8810162092926275
 10
46.82581919782518
 20
-4.900332702083811
 10
46.82105499630574
 20
-4.919630137992568
 10
46.81621300782817
 20
-4.938908203156793
 10
46.811293311147864
 20
-4.958166584016193
 10
46.806295986281164
 20
-4.977404967343736
 10
46.80122111450967
 20
-4.996623040226331
 10
46.796068778374334
 20
-5.015820490088832
 10
46.79083906167773
 20
-5.034997004685794
 10
46.78553204947932
 20
-5.054152272117403
 10
46.78014782809743
 20
-5.0732859808248
 10
46.7746864851043
 20
-5.092397819605314
 10
46.76914810932829
 20
-5.111487477606495
 10
46.76353279085
 20
-5.130554644338639
 10
46.75784062100079
 20
-5.149599009680373
 10
46.752071692363764
 20
-5.168620263875399
 10
46.74622609876786
 20
-5.187618097551613
 10
46.74030393529152
 20
-5.206592201709734
 10
46.73430529825715
 20
-5.22554226774104
 10
46.728230285232115
 20
-5.244467987424302
 10
46.722078995024674
 20
-5.263369052938389
 10
46.7158515276829
 20
-5.282245156865692
 10
46.70954798449897
 20
-5.301095992178836
 10
46.703168467993905
 20
-5.319921252287414
 10
46.69671308193338
 20
-5.338720630989951
 10
46.69018193131176
 20
-5.357493822521956
 10
46.68357512235539
 20
-5.376240521545819
 10
46.67689276252383
 20
-5.394960423146782
 10
46.670134960504775
 20
-5.413653222848074
 10
46.66330182621176
 20
-5.432318616617258
 10
46.65639347078429
 20
-5.450956300865401
 10
46.649410006585605
 20
-5.469565972454109
 10
46.642351547200676
 20
-5.488147328699356
 10
46.63521820743335
 20
-5.506700067381352
 10
46.62801010330598
 20
-5.525223886742807
 10
46.620727352057465
 20
-5.543718485496743
 10
46.613370072139226
 20
-5.56218356283441
 10
46.60593838321728
 20
-5.580618818422013
 10
46.598432406166054
 20
-5.599023952414944
 10
46.59085226306766
 20
-5.617398665460035
 10
46.58319807721326
 20
-5.635742658692405
 10
46.57546997309614
 20
-5.654055633751641
 10
46.56766807640989
 20
-5.6723372927872875
 10
46.559792514055594
 20
-5.690587338439939
 10
46.55184341412422
 20
-5.708805473884718
 10
46.5438209059056
 20
-5.726991402808652
 10
46.53572511988713
 20
-5.745144829414702
 10
46.5275561877443
 20
-5.763265458443064
 10
46.51931424234019
 20
-5.781352995171799
 10
46.51099941773287
 20
-5.799407145400912
 10
46.50261184915767
 20
-5.817427615491236
 10
46.494151673038765
 20
-5.835414112338938
 10
46.485619026978185
 20
-5.8533663433995935
 10
46.47701404975872
 20
-5.8712840166812805
 10
46.468336881336974
 20
-5.889166840760489
 10
46.459587662846545
 20
-5.907014524773837
 10
46.450766536590905
 20
-5.924826778434117
 10
46.44187364604548
 20
-5.942603312025552
 10
46.43290913584972
 20
-5.960343836419435
 10
46.42387315180878
 20
-5.978048063071437
 10
46.41476584089446
 20
-5.995715704019066
 10
46.40558735123242
 20
-6.013346471907729
 10
46.39633783210916
 20
-6.030940079975976
 10
46.38701743396678
 20
-6.048496242066132
 10
46.37762630840137
 20
-6.066014672627796
 10
46.36816460815384
 20
-6.0834950867345166
 10
46.358632487120055
 20
-6.100937200064544
 10
46.34903010033755
 20
-6.118340728926705
 10
46.33935760398457
 20
-6.13570539026054
 10
46.32961515538658
 20
-6.153030901625897
 10
46.319802912998874
 20
-6.170316981233532
 10
46.309921036418785
 20
-6.187563347922773
 10
46.299969686368286
 20
-6.204769721193677
 10
46.28994902470955
 20
-6.221935821178408
 10
46.27985921442265
 20
-6.239061368680395
 10
46.26970041961867
 20
-6.256146085152446
 10
46.25947280552657
 20
-6.273189692717977
 10
46.249176538498084
 20
-6.2901919141633025
 10
46.23881178599871
 20
-6.307152472952654
 10
46.228378716608326
 20
-6.324071093227469
 10
46.217877500020485
 20
-6.340947499806598
 10
46.207308307036385
 20
-6.3577814181970655
 10
46.19667130955697
 20
-6.374572574606571
 10
46.18596668059617
 20
-6.39132069592174
 10
46.17519459425979
 20
-6.408025509742177
 10
46.16435522575373
 20
-6.4246867443673645
 10
46.15344875137867
 20
-6.4413041288047905
 10
46.142475348525885
 20
-6.457877392776614
 10
46.13143519567646
 20
-6.4744062667207505
 10
46.12032847239374
 20
-6.490890481802087
 10
46.10915535933028
 20
-6.507329769902282
 10
46.09791603821188
 20
-6.523723863643618
 10
46.086610691843696
 20
-6.540072496379624
 10
46.07523950410537
 20
-6.556375402202373
 10
46.063802659947214
 20
-6.572632315948085
 10
46.05230034538702
 20
-6.588842973201484
 10
46.04073274750619
 20
-6.605007110301712
 10
46.029100054454155
 20
-6.621124464335468
 10
46.01740245542789
 20
-6.6371947731661685
 10
46.00564014069052
 20
-6.653217775408048
 10
45.9938133015523
 20
-6.669193210452132
 10
45.98192213037495
 20
-6.685120818460345
 10
45.969966820566015
 20
-6.70100034037331
 10
45.957947566575825
 20
-6.716831517914312
 10
45.945864563893664
 20
-6.732614093594394
 10
45.9337180090507
 20
-6.748347810708488
 10
45.921508099605404
 20
-6.764032413354346
 10
45.90923503414952
 20
-6.779667646425184
 10
45.896899012304104
 20
-6.795253255614355
 10
45.8845002347093
 20
-6.810788987428551
 10
45.8720389030297
 20
-6.826274589180963
 10
45.85951521994642
 20
-6.841709809001478
 10
45.84692938915582
 20
-6.857094395837558
 10
45.83428161536344
 20
-6.872428099462931
 10
45.82157210428001
 20
-6.887710670481152
 10
45.808801062627566
 20
-6.90294186031906
 10
45.79596869812128
 20
-6.918121421248321
 10
45.783075219476146
 20
-6.933249106377268
 10
45.77012083640657
 20
-6.948324669651874
 10
45.757105759608535
 20
-6.963347865876412
 10
45.744030200772436
 20
-6.978318450698294
 10
45.73089437256726
 20
-6.993236180626573
 10
45.71769848864547
 20
-7.008100813026571
 10
45.704442763637005
 20
-7.022912106126209
 10
45.69112741314026
 20
-7.03766981902655
 10
45.677752653730344
 20
-7.052373711692236
 10
45.66431870294209
 20
-7.067023544970703
 10
45.65082577927891
 20
-7.081619080582248
 10
45.637274102196336
 20
-7.096160081137752
 10
45.62366389211462
 20
-7.110646310125627
 10
45.609995370396575
 20
-7.125077531934987
 10
45.59626875936041
 20
-7.139453511842443
 10
45.58248428226603
 20
-7.153774016026085
 10
45.56864216331543
 20
-7.1680388115657125
 10
45.55474262764847
 20
-7.182247666446503
 10
45.5407859013353
 20
-7.1964003495676065
 10
45.526772211383545
 20
-7.210496630733866
 10
45.5127017857193
 20
-7.224536280676079
 10
45.49857485319826
 20
-7.23851907103901
 10
45.48439164358938
 20
-7.2524447743982385
 10
45.47015238758131
 20
-7.266313164253254
 10
45.455857316771706
 20
-7.28012401503862
 10
45.441506663669514
 20
-7.2938771021211295
 10
45.42710066168138
 20
-7.307572201813247
 10
45.41263954512017
 20
-7.321209091364984
 10
45.39812354919282
 20
-7.334787548975117
 10
45.38355290999905
 20
-7.348307353793005
 10
45.36892786452679
 20
-7.3617682859221
 10
45.35424865065041
 20
-7.3751701264222715
 10
45.33951550712296
 20
-7.388512657316497
 10
45.324728673578896
 20
-7.401795661588745
 10
45.3098883905186
 20
-7.415018923197569
 10
45.294994899319214
 20
-7.428182227066705
 10
45.28004844222051
 20
-7.441285359097494
 10
45.26504926232359
 20
-7.454328106170208
 10
45.249997603584816
 20
-7.467310256149168
 10
45.23489371081851
 20
-7.480231597880434
 10
45.21973782968571
 20
-7.493091921201638
 10
45.20453020669427
 20
-7.505891016941891
 10
45.189271089191756
 20
-7.518628676927425
 10
45.17396072536586
 20
-7.531304693981844
 10
45.15859936423797
 20
-7.54391886193121
 10
45.143187255653416
 20
-7.556470975611924
 10
45.12772465029021
 20
-7.56896083086372
 10
45.112211799642694
 20
-7.58138822454324
 10
45.096648956027316
 20
-7.5937529545188855
 10
45.081036372566025
 20
-7.606054819684413
 10
45.06537430319824
 20
-7.618293619949495
 10
45.04966300266277
 20
-7.630469156253679
 10
45.03390272649971
 20
-7.642581230565204
 10
45.018093731048886
 20
-7.654629645881935
 10
45.00223627343738
 20
-7.66661420624114
 10
44.98633061158862
 20
-7.678534716712549
 10
44.970377004199506
 20
-7.690390983415649
 10
44.95437571075519
 20
-7.702182813508313
 10
44.93832699151242
 20
-7.713910015199688
 10
44.92223110750027
 20
-7.725572397749262
 10
44.90608832051797
 20
-7.737169771468554
 10
44.88989889311797
 20
-7.748701947733564
 10
44.87366308862676
 20
-7.760168738969462
 10
44.85738117110819
 20
-7.771569958677069
 10
44.841053405389104
 20
-7.782905421414488
 10
44.824680057038265
 20
-7.79417494281213
 10
44.80826139235937
 20
-7.80537833957721
 10
44.791797678404805
 20
-7.816515429484603
 10
44.775289182949024
 20
-7.827586031394825
 10
44.75873617450248
 20
-7.8385899652447595
 10
44.74213892229394
 20
-7.84952705205927
 10
44.72549769627681
 20
-7.860397113947248
 10
44.70881276711552
 20
-7.8711999741105325
 10
44.692084406186645
 20
-7.881935456842989
 10
44.67531288557518
 20
-7.89260338753316
 10
44.6584984780661
 20
-7.9032035926696445
 10
44.641641457141404
 20
-7.913735899842812
 10
44.62474209697825
 20
-7.924200137746032
 10
44.60780067244004
 20
-7.9345961361814314
 10
44.59081745907641
 20
-7.944923726059771
 10
44.57379273311695
 20
-7.955182739404209
 10
44.55672677146405
 20
-7.96537300935471
 10
44.539619851689714
 20
-7.975494370170138
 10
44.52247225204099
 20
-7.985546657224672
 10
44.50528425141265
 20
-7.995529707024386
 10
44.48805612936951
 20
-8.00544335719371
 10
44.47078816612143
 20
-8.015287446490431
 10
44.45348064252755
 20
-8.02506181480279
 10
44.436133840093646
 20
-8.034766303151368
 10
44.41874804095857
 20
-8.044400753696458
 10
44.401323527902306
 20
-8.05396500973378
 10
44.383860584327756
 20
-8.063458915704434
 10
44.36635949426841
 20
-8.07288231719072
 10
44.348820542375535
 20
-8.08223506092319
 10
44.33124401391613
 20
-8.091516994781628
 10
44.313630194769495
 20
-8.10072796779684
 10
44.29597937141971
 20
-8.109867830154872
 10
44.278291830955894
 20
-8.118936433196694
 10
44.26056786105888
 20
-8.127933629425012
 10
44.24280775000925
 20
-8.136859272500335
 10
44.225011786668105
 20
-8.145713217250625
 10
44.20718026048741
 20
-8.15449531966621
 10
44.189313461488496
 20
-8.163205436910326
 10
44.17141168027466
 20
-8.171843427313053
 10
44.15347520801371
 20
-8.18040915037964
 10
44.13550433643835
 20
-8.188902466790545
 10
44.11749935784062
 20
-8.197323238404005
 10
44.09946056507124
 20
-8.205671328256237
 10
44.08138825152183
 20
-8.213946600569942
 10
44.063282711140175
 20
-8.222148920747033
 10
44.04514423840501
 20
-8.230278155380358
 10
44.02697312833932
 20
-8.238334172247557
 10
44.00876967648952
 20
-8.246316840320551
 10
43.99053417892989
 20
-8.254226029763311
 10
43.9722669322608
 20
-8.262061611932914
 10
43.95396823359246
 20
-8.269823459386387
 10
43.93563838055103
 20
-8.27751144587822
 10
43.91727767126669
 20
-8.285125446365365
 10
43.898886404373734
 20
-8.292665337007257
 10
43.88046487900211
 20
-8.30013099516911
 10
43.86201339477213
 20
-8.307522299424408
 10
43.84353225179691
 20
-8.314839129553691
 10
43.82502175066547
 20
-8.322081366551398
 10
43.806482192450346
 20
-8.329248892622822
 10
43.78791387869122
 20
-8.336341591190601
 10
43.76931711139854
 20
-8.343359346893179
 10
43.75069219304507
 20
-8.350302045588098
 10
43.73203942656182
 20
-8.357169574353696
 10
43.71335911533218
 20
-8.363961821490916
 10
43.694651563185495
 20
-8.3706786765261
 10
43.67591707440009
 20
-8.37732003020954
 10
43.65715595368583
 20
-8.383885774522039
 10
43.63836850618875
 20
-8.39037580267293
 10
43.61955503748408
 20
-8.396790009102892
 10
43.60071585356833
 20
-8.403128289486334
 10
43.58185126085788
 20
-8.409390540732138
 10
43.562961566178956
 20
-8.415576660986941
 10
43.544047076771164
 20
-8.421686549633865
 10
43.52510810027514
 20
-8.427720107296754
 10
43.50614494472625
 20
-8.433677235842035
 10
43.4871579185596
 20
-8.439557838377198
 10
43.46814733059422
 20
-8.445361819255792
 10
43.44911349003335
 20
-8.451089084077271
 10
43.43005670645843
 20
-8.456739539688868
 10
43.41097728982444
 20
-8.46231309418701
 10
43.39187555045492
 20
-8.467809656918751
 10
43.372751799033296
 20
-8.473229138484301
 10
43.35360634660689
 20
-8.478571450735956
 10
43.334439504570554
 20
-8.483836506782641
 10
43.31525158466887
 20
-8.48902422098941
 10
43.29604289899079
 20
-8.494134508978712
 10
43.27681375995977
 20
-8.49916728763328
 10
43.25756448033535
 20
-8.50412247509565
 10
43.2382953732041
 20
-8.508999990770375
 10
43.21900675197129
 20
-8.51379975532644
 10
43.19969893036456
 20
-8.518521690696096
 10
43.18037222242126
 20
-8.523165720078133
 10
43.161026942485606
 20
-8.527731767938524
 10
43.14166340520633
 20
-8.532219760011055
 10
43.12228192552557
 20
-8.536629623299875
 10
43.10288281868001
 20
-8.54096128607925
 10
43.08346640019217
 20
-8.545214677895553
 10
43.06403298586686
 20
-8.54938972956811
 10
43.04458289178302
 20
-8.553486373190891
 10
43.02511643429302
 20
-8.557504542132678
 10
43.00563393001601
 20
-8.561444171038547
 10
42.9861356958302
 20
-8.565305195831382
 10
42.966622048869596
 20
-8.569087553712569
 10
42.94709330652081
 20
-8.572791183162602
 10
42.92754978641391
 20
-8.576416023942896
 10
42.90799180642188
 20
-8.579962017095822
 10
42.88841968464957
 20
-8.583429104946863
 10
42.86883373943364
 20
-8.586817231104533
 10
42.84923428933728
 20
-8.59012634046132
 10
42.82962165314051
 20
-8.593356379195422
 10
42.80999614983773
 20
-8.596507294771097
 10
42.790358098634925
 20
-8.599579035939154
 10
42.77070781894224
 20
-8.602571552738171
 10
42.751045630364295
 20
-8.60548479649594
 10
42.73137185270532
 20
-8.608318719828755
 10
42.71168680595495
 20
-8.611073276643458
 10
42.691990810284906
 20
-8.61374842213797
 10
42.67228418604803
 20
-8.616344112801398
 10
42.65256725376826
 20
-8.618860306415419
 10
42.632840334137356
 20
-8.62129696205463
 10
42.61310374800917
 20
-8.623654040087395
 10
42.59335781639629
 20
-8.625931502176226
 10
42.57360286046189
 20
-8.628129311278688
 10
42.55383920151552
 20
-8.630247431647946
 10
42.534067161009865
 20
-8.632285828833131
 10
42.5142870605339
 20
-8.634244469680038
 10
42.494499221805306
 20
-8.636123322331935
 10
42.474703966669566
 20
-8.637922356229646
 10
42.45490161709373
 20
-8.639641542112134
 10
42.43509249515785
 20
-8.641280852017273
 10
42.41527692305427
 20
-8.642840259281957
 10
42.39545522307729
 20
-8.644319738542896
 10
42.37562771762492
 20
-8.645719265736496
 10
42.35579472918695
 20
-8.647038818099777
 10
42.335956580341765
 20
-8.64827837417055
 10
42.316113593754885
 20
-8.649437913787576
 10
42.29626609216662
 20
-8.650517418091285
 10
42.27641439839327
 20
-8.651516869523705
 10
42.25655883531919
 20
-8.652436251828956
 10
42.23669972588876
 20
-8.653275550053541
 10
42.21683739311009
 20
-8.654034750546327
 10
42.19697216003713
 20
-8.654713840959158
 10
42.17710434977451
 20
-8.655312810246757
 10
42.15723428546816
 20
-8.655831648667002
 10
42.137362290301766
 20
-8.656270347781069
 10
42.117488687487146
 20
-8.65662890045364
 10
42.097613800266046
 20
-8.65690730085291
 10
42.07773795189917
 20
-8.657105544450747
 10
42.05786146566273
 20
-8.657223628022775
 10
42.03798466484411
 20
-8.657261549648384
 10
42.01810787273567
 20
-8.657219308710781
 10
41.998231412628364
 20
-8.657096905897015
 10
41.978355607809846
 20
-8.65689434319794
 10
41.958480781555544
 20
-8.656611623908187
 10
41.93860725712598
 20
-8.656248752626148
 10
41.91873535775879
 20
-8.655805735253818
 10
41.898865406668
 20
-8.655282578996834
 10
41.878997727032576
 20
-8.654679292364165
 10
41.85913264199859
 20
-8.65399588516821
 10
41.83927047466519
 20
-8.653232368524392
 10
41.81941154808778
 20
-8.652388754851183
 10
41.79955618526808
 20
-8.651465057869808
 10
41.77970470914815
 20
-8.650461292603945
 10
41.759857442609224
 20
-8.649377475379673
 10
41.74001470846359
 20
-8.648213623825107
 10
41.720176829448
 20
-8.646969756869977
 10
41.7003441282221
 20
-8.645645894745549
 10
41.68051692736145
 20
-8.644242058984224
 10
41.66069554935027
 20
-8.642758272419032
 10
41.64088031657908
 20
-8.641194559183434
 10
41.621071551340414
 20
-8.639550944711061
 10
41.60126957581831
 20
-8.637827455734838
 10
41.58147471208816
 20
-8.636024120286983
 10
41.56168728210945
 20
-8.634140967698398
 10
41.54190760772005
 20
-8.632178028598108
 10
41.5221360106349
 20
-8.63013533491316
 10
41.50237281243132
 20
-8.628012919867182
 10
41.48261833455641
 20
-8.625810817981126
 10
41.462872898312206
 20
-8.623529065071654
 10
41.443136824852836
 20
-8.621167698250854
 10
41.42341043518298
 20
-8.618726755926067
 10
41.40369405014889
 20
-8.616206277798772
 10
41.38398799043108
 20
-8.613606304863735
 10
41.364292576547136
 20
-8.610926879409288
 10
41.344608128838104
 20
-8.608168045015665
 10
41.32493496746731
 20
-8.6053298465547
 10
41.30527341241418
 20
-8.602412330189038
 10
41.28562378347129
 20
-8.599415543371684
 10
41.265986400234695
 20
-8.596339534844585
 10
41.24636158210317
 20
-8.593184354638522
 10
41.22674964826984
 20
-8.589950054071766
 10
41.207150917719595
 20
-8.586636685749697
 10
41.18756570922023
 20
-8.583244303563298
 10
41.16799434132381
 20
-8.57977296268942
 10
41.1484371323515
 20
-8.576222719588193
 10
41.12889440040037
 20
-8.572593632004127
 10
41.109366463326936
 20
-8.568885758963207
 10
41.089853638749034
 20
-8.565099160773238
 10
41.0703562440402
 20
-8.561233899022715
 10
41.05087459632168
 20
-8.557290036579378
 10
41.031409012456805
 20
-8.553267637589006
 10
41.011959809049976
 20
-8.549166767475205
 10
40.99252730243922
 20
-8.544987492937949
 10
40.97311180869015
 20
-8.540729881952272
 10
40.953713643591406
 20
-8.536394003767237
 10
40.93433312265066
 20
-8.53197992890513
 10
40.914970561087436
 20
-8.527487729159834
 10
40.89562627383039
 20
-8.52291747759616
 10
40.87630057551064
 20
-8.518269248548403
 10
40.85699378045592
 20
-8.513543117618838
 10
40.837706202688786
 20
-8.5087391616774
 10
40.81843815591566
 20
-8.503857458858942
 10
40.79918995352999
 20
-8.498898088563992
 10
40.77996190859777
 20
-8.493861131455159
 10
40.76075433385953
 20
-8.488746669457644
 10
40.74156754172279
 20
-8.483554785757123
 10
40.722401844258734
 20
-8.478285564799116
 10
40.70325755319032
 20
-8.472939092285499
 10
40.684134979897685
 20
-8.46751545517619
 10
40.665034435404394
 20
-8.46201474168517
 10
40.64595623037848
 20
-8.456437041280873
 10
40.62690067512146
 20
-8.450782444683053
 10
40.607868079568355
 20
-8.445051043862575
 10
40.5888587532816
 20
-8.439242932039896
 10
40.56987300544337
 20
-8.433358203682596
 10
40.55091114485145
 20
-8.427396954504044
 10
40.53197347992028
 20
-8.42135928146396
 10
40.513060318663435
 20
-8.415245282762617
 10
40.49417196870088
 20
-8.409055057843418
 10
40.475308737249534
 20
-8.402788707389696
 10
40.45647093111273
 20
-8.396446333321206
 10
40.43765885668761
 20
-8.390028038796803
 10
40.41887281994368
 20
-8.38353392820697
 10
40.40011312643732
 20
-8.376964107178985
 10
40.381380081287176
 20
-8.370318682568186
 10
40.362673989184714
 20
-8.36359776246193
 10
40.34399515437958
 20
-8.356801456174223
 10
40.3253438806802
 20
-8.349929874245918
 10
40.30672047144323
 20
-8.342983128440956
 10
40.28812522957836
 20
-8.335961331748193
 10
40.26955845753128
 20
-8.328864598374844
 10
40.251020457286764
 20
-8.321693043747901
 10
40.23251153036174
 20
-8.314446784511281
 10
40.214031977800516
 20
-8.307125938524
 10
40.19558210016848
 20
-8.299730624857927
 10
40.17716219755045
 20
-8.292260963796735
 10
40.15877256954292
 20
-8.284717076833251
 10
40.140413515245086
 20
-8.277099086665448
 10
40.122085333268785
 20
-8.269407117200686
 10
40.10378832171556
 20
-8.261641293546177
 10
40.085522778181485
 20
-8.253801742011005
 10
40.06728899975411
 20
-8.24588859010487
 10
40.04908728300169
 20
-8.237901966533288
 10
40.030917923969064
 20
-8.229842001196111
 10
40.01278121818268
 20
-8.22170882518941
 10
39.994677460624935
 20
-8.213502570794402
 10
39.976606945756224
 20
-8.205223371486989
 10
39.958569967485595
 20
-8.196871361924766
 10
39.94056681918324
 20
-8.188446677952594
 10
39.92259779366585
 20
-8.179949456595823
 10
39.90466318319621
 20
-8.171379836060167
 10
39.88676327947622
 20
-8.162737955728339
 10
39.86889837364632
 20
-8.154023956159772
 10
39.85106875627223
 20
-8.145237979084326
 10
39.833274717352936
 20
-8.136380167405957
 10
39.81551654630124
 20
-8.127450665193441
 10
39.79779453195259
 20
-8.118449617684504
 10
39.780108962551814
 20
-8.109377171279268
 10
39.76246012574939
 20
-8.100233473538376
 10
39.74484830860132
 20
-8.091018673182818
 10
39.72727379756095
 20
-8.081732920089886
 10
39.709736878473215
 20
-8.07237636528998
 10
39.6922378365712
 20
-8.062949160964825
 10
39.674776956476244
 20
-8.053451460447544
 10
39.65735452218307
 20
-8.043883418214746
 10
39.63997081706709
 20
-8.034245189890441
 10
39.622626123868265
 20
-8.024536932236993
 10
39.60532072469414
 20
-8.014758803157056
 10
39.58805490101655
 20
-8.004910961691648
 10
39.57082893365758
 20
-7.9949935680121555
 10
39.553643102795036
 20
-7.985006783423534
 10
39.536497687955226
 20
-7.974950770360144
 10
39.519392967999615
 20
-7.964825692377874
 10
39.50232922113909
 20
-7.954631714162657
 10
39.48530672490623
 20
-7.944369001514092
 10
39.46832575617376
 20
-7.934037721356243
 10
39.45138659113008
 20
-7.923638041723128
 10
39.434489505290195
 20
-7.913170131765224
 10
39.41763477347627
 20
-7.902634161737513
 10
39.40082266983551
 20
-7.892030303010622
 10
39.38405346780527
 20
-7.881358728049191
 10
39.36732744013726
 20
-7.870619610426625
 10
39.350644858878304
 20
-7.859813124813501
 10
39.33400599536383
 20
-7.84893944697295
 10
39.31741112022203
 20
-7.837998753763314
 10
39.30086050336786
 20
-7.826991223134623
 10
39.28435441399047
 20
-7.815917034119837
 10
39.267893120560565
 20
-7.8047763668402155
 10
39.25147689081712
 20
-7.793569402495949
 10
39.23510599176475
 20
-7.782296323364647
 10
39.218780689676315
 20
-7.770957312803096
 10
39.202501250076324
 20
-7.759552555235741
 10
39.18626793774859
 20
-7.7480822361600525
 10
39.17008101672484
 20
-7.736546542138717
 10
39.15394075027863
 20
-7.724945660794852
 10
39.13784740093354
 20
-7.713279780818465
 10
39.12180123043964
 20
-7.7015490919489675
 10
39.10580249978732
 20
-7.689753784985675
 10
39.089851469193206
 20
-7.677894051777242
 10
39.07394839809513
 20
-7.665970085218037
 10
39.058093545154975
 20
-7.653982079250158
 10
39.0422871682493
 20
-7.641930228856562
 10
39.026529524463186
 20
-7.629814730056256
 10
39.01082087009319
 20
-7.617635779906679
 10
38.99516146063876
 20
-7.605393576497017
 10
38.97955155079486
 20
-7.5930883189425815
 10
38.96399139445306
 20
-7.580720207385557
 10
38.948481244697994
 20
-7.568289442992231
 10
38.93302135379839
 20
-7.555796227945903
 10
38.91761197320476
 20
-7.543240765444853
 10
38.90225335355114
 20
-7.530623259704227
 10
38.88694574463883
 20
-7.51794391594224
 10
38.87168939544496
 20
-7.505202940387497
 10
38.85648455410965
 20
-7.4924005402681715
 10
38.841331467938254
 20
-7.479536923814303
 10
38.82623038338941
 20
-7.466612300247117
 10
38.81118154608314
 20
-7.453626879786501
 10
38.79618520078399
 20
-7.440580873636099
 10
38.78124159140301
 20
-7.427474493985277
 10
38.76635096099854
 20
-7.414307954009774
 10
38.751513551759395
 20
-7.401081467856958
 10
38.736729605016926
 20
-7.387795250656384
 10
38.721999361225926
 20
-7.374449518502915
 10
38.707323059972495
 20
-7.361044488463724
 10
38.692700939963245
 20
-7.347580378568372
 10
38.678133239023694
 20
-7.33405740780776
 10
38.66362019409601
 20
-7.320475796131414
 10
38.64916204122948
 20
-7.306835764439406
 10
38.63475901558474
 20
-7.2931375345856315
 10
38.62041135142583
 20
-7.279381329370696
 10
38.606119282108764
 20
-7.265567372530897
 10
38.59188304009757
 20
-7.251695888753584
 10
38.57770285693856
 20
-7.23776710365243
 10
38.56357896326941
 20
-7.2237812437763145
 10
38.54951158881289
 20
-7.209738536602806
 10
38.535500962373185
 20
-7.195639210534872
 10
38.52154731182934
 20
-7.181483494894287
 10
38.50765086413198
 20
-7.16727161991815
 10
38.493811845310844
 20
-7.153003816766631
 10
38.48003048044714
 20
-7.138680317494988
 10
38.466306993696605
 20
-7.124301355076649
 10
38.45264160826662
 20
-7.109867163380201
 10
38.43903454642374
 20
-7.095377977176787
 10
38.42548602948433
 20
-7.08083403213013
 10
38.41199627781042
 20
-7.066235564792873
 10
38.39856551080932
 20
-7.0515828126052105
 10
38.3851939469336
 20
-7.036876013895211
 10
38.37188180366588
 20
-7.022115407862689
 10
38.358629297526434
 20
-7.00730123458702
 10
38.34543664406371
 20
-6.992433735016642
 10
38.332304057855055
 20
-6.977513150970091
 10
38.31923175249767
 20
-6.962539725125822
 10
38.30621994061116
 20
-6.947513701025022
 10
38.293268833830716
 20
-6.93243532306362
 10
38.28037864280139
 20
-6.917304836486073
 10
38.26754957718139
 20
-6.902122487388742
 10
38.25478184563002
 20
-6.886888522706281
 10
38.24207565581621
 20
-6.871603190220982
 10
38.22943121439955
 20
-6.856266738541059
 10
38.216848727041516
 20
-6.840879417113403
 10
38.204328398394395
 20
-6.825441476210494
 10
38.19187043209564
 20
-6.809953166923442
 10
38.17947503077289
 20
-6.794414741168028
 10
38.1671423960378
 20
-6.778826451677482
 10
38.15487272847384
 20
-6.763188551986615
 10
38.14266622764664
 20
-6.74750129644518
 10
38.130523092094094
 20
-6.731764940205269
 10
38.118443519318504
 20
-6.715979739211438
 10
38.1064277057936
 20
-6.700145950208925
 10
38.094475846953756
 20
-6.684263830730899
 10
38.08258813719425
 20
-6.668333639097708
 10
38.07076476986443
 20
-6.65235563440812
 10
38.059005937270626
 20
-6.636330076543329
 10
38.04731183066839
 20
-6.620257226156663
 10
38.03568264025773
 20
-6.604137344666631
 10
38.02411855518633
 20
-6.587970694261388
 10
38.0126197635434
 20
-6.571757537890982
 10
38.00118645235037
 20
-6.55549813925306
 10
37.989818807570735
 20
-6.539192762807817
 10
37.97851701409756
 20
-6.522841673759768
 10
37.96728125574935
 20
-6.506445138051843
 10
37.95611171527606
 20
-6.490003422374399
 10
37.94500857434628
 20
-6.473516794145902
 10
37.93397201355135
 20
-6.4569855215195675
 10
37.92300221239814
 20
-6.440409873372372
 10
37.91209934930875
 20
-6.423790119304589
 10
37.90126360161534
 20
-6.407126529632041
 10
37.89049514555981
 20
-6.390419375385872
 10
37.879794156288845
 20
-6.3736689283041645
 10
37.86916080785151
 20
-6.356875460829215
 10
37.85859527319612
 20
-6.340039246101862
 10
37.84809772417166
 20
-6.323160557963872
 10
37.837668331515886
 20
-6.306239670939343
 10
37.827307264861936
 20
-6.289276860244988
 10
37.817014692732094
 20
-6.2722724017804
 10
37.80679078252922
 20
-6.255226572113023
 10
37.79663570054486
 20
-6.238139648493033
 10
37.78654961195225
 20
-6.221011908840388
 10
37.77653268079403
 20
-6.203843631725092
 10
37.76658506999816
 20
-6.18663509639355
 10
37.75670694135909
 20
-6.169386582736418
 10
37.746898455541015
 20
-6.152098371294893
 10
37.737159772079316
 20
-6.134770743262103
 10
37.727491049370215
 20
-6.117403980465895
 10
37.71789244467444
 20
-6.099998365374726
 10
37.708364114110026
 20
-6.082554181084949
 10
37.6989062126552
 20
-6.0650717113261114
 10
37.689518894139304
 20
-6.047551240444408
 10
37.68020231124547
 20
-6.029993053407125
 10
37.670956615507194
 20
-6.012397435796853
 10
37.66178195730113
 20
-5.9947646737975795
 10
37.65267848585486
 20
-5.97709505420964
 10
37.64364634923117
 20
-5.9593888644193935
 10
37.63468569433786
 20
-5.941646392418018
 10
37.62579666691833
 20
-5.92386792678368
 10
37.61697941154942
 20
-5.906053756676498
 10
37.60823407164205
 20
-5.888204171840824
 10
37.59956078943908
 20
-5.870319462599904
 10
37.5909597060097
 20
-5.852399919844537
 10
37.58243096124503
 20
-5.834445835025161
 10
37.573974693867186
 20
-5.816457500169041
 10
37.565591041415566
 20
-5.798435207852607
 10
37.55728014024763
 20
-5.78037925120284
 10
37.54904212553598
 20
-5.762289923890738
 10
37.540877131275394
 20
-5.744167520146727
 10
37.532785290264236
 20
-5.726012334720098
 10
37.524766734115616
 20
-5.707824662903549
 10
37.51682159324911
 20
-5.689604800514362
 10
37.50894999689145
 20
-5.6713530438964
 10
37.50115207307322
 20
-5.6530696899119315
 10
37.493427948624635
 20
-5.63475503593322
 10
37.48577774917844
 20
-5.616409379847521
 10
37.47820159916204
 20
-5.598033020039378
 10
37.47069962180143
 20
-5.579626255400155
 10
37.46327193911317
 20
-5.561189385308558
 10
37.4559186719083
 20
-5.5427227096394125
 10
37.44863993978672
 20
-5.524226528750814
 10
37.441435861134046
 20
-5.50570114347543
 10
37.434306553123854
 20
-5.487146855127144
 10
37.427252131711896
 20
-5.468563965484836
 10
37.42027271163907
 20
-5.4499527768008384
 10
37.41336840642274
 20
-5.431313591778949
 10
37.40653932835959
 20
-5.412646713580346
 10
37.399785588524296
 20
-5.393952445820691
 10
37.393107296764526
 20
-5.375231092557374
 10
37.38650456170125
 20
-5.356482958289052
 10
37.37997749072783
 20
-5.337708347953636
 10
37.37352619000362
 20
-5.318907566910497
 10
37.36715076445847
 20
-5.300080920952525
 10
37.36085131778919
 20
-5.2812287162967255
 10
37.35462795245218
 20
-5.262351259561598
 10
37.34848076967112
 20
-5.243448857791425
 10
37.34240986942793
 20
-5.224521818427383
 10
37.33641535046525
 20
-5.205570449315797
 10
37.330497310281885
 20
-5.186595058694787
 10
37.32465584513382
 20
-5.167595955195729
 10
37.31889105003146
 20
-5.148573447835572
 10
37.31320301873792
 20
-5.12952784601114
 10
37.30759184376835
 20
-5.110459459497517
 10
37.30205761638636
 20
-5.09136859843379
 10
37.296600426605565
 20
-5.072255573331656
 10
37.29122036318687
 20
-5.053120695062672
 10
37.28591751363382
 20
-5.033964274844912
 10
37.28069196419907
 20
-5.014786624263537
 10
37.27554379987177
 20
-4.995588055227514
 10
37.270473104389
 20
-4.976368880009064
 10
37.26547996022281
 20
-4.957129411197631
 10
37.260564448585946
 20
-4.937869961720609
 10
37.25572664942769
 20
-4.91859084482676
 10
37.250966641435305
 20
-4.89929237409265
 10
37.24628450202786
 20
-4.879974863398169
 10
37.24168030736015
 20
-4.860638626941431
 10
37.23715413231835
 20
-4.841283979222652
 10
37.232706050519965
 20
-4.821911235040975
 10
37.22833613431173
 20
-4.802520709489148
 10
37.22404445476923
 20
-4.783112717948991
 10
37.21983108169703
 20
-4.763687576093047
 10
37.21569608362376
 20
-4.744245599863246
 10
37.21163952780416
 20
-4.72478710547739
 10
37.20766148021785
 20
-4.705312409427873
 10
37.203762005566915
 20
-4.685821828465955
 10
37.199941167274815
 20
-4.666315679598042
 10
37.196199027487594
 20
-4.6467942800929105
 10
37.192535647070606
 20
-4.627257947462828
 10
37.188951085605886
 20
-4.607706999451577
 10
37.185445401398965
 20
-4.588141754068918
 10
37.182018651465896
 20
-4.568562529521898
 10
37.17867089154423
 20
-4.548969644275453
 10
37.17540217608348
 20
-4.529363416997754
 10
37.17221255824888
 20
-4.509744166580272
 10
37.16910208991929
 20
-4.490112212129155
 10
37.1660708216856
 20
-4.470467872952587
 10
37.16311880285039
 20
-4.4508114685594915
 10
37.16024608142807
 20
-4.431143318659302
 10
37.1574527041427
 20
-4.411463743150052
 10
37.15473871642863
 20
-4.391773062120368
 10
37.15210416242709
 20
-4.3720715958262755
 10
37.14954908498983
 20
-4.352359664717427
 10
37.14707352567382
 20
-4.3326375893978835
 10
37.14467752474363
 20
-4.31290569064411
 10
37.14236112117019
 20
-4.293164289395454
 10
37.14012435262869
 20
-4.2734137067356235
 10
37.13796725550052
 20
-4.253654263910954
 10
37.13588986486981
 20
-4.233886282300381
 10
37.133892214524735
 20
-4.2141100834234395
 10
37.131974336957136
 20
-4.194325988940827
 10
37.13013626336088
 20
-4.174534320637053
 10
37.128378023631754
 20
-4.154735400417029
 10
37.12669964636724
 20
-4.134929550307654
 10
37.1251011588654
 20
-4.115117092443792
 10
37.12358258712576
 20
-4.0952983490752555
 10
37.12214395584771
 20
-4.075473642551667
 10
37.12078528842954
 20
-4.055643295306291
 10
37.11950660697066
 20
-4.035807629892624
 10
37.118307932267676
 20
-4.01596696891737
 10
37.117189283817645
 20
-3.9961216350993527
 10
37.11615067981443
 20
-3.9762719512072606
 10
37.11519213715112
 20
-3.9564182400990417
 10
37.114313671417975
 20
-3.9365608246868913
 10
37.11351529690348
 20
-3.9167000279542945
 10
37.11279702659241
 20
-3.8968361729230607
 10
37.112158872167775
 20
-3.8769695826843558
 10
37.111600844008834
 20
-3.857100580358527
 10
37.11112295119188
 20
-3.837229489112317
 10
37.11072520148971
 20
-3.8173566321486914
 10
37.11040760137157
 20
-3.797482332687264
 10
37.11017015600321
 20
-3.777606913986144
 10
37.11001286924665
 20
-3.7577306993146493
 10
37.1099357436602
 20
-3.737854011951986
 10
37.10993878049814
 20
-3.7179771751917845
 10
37.11002197971118
 20
-3.6981005123238777
 10
37.11018533994606
 20
-3.6782243466441824
 10
37.11042885854581
 20
-3.6583490014226716
 10
37.11075253154959
 20
-3.6384747999401115
 10
37.11115635369291
 20
-3.6186020654412565
 10
37.11164031840782
 20
-3.598731121148461
 10
37.11220441782252
 20
-3.5788622902666067
 10
37.11284864276222
 20
-3.5589958959497463
 10
37.1135729827486
 20
-3.539132261330106
 10
37.11437742600053
 20
-3.5192717094758375
 10
37.115261959433816
 20
-3.4994145634239904
 10
37.1162265686619
 20
-3.4795611461359868
 10
37.11727123799533
 20
-3.4597117805345965
 10
37.11839595044288
 20
-3.439866789461902
 10
37.119600687711525
 20
-3.42002649568793
 10
37.12088543020607
 20
-3.400191221918755
 10
37.12225015703069
 20
-3.3803612907657783
 10
37.12369484598848
 20
-3.3605370247591315
 10
37.12521947358153
 20
-3.3407187463415426
 10
37.126824015012524
 20
-3.32090677784441
 10
37.12850844418354
 20
-3.301101441513519
 10
37.13027273369775
 20
-3.2813030594757655
 10
37.132116854859554
 20
-3.26151195374596
 10
37.13404077767426
 20
-3.2417284462273828
 10
37.13604447085022
 20
-3.2219528586878363
 10
37.13812790179768
 20
-3.202185512776337
 10
37.14029103662959
 20
-3.1824267300077906
 10
37.142533840163416
 20
-3.162676831750335
 10
37.14485627592011
 20
-3.1429361392357125
 10
37.14725830612608
 20
-3.1232049735396283
 10
37.149739891712464
 20
-3.103483655587069
 10
37.15230099231685
 20
-3.0837725061409182
 10
37.15494156628395
 20
-3.064071845795811
 10
37.15766157066451
 20
-3.04438199498551
 10
37.160460961219094
 20
-3.0247032739540187
 10
37.16333969241541
 20
-3.0050360027786036
 10
37.16629771743179
 20
-2.9853805013398054
 10
37.169334988156955
 20
-2.9657370893287442
 10
37.17245145518983
 20
-2.946106086243881
 10
37.17564706784124
 20
-2.9264878113833257
 10
37.17892177413631
 20
-2.9068825838270076
 10
37.18227552081191
 20
-2.8872907224536144
 10
37.18570825332036
 20
-2.867712545920333
 10
37.189219915828964
 20
-2.848148372660618
 10
37.19281045122001
 20
-2.8285985208899156
 10
37.19647980109669
 20
-2.809063308568072
 10
37.200227905775414
 20
-2.7895430534439263
 10
37.20405470429541
 20
-2.770038073003648
 10
37.20796013441298
 20
-2.750548684499798
 10
37.21194413260979
 20
-2.7310752049098204
 10
37.21600663408478
 20
-2.7116179509764744
 10
37.220147572762535
 20
-2.692177239166617
 10
37.224366881291125
 20
-2.6727533856805037
 10
37.22866449104648
 20
-2.6533467064336556
 10
37.23304033212612
 20
-2.633957517084937
 10
37.23749433335991
 20
-2.614586132985984
 10
37.24202642230247
 20
-2.5952328692165074
 10
37.24663652524249
 20
-2.57589804054464
 10
37.25132456719653
 20
-2.556581961451795
 10
37.256090471913865
 20
-2.537284946112465
 10
37.26093416187882
 20
-2.518007308385979
 10
37.26585555831036
 20
-2.4987493618161163
 10
37.27085458116127
 20
-2.479511419636946
 10
37.275931149125334
 20
-2.4602937947419568
 10
37.28108517963195
 20
-2.4410967997069086
 10
37.2863165888518
 20
-2.4219207467673147
 10
37.29162529169813
 20
-2.4027659478134957
 10
37.297011201825136
 20
-2.3836327143973812
 10
37.30247423163172
 20
-2.3645213577188526
 10
37.30801429226424
 20
-2.3454321886152054
 10
37.31363129361379
 20
-2.3263655175708653
 10
37.31932514432051
 20
-2.3073216547032938
 10
37.3250957517758
 20
-2.288300909754039
 10
37.33094302212219
 20
-2.2693035920912163
 10
37.33686686025355
 20
-2.250330010707099
 10
37.34286716982182
 20
-2.2313804741966194
 10
37.34894385323194
 20
-2.21245529077439
 10
37.355096811648245
 20
-2.1935547682531147
 10
37.36132594499403
 20
-2.174679214046693
 10
37.3676311519529
 20
-2.1558289351640973
 10
37.37401232997417
 20
-2.1370042381947982
 10
37.380469375266905
 20
-2.1182054293260952
 10
37.38700218280968
 20
-2.0994328143132166
 10
37.393610646348584
 20
-2.0806866984862773
 10
37.400294658395694
 20
-2.06196738675493
 10
37.40705411023928
 20
-2.0432751835777325
 10
37.41388889193673
 20
-2.0246103929840182
 10
37.42079889232427
 20
-2.0059733185459607
 10
37.42778399900861
 20
-1.9873642634011575
 10
37.43484409838046
 20
-1.9687835302167807
 10
37.44197907560873
 20
-1.9502314212043805
 10
37.44918881464381
 20
-1.9317082381123236
 10
37.45647319822178
 20
-1.91321428221352
 10
37.46383210786235
 20
-1.8947498543119277
 10
37.47126542387395
 20
-1.8763152547284412
 10
37.47877302535745
 20
-1.8579107832927386
 10
37.486354790201794
 20
-1.8395367393529702
 10
37.49401059509155
 20
-1.8211934217584467
 10
37.50174031550551
 20
-1.8028811288623567
 10
37.509543825722496
 20
-1.7846001585073747
 10
37.5174209988194
 20
-1.7663508080310626
 10
37.52537170667691
 20
-1.7481333742526675
 10
37.53339581997593
 20
-1.7299481534805499
 10
37.54149320820835
 20
-1.711795441487888
 10
37.54966373966995
 20
-1.6936755335293694
 10
37.55790728147063
 20
-1.675588724316929
 10
37.56622369952844
 20
-1.6575353080343218
 10
37.57461285857989
 20
-1.639515578313856
 10
37.58307462217758
 20
-1.6215298282412234
 10
37.59160885269198
 20
-1.603578350352801
 10
37.6002154113161
 20
-1.5856614366244968
 10
37.608894158063364
 20
-1.5677793784764886
 10
37.617644951779724
 20
-1.5499324667489078
 10
37.62646765013371
 20
-1.532120991721331
 10
37.63536210962397
 20
-1.5143452430976723
 10
37.64432818558658
 20
-1.4966055099914515
 10
37.65336573218926
 20
-1.4789020809377276
 10
37.66247460243693
 20
-1.4612352438814369
 10
37.6716546481789
 20
-1.4436052861639597
 10
37.68090572009954
 20
-1.4260124945406731
 10
37.69022766773448
 20
-1.4084571551502103
 10
37.699620339463195
 20
-1.3909395535282807
 10
37.70908358251754
 20
-1.373459974591925
 10
37.71861724297719
 20
-1.3560187026476993
 10
37.7282211657817
 20
-1.3386160213694607
 10
37.73789519472171
 20
-1.3212522138147773
 10
37.747639172455635
 20
-1.3039275623943378
 10
37.75745294049578
 20
-1.2866423488970737
 10
37.76733633922512
 20
-1.2693968544597858
 10
37.777289207892174
 20
-1.252191359577014
 10
37.78731138461454
 20
-1.2350261440946568
 10
37.79740270638428
 20
-1.2179014872000753
 10
37.807563009068474
 20
-1.2008176674216005
 10
37.817792127411394
 20
-1.1837749626250131
 10
37.8280898950376
 20
-1.1667736500077075
 10
37.838456144456856
 20
-1.1498140060915494
 10
37.84889070706632
 20
-1.1328963067180005
 10
37.859393413145504
 20
-1.1160208270572023
 10
37.869964091872745
 20
-1.0991878415810445
 10
37.880602571319656
 20
-1.0823976240721886
 10
37.89130867844946
 20
-1.065650447626689
 10
37.902082239132106
 20
-1.0489465846297168
 10
37.91292307813855
 20
-1.0322863067649661
 10
37.923831019142376
 20
-1.0156698850123866
 10
37.93480588472946
 20
-0.9990975896325017
 10
37.945847496396375
 20
-0.9825696901696555
 10
37.95695567455188
 20
-0.9660864554490607
 10
37.968130238526044
 20
-0.949648153563889
 10
37.979371006565515
 20
-0.9332550518819366
 10
37.99067779583992
 20
-0.9169074170355279
 10
38.00205042244991
 20
-0.90060551491118
 10
38.01348870141834
 20
-0.8843496106611183
 10
38.02499244670899
 20
-0.8681399686772954
 10
38.03656147120952
 20
-0.8519768526150648
 10
38.04819558675745
 20
-0.8358605253565901
 10
38.05989460412253
 20
-0.8197912490357886
 10
38.07165833302527
 20
-0.8037692850127552
 10
38.08348658212977
 20
-0.7877948938830668
 10
38.09537915905195
 20
-0.7718683354670485
 10
38.107335870361915
 20
-0.7559898688060895
 10
38.11935652158559
 20
-0.7401597521613282
 10
38.1314409172096
 20
-0.724378243005938
 10
38.14358886068434
 20
-0.708645598022466
 10
38.155800154425286
 20
-0.6929620730999484
 10
38.16807459981927
 20
-0.6773279233262468
 10
38.18041199722248
 20
-0.661743402990982
 10
38.192812145973114
 20
-0.646208765568859
 10
38.205274844382465
 20
-0.6307242637308534
 10
38.217799889748925
 20
-0.6152901493273618
 10
38.23038707835359
 20
-0.5999066733930757
 10
38.2430362054704
 20
-0.5845740861347027
 10
38.255747065363124
 20
-0.5692926369344324
 10
38.26851945129092
 20
-0.5540625743435066
 10
38.28135315551486
 20
-0.5388841460743671
 10
38.29424796929715
 20
-0.5237575990010863
 10
38.30720368290585
 20
-0.5086831791545395
 10
38.32022008561902
 20
-0.49366113171680964
 10
38.33329696572782
 20
-0.4786917010181838
 10
38.34643411054086
 20
-0.46377513053189734
 10
38.35963130638148
 20
-0.44891166287701467
 10
38.37288833860344
 20
-0.434101539800786
 10
38.38620499158099
 20
-0.41934500219024223
 10
38.3995810487239
 20
-0.4046422900545999
 10
38.413016292473465
 20
-0.3899936425303233
 10
38.42651050430535
 20
-0.3753992978779358
 10
38.44006346474098
 20
-0.3608594934690574
 10
38.45367495334426
 20
-0.3463744657907812
 10
38.46734474872687
 20
-0.3319444504392094
 10
38.481072628551516
 20
-0.31756968211674796
 10
38.494858369538804
 20
-0.3032503946239427
 10
38.50870174746408
 20
-0.28898682086373123
 10
38.52260253716937
 20
-0.27477919282842345
 10
38.53656051256203
 20
-0.2606277416012937
 10
38.55057544661526
 20
-0.24653269735599448
 10
38.56464711138158
 20
-0.23249428934300975
 10
38.57877527798842
 20
-0.21851274589399336
 10
38.59295971664075
 20
-0.20458829441902507
 10
38.60720019663539
 20
-0.19072116139289838
 10
38.62149648635325
 20
-0.17691157236220872
 10
38.63584835326488
 20
-0.16315975194020632
 10
38.65025556394354
 20
-0.14946592379402068
 10
38.66471788405757
 20
-0.13583031065244883
 10
38.67923507838161
 20
-0.12225313429454372
 10
38.69380691079293
 20
-0.10873461555371766
 10
38.70843314428748
 20
-0.09527497430222467
 10
38.72311354097029
 20
-0.08187442946058442
 10
38.73784786206897
 20
-0.06853319898480947
 10
38.75263586793216
 20
-0.0552514998676767
 10
38.76747731803512
 20
-0.042029548134267736
 10
38.78237197098757
 20
-0.028867558834195322
 10
38.797319584526
 20
-0.015765746049077947
 10
38.812319915535475
 20
-0.0027243228728747204
 10
38.827372720036664
 20
0.010256498576585118
 10
38.84247775319812
 20
0.023176507168348917
 10
38.857634769339796
 20
0.03603549276128155
 10
38.872843521938265
 20
0.04883324620863145
 10
38.888103763621885
 20
0.06156955935390408
 10
38.903415246190285
 20
0.07424422504701654
 10
38.91877772060203
 20
0.08685703713458393
 10
38.93419093699085
 20
0.09940779047280657
 10
38.94965464466466
 20
0.1118962809266672
 10
38.96516859210918
 20
0.12432230537335119
 10
38.98073252699329
 20
0.13668566170614824
 10
38.99634619616968
 20
0.14898614883518713
 10
39.01200934568887
 20
0.16122356669834953
 10
39.02772172079336
 20
0.1733977162568665
 10
39.04348306592096
 20
0.18550839949796885
 10
39.059293124719744
 20
0.19755541944620375
 10
39.07515164003972
 20
0.2095385801573576
 10
39.09105835394852
 20
0.22145768673000826
 10
39.107013007724454
 20
0.23331254530067702
 10
39.123015341868125
 20
0.24510296305244886
 10
39.13906509610638
 20
0.2568287482176266
 10
39.155162009391645
 20
0.26848971007755307
 10
39.171305819912654
 20
0.28008565897036747
 10
39.18749626509155
 20
0.2916164062888364
 10
39.20373308159523
 20
0.3030817644885329
 10
39.220016005336035
 20
0.3144815470882787
 10
39.23634477147325
 20
0.32581556867146005
 10
39.25271911442461
 20
0.3370836448937105
 10
39.26913876786402
 20
0.3482855924815272
 10
39.28560346472994
 20
0.3594212292380478
 10
39.30211293722601
 20
0.37049037404351903
 10
39.318666916829095
 20
0.38149284686056234
 10
39.33526513429388
 20
0.39242846873734716
 10
39.351907319653286
 20
0.4032970618079792
 10
39.3685932022241
 20
0.41409844929602385
 10
39.385322510614195
 20
0.42483245551929005
 10
39.402094972725045
 20
0.43549890589166884
 10
39.41891031575795
 20
0.4460976269265925
 10
39.43576826621089
 20
0.45662844623576704
 10
39.452668549895435
 20
0.46709119253909237
 10
39.46961089193182
 20
0.4774856956620816
 10
39.486595016754926
 20
0.48781178653952073
 10
39.50362064812249
 20
0.49806929722020704
 10
39.52068750911689
 20
0.5082580608682988
 10
39.53779532214593
 20
0.5183779117638533
 10
39.55494380895857
 20
0.5284286853117701
 10
39.572132690634454
 20
0.5384102180362408
 10
39.58936168760228
 20
0.5483223475909229
 10
39.606630519636596
 20
0.5581649127575562
 10
39.62393890585948
 20
0.5679377534465286
 10
39.64128656475764
 20
0.5776407107068576
 10
39.65867321417419
 20
0.5872736267215689
 10
39.67609857131569
 20
0.5968363448115327
 10
39.69356235276665
 20
0.6063287094434073
 10
39.711064274478154
 20
0.615750566223653
 10
39.728604051789034
 20
0.6251017619098453
 10
39.74618139941523
 20
0.6343821444050425
 10
39.76379603146537
 20
0.6435915627659792
 10
39.78144766144316
 20
0.6527298672044708
 10
39.799136002244296
 20
0.6617969090857456
 10
39.81686076617639
 20
0.6707925409386417
 10
39.834621664945686
 20
0.6797166164490455
 10
39.85241840967731
 20
0.6885689904698907
 10
39.87025071090933
 20
0.69734951901845
 10
39.888118278603166
 20
0.706058059281217
 10
39.90602082214874
 20
0.7146944696166818
 10
39.92395805036116
 20
0.7232586095535875
 10
39.94192967149798
 20
0.7317503397994374
 10
39.95993539325301
 20
0.7401695222372437
 10
39.977974922765675
 20
0.7485160199301405
 10
39.996047966630755
 20
0.7567896971259414
 10
40.014154230889844
 20
0.7649904192530783
 10
40.03229342104926
 20
0.7731180529290206
 10
40.05046524207932
 20
0.7811724659596745
 10
40.068669398420504
 20
0.7891535273422644
 10
40.08690559398245
 20
0.797061107264946
 10
40.10517353215965
 20
0.8048950771136612
 10
40.12347291582664
 20
0.8126553094699454
 10
40.14180344734875
 20
0.8203416781157149
 10
40.16016482858357
 20
0.8279540580336167
 10
40.17855676088495
 20
0.8354923254091161
 10
40.19697894511334
 20
0.8429563576343847
 10
40.21543108163729
 20
0.8503460333091195
 10
40.233912870333825
 20
0.857661232240671
 10
40.25242401060095
 20
0.8649018354490156
 10
40.27096420135985
 20
0.8720677251676484
 10
40.289533141058094
 20
0.8791587848448725
 10
40.30813052767362
 20
0.886174899145191
 10
40.32675605872603
 20
0.8931159539538606
 10
40.34540943127434
 20
0.899981836375829
 10
40.36409034192316
 20
0.906772434738149
 10
40.38279848683436
 20
0.9134876385942735
 10
40.40153356172218
 20
0.9201273387221507
 10
40.42029526186475
 20
0.92669142712855
 10
40.43908328210632
 20
0.933179797049714
 10
40.45789731686348
 20
0.9395923429536341
 10
40.476737060130496
 20
0.9459289605417771
 10
40.495602205482996
 20
0.952189546750425
 10
40.51449244608247
 20
0.9583739997521233
 10
40.533407474683116
 20
0.9644822189580887
 10
40.55234698363598
 20
0.9705141050194156
 10
40.571310664893765
 20
0.9764695598287019
 10
40.590298210016165
 20
0.982348486521679
 10
40.609309310174396
 20
0.9881507894787649
 10
40.62834365615647
 20
0.9938763743265951
 10
40.64740093837396
 20
0.9995251479400699
 10
40.6664808468627
 20
1.005097018442651
 10
40.68558307129131
 20
1.0105918952088577
 10
40.704707300969154
 20
1.0160096888665153
 10
40.723853224840234
 20
1.0213503112951061
 10
40.74302053150285
 20
1.0266136756312878
 10
40.76220890920361
 20
1.0317996962672207
 10
40.78141804584816
 20
1.0369082888535321
 10
40.80064762900314
 20
1.0419393702998125
 10
40.819897345903534
 20
1.0468928587766546
 10
40.83916688345653
 20
1.051768673716474
 10
40.858455928247125
 20
1.0565667358152377
 10
40.877764166542555
 20
1.061286967033318
 10
40.8970912842988
 20
1.0659292905972313
 10
40.916436967164024
 20
1.0704936310005
 10
40.93580090048416
 20
1.0749799140049563
 10
40.955182769309204
 20
1.079388066642197
 10
40.97458225839767
 20
1.0837180172146785
 10
40.993999052219635
 20
1.0879696952963571
 10
41.01343283496488
 20
1.092143031734583
 10
41.0328832905479
 20
1.0962379586510818
 10
41.05235010261043
 20
1.1002544094425863
 10
41.071832954528396
 20
1.1041923187822862
 10
41.09133152941744
 20
1.1080516226208998
 10
41.110845510138056
 20
1.111832258187852
 10
41.130374579297786
 20
1.1155341639915402
 10
41.14991841926129
 20
1.1191572798214469
 10
41.169476712151464
 20
1.122701546748211
 10
41.18904913985703
 20
1.126166907125116
 10
41.20863538403676
 20
1.1295533045888324
 10
41.22823512612304
 20
1.1328606840600723
 10
41.24784804733179
 20
1.1360889917452828
 10
41.267473828661146
 20
1.1392381751364122
 10
41.28711215090273
 20
1.1423081830127924
 10
41.30676269464359
 20
1.145298965441428
 10
41.32642514027046
 20
1.1482104737776573
 10
41.34609916797877
 20
1.1510426606665594
 10
41.36578445777384
 20
1.1537954800431154
 10
41.385480689478435
 20
1.1564688871332514
 10
41.4051875427373
 20
1.1590628384545614
 10
41.42490469702325
 20
1.1615772918170582
 10
41.4446318316394
 20
1.1640122063234615
 10
41.46436862572946
 20
1.1663675423706097
 10
41.484114758277
 20
1.1686432616492572
 10
41.5038699081165
 20
1.170839327145423
 10
41.52363375393323
 20
1.1729557031404347
 10
41.543405974273355
 20
1.174992355211959
 10
41.563186247545055
 20
1.1769492502342114
 10
41.58297425202659
 20
1.1788263563787358
 10
41.60276966586959
 20
1.1806236431147175
 10
41.622572167106064
 20
1.1823410812097002
 10
41.64238143365253
 20
1.183978642729923
 10
41.662197143314856
 20
1.1855363010407247
 10
41.68201897379446
 20
1.187014030807119
 10
41.701846602693855
 20
1.188411807994177
 10
41.72167970752018
 20
1.189729609867285
 10
41.74151796569241
 20
1.1909674149926959
 10
41.76136105454509
 20
1.192125203237746
 10
41.78120865133426
 20
1.193202955771238
 10
41.80106043324316
 20
1.194200655063775
 10
41.820916077386286
 20
1.1951182848879458
 10
41.840775260815555
 20
1.195955830318702
 10
41.86063766052581
 20
1.1967132777335496
 10
41.880502953458894
 20
1.1973906148127473
 10
41.90037081650969
 20
1.1979878305395464
 10
41.92024092653178
 20
1.1985049152003493
 10
41.94011296034153
 20
1.1989418603848863
 10
41.95998659472454
 20
1.1992986589863344
 10
41.97986150645452
 20
1.1995753052016387
 10
41.99973737603909
 20
1.1997717945966755
 10
42.019611312994236
 20
1.1998881269624322
 10
42.038461396744374
 20
1.1999244741527877
 10
42.038579697700094
 20
1.1999244686900814
  0
LWPOLYLINE
  5
36
330
17
100
AcDbEntity
  8
0
100
AcDbPolyline
 90
34
 70
0
 10
1.1169531627605072
 20
0.63908144879597
 10
1.9180591315914433
 20
0.10237211394678494
 10
1.913522557594626
 20
-0.002687960776496929
 10
1.9079562333223195
 20
-0.13159546771737415
 10
1.9043217292972376
 20
-0.215764989635243
 10
1.906064624080429
 20
-0.23737845484451944
 10
1.2239401906348633
 20
-0.6276661461458484
 10
1.2453860019481795
 20
-0.8343593965621205
 10
1.3560846966365234
 20
-1.9012657815756413
 10
1.2350850478004143
 20
-1.9741179597541803
 10
1.1668336317748684
 20
-2.0152111725780077
 10
1.0458339829387595
 20
-2.0880633507565465
 10
0.15470567283755265
 20
-1.4910426054515884
 10
-0.11529503373171449
 20
-1.3101528040148662
 10
-0.7320355200271796
 20
-1.5816823543971608
 10
-0.7975832670105955
 20
-1.543598377477667
 10
-0.9460082771667178
 20
-1.4573617801695773
 10
-1.011556024150134
 20
-1.4192778032500832
 10
-1.1081928178341858
 20
-0.4878990503296531
 10
-1.1263772055588517
 20
-0.31263917553502857
 10
-1.4574578707190688
 20
0.39409070586466605
 10
-1.458493506397589
 20
0.3987426320959099
 10
-1.4763464930676118
 20
0.47893567557525846
 10
-1.359939631727437
 20
0.6573748754068043
 10
-1.3569349277700804
 20
0.6619807634421717
 10
-0.5198614267302687
 20
1.0305153358026207
 10
-0.49060568602739046
 20
1.047254445173855
 10
0.3248087986971896
 20
1.5138060317946183
 10
0.340816157223349
 20
1.518061772092313
 10
0.42413293546345654
 20
1.5402124954643852
 10
0.5896973113082509
 20
1.4349426280353776
 10
0.6052443131149166
 20
1.4250574651749779
 10
0.9078079474864986
 20
0.7792004764202565
 10
1.1169531627605072
 20
0.63908144879597
  0
LWPOLYLINE
  5
37
330
17
100
AcDbEntity
  8
0
100
AcDbPolyline
 90
13
 70
0
 10
-10.647806355406495
 20
22.66229842856624
 10
-10.596580322091542
 20
22.68629620993901
 10
-9.777645679731087
 20
23.069941267621388
 10
-9.751050044994882
 20
23.060314626827303
 10
-6.227287926020666
 20
15.538437795940043
 10
-6.236914566814752
 20
15.511842161203838
 10
-7.055849209175203
 20
15.128197103521464
 10
-7.107075242490154
 20
15.104199322148693
 10
-7.926009884850606
 20
14.72055426446632
 10
-7.95260551958681
 20
14.730180905260408
 10
-11.476367638561035
 20
22.252057736147652
 10
-11.466740997766948
 20
22.27865337088386
 10
-10.647806355406495
 20
22.66229842856624
  0
LWPOLYLINE
  5
38
330
17
100
AcDbEntity
  8
0
100
AcDbPolyline
 90
13
 70
0
 10
39.138497976786596
 20
23.491215173747175
 10
39.16578974409625
 20
23.48378823379078
 10
39.61490551735804
 20
22.69884715259448
 10
39.642998625615206
 20
22.649747485910783
 10
40.09211439887701
 20
21.86480640471449
 10
40.08468745892061
 20
21.83751463740484
 10
26.909755475691114
 20
14.299280358340543
 10
26.882463708381465
 20
14.30670729829694
 10
26.43334793511967
 20
15.091648379493234
 10
26.4052548268625
 20
15.140748046176942
 10
25.9561390536007
 20
15.92568912737324
 10
25.963565993557097
 20
15.95298089468289
 10
39.138497976786596
 20
23.491215173747175
  0
ENDSEC
  0
SECTION
  2
OBJECTS
  0
DICTIONARY
  5
A
330
0
100
AcDbDictionary
281
1
  3
ACAD_COLOR
350
B
  3
ACAD_GROUP
350
C
  3
ACAD_LAYOUT
350
D
  3
ACAD_MATERIAL
350
E
  3
ACAD_MLEADERSTYLE
350
F
  3
ACAD_MLINESTYLE
350
10
  3
ACAD_PLOTSETTINGS
350
11
  3
ACAD_PLOTSTYLENAME
350
12
  3
ACAD_SCALELIST
350
14
  3
ACAD_TABLESTYLE
350
15
  3
ACAD_VISUALSTYLE
350
16
  3
EZDXF_META
350
2D
  0
DICTIONARY
  5
B
330
A
100
AcDbDictionary
281
1
  0
DICTIONARY
  5
C
330
A
100
AcDbDictionary
281
1
  0
DICTIONARY
  5
D
330
A
100
AcDbDictionary
281
1
  3
Model
350
1A
  3
Layout1
350
1E
  0
DICTIONARY
  5
E
330
A
100
AcDbDictionary
281
1
  3
ByBlock
350
1F
  3
ByLayer
350
20
  3
Global
350
21
  0
DICTIONARY
  5
F
330
A
100
AcDbDictionary
281
1
  3
Standard
350
2C
  0
DICTIONARY
  5
10
330
A
100
AcDbDictionary
281
1
  3
Standard
350
22
  0
DICTIONARY
  5
11
330
A
100
AcDbDictionary
281
1
  0
ACDBDICTIONARYWDFLT
  5
12
330
A
100
AcDbDictionary
281
1
  3
Normal
350
13
100
AcDbDictionaryWithDefault
340
13
  0
ACDBPLACEHOLDER
  5
13
330
12
  0
DICTIONARY
  5
14
330
A
100
AcDbDictionary
281
1
  0
DICTIONARY
  5
15
330
A
100
AcDbDictionary
281
1
  0
DICTIONARY
  5
16
330
A
100
AcDbDictionary
281
1
  0
LAYOUT
  5
1A
330
D
100
AcDbPlotSettings
  1

  2
Adobe PDF
  4
A3
  6

 40
7.5
 41
20.0
 42
7.5
 43
20.0
 44
420.0
 45
297.0
 46
0.0
 47
0.0
 48
0.0
 49
0.0
140
0.0
141
0.0
142
1.0
143
1.0
 70
1024
 72
1
 73
1
 74
5
  7

 75
16
 76
0
 77
2
 78
300
147
1.0
148
0.0
149
0.0
100
AcDbLayout
  1
Model
 70
1
 71
0
 10
0.0
 20
0.0
 11
420.0
 21
297.0
 12
0.0
 22
0.0
 32
0.0
 14
1e+20
 24
1e+20
 34
1e+20
 15
-1e+20
 25
-1e+20
 35
-1e+20
146
0.0
 13
0.0
 23
0.0
 33
0.0
 16
1.0
 26
0.0
 36
0.0
 17
0.0
 27
1.0
 37
0.0
 76
1
330
17
  0
LAYOUT
  5
1E
330
D
100
AcDbPlotSettings
  1

  2
Adobe PDF
  4
A3
  6

 40
7.5
 41
20.0
 42
7.5
 43
20.0
 44
420.0
 45
297.0
 46
0.0
 47
0.0
 48
0.0
 49
0.0
140
0.0
141
0.0
142
1.0
143
1.0
 70
0
 72
1
 73
1
 74
5
  7

 75
16
 76
0
 77
2
 78
300
147
1.0
148
0.0
149
0.0
100
AcDbLayout
  1
Layout1
 70
1
 71
1
 10
0.0
 20
0.0
 11
420.0
 21
297.0
 12
0.0
 22
0.0
 32
0.0
 14
1e+20
 24
1e+20
 34
1e+20
 15
-1e+20
 25
-1e+20
 35
-1e+20
146
0.0
 13
0.0
 23
0.0
 33
0.0
 16
1.0
 26
0.0
 36
0.0
 17
0.0
 27
1.0
 37
0.0
 76
1
330
1B
  0
MATERIAL
  5
1F
102
{ACAD_REACTORS
330
E
102
}
330
E
100
AcDbMaterial
  1
ByBlock
  2

 70
0
 40
1.0
 71
1
 41
1.0
 91
-1023410177
 42
1.0
 72
1
  3

 73
1
 74
1
 75
1
 44
0.5
 73
0
 45
1.0
 46
1.0
 77
1
  4

 78
1
 79
1
170
1
 48
1.0
171
1
  6

172
1
173
1
174
1
140
1.0
141
1.0
175
1
  7

176
1
177
1
178
1
143
1.0
179
1
  8

270
1
271
1
272
1
145
1.0
146
1.0
273
1
  9

274
1
275
1
276
1
 42
1.0
 72
1
  3

 73
1
 74
1
 75
1
 94
63
  0
MATERIAL
  5
20
102
{ACAD_REACTORS
330
E
102
}
330
E
100
AcDbMaterial
  1
ByLayer
  2

 70
0
 40
1.0
 71
1
 41
1.0
 91
-1023410177
 42
1.0
 72
1
  3

 73
1
 74
1
 75
1
 44
0.5
 73
0
 45
1.0
 46
1.0
 77
1
  4

 78
1
 79
1
170
1
 48
1.0
171
1
  6

172
1
173
1
174
1
140
1.0
141
1.0
175
1
  7

176
1
177
1
178
1
143
1.0
179
1
  8

270
1
271
1
272
1
145
1.0
146
1.0
273
1
  9

274
1
275
1
276
1
 42
1.0
 72
1
  3

 73
1
 74
1
 75
1
 94
63
  0
MATERIAL
  5
21
102
{ACAD_REACTORS
330
E
102
}
330
E
100
AcDbMaterial
  1
Global
  2

 70
0
 40
1.0
 71
1
 41
1.0
 91
-1023410177
 42
1.0
 72
1
  3

 73
1
 74
1
 75
1
 44
0.5
 73
0
 45
1.0
 46
1.0
 77
1
  4

 78
1
 79
1
170
1
 48
1.0
171
1
  6

172
1
173
1
174
1
140
1.0
141
1.0
175
1
  7

176
1
177
1
178
1
143
1.0
179
1
  8

270
1
271
1
272
1
145
1.0
146
1.0
273
1
  9

274
1
275
1
276
1
 42
1.0
 72
1
  3

 73
1
 74
1
 75
1
 94
63
  0
MLINESTYLE
  5
22
102
{ACAD_REACTORS
330
10
102
}
330
10
100
AcDbMlineStyle
  2
Standard
 70
0
  3

 62
256
 51
90.0
 52
90.0
 71
2
 49
0.5
 62
256
  6
BYLAYER
 49
-0.5
 62
256
  6
BYLAYER
  0
MLEADERSTYLE
  5
2C
102
{ACAD_REACTORS
330
F
102
}
330
F
100
AcDbMLeaderStyle
179
2
170
2
171
1
172
0
 90
2
 40
0.0
 41
0.0
173
1
 91
-1056964608
 92
-2
290
1
 42
2.0
291
1
 43
8.0
  3
Standard
 44
4.0
300

342
29
174
1
175
1
176
0
178
1
 93
-1056964608
 45
4.0
292
0
297
0
 46
4.0
 94
-1056964608
 47
1.0
 49
1.0
140
1.0
294
1
141
0.0
177
0
142
1.0
295
0
296
0
143
3.75
271
0
272
9
273
9
  0
DICTIONARY
  5
2D
330
A
100
AcDbDictionary
280
1
281
1
  3
CREATED_BY_EZDXF
350
2E
  3
WRITTEN_BY_EZDXF
350
3B
  0
DICTIONARYVAR
  5
2E
330
2D
100
DictionaryVariables
280
0
  1
0.17.2 @ 2022-03-16T17:28:58.473330+00:00
  0
DICTIONARYVAR
  5
3B
330
2D
100
DictionaryVariables
280
0
  1
0.17.2 @ 2022-03-16T17:28:58.477776+00:00
  0
ENDSEC
  0
EOF
