  0
SECTION
  2
HEADER
  9
$ACADVER
  1
AC1024
  9
$ACADMAINTVER
 70
6
  9
$DWGCODEPAGE
  3
ANSI_1252
  9
$LASTSAVEDBY
  1
ezdxf
  9
$INSBASE
 10
0.0
 20
0.0
 30
0.0
  9
$EXTMIN
 10
1e+20
 20
1e+20
 30
1e+20
  9
$EXTMAX
 10
-1e+20
 20
-1e+20
 30
-1e+20
  9
$LIMMIN
 10
0.0
 20
0.0
  9
$LIMMAX
 10
420.0
 20
297.0
  9
$ORTHOMODE
 70
0
  9
$REGENMODE
 70
1
  9
$FILLMODE
 70
1
  9
$QTEXTMODE
 70
0
  9
$MIRRTEXT
 70
1
  9
$LTSCALE
 40
1.0
  9
$ATTMODE
 70
1
  9
$TEXTSIZE
 40
2.5
  9
$TRACEWID
 40
1.0
  9
$TEXTSTYLE
  7
Standard
  9
$CLAYER
  8
0
  9
$CELTYPE
  6
ByLayer
  9
$CECOLOR
 62
256
  9
$CELTSCALE
 40
1.0
  9
$DISPSILH
 70
0
  9
$DIMSCALE
 40
1.0
  9
$DIMASZ
 40
2.5
  9
$DIMEXO
 40
0.625
  9
$DIMDLI
 40
3.75
  9
$DIMRND
 40
0.0
  9
$DIMDLE
 40
0.0
  9
$DIMEXE
 40
1.25
  9
$DIMTP
 40
0.0
  9
$DIMTM
 40
0.0
  9
$DIMTXT
 40
2.5
  9
$DIMCEN
 40
2.5
  9
$DIMTSZ
 40
0.0
  9
$DIMTOL
 70
0
  9
$DIMLIM
 70
0
  9
$DIMTIH
 70
0
  9
$DIMTOH
 70
0
  9
$DIMSE1
 70
0
  9
$DIMSE2
 70
0
  9
$DIMTAD
 70
1
  9
$DIMZIN
 70
8
  9
$DIMBLK
  1

  9
$DIMASO
 70
1
  9
$DIMSHO
 70
1
  9
$DIMPOST
  1

  9
$DIMAPOST
  1

  9
$DIMALT
 70
0
  9
$DIMALTD
 70
3
  9
$DIMALTF
 40
0.03937007874
  9
$DIMLFAC
 40
1.0
  9
$DIMTOFL
 70
1
  9
$DIMTVP
 40
0.0
  9
$DIMTIX
 70
0
  9
$DIMSOXD
 70
0
  9
$DIMSAH
 70
0
  9
$DIMBLK1
  1

  9
$DIMBLK2
  1

  9
$DIMSTYLE
  2
ISO-25
  9
$DIMCLRD
 70
0
  9
$DIMCLRE
 70
0
  9
$DIMCLRT
 70
0
  9
$DIMTFAC
 40
1.0
  9
$DIMGAP
 40
0.625
  9
$DIMJUST
 70
0
  9
$DIMSD1
 70
0
  9
$DIMSD2
 70
0
  9
$DIMTOLJ
 70
0
  9
$DIMTZIN
 70
8
  9
$DIMALTZ
 70
0
  9
$DIMALTTZ
 70
0
  9
$DIMUPT
 70
0
  9
$DIMDEC
 70
2
  9
$DIMTDEC
 70
2
  9
$DIMALTU
 70
2
  9
$DIMALTTD
 70
3
  9
$DIMTXSTY
  7
Standard
  9
$DIMAUNIT
 70
0
  9
$DIMADEC
 70
0
  9
$DIMALTRND
 40
0.0
  9
$DIMAZIN
 70
0
  9
$DIMDSEP
 70
44
  9
$DIMATFIT
 70
3
  9
$DIMFRAC
 70
0
  9
$DIMLDRBLK
  1

  9
$DIMLUNIT
 70
2
  9
$DIMLWD
 70
-2
  9
$DIMLWE
 70
-2
  9
$DIMTMOVE
 70
0
  9
$DIMFXL
 40
1.0
  9
$DIMFXLON
 70
0
  9
$DIMJOGANG
 40
0.785398163397
  9
$DIMTFILL
 70
0
  9
$DIMTFILLCLR
 70
0
  9
$DIMARCSYM
 70
0
  9
$DIMLTYPE
  6

  9
$DIMLTEX1
  6

  9
$DIMLTEX2
  6

  9
$DIMTXTDIRECTION
 70
0
  9
$LUNITS
 70
2
  9
$LUPREC
 70
4
  9
$SKETCHINC
 40
1.0
  9
$FILLETRAD
 40
10.0
  9
$AUNITS
 70
0
  9
$AUPREC
 70
2
  9
$MENU
  1
.
  9
$ELEVATION
 40
0.0
  9
$PELEVATION
 40
0.0
  9
$THICKNESS
 40
0.0
  9
$LIMCHECK
 70
0
  9
$CHAMFERA
 40
0.0
  9
$CHAMFERB
 40
0.0
  9
$CHAMFERC
 40
0.0
  9
$CHAMFERD
 40
0.0
  9
$SKPOLY
 70
0
  9
$TDCREATE
 40
2459663.387997685
  9
$TDUCREATE
 40
2458532.153996898
  9
$TDUPDATE
 40
2459663.387997685
  9
$TDUUPDATE
 40
2458532.1544311
  9
$TDINDWG
 40
0.0
  9
$TDUSRTIMER
 40
0.0
  9
$USRTIMER
 70
1
  9
$ANGBASE
 50
0.0
  9
$ANGDIR
 70
0
  9
$PDMODE
 70
0
  9
$PDSIZE
 40
0.0
  9
$PLINEWID
 40
0.0
  9
$SPLFRAME
 70
0
  9
$SPLINETYPE
 70
6
  9
$SPLINESEGS
 70
8
  9
$HANDSEED
  5
40
  9
$SURFTAB1
 70
6
  9
$SURFTAB2
 70
6
  9
$SURFTYPE
 70
6
  9
$SURFU
 70
6
  9
$SURFV
 70
6
  9
$UCSBASE
  2

  9
$UCSNAME
  2

  9
$UCSORG
 10
0.0
 20
0.0
 30
0.0
  9
$UCSXDIR
 10
1.0
 20
0.0
 30
0.0
  9
$UCSYDIR
 10
0.0
 20
1.0
 30
0.0
  9
$UCSORTHOREF
  2

  9
$UCSORTHOVIEW
 70
0
  9
$UCSORGTOP
 10
0.0
 20
0.0
 30
0.0
  9
$UCSORGBOTTOM
 10
0.0
 20
0.0
 30
0.0
  9
$UCSORGLEFT
 10
0.0
 20
0.0
 30
0.0
  9
$UCSORGRIGHT
 10
0.0
 20
0.0
 30
0.0
  9
$UCSORGFRONT
 10
0.0
 20
0.0
 30
0.0
  9
$UCSORGBACK
 10
0.0
 20
0.0
 30
0.0
  9
$PUCSBASE
  2

  9
$PUCSNAME
  2

  9
$PUCSORG
 10
0.0
 20
0.0
 30
0.0
  9
$PUCSXDIR
 10
1.0
 20
0.0
 30
0.0
  9
$PUCSYDIR
 10
0.0
 20
1.0
 30
0.0
  9
$PUCSORTHOREF
  2

  9
$PUCSORTHOVIEW
 70
0
  9
$PUCSORGTOP
 10
0.0
 20
0.0
 30
0.0
  9
$PUCSORGBOTTOM
 10
0.0
 20
0.0
 30
0.0
  9
$PUCSORGLEFT
 10
0.0
 20
0.0
 30
0.0
  9
$PUCSORGRIGHT
 10
0.0
 20
0.0
 30
0.0
  9
$PUCSORGFRONT
 10
0.0
 20
0.0
 30
0.0
  9
$PUCSORGBACK
 10
0.0
 20
0.0
 30
0.0
  9
$USERI1
 70
0
  9
$USERI2
 70
0
  9
$USERI3
 70
0
  9
$USERI4
 70
0
  9
$USERI5
 70
0
  9
$USERR1
 40
0.0
  9
$USERR2
 40
0.0
  9
$USERR3
 40
0.0
  9
$USERR4
 40
0.0
  9
$USERR5
 40
0.0
  9
$WORLDVIEW
 70
1
  9
$SHADEDGE
 70
3
  9
$SHADEDIF
 70
70
  9
$TILEMODE
 70
1
  9
$MAXACTVP
 70
64
  9
$PINSBASE
 10
0.0
 20
0.0
 30
0.0
  9
$PLIMCHECK
 70
0
  9
$PEXTMIN
 10
1e+20
 20
1e+20
 30
1e+20
  9
$PEXTMAX
 10
-1e+20
 20
-1e+20
 30
-1e+20
  9
$PLIMMIN
 10
0.0
 20
0.0
  9
$PLIMMAX
 10
420.0
 20
297.0
  9
$UNITMODE
 70
0
  9
$VISRETAIN
 70
1
  9
$PLINEGEN
 70
0
  9
$PSLTSCALE
 70
1
  9
$TREEDEPTH
 70
3020
  9
$CMLSTYLE
  2
Standard
  9
$CMLJUST
 70
0
  9
$CMLSCALE
 40
20.0
  9
$PROXYGRAPHICS
 70
1
  9
$MEASUREMENT
 70
1
  9
$CELWEIGHT
370
-1
  9
$ENDCAPS
280
0
  9
$JOINSTYLE
280
0
  9
$LWDISPLAY
290
0
  9
$INSUNITS
 70
6
  9
$HYPERLINKBASE
  1

  9
$STYLESHEET
  1

  9
$XEDIT
290
1
  9
$CEPSNTYPE
380
0
  9
$PSTYLEMODE
290
1
  9
$FINGERPRINTGUID
  2
{FEC10873-DA43-422D-80FA-6792171AD313}
  9
$VERSIONGUID
  2
{150BA98E-693E-40CF-A51C-354F4CC3399B}
  9
$EXTNAMES
290
1
  9
$PSVPSCALE
 40
0.0
  9
$OLESTARTUP
290
0
  9
$SORTENTS
280
127
  9
$INDEXCTL
280
0
  9
$HIDETEXT
280
1
  9
$XCLIPFRAME
280
0
  9
$HALOGAP
280
0
  9
$OBSCOLOR
 70
257
  9
$OBSLTYPE
280
0
  9
$INTERSECTIONDISPLAY
280
0
  9
$INTERSECTIONCOLOR
 70
257
  9
$DIMASSOC
280
2
  9
$PROJECTNAME
  1

  9
$CAMERADISPLAY
290
0
  9
$LENSLENGTH
 40
50.0
  9
$CAMERAHEIGHT
 40
0.0
  9
$STEPSPERSEC
 40
24.0
  9
$STEPSIZE
 40
100.0
  9
$3DDWFPREC
 40
2.0
  9
$PSOLWIDTH
 40
0.005
  9
$PSOLHEIGHT
 40
0.08
  9
$LOFTANG1
 40
1.570796326795
  9
$LOFTANG2
 40
1.570796326795
  9
$LOFTMAG1
 40
0.0
  9
$LOFTMAG2
 40
0.0
  9
$LOFTPARAM
 70
7
  9
$LOFTNORMALS
280
1
  9
$LATITUDE
 40
37.795
  9
$LONGITUDE
 40
-122.394
  9
$NORTHDIRECTION
 40
0.0
  9
$TIMEZONE
 70
-8000
  9
$LIGHTGLYPHDISPLAY
280
1
  9
$TILEMODELIGHTSYNCH
280
1
  9
$CMATERIAL
347
20
  9
$SOLIDHIST
280
0
  9
$SHOWHIST
280
1
  9
$DWFFRAME
280
2
  9
$DGNFRAME
280
2
  9
$REALWORLDSCALE
290
1
  9
$INTERFERECOLOR
 62
256
  9
$CSHADOW
280
0
  9
$SHADOWPLANELOCATION
 40
0.0
  0
ENDSEC
  0
SECTION
  2
CLASSES
  0
CLASS
  1
ACDBDICTIONARYWDFLT
  2
AcDbDictionaryWithDefault
  3
ObjectDBX Classes
 90
0
 91
0
280
0
281
0
  0
CLASS
  1
SUN
  2
AcDbSun
  3
SCENEOE
 90
1153
 91
0
280
0
281
0
  0
CLASS
  1
VISUALSTYLE
  2
AcDbVisualStyle
  3
ObjectDBX Classes
 90
4095
 91
0
280
0
281
0
  0
CLASS
  1
MATERIAL
  2
AcDbMaterial
  3
ObjectDBX Classes
 90
1153
 91
0
280
0
281
0
  0
CLASS
  1
SCALE
  2
AcDbScale
  3
ObjectDBX Classes
 90
1153
 91
0
280
0
281
0
  0
CLASS
  1
TABLESTYLE
  2
AcDbTableStyle
  3
ObjectDBX Classes
 90
4095
 91
0
280
0
281
0
  0
CLASS
  1
MLEADERSTYLE
  2
AcDbMLeaderStyle
  3
ACDB_MLEADERSTYLE_CLASS
 90
4095
 91
0
280
0
281
0
  0
CLASS
  1
DICTIONARYVAR
  2
AcDbDictionaryVar
  3
ObjectDBX Classes
 90
0
 91
0
280
0
281
0
  0
CLASS
  1
CELLSTYLEMAP
  2
AcDbCellStyleMap
  3
ObjectDBX Classes
 90
1152
 91
0
280
0
281
0
  0
CLASS
  1
MENTALRAYRENDERSETTINGS
  2
AcDbMentalRayRenderSettings
  3
SCENEOE
 90
1024
 91
0
280
0
281
0
  0
CLASS
  1
ACDBDETAILVIEWSTYLE
  2
AcDbDetailViewStyle
  3
ObjectDBX Classes
 90
1025
 91
0
280
0
281
0
  0
CLASS
  1
ACDBSECTIONVIEWSTYLE
  2
AcDbSectionViewStyle
  3
ObjectDBX Classes
 90
1025
 91
0
280
0
281
0
  0
CLASS
  1
RASTERVARIABLES
  2
AcDbRasterVariables
  3
ISM
 90
0
 91
0
280
0
281
0
  0
CLASS
  1
ACDBPLACEHOLDER
  2
AcDbPlaceHolder
  3
ObjectDBX Classes
 90
0
 91
0
280
0
281
0
  0
CLASS
  1
LAYOUT
  2
AcDbLayout
  3
ObjectDBX Classes
 90
0
 91
0
280
0
281
0
  0
ENDSEC
  0
SECTION
  2
TABLES
  0
TABLE
  2
VPORT
  5
8
330
0
100
AcDbSymbolTable
 70
1
  0
VPORT
  5
23
330
8
100
AcDbSymbolTableRecord
100
AcDbViewportTableRecord
  2
*Active
 70
0
 10
0.0
 20
0.0
 11
1.0
 21
1.0
 12
0.0
 22
0.0
 13
0.0
 23
0.0
 14
0.5
 24
0.5
 15
0.5
 25
0.5
 16
0.0
 26
0.0
 36
1.0
 17
0.0
 27
0.0
 37
0.0
 40
1000.0
 41
1.34
 42
50.0
 43
0.0
 44
0.0
 50
0.0
 51
0.0
 71
0
 72
1000
 73
1
 74
3
 75
0
 76
0
 77
0
 78
0
281
0
 65
0
146
0.0
  0
ENDTAB
  0
TABLE
  2
LTYPE
  5
2
330
0
100
AcDbSymbolTable
 70
3
  0
LTYPE
  5
24
330
2
100
AcDbSymbolTableRecord
100
AcDbLinetypeTableRecord
  2
ByBlock
 70
0
  3

 72
65
 73
0
 40
0.0
  0
LTYPE
  5
25
330
2
100
AcDbSymbolTableRecord
100
AcDbLinetypeTableRecord
  2
ByLayer
 70
0
  3

 72
65
 73
0
 40
0.0
  0
LTYPE
  5
26
330
2
100
AcDbSymbolTableRecord
100
AcDbLinetypeTableRecord
  2
Continuous
 70
0
  3

 72
65
 73
0
 40
0.0
  0
ENDTAB
  0
TABLE
  2
LAYER
  5
1
330
0
100
AcDbSymbolTable
 70
4
  0
LAYER
  5
27
330
1
100
AcDbSymbolTableRecord
100
AcDbLayerTableRecord
  2
0
 70
0
 62
7
  6
Continuous
370
-3
390
13
347
21
  0
LAYER
  5
28
330
1
100
AcDbSymbolTableRecord
100
AcDbLayerTableRecord
  2
Defpoints
 70
0
 62
7
  6
Continuous
290
0
370
-3
390
13
347
21
  0
LAYER
  5
2F
330
1
100
AcDbSymbolTableRecord
100
AcDbLayerTableRecord
  2
body
 70
0
 62
10
  6
Continuous
370
-3
390
13
347
21
  0
LAYER
  5
37
330
1
100
AcDbSymbolTableRecord
100
AcDbLayerTableRecord
  2
joints
 70
0
 62
170
  6
Continuous
370
-3
390
13
347
21
  0
ENDTAB
  0
TABLE
  2
STYLE
  5
5
330
0
100
AcDbSymbolTable
 70
1
  0
STYLE
  5
29
330
5
100
AcDbSymbolTableRecord
100
AcDbTextStyleTableRecord
  2
Standard
 70
0
 40
0.0
 41
1.0
 50
0.0
 71
0
 42
2.5
  3
txt
  4

  0
ENDTAB
  0
TABLE
  2
VIEW
  5
7
330
0
100
AcDbSymbolTable
 70
0
  0
ENDTAB
  0
TABLE
  2
UCS
  5
6
330
0
100
AcDbSymbolTable
 70
0
  0
ENDTAB
  0
TABLE
  2
APPID
  5
3
330
0
100
AcDbSymbolTable
 70
3
  0
APPID
  5
2A
330
3
100
AcDbSymbolTableRecord
100
AcDbRegAppTableRecord
  2
ACAD
 70
0
  0
APPID
  5
3D
330
3
100
AcDbSymbolTableRecord
100
AcDbRegAppTableRecord
  2
HATCHBACKGROUNDCOLOR
 70
0
  0
APPID
  5
3E
330
3
100
AcDbSymbolTableRecord
100
AcDbRegAppTableRecord
  2
EZDXF
 70
0
  0
ENDTAB
  0
TABLE
  2
DIMSTYLE
  5
4
330
0
100
AcDbSymbolTable
 70
1
100
AcDbDimStyleTable
  0
DIMSTYLE
105
2B
330
4
100
AcDbSymbolTableRecord
100
AcDbDimStyleTableRecord
  2
Standard
 70
0
 40
1.0
 41
2.5
 42
0.625
 43
3.75
 44
1.25
 45
0.0
 46
0.0
 47
0.0
 48
0.0
 49
2.5
140
2.5
141
2.5
142
0.0
143
0.03937007874
144
1.0
145
0.0
146
1.0
147
0.625
148
0.0
 69
0
 70
0
 71
0
 72
0
 73
0
 74
0
 75
0
 76
0
 77
1
 78
8
 79
3
170
0
171
3
172
1
173
0
174
0
175
0
176
0
177
0
178
0
179
2
271
2
272
2
273
2
274
3
275
0
276
0
277
2
278
44
279
0
280
0
281
0
282
0
283
0
284
8
285
0
286
0
288
0
289
3
290
0
371
-2
372
-2
  0
ENDTAB
  0
TABLE
  2
BLOCK_RECORD
  5
9
330
0
100
AcDbSymbolTable
 70
2
  0
BLOCK_RECORD
  5
17
330
9
100
AcDbSymbolTableRecord
100
AcDbBlockTableRecord
  2
*Model_Space
340
1A
 70
0
280
1
281
0
  0
BLOCK_RECORD
  5
1B
330
9
100
AcDbSymbolTableRecord
100
AcDbBlockTableRecord
  2
*Paper_Space
340
1E
 70
0
280
1
281
0
  0
ENDTAB
  0
ENDSEC
  0
SECTION
  2
BLOCKS
  0
BLOCK
  5
18
330
17
100
AcDbEntity
  8
0
100
AcDbBlockBegin
  2
*Model_Space
 70
0
 10
0.0
 20
0.0
 30
0.0
  3
*Model_Space
  1

  0
ENDBLK
  5
19
330
17
100
AcDbEntity
  8
0
100
AcDbBlockEnd
  0
BLOCK
  5
1C
330
1B
100
AcDbEntity
  8
0
100
AcDbBlockBegin
  2
*Paper_Space
 70
0
 10
0.0
 20
0.0
 30
0.0
  3
*Paper_Space
  1

  0
ENDBLK
  5
1D
330
1B
100
AcDbEntity
  8
0
100
AcDbBlockEnd
  0
ENDSEC
  0
SECTION
  2
ENTITIES
  0
LWPOLYLINE
  5
30
330
17
100
AcDbEntity
  8
body
100
AcDbPolyline
 90
4
 70
0
 10
0.012146952378485398
 20
-0.02017478418591523
 10
57.403432766061314
 20
-38.470067849084074
 10
6.5905947333935035
 20
-63.422800811554836
 10
0.012146952378485398
 20
-0.02017478418591523
  0
LWPOLYLINE
  5
31
330
17
100
AcDbEntity
  8
body
100
AcDbPolyline
 90
5
 70
0
 10
-51.27903488443647
 20
-22.58731552193353
 10
-0.008530339254783524
 20
-0.014681883678724361
 10
6.570796383534628
 20
-63.425779091252586
 10
-21.770840575640683
 20
-58.066554980674525
 10
-51.27903488443647
 20
-22.58731552193353
  0
LWPOLYLINE
  5
32
330
17
100
AcDbEntity
  8
body
100
AcDbPolyline
 90
7
 70
0
 10
-26.120551244122865
 20
-27.413332926484397
 10
-26.120462462766948
 20
-27.430601799078133
 10
-11.995580729833145
 20
-35.58517269644193
 10
-11.980660030545907
 20
-35.57776762471956
 10
-9.723591300025577
 20
-17.739643786736163
 10
-9.738600780668733
 20
-17.7297799858648
 10
-26.120551244122865
 20
-27.413332926484397
  0
LWPOLYLINE
  5
33
330
17
100
AcDbEntity
  8
body
100
AcDbPolyline
 90
4
 70
0
 10
66.03610029361798
 20
37.77202075427911
 10
57.415306105951174
 20
-38.45394890509027
 10
0.01896585648558613
 20
-0.000669567997717836
 10
66.03610029361798
 20
37.77202075427911
  0
LWPOLYLINE
  5
34
330
17
100
AcDbEntity
  8
body
100
AcDbPolyline
 90
3117
 70
0
 10
42.0385403317167
 20
1.1999245485535834
 10
42.038500884690215
 20
1.1999245502944063
 10
42.01953265288042
 20
1.1998879752880862
 10
42.01949320615359
 20
1.199887821422406
 10
41.99965704015579
 20
1.199771323724146
 10
41.999616711773086
 20
1.1997710055503805
 10
41.97978117692098
 20
1.1995745104231506
 10
41.97974085014942
 20
1.1995740296093962
 10
41.95990626906393
 20
1.1992975402491262
 10
41.959865944559425
 20
1.1992968968032036
 10
41.940032639845924
 20
1.1989404177069536
 10
41.939992318264345
 20
1.198939611639328
 10
41.920160612507644
 20
1.198503148605158
 10
41.920120294504805
 20
1.1985021799289406
 10
41.900290510263304
 20
1.1979857400558305
 10
41.90025019649497
 20
1.1979846087867758
 10
41.880422656296375
 20
1.197388200474506
 10
41.88038234741826
 20
1.1973869066310143
 10
41.86055737375326
 20
1.1967105395800541
 10
41.860517070420954
 20
1.1967090831831695
 10
41.84069498573886
 20
1.1959527683944895
 10
41.840654688607906
 20
1.1959511494678998
 10
41.8208358153109
 20
1.19511489924281
 10
41.82079552503673
 20
1.1951131178128471
 10
41.80098018547463
 20
1.194196945752787
 10
41.80093990271252
 20
1.1941950018484249
 10
41.781128419177925
 20
1.1931989228547348
 10
41.78108814458311
 20
1.1931968165075915
 10
41.761280839305705
 20
1.1921208467813114
 10
41.76124057353322
 20
1.1921185780256456
 10
41.74143776867482
 20
1.1909627350671959
 10
41.74139751237958
 20
1.1909603039399084
 10
41.721599530028776
 20
1.1897246065488383
 10
41.721559283865545
 20
1.1897220130894712
 10
41.70176644603255
 20
1.1884064813641513
 10
41.70172621065592
 20
1.1884037256148863
 10
41.68193883926722
 20
1.187008380952166
 10
41.681898615331626
 20
1.1870054629578257
 10
41.66211703222473
 20
1.1855303280527159
 10
41.662076820384385
 20
1.1855272478607601
 10
41.642301347302684
 20
1.1839723467060201
 10
41.64226114821163
 20
1.1839691043665472
 10
41.62249210679933
 20
1.1823344622523273
 10
41.62245192111141
 20
1.1823310578180743
 10
41.60268963290782
 20
1.1806167013315043
 10
41.602649461276634
 20
1.180613134857843
 10
41.58289424771144
 20
1.178819091882583
 10
41.58285409079037
 20
1.178815363427521
 10
41.563106273178064
 20
1.1769416631433007
 10
41.563066131620275
 20
1.176937772767482
 10
41.543326031155075
 20
1.174984445649672
 10
41.543285905613445
 20
1.1749803934163714
 10
41.52355384336414
 20
1.1729474712354413
 10
41.52351373449129
 20
1.172943257210567
 10
41.50379003139589
 20
1.170830773031567
 10
41.503749939844205
 20
1.1708263972836617
 10
41.48403491670461
 20
1.1686343854657315
 10
41.48399484312616
 20
1.168629848065963
 10
41.464288820603365
 20
1.166358344261723
 10
41.46424876564994
 20
1.1663536452838936
 10
41.44455206425824
 20
1.164002686438894
 10
41.444512028581336
 20
1.1639978259594308
 10
41.42482496868364
 20
1.1615674503115507
 10
41.4247849529344
 20
1.1615624284095063
 10
41.405107854736805
 20
1.1590526754882862
 10
41.40506785956612
 20
1.1590474922453446
 10
41.38540104311261
 20
1.1564584028714349
 10
41.38536106917096
 20
1.1564530583718982
 10
41.36570485433817
 20
1.153784674656288
 10
41.365664902275725
 20
1.1537791689870827
 10
41.34601960876822
 20
1.1510315343305024
 10
41.34597967923482
 20
1.15102586758118
 10
41.326345626579126
 20
1.1481990266733502
 10
41.326305720224184
 20
1.1481931989360759
 10
41.30668322776428
 20
1.1452871977549859
 10
41.30664334523688
 20
1.1452812091245481
 10
41.28703273212858
 20
1.142296094935708
 10
41.286992874077406
 20
1.1422899455095117
 10
41.2673944592834
 20
1.1392257668652217
 10
41.26735462635673
 20
1.1392194567432847
 10
41.247768728641134
 20
1.1360762634817647
 10
41.24772892148684
 20
1.13606979276672
 10
41.228155859410435
 20
1.13284763601139
 10
41.228116078675974
 20
1.132841004808483
 10
41.20855617059048
 20
1.1295399369670431
 10
41.208516416922876
 20
1.1295331453841282
 10
41.18896998096637
 20
1.1261532201477982
 10
41.18893025501221
 20
1.1261462682953387
 10
41.16939760910351
 20
1.1226875406379087
 10
41.16935791150893
 20
1.122680428628976
 10
41.14983937334253
 20
1.119142954805946
 10
41.14979970475321
 20
1.1191356827562158
 10
41.13029559179411
 20
1.115519520303876
 10
41.13025595285525
 20
1.115512088331628
 10
41.11076658233385
 20
1.111817296066138
 10
41.11072697369015
 20
1.1118097042922472
 10
41.09125266259725
 20
1.1080363423086472
 10
41.09121308489296
 20
1.1080285908565983
 10
41.07175414997406
 20
1.104176720527848
 10
41.071714603852875
 20
1.1041688095237085
 10
41.05227136160388
 20
1.1002384934996987
 10
41.052231847709045
 20
1.100230423072149
 10
41.03280461437014
 20
1.096221725278679
 10
41.03276513334432
 20
1.0962134955589768
 10
41.01335422489552
 20
1.0921264811966866
 10
41.01331477738087
 20
1.092118092318688
 10
40.99392050953677
 20
1.087952827862058
 10
40.9938810961749
 20
1.0879442799622088
 10
40.974503784379195
 20
1.0837008331584088
 10
40.97446440581113
 20
1.083692126375734
 10
40.95510436523193
 20
1.079370566243554
 10
40.955065022098196
 20
1.079361700719672
 10
40.935722567622605
 20
1.074962097548422
 10
40.935683260563074
 20
1.0749530734275248
 10
40.91635870679227
 20
1.070475498775855
 10
40.916319436446294
 20
1.0704663162047237
 10
40.89701309769009
 20
1.0659108428994735
 10
40.89697386469638
 20
1.065901502027457
 10
40.87768605496848
 20
1.061268204162477
 10
40.87764685996513
 20
1.0612587051415
 10
40.85837789297793
 20
1.05654765807643
 10
40.85833873660247
 20
1.0565380010609977
 10
40.83908892576177
 20
1.0517492814200777
 10
40.839049808651076
 20
1.0517394665672608
 10
40.819819467050976
 20
1.0468731522380308
 10
40.81978038984122
 20
1.0468631797074526
 10
40.80056983025962
 20
1.0419193498395225
 10
40.80053079358647
 20
1.0419092197934037
 10
40.781340328478976
 20
1.0368879547971837
 10
40.7813013329773
 20
1.0368776674002727
 10
40.76213127447299
 20
1.0317790489455927
 10
40.76209232077705
 20
1.0317686043652168
 10
40.74294298067306
 20
1.0265927153800767
 10
40.74290406941644
 20
1.0265821137861153
 10
40.72377575917293
 20
1.0213290384553153
 10
40.723736890988505
 20
1.0213182800201999
 10
40.70462992172351
 20
1.01598810378392
 10
40.70459109724347
 20
1.0159771886826365
 10
40.685505779727976
 20
1.0105699982351266
 10
40.68546699958379
 20
1.0105589266452042
 10
40.66640364423659
 20
1.0050748099333042
 10
40.66636490905902
 20
1.0050635820348242
 10
40.64732382594171
 20
0.9995026282565939
 10
40.647285136360765
 20
0.9994912442321723
 10
40.628266635172665
 20
0.9938535438353823
 10
40.6282279918176
 20
0.9938420038701742
 10
40.609232381890905
 20
0.9881276485508842
 10
40.609193785390296
 20
0.9881159528325952
 10
40.5902213756846
 20
0.9823250355336354
 10
40.59018282666618
 20
0.9823131842524857
 10
40.571233925763885
 20
0.9764457991619356
 10
40.571195424854636
 20
0.9764337925106825
 10
40.55227034095593
 20
0.9704900350603926
 10
40.552231888782096
 20
0.9704778732343312
 10
40.5333309296994
 20
0.9644578400982812
 10
40.53329252688638
 20
0.9644455232952139
 10
40.51441600004007
 20
0.958349312388044
 10
40.51437764721248
 20
0.9583368408083038
 10
40.495525859625374
 20
0.9521645512836339
 10
40.49548755740699
 20
0.9521519251300611
 10
40.476660815699695
 20
0.9459036573789209
 10
40.47662256471352
 20
0.9458908768568881
 10
40.45782117509912
 20
0.9395667325060982
 10
40.45778297596731
 20
0.9395537978234749
 10
40.43900724424652
 20
0.9331538797339449
 10
40.43896909759035
 20
0.9331407911011107
 10
40.42021932914665
 20
0.9266652033662207
 10
40.420181235586575
 20
0.9266519609960552
 10
40.40145773538117
 20
0.9201008089399151
 10
40.40141969553679
 20
0.9200874130478077
 10
40.38272276810359
 20
0.9134608032235777
 10
40.38268478259359
 20
0.9134472540274042
 10
40.36401473203439
 20
0.9067452942155443
 10
40.363976801476625
 20
0.9067315919356904
 10
40.345333931455926
 20
0.8999543911422304
 10
40.345296056467305
 20
0.89994053600155
 10
40.32668067020761
 20
0.89308820445626
 10
40.32664285140417
 20
0.8930741966801107
 10
40.30805525168097
 20
0.8861468458347906
 10
40.30801748967782
 20
0.8861326856510026
 10
40.289457978814625
 20
0.8791304281775927
 10
40.289420274225954
 20
0.8791161158164728
 10
40.27088915408955
 20
0.8720390656052727
 10
40.27085150752866
 20
0.8720246012996288
 10
40.25234907952377
 20
0.8648728734574288
 10
40.25231149160291
 20
0.8648582574424967
 10
40.233838056667906
 20
0.8576319682906967
 10
40.233800527998476
 20
0.8576172008042149
 10
40.21535638659998
 20
0.8503164678769349
 10
40.21531891779237
 20
0.8503015491590938
 10
40.19690436992056
 20
0.8429264912012737
 10
40.19686696158418
 20
0.8429114214947181
 10
40.17848230674798
 20
0.8354621584601781
 10
40.17844495949128
 20
0.8354469380100156
 10
40.16009049671338
 20
0.8279235910595056
 10
40.16005321114381
 20
0.8279082201133027
 10
40.141729238955705
 20
0.8203109116125327
 10
40.141692015679666
 20
0.820295390420269
 10
40.123398832117275
 20
0.812624243937919
 10
40.12336167174027
 20
0.8126085727520791
 10
40.10509957433827
 20
0.8048637130577891
 10
40.10506247746464
 20
0.8048478921332339
 10
40.08683176325244
 20
0.7970294451955638
 10
40.0867947304856
 20
0.7970134747896334
 10
40.068595695982005
 20
0.7891215677740433
 10
40.068558727924255
 20
0.789105448146481
 10
40.05039166913295
 20
0.781140209413241
 10
40.050354766385574
 20
0.7811239408262335
 10
40.032219978790074
 20
0.7730854999283235
 10
40.032183141953304
 20
0.7730690826464812
 10
40.01408092051221
 20
0.7649575703275111
 10
40.01404415018519
 20
0.7649410046178613
 10
39.99597478932739
 20
0.7567565528099414
 10
39.995938086108154
 20
0.7567398389419012
 10
39.97790187972826
 20
0.7484825807634613
 10
39.9778652442138
 20
0.7484657190088986
 10
39.959862485666996
 20
0.7401357887625786
 10
39.95982591845318
 20
0.7401187793957362
 10
39.94185690055068
 20
0.7317163125661462
 10
39.941820402232274
 20
0.731699155863688
 10
39.92388541723648
 20
0.723224289115258
 10
39.92384898840712
 20
0.7232069853562352
 10
39.905948328026824
 20
0.7146598565309451
 10
39.90591196927898
 20
0.7146424059967762
 10
39.88804592466497
 20
0.7060231541119463
 10
39.88800963659005
 20
0.7060055570864809
 10
39.87017849832985
 20
0.6973143223324809
 10
39.87014228151805
 20
0.6972965791019229
 10
39.85234633963155
 20
0.6885335028399229
 10
39.852310194671986
 20
0.6885156136928858
 10
39.834549738606384
 20
0.6796808384525458
 10
39.834513666086856
 20
0.6796628036799551
 10
39.81678898471256
 20
0.6707564731571052
 10
39.81675298521985
 20
0.6707382930523255
 10
39.79906436682505
 20
0.6617605521066154
 10
39.79902844094463
 20
0.6617422269653132
 10
39.78137617323124
 20
0.6526932216178631
 10
39.78134032154748
 20
0.6526747517381206
 10
39.763724691625974
 20
0.6435546291691906
 10
39.76368891472199
 20
0.6435360148514024
 10
39.74611020910699
 20
0.6343449233979125
 10
39.74607450756464
 20
0.6343261649448286
 10
39.728533012170345
 20
0.6250642540980286
 10
39.72849738657038
 20
0.6250453518147757
 10
39.71099338670548
 20
0.6157127722177457
 10
39.71095783762729
 20
0.615693726411744
 10
39.693491617990894
 20
0.6062906298570141
 10
39.6934561460127
 20
0.6062714408380484
 10
39.6760279906893
 20
0.5967979802650684
 10
39.67599259638801
 20
0.5967786483452312
 10
39.658602788843105
 20
0.5872349778379112
 10
39.65856747279447
 20
0.587215503331665
 10
39.641216295869576
 20
0.577601778115865
 10
39.64118105864796
 20
0.5775821613399355
 10
39.62386879455646
 20
0.5678985377809455
 10
39.623833636734965
 20
0.5678787790543801
 10
39.606560567057464
 20
0.55812541465437
 10
39.60652548920796
 20
0.5581055142985656
 10
39.58929189488737
 20
0.5482825676940256
 10
39.58925689758041
 20
0.5482625260326657
 10
39.57206305891751
 20
0.5383701569918257
 10
39.57202814272225
 20
0.5383499743508418
 10
39.55487433937155
 20
0.5283883437710818
 10
39.554839504855984
 20
0.5283680204787932
 10
39.53772601582039
 20
0.5183372903840032
 10
39.53769126355099
 20
0.5183168267709023
 10
39.52061836717819
 20
0.5082171603088622
 10
39.52058369772032
 20
0.5081965567078637
 10
39.50355167169722
 20
0.4980281181476236
 10
39.503517085614654
 20
0.4980073748937712
 10
39.48652620696385
 20
0.4877703296228913
 10
39.48649170481918
 20
0.4877494470535972
 10
39.46954224989388
 20
0.47744396157554714
 10
39.469507832248304
 20
0.47742294003048197
 10
39.45260007672781
 20
0.467049181961902
 10
39.45256574414105
 20
0.46702802178292935
 10
39.43569996302674
 20
0.45658615985086937
 10
39.43566571605725
 20
0.45656486138218316
 10
39.41884218366766
 20
0.44605506542142315
 10
39.4188080228725
 20
0.4460336290094705
 10
39.402027012838694
 20
0.43545606995969055
 10
39.40199293877338
 20
0.43543449595305805
 10
39.385254724035384
 20
0.42478934585611805
 10
39.38522073725425
 20
0.4247676346057808
 10
39.36852559005545
 20
0.41405506660288083
 10
39.36849169111116
 20
0.41403321846189417
 10
39.351839882994966
 20
0.40325340679077415
 10
39.35180607243897
 20
0.40323142211454616
 10
39.33519787424356
 20
0.3923845421066662
 10
39.335164152625744
 20
0.3923624212527585
 10
39.31859983448005
 20
0.3814486493303985
 10
39.318566202348876
 20
0.3814263926585854
 10
39.302046033668276
 20
0.37044590633204544
 10
39.3020124915708
 20
0.3704235142043526
 10
39.2855367410524
 20
0.3593764920690026
 10
39.285503289534155
 20
0.359353964849628
 10
39.26907222515266
 20
0.348240586583048
 10
39.269038864757725
 20
0.3482179246383736
 10
39.25265275376112
 20
0.33703837099738354
 10
39.25261948503209
 20
0.33701557469601257
 10
39.23627859393719
 20
0.32577002751381257
 10
39.236245417415205
 20
0.32574709722653034
 10
39.2199500120032
 20
0.3144357394096304
 10
39.21991692822787
 20
0.31441267550940083
 10
39.20366727354017
 20
0.3030356910347608
 10
39.20363428304953
 20
0.3030124938966707
 10
39.18743064338363
 20
0.29157006780862066
 10
39.187397746714325
 20
0.2915467378100099
 10
39.17124038561903
 20
0.2800390562172799
 10
39.17120758330611
 20
0.2800155937375966
 10
39.15509676357762
 20
0.2684428438103066
 10
39.1550640561546
 20
0.2684192492311598
 10
39.1390000398321
 20
0.2567816191977298
 10
39.13896742783094
 20
0.2567578929028688
 10
39.12295047619244
 20
0.24505557204697884
 10
39.122917960143596
 20
0.24503171442231436
 10
39.106948333701595
 20
0.23326489307984438
 10
39.10691591413396
 20
0.23324090451344257
 10
39.09099387263105
 20
0.22140977406935256
 10
39.090961550071846
 20
0.22138565495133444
 10
39.07508735247694
 20
0.20949040783655445
 10
39.075055127451925
 20
0.20946615855923298
 10
39.05922903195563
 20
0.197506988247533
 10
39.05919690498898
 20
0.1974826092053521
 10
39.04341916899938
 20
0.1854597102102221
 10
39.043387140613554
 20
0.185435201799646
 10
39.027658020752455
 20
0.17334876967109603
 10
39.02762609146846
 20
0.173324132290798
 10
39.011945843566664
 20
0.16117436361217796
 10
39.01191401390376
 20
0.16114959766283204
 10
38.996282892997456
 20
0.14893669004767204
 10
38.996251163473374
 20
0.14891179593211373
 10
38.980669423799576
 20
0.13663594802087375
 10
38.98063779493042
 20
0.13661092614402714
 10
38.96510568992282
 20
0.12427233760086714
 10
38.965074162223
 20
0.12424718836967431
 10
38.94959194450821
 20
0.1118460598792543
 10
38.949560518490514
 20
0.11182078370277611
 10
38.93412843988361
 20
0.09935731696690611
 10
38.934097116059135
 20
0.09933191425621767
 10
38.91871542755993
 20
0.08680631199067766
 10
38.918684206438265
 20
0.08678078315902497
 10
38.903353158226565
 20
0.07419324909017498
 10
38.90332204031544
 20
0.07416759455273514
 10
38.88804188174764
 20
0.06151833341426513
 10
38.88801086755313
 20
0.061492553588258045
 10
38.87278184715813
 20
0.04878177111782805
 10
38.87275093718478
 20
0.048755866422649535
 10
38.85757330265928
 20
0.03598376935854953
 10
38.85754249740979
 20
0.03595774021547969
 10
38.84241649561499
 20
0.023124536293289692
 10
38.84238579559038
 20
0.023098383125682638
 10
38.82731167254768
 20
0.010204281074842638
 10
38.8272810782473
 20
0.010178004308097587
 10
38.8122590791342
 20
-0.0027767861514424123
 10
38.81222859105566
 20
-0.002803186089953817
 10
38.79725896020196
 20
-0.01581845425114382
 10
38.797228578841136
 20
-0.015844976932027275
 10
38.78231155972483
 20
-0.028920511104187273
 10
38.78228128557588
 20
-0.02894715609605937
 10
38.76741712081928
 20
-0.04208274360826937
 10
38.767386954374615
 20
-0.04210951047772753
 10
38.752575885740214
 20
-0.055304937682347524
 10
38.75254582749044
 20
-0.055331825994093704
 10
38.73778809587744
 20
-0.06858687827015371
 10
38.73775814631152
 20
-0.06861388758677657
 10
38.72305399175122
 20
-0.08192834934356656
 10
38.72302415135619
 20
-0.08195547922585131
 10
38.70837381300888
 20
-0.0953291339063413
 10
38.70834408227015
 20
-0.09535638391297145
 10
38.69374779842055
 20
-0.10878901399739145
 10
38.693718177821694
 20
-0.1088163836851397
 10
38.6791761858753
 20
-0.1223077706944897
 10
38.67914667589802
 20
-0.12233525961824937
 10
38.664659212377515
 20
-0.13588518411785938
 10
38.664629813501875
 20
-0.1359127918304609
 10
38.65019711404277
 20
-0.14952103343356088
 10
38.65016782674684
 20
-0.1495487594860511
 10
38.63579012609425
 20
-0.1632150968573511
 10
38.63576095085449
 20
-0.16324294079867452
 10
38.621438482858586
 20
-0.17696715165797453
 10
38.62140942014945
 20
-0.1769951130353277
 10
38.60714241776234
 20
-0.19077697416113767
 10
38.60711346805654
 20
-0.1908050525197168
 10
38.59290216332815
 20
-0.2046443397528568
 10
38.59287332709653
 20
-0.20467253463598947
 10
38.57871795117092
 20
-0.21856902288325947
 10
38.57868922888257
 20
-0.21859733383229402
 10
38.564590011993864
 20
-0.232550797070144
 10
38.56456140411587
 20
-0.23257922362468053
 10
38.55051857558507
 20
-0.24658943490286056
 10
38.55049008258275
 20
-0.24661797660052956
 10
38.53650387081365
 20
-0.26068470804578947
 10
38.536475493150455
 20
-0.26071336442234455
 10
38.52254612562586
 20
-0.2748363872421846
 10
38.52251786376333
 20
-0.27486515783155635
 10
38.50864556704163
 20
-0.2890442423178463
 10
38.508617421439446
 20
-0.28907312665208906
 10
38.494802421150744
 20
-0.3033080421849191
 10
38.49477439226668
 20
-0.3033370397942321
 10
38.48101691310918
 20
-0.3176275548455821
 10
38.48098900139918
 20
-0.31765666525826725
 10
38.46728926713528
 20
-0.33200254739582724
 10
38.46726147305319
 20
-0.332031770138539
 10
38.45361970650659
 20
-0.346432786029429
 10
38.45359203050462
 20
-0.3464621206267236
 10
38.44000845355562
 20
-0.3609180360413736
 10
38.43998089608381
 20
-0.3609474820162354
 10
38.426455729666706
 20
-0.3754580618320854
 10
38.42642829117335
 20
-0.37548761870550174
 10
38.41296175527206
 20
-0.3900526269109517
 10
38.41293443620336
 20
-0.3900822942022745
 10
38.399526749848555
 20
-0.4047014939003945
 10
38.399499550648926
 20
-0.4047312711269968
 10
38.38615093191373
 20
-0.4194044245394868
 10
38.38612385302553
 20
-0.4194343112170987
 10
38.37283451902253
 20
-0.4341611796881087
 10
38.37280756088615
 20
-0.43419117533066837
 10
38.35957772776384
 20
-0.4489715193306584
 10
38.359550890817836
 20
-0.44900162345018985
 10
38.34638077375654
 20
-0.46383520257987987
 10
38.34635405843735
 20
-0.4638654146868278
 10
38.333243871646445
 20
-0.4787519876810578
 10
38.33321727838857
 20
-0.47878230728402893
 10
38.320167235102666
 20
-0.4937216320157089
 10
38.320140764338696
 20
-0.49375205862151184
 10
38.307151076813994
 20
-0.5087438921055819
 10
38.30712472897446
 20
-0.5087744252193429
 10
38.29419560848556
 20
-0.5238185236166428
 10
38.29416938399895
 20
-0.5238491627417949
 10
38.28130104083545
 20
-0.538945281363155
 10
38.28127494012838
 20
-0.5389760260012927
 10
38.268467583591175
 20
-0.5541239193113826
 10
38.26844160708808
 20
-0.5541547689625337
 10
38.255695445486374
 20
-0.5693541905839637
 10
38.25566959360984
 20
-0.5693851447462782
 10
38.242984834257236
 20
-0.5846358474635382
 10
38.2429591074277
 20
-0.5846669056335809
 10
38.23033595663921
 20
-0.5999686413970808
 10
38.230310355275094
 20
-0.5999998030697409
 10
38.2177490183638
 20
-0.6153523229998709
 10
38.217723542881515
 20
-0.6153835876682744
 10
38.20522422415501
 20
-0.6307866420594044
 10
38.20519887496895
 20
-0.6308180092150234
 10
38.192761777726055
 20
-0.6462713475396135
 10
38.1927365552485
 20
-0.6463028166722553
 10
38.180361881775994
 20
-0.6618061875848853
 10
38.180336786417136
 20
-0.6618377581827952
 10
38.16802473798674
 20
-0.6773909095242953
 10
38.16799977015478
 20
-0.6774225810739329
 10
38.15575054701948
 20
-0.6930252598754529
 10
38.15572570712058
 20
-0.6930570318616107
 10
38.143539508511275
 20
-0.7087089843487507
 10
38.14351479694935
 20
-0.7087408562547881
 10
38.13139182107225
 20
-0.7244418278517181
 10
38.131367238249254
 20
-0.7244737991592092
 10
38.119307682282155
 20
-0.7402235344928192
 10
38.119283228598
 20
-0.7402556046816653
 10
38.1072872886869
 20
-0.7560538475857053
 10
38.10726296453919
 20
-0.7560860161344571
 10
38.09533083579589
 20
-0.7719325096537171
 10
38.095306641580386
 20
-0.7719647760389835
 10
38.08343851807828
 20
-0.7878592624334636
 10
38.083414454188386
 20
-0.7878916261305865
 10
38.071610528960285
 20
-0.8038338468796965
 10
38.071586595787444
 20
-0.803866307362209
 10
38.059847060821745
 20
-0.8198560031689689
 10
38.059823258755216
 20
-0.8198885599089378
 10
38.04814830499312
 20
-0.8359254707041879
 10
38.048124634420084
 20
-0.8359581231720183
 10
38.03651445175218
 20
-0.8520419881186684
 10
38.03649091305759
 20
-0.8520747357833386
 10
38.02494569032119
 20
-0.8682052932805886
 10
38.02492228388787
 20
-0.8682381356094863
 10
38.01344220886377
 20
-0.8844151232970963
 10
38.01341893507246
 20
-0.8844480597560128
 10
38.002004194481756
 20
-0.9006712145185628
 10
38.00198105371102
 20
-0.9007042445717517
 10
37.99063183321202
 20
-0.9169733025429317
 10
37.99060882583819
 20
-0.9170064256532486
 10
37.97932531002379
 20
-0.9333211222201185
 10
37.97930243642113
 20
-0.9333543378487204
 10
37.96808480881523
 20
-0.9497144076560803
 10
37.96806206935568
 20
-0.9497477152628706
 10
37.956910512410985
 20
-0.9661528922174807
 10
37.95688790746449
 20
-0.9661862912605934
 10
37.945802602558686
 20
-0.9826363085356034
 10
37.945780132492914
 20
-0.982669798471805
 10
37.93476125992611
 20
-0.9991643885110252
 10
37.93473892510645
 20
-0.9991979687957098
 10
37.92378666409856
 20
-1.0157368633179698
 10
37.923764464888365
 20
-1.0157705334048628
 10
37.91287899357556
 20
-1.0323534634084126
 10
37.91285693033583
 20
-1.032387222749962
 10
37.902038425768225
 20
-1.049013918516812
 10
37.90201649885789
 20
-1.0490477665638192
 10
37.89126513699609
 20
-1.0657179576641393
 10
37.89124334677172
 20
-1.065751893866167
 10
37.88055930248452
 20
-1.0824653091626868
 10
37.88053764930054
 20
-1.0824993329677668
 10
37.86992109636184
 20
-1.099255700620177
 10
37.86989958057046
 20
-1.0992898114748657
 10
37.85935069165626
 20
-1.1160888589442555
 10
37.85932931360742
 20
-1.116123056293761
 10
37.84884826029322
 20
-1.1329645103470412
 10
37.84882702033463
 20
-1.1329987936351593
 10
37.838413973092635
 20
-1.1498823803494893
 10
37.83839287156975
 20
-1.1499167490186082
 10
37.82804799976605
 20
-1.1668421937858782
 10
37.82802703702205
 20
-1.166876647277069
 10
37.81775050891406
 20
-1.183843674808369
 10
37.817729685290004
 20
-1.1838782125610885
 10
37.8075216680231
 20
-1.2008865468911585
 10
37.807500983857565
 20
-1.200921168343823
 10
37.79736164346326
 20
-1.217970532835563
 10
37.79734109909274
 20
-1.2180052374249533
 10
37.78727060048524
 20
-1.2350953547739134
 10
37.78725019624385
 20
-1.2351301419356306
 10
37.77724870321785
 20
-1.2522607341745107
 10
37.777228439437465
 20
-1.252295603342748
 10
37.767296114665264
 20
-1.2694663918459579
 10
37.767275991675504
 20
-1.2695013424534984
 10
37.75741299670421
 20
-1.2867120479416483
 10
37.75739301483235
 20
-1.2867470794200693
 10
37.74759951008155
 20
-1.3039974219645294
 10
37.74757966965256
 20
-1.3040325337441177
 10
37.73785581441176
 20
-1.3213222327715677
 10
37.73783611574837
 20
-1.3213574242811696
 10
37.72818206817407
 20
-1.3386861985781697
 10
37.72816251159668
 20
-1.3387214692454108
 10
37.71857842870998
 20
-1.3560890369629806
 10
37.71855901453668
 20
-1.356124386214162
 10
37.70904505222068
 20
-1.3735304648723121
 10
37.70902578076722
 20
-1.3735658921325369
 10
37.69958209376462
 20
-1.3910101986249568
 10
37.699562965344434
 20
-1.391045703318009
 10
37.69018970725494
 20
-1.4085279539165894
 10
37.69017072217917
 20
-1.4085635354649522
 10
37.68086804545686
 20
-1.426083445824442
 10
37.68084920403428
 20
-1.426119103649435
 10
37.67161725998538
 20
-1.443676388812045
 10
37.671598562522476
 20
-1.4437121223336358
 10
37.66243750130258
 20
-1.4613064967336957
 10
37.66241894810341
 20
-1.461342305370764
 10
37.65332891871541
 20
-1.478973482839344
 10
37.65331051008178
 20
-1.4790093660093955
 10
37.64429166037308
 20
-1.4966770597789756
 10
37.644273396604376
 20
-1.496713016898435
 10
37.63532587326478
 20
-1.5144169396075648
 10
37.635307754658086
 20
-1.5144529700915463
 10
37.62643170321718
 20
-1.5321928337895263
 10
37.62641373006717
 20
-1.5322289370520492
 10
37.617609294892176
 20
-1.5500044532035895
 10
37.617591467491174
 20
-1.550040628657435
 10
37.60885879178447
 20
-1.567851508147385
 10
37.608841110422446
 20
-1.5678877552041597
 10
37.600180336219246
 20
-1.5857337083421796
 10
37.60016280118381
 20
-1.5857700264122685
 10
37.591574069349704
 20
-1.6036507629375485
 10
37.59155668092601
 20
-1.6036871514303552
 10
37.58304013115511
 20
-1.6216023805163553
 10
37.58302288962599
 20
-1.62163883884
 10
37.57457866043829
 20
-1.6395882690991601
 10
37.57456156608422
 20
-1.6396247966605542
 10
37.56618979482322
 20
-1.657608136149034
 10
37.56617284792217
 20
-1.6576447323542092
 10
37.557873670753175
 20
-1.6756616885766493
 10
37.55785687158082
 20
-1.6756983528302871
 10
37.54963042348822
 20
-1.693748632744547
 10
37.54961377231781
 20
-1.6937853644502892
 10
37.541460187103006
 20
-1.7118686744722391
 10
37.54144368420531
 20
-1.711905473032783
 10
37.53336309448492
 20
-1.730021519041053
 10
37.53334674012842
 20
-1.7300583838577164
 10
37.52533927733142
 20
-1.7482068711984964
 10
37.52532307178208
 20
-1.748243801671779
 10
37.51738886614828
 20
-1.766424435163619
 10
37.51737280966967
 20
-1.7664614306928543
 10
37.509511990247375
 20
-1.7846739146314443
 10
37.50949608310071
 20
-1.7847109746148224
 10
37.50170877774441
 20
-1.8029550127777925
 10
37.50169302018836
 20
-1.8029921366126256
 10
37.49397935555706
 20
-1.8212674322644256
 10
37.49396374784791
 20
-1.8213046193469264
 10
37.48632384940291
 20
-1.8396108752435665
 10
37.48630839179455
 20
-1.8396481249688053
 10
37.478742383797155
 20
-1.8579850433627652
 10
37.47872707654101
 20
-1.858022355124882
 10
37.47123508205071
 20
-1.876389637769902
 10
37.471219925395715
 20
-1.8764270109621264
 10
37.463802066268414
 20
-1.8948243591180762
 10
37.46378706046111
 20
-1.894861793132456
 10
37.45644345734671
 20
-1.9132889075702262
 10
37.456428602631135
 20
-1.913326401797966
 10
37.449159374971934
 20
-1.931782982804266
 10
37.44914467158974
 20
-1.9318205366354493
 10
37.44194993761814
 20
-1.9503062840177492
 10
37.44193538580844
 20
-1.9503438968416653
 10
37.43481526254544
 20
-1.9688585099330254
 10
37.434800862544954
 20
-1.9688961811377952
 10
37.42775546579776
 20
-1.9874393588018053
 10
37.42774121784065
 20
-1.9874770877748449
 10
37.42077066220135
 20
-2.0060485284104947
 10
37.420756566519394
 20
-2.0060863145380488
 10
37.41386096536259
 20
-2.024685716084609
 10
37.413847022185024
 20
-2.0247235587521626
 10
37.40702648766633
 20
-2.043350618694163
 10
37.40701269721996
 20
-2.0433885172861657
 10
37.400267340273956
 20
-2.0620429326582457
 10
37.400253702783104
 20
-2.062080886558238
 10
37.39358363312151
 20
-2.080762353950128
 10
37.39357014880791
 20
-2.0808003625409737
 10
37.38697547491831
 20
-2.0995085781024034
 10
37.38696214400136
 20
-2.0995466407656873
 10
37.38044297314456
 20
-2.118281300211337
 10
37.380429795841046
 20
-2.118319416328119
 10
37.37398623405014
 20
-2.1370802149425394
 10
37.37397321057438
 20
-2.1371183838928687
 10
37.36760536265268
 20
-2.1559050165354985
 10
37.36759249321654
 20
-2.155943237698446
 10
37.36130046273564
 20
-2.174755398808516
 10
37.3612877475484
 20
-2.174793671562501
 10
37.3550716368469
 20
-2.1936310551640306
 10
37.355059076115374
 20
-2.1936693788866064
 10
37.34891898629717
 20
-2.2125316785933764
 10
37.34890658022567
 20
-2.21257005266111
 10
37.34284261115797
 20
-2.23145696168165
 10
37.342830359948266
 20
-2.231495385470484
 10
37.33684261026037
 20
-2.2504065966130646
 10
37.33683051411174
 20
-2.250445069497983
 10
37.33091908119314
 20
-2.269380275175573
 10
37.3309071403023
 20
-2.2694187965308705
 10
37.3250721203013
 20
-2.2883776887662206
 10
37.32506033486249
 20
-2.2884162579653227
 10
37.319301822684494
 20
-2.3073985283958924
 10
37.31929019288942
 20
-2.3074371448114213
 10
37.31360828219532
 20
-2.3264424846944314
 10
37.31359680823308
 20
-2.3264811476984497
 10
37.30799159143818
 20
-2.3455092479159196
 10
37.30798027349545
 20
-2.345547956879437
 10
37.30245184176735
 20
-2.3645985079431666
 10
37.30244068002818
 20
-2.3646372622366902
 10
37.296989123285776
 20
-2.38370995429335
 10
37.296978117931715
 20
-2.383748753286524
 10
37.29160352484352
 20
-2.4028432761226544
 10
37.2915926760536
 20
-2.402882119184327
 10
37.2862951340361
 20
-2.421998162231387
 10
37.286284441986744
 20
-2.4220370487298757
 10
37.281064037203436
 20
-2.4411743010692954
 10
37.28105350206854
 20
-2.441213230372155
 10
37.27591031942834
 20
-2.460371380740435
 10
37.27589994137927
 20
-2.4604103522144185
 10
37.270834064534974
 20
-2.4795890890081185
 10
37.27082384374054
 20
-2.479628102019356
 10
37.26583535508754
 20
-2.498827113300226
 10
37.26582529171394
 20
-2.4988661672142713
 10
37.26091427238914
 20
-2.5180851407142915
 10
37.26090436660011
 20
-2.5181242348957684
 10
37.25607089648001
 20
-2.5373628580222483
 10
37.256061148436615
 20
-2.5374019918354866
 10
37.251305306136814
 20
-2.556659951676107
 10
37.25129571599764
 20
-2.5566991244844672
 10
37.24661757887083
 20
-2.575976107812437
 10
37.24660814679183
 20
-2.5760153189788686
 10
37.24200779092703
 20
-2.5953110122579686
 10
37.24199851706163
 20
-2.595350261144691
 10
37.23747601728274
 20
-2.614664350534391
 10
37.23746690178179
 20
-2.6147036365029366
 10
37.233022331646175
 20
-2.6340358078634964
 10
37.233013374657915
 20
-2.6340751302750136
 10
37.22864680645572
 20
-2.6534250691725934
 10
37.22863800812582
 20
-2.653464427387522
 10
37.22434951287852
 20
-2.672831819099282
 10
37.22434087335012
 20
-2.672871212477316
 10
37.22013052080902
 20
-2.692255741996586
 10
37.22012204022264
 20
-2.6922951698970747
 10
37.21598989886824
 20
-2.7116965219384146
 10
37.21598157736177
 20
-2.7117359837201693
 10
37.21192771440267
 20
-2.73115384272452
 10
37.2119195521115
 20
-2.7311933377455895
 10
37.2079440334829
 20
-2.750627387885419
 10
37.20793603053978
 20
-2.7506669155034573
 10
37.204038920902676
 20
-2.7701168406878978
 10
37.20403107743776
 20
-2.7701564002599994
 10
37.200212440177864
 20
-2.789621884139959
 10
37.200204756318726
 20
-2.7896614750227093
 10
37.196464653545426
 20
-2.8091422009960594
 10
37.196457129417055
 20
-2.809181822545453
 10
37.19279562196226
 20
-2.828677473762133
 10
37.192788257687035
 20
-2.8287171253337875
 10
37.18920540510443
 20
-2.8482273847009876
 10
37.1891982008021
 20
-2.8482670656500435
 10
37.1856940613662
 20
-2.8677916158373633
 10
37.18568701715399
 20
-2.867831325518246
 10
37.18226164785869
 20
-2.8873698489628463
 10
37.18225476385112
 20
-2.8874095867299188
 10
37.178908220409625
 20
-2.9069617656416784
 10
37.17890149671871
 20
-2.9070015308483557
 10
37.175633833561605
 20
-2.9265670472150656
 10
37.175627270296665
 20
-2.9266068392147693
 10
37.17243854057197
 20
-2.9461853748072695
 10
37.17243213783977
 20
-2.9462251929527503
 10
37.16932239341157
 20
-2.96581642933014
 10
37.169316151316266
 20
-2.96585627297366
 10
37.166285442763765
 20
-2.9854598914884605
 10
37.166279361406865
 20
-2.98549975998212
 10
37.163327738024066
 20
-3.0051154417854598
 10
37.16332181750449
 20
-3.005155334480659
 10
37.16044932729879
 20
-3.024782760527459
 10
37.16044356771282
 20
-3.0248226767755337
 10
37.15765025740491
 20
-3.044461527829694
 10
37.157644658846245
 20
-3.044501466981208
 10
37.15493057386855
 20
-3.064151423620798
 10
37.154925136428226
 20
-3.0641913850263225
 10
37.15229032092493
 20
-3.0838521276488025
 10
37.1522850446914
 20
-3.0838921106582813
 10
37.1497295415172
 20
-3.1035633194856613
 10
37.149724426576284
 20
-3.1036033234487794
 10
37.14724827729589
 20
-3.123284678532839
 10
37.147243323730784
 20
-3.123324702798925
 10
37.144846568618185
 20
-3.1430158840264353
 10
37.14484177650944
 20
-3.1430559279446153
 10
37.142524454547534
 20
-3.162756615042495
 10
37.14251982397311
 20
-3.1627966779613543
 10
37.14028197285261
 20
-3.1825065505019445
 10
37.14027750388782
 20
-3.182546631769846
 10
37.13811916000682
 20
-3.2022653691760663
 10
37.13811485272434
 20
-3.202305468141183
 10
37.136036051187936
 20
-3.222032749691773
 10
37.13603190565782
 20
-3.2220728657019344
 10
37.13403268027743
 20
-3.241808370536674
 10
37.13402869656713
 20
-3.2418485029392308
 10
37.13210907985953
 20
-3.261591910064131
 10
37.132105258033825
 20
-3.261632058206501
 10
37.13026528122132
 20
-3.281383046499081
 10
37.13026162134236
 20
-3.2814232097281826
 10
37.12850131435176
 20
-3.3011814579426026
 10
37.12849781647908
 20
-3.3012216356051964
 10
37.126817207941386
 20
-3.3209868223775763
 10
37.12681387213189
 20
-3.3210270138202618
 10
37.12521298938199
 20
-3.340798817673842
 10
37.12520981568993
 20
-3.3408390222427284
 10
37.123688684765625
 20
-3.3606171215931586
 10
37.123685673242605
 20
-3.3606573386345575
 10
37.12224431888501
 20
-3.380441411795047
 10
37.122241469580025
 20
-3.380481640654702
 10
37.12087991523243
 20
-3.400271365841332
 10
37.12087722819182
 20
-3.4003116058648937
 10
37.11959549599952
 20
-3.4201066612017934
 10
37.11959297126699
 20
-3.4201469117348715
 10
37.11839108207719
 20
-3.4399469752595015
 10
37.118388719693804
 20
-3.4399872356473358
 10
37.1172666930549
 20
-3.459791985315676
 10
37.11726449305908
 20
-3.4598322549035245
 10
37.11622234722069
 20
-3.4796413685953445
 10
37.11622030964823
 20
-3.479681646728231
 10
37.11525806156072
 20
-3.4994948022523213
 10
37.11525618644475
 20
-3.4995350882749614
 10
37.11437385175865
 20
-3.519351963374381
 10
37.11437213912966
 20
-3.519392256631812
 10
37.113569732196254
 20
-3.5392125289890926
 10
37.11356818208212
 20
-3.539252828825657
 10
37.11284571595212
 20
-3.5590761760681167
 10
37.11284432837803
 20
-3.5591164818286054
 10
37.11220181480243
 20
-3.578942581533515
 10
37.11220058979097
 20
-3.5789828925621694
 10
37.111638039219976
 20
-3.5988114222620395
 10
37.11163697679107
 20
-3.5988517379033005
 10
37.111154398374474
 20
-3.61868237509114
 10
37.1111534985454
 20
-3.6187226946892914
 10
37.110750900132295
 20
-3.6385551168238117
 10
37.11075016291769
 20
-3.6385954397230007
 10
37.11042755105618
 20
-3.6584293242338704
 10
37.11042697646803
 20
-3.658469649778341
 10
37.11018435640543
 20
-3.6783046740714815
 10
37.110183944453084
 20
-3.6783450016052526
 10
37.11002132013548
 20
-3.6981808430679926
 10
37.11002107082563
 20
-3.6982211719352187
 10
37.10993844489813
 20
-3.7180575079416487
 10
37.109938358234835
 20
-3.7180978374863662
 10
37.109935732041336
 20
-3.7379343454025062
 10
37.10993580802601
 20
-3.7379746749686977
 10
37.11001318160911
 20
-3.757811032157768
 10
37.11001342024052
 20
-3.75785136108962
 10
37.11017079234192
 20
-3.77768724491731
 10
37.110171193616175
 20
-3.7777275725587702
 10
37.11040856167618
 20
-3.7975626603984605
 10
37.11040912558676
 20
-3.7976029860936005
 10
37.11072648574456
 20
-3.8174369553316008
 10
37.11072721228229
 20
-3.8174772784246294
 10
37.111124559376194
 20
-3.837309806465479
 10
37.11112544852926
 20
-3.8373501263004184
 10
37.111602776096355
 20
-3.8571808905720584
 10
37.111603827850296
 20
-3.8572212064932594
 10
37.1121611281271
 20
-3.877049884452349
 10
37.1121623424648
 20
-3.877090195803988
 10
37.11279960638689
 20
-3.8969164649411083
 10
37.112800983288615
 20
-3.896956771067545
 10
37.11351820049102
 20
-3.916780308912455
 10
37.11351973993436
 20
-3.9168206091580577
 10
37.11431689875156
 20
-3.9366410932849374
 10
37.114318600711485
 20
-3.936681386994413
 10
37.11519568817808
 20
-3.956498495027113
 10
37.1151975526269
 20
-3.956538781544902
 10
37.116154554477106
 20
-3.9763521911622024
 10
37.1161565813845
 20
-3.976392469833145
 10
37.117193482052905
 20
-3.9962018587739343
 10
37.11719567138591
 20
-3.996242128942871
 10
37.1183124540075
 20
-4.016047175011492
 10
37.118314805730506
 20
-4.016087436023482
 10
37.119511452141104
 20
-4.035887817094862
 10
37.119513966215855
 20
-4.035928068295047
 10
37.120790456952264
 20
-4.055723462320017
 10
37.12079313333786
 20
-4.055763703053631
 10
37.12214944763806
 20
-4.075553788064131
 10
37.122152286291
 20
-4.075594017676842
 10
37.123588402094995
 20
-4.095378471791152
 10
37.12359140296908
 20
-4.095418689628507
 10
37.125107296918685
 20
-4.115197191056517
 10
37.12511045996512
 20
-4.115237396464413
 10
37.12670610740462
 20
-4.1350096235127936
 10
37.12670943257195
 20
-4.135049815837238
 10
37.12838480754835
 20
-4.154815446914747
 10
37.1283882947825
 20
-4.154855625502143
 10
37.1301433700463
 20
-4.174614339124803
 10
37.130147019290554
 20
-4.174654503321621
 10
37.13198176629586
 20
-4.1944059781179615
 10
37.13198557749086
 20
-4.194446127270844
 10
37.13389996639576
 20
-4.214190041987144
 10
37.13390393947951
 20
-4.214230175443161
 10
37.13589793914691
 20
-4.233966208948671
 10
37.1359020740548
 20
-4.2340063260550425
 10
37.1379756520527
 20
-4.2537341573471625
 10
37.137979948717465
 20
-4.25377425745134
 10
37.14013307131946
 20
-4.27349356566092
 10
37.14013752967123
 20
-4.273533648110786
 10
37.14237016185733
 20
-4.293244112507286
 10
37.142374781823584
 20
-4.293284176650855
 10
37.144686887280486
 20
-4.312985476647555
 10
37.14469166878607
 20
-4.313025521833149
 10
37.14708320990778
 20
-4.332717336992428
 10
37.147088152874936
 20
-4.332757362568771
 10
37.14955909076353
 20
-4.3524393726072415
 10
37.149564195111864
 20
-4.352479377923318
 10
37.15211448957806
 20
-4.372151262717089
 10
37.15211975522455
 20
-4.372191247122227
 10
37.154749364788344
 20
-4.391852686712097
 10
37.154754791647335
 20
-4.391892649555933
 10
37.157463673538636
 20
-4.411543324152572
 10
37.15746926152187
 20
-4.411583264785138
 10
37.16025737168127
 20
-4.431222854774308
 10
37.16026312069785
 20
-4.431262772545947
 10
37.16313041377725
 20
-4.450890958493726
 10
37.163136323733696
 20
-4.450930852755273
 10
37.16608275309729
 20
-4.470547315413183
 10
37.16608882389744
 20
-4.470587185515646
 10
37.16911434162204
 20
-4.490191605825926
 10
37.16912057316718
 20
-4.490231451120895
 10
37.17222513004338
 20
-4.509823510221625
 10
37.172231522232146
 20
-4.509863330061004
 10
37.175415067764945
 20
-4.529442709291313
 10
37.17542162049338
 20
-4.52948250302751
 10
37.17868410290318
 20
-4.54904888393278
 10
37.17869081606468
 20
-4.5490886509183985
 10
37.18203218228767
 20
-4.568641715255409
 10
37.18203905577306
 20
-4.568681454843774
 10
37.18545925146266
 20
-4.588220884585923
 10
37.18546628516016
 20
-4.58826059613069
 10
37.188965254687666
 20
-4.60778607347312
 10
37.188972448482865
 20
-4.607825756328357
 10
37.192550134938266
 20
-4.627336963693127
 10
37.19255748871414
 20
-4.627376617213316
 10
37.19621383390694
 20
-4.646873237254616
 10
37.196221347543904
 20
-4.646912860794928
 10
37.1999562920045
 20
-4.666394576404188
 10
37.19996396538033
 20
-4.666434169320062
 10
37.203777448360526
 20
-4.685900663631142
 10
37.20378528135044
 20
-4.685940225278705
 10
37.207677240824836
 20
-4.705391181673025
 10
37.207685233301405
 20
-4.705430711408731
 10
37.21165560596801
 20
-4.724865813520441
 10
37.21166375780124
 20
-4.724905310701313
 10
37.21571247908263
 20
-4.7443242424224135
 10
37.215720790139976
 20
-4.744363706406223
 10
37.21984779418479
 20
-4.763766151891743
 10
37.219856264331
 20
-4.76380558203637
 10
37.22406148401409
 20
-4.783191225709469
 10
37.224070113111466
 20
-4.783230621373789
 10
37.22835348003596
 20
-4.80259914793092
 10
37.22836226794412
 20
-4.802638508474043
 10
37.232723712441825
 20
-4.821989602890054
 10
37.23273265901783
 20
-4.822028927671838
 10
37.23717211015073
 20
-4.841362275205108
 10
37.2371812152491
 20
-4.841401563586024
 10
37.2416986008106
 20
-4.860716849783575
 10
37.241707864283185
 20
-4.860756101124413
 10
37.246303110798685
 20
-4.880053011827043
 10
37.24631253249487
 20
-4.880092225489569
 10
37.250985565223765
 20
-4.899370446836948
 10
37.250995144990284
 20
-4.899409622183261
 10
37.25574588792659
 20
-4.918668840619041
 10
37.255755625607634
 20
-4.918707977012022
 10
37.26058400148153
 20
-4.937947879288911
 10
37.26059389691872
 20
-4.937986976091962
 10
37.26549982719762
 20
-4.957207249276872
 10
37.26550988023
 20
-4.957246305854093
 10
37.2704932851199
 20
-4.976446637333184
 10
37.270503495583974
 20
-4.9764856530493855
 10
37.27556429403088
 20
-4.9956657305331555
 10
37.27557466176057
 20
-4.995704704753737
 10
37.28071277145167
 20
-5.014864216282127
 10
37.280723296278325
 20
-5.014903148373074
 10
37.28593863364312
 20
-5.034041782320534
 10
37.285949315395605
 20
-5.034080671648813
 10
37.29124179560791
 20
-5.053198116729334
 10
37.29125263411244
 20
-5.053236962662224
 10
37.29662217109094
 20
-5.0723329079344435
 10
37.29663316617127
 20
-5.072371709840324
 10
37.30207967258177
 20
-5.091445844712584
 10
37.302090824059015
 20
-5.091484601960113
 10
37.30761421131492
 20
-5.110536616195474
 10
37.30762551900777
 20
-5.110575328154522
 10
37.31322569727257
 20
-5.129604911875852
 10
37.31323716099704
 20
-5.12964357791655
 10
37.31891403918474
 20
-5.14865042161152
 10
37.31892565875443
 20
-5.148689041105153
 10
37.32467914453193
 20
-5.167672835631333
 10
37.32469091975782
 20
-5.167711407949683
 10
37.33052091954582
 20
-5.186671844539493
 10
37.330532850236395
 20
-5.186710369055175
 10
37.33643926921109
 20
-5.205647139320974
 10
37.336451355172294
 20
-5.205685615407375
 10
37.342434097266896
 20
-5.2245984113464345
 10
37.342446338302175
 20
-5.224636838377865
 10
37.34850530620877
 20
-5.243525352377415
 10
37.348517702119004
 20
-5.243563729728745
 10
37.35465279728961
 20
-5.262427654570926
 10
37.35466534787318
 20
-5.2624659816179795
 10
37.360876470521674
 20
-5.281305010484899
 10
37.36088917557448
 20
-5.281343286604392
 10
37.36717622467838
 20
-5.3001571130830625
 10
37.367189083993736
 20
-5.3001953376523065
 10
37.37355195729534
 20
-5.318983655739666
 10
37.373564970664106
 20
-5.319021828137019
 10
37.3800035646726
 20
-5.337784332244889
 10
37.38001673188312
 20
-5.3378224518494415
 10
37.38653094187602
 20
-5.356558836809512
 10
37.38654426271414
 20
-5.356596903001334
 10
37.39313398273924
 20
-5.375306864070093
 10
37.39314745698829
 20
-5.375344876229972
 10
37.39981257986509
 20
-5.394028109093723
 10
37.3998262073059
 20
-5.394066066603409
 10
37.406566624627494
 20
-5.412722267383159
 10
37.406580405038454
 20
-5.412760169625356
 10
37.41339600717345
 20
-5.431389034881776
 10
37.41340994033039
 20
-5.431426881239898
 10
37.42030061642429
 20
-5.450028107978287
 10
37.42031470210058
 20
-5.450065897836799
 10
37.427280340077886
 20
-5.468639183511989
 10
37.42729457804448
 20
-5.468676916256352
 10
37.43433506461068
 20
-5.4872219587776225
 10
37.43434945463595
 20
-5.487259633793997
 10
37.44146467527885
 20
-5.505776131529987
 10
37.44147921712875
 20
-5.505813748205598
 10
37.44866905612065
 20
-5.524301399989247
 10
37.4486837495587
 20
-5.524338957712386
 10
37.4559480899585
 20
-5.542797462845796
 10
37.45596293474567
 20
-5.542834961005486
 10
37.46330165840027
 20
-5.561264019264796
 10
37.463316654295134
 20
-5.561301457251184
 10
37.47072964184173
 20
-5.579700768891533
 10
37.470744788600356
 20
-5.5797381460956235
 10
37.478231919468065
 20
-5.598107411855933
 10
37.47824721684414
 20
-5.598144727669909
 10
37.48580836925643
 20
-5.616483648777799
 10
37.485823817001126
 20
-5.616520902594684
 10
37.49345886797743
 20
-5.634829180771334
 10
37.493474465839476
 20
-5.634866371985157
 10
37.50118329119717
 20
-5.6531437094501475
 10
37.50119903892286
 20
-5.65318083745599
 10
37.508981513279366
 20
-5.6714269369321295
 10
37.508997410612636
 20
-5.67146400112626
 10
37.516853407387835
 20
-5.68967856584445
 10
37.51686945407003
 20
-5.689715565623836
 10
37.52479884548753
 20
-5.707898299327876
 10
37.52481504125771
 20
-5.707935234090826
 10
37.532817698347614
 20
-5.726085841042256
 10
37.532834042942326
 20
-5.726122710188006
 10
37.54090983554302
 20
-5.744240895170886
 10
37.54092632869646
 20
-5.744277698099796
 10
37.54907512545686
 20
-5.762363166425536
 10
37.549091766900744
 20
-5.762399902539005
 10
37.557313435282346
 20
-5.780452360051115
 10
37.557330224746
 20
-5.780489028751609
 10
37.56562463102501
 20
-5.7985081818305595
 10
37.56564156823537
 20
-5.798544782521698
 10
37.57400857750496
 20
-5.816530338089608
 10
37.57402566218655
 20
-5.81656687017609
 10
37.582465138359055
 20
-5.83451853570156
 10
37.58248237023398
 20
-5.834554998589164
 10
37.59099417604298
 20
-5.852472482092004
 10
37.591011554830956
 20
-5.8525088751876515
 10
37.59959555183355
 20
-5.870391885243611
 10
37.59961307725198
 20
-5.870428207955525
 10
37.608269125831484
 20
-5.888276453701105
 10
37.608286797595234
 20
-5.888312705438301
 10
37.61701475696254
 20
-5.906125896575401
 10
37.61703257478421
 20
-5.906162076748336
 10
37.625832302980804
 20
-5.923939923549005
 10
37.62585026657065
 20
-5.923976031569303
 10
37.63472162047095
 20
-5.941718244880503
 10
37.634739729536726
 20
-5.941754280160752
 10
37.64368256484983
 20
-5.959460571408963
 10
37.643700819097035
 20
-5.95949653336313
 10
37.65271499036963
 20
-5.977166614559129
 10
37.65273338950132
 20
-5.977202502602222
 10
37.66181875011962
 20
-5.994836086345733
 10
37.66183729383658
 20
-5.994871899894102
 10
37.67099369602907
 20
-6.012468699378473
 10
37.67101238402968
 20
-6.012504437849623
 10
37.680239678869384
 20
-6.030064166866462
 10
37.680258510849676
 20
-6.030099829679083
 10
37.68955654825648
 20
-6.047622202622983
 10
37.68957552391018
 20
-6.047657789197069
 10
37.698944152653475
 20
-6.0651425210701895
 10
37.6989632716719
 20
-6.06517803082685
 10
37.708402339372704
 20
-6.0826248372435785
 10
37.70842160144493
 20
-6.082660269605347
 10
37.717930954578826
 20
-6.100068866796917
 10
37.71795035939155
 20
-6.1001042211874585
 10
37.72752984329085
 20
-6.117474326006579
 10
37.72754939052845
 20
-6.117509601850836
 10
37.737198849384754
 20
-6.134840931776286
 10
37.737218538729294
 20
-6.134876128500525
 10
37.7469378155961
 20
-6.152168401641725
 10
37.74695764672736
 20
-6.152203518673495
 10
37.756746583522656
 20
-6.1694564537751555
 10
37.75676655611804
 20
-6.169491490543225
 10
37.766624993626635
 20
-6.186704806989846
 10
37.76664510736137
 20
-6.186739762924462
 10
37.776572885237975
 20
-6.20391318074496
 10
37.776593139784836
 20
-6.203948055277455
 10
37.78659009655603
 20
-6.221081295149675
 10
37.78661049158561
 20
-6.221116087712863
 10
37.79667646465291
 20
-6.238208870968133
 10
37.79669699983352
 20
-6.238243580996167
 10
37.806831825476024
 20
-6.255295629623837
 10
37.806852500473596
 20
-6.255330256552073
 10
37.81705601385029
 20
-6.272341293204043
 10
37.81707682832864
 20
-6.272375836469403
 10
37.827348863481646
 20
-6.289345584464623
 10
37.827369817102124
 20
-6.289380043505104
 10
37.83771020695862
 20
-6.306308226834053
 10
37.8377312993805
 20
-6.306342601089333
 10
37.8481398757563
 20
-6.323228944418574
 10
37.848161106636496
 20
-6.323263233329501
 10
37.85863770023819
 20
-6.340107462006061
 10
37.85865906923139
 20
-6.340141665014964
 10
37.86920350965939
 20
-6.356943505070904
 10
37.86922501641801
 20
-6.356977621621413
 10
37.87983713216901
 20
-6.373736799778213
 10
37.87985877634325
 20
-6.37377082931547
 10
37.89053839481335
 20
-6.3904870729885
 10
37.89056017605122
 20
-6.390521014959071
 10
37.90130712353872
 20
-6.407194052262021
 10
37.90132904148587
 20
-6.407227906113728
 10
37.912143143193674
 20
-6.423857465863038
 10
37.91216519749369
 20
-6.423891231045387
 10
37.92304627753279
 20
-6.440477042764637
 10
37.92306846782693
 20
-6.440510718728361
 10
37.93401634921872
 20
-6.4570525126527105
 10
37.93403867514606
 20
-6.457086098850097
 10
37.94505317982547
 20
-6.4735836059306076
 10
37.94507564102288
 20
-6.473617101815364
 10
37.95615658984118
 20
-6.490070053723454
 10
37.95617918594336
 20
-6.490103458750838
 10
37.96732639867127
 20
-6.506511587882568
 10
37.96734912931065
 20
-6.506544901509155
 10
37.97856242464085
 20
-6.522907940989644
 10
37.978585289447786
 20
-6.522941162673705
 10
37.98986448499848
 20
-6.539258846361456
 10
37.98988748360104
 20
-6.539291975562581
 10
38.00123239591834
 20
-6.555564038053761
 10
38.001255527942455
 20
-6.555597074233111
 10
38.01266597250365
 20
-6.57182325086594
 10
38.012689237573106
 20
-6.57185619348623
 10
38.02416502878971
 20
-6.588036220345241
 10
38.024188426526045
 20
-6.588069068870571
 10
38.03572937774644
 20
-6.6042026827909
 10
38.035752907769194
 20
-6.6042354366871345
 10
38.047358831282395
 20
-6.620322375258855
 10
38.04738249320877
 20
-6.620355033993152
 10
38.05905320024667
 20
-6.636395035565452
 10
38.05907699369184
 20
-6.636427598606647
 10
38.07081229443274
 20
-6.652420402292178
 10
38.070836219009735
 20
-6.652452869110678
 10
38.08263592258143
 20
-6.668398214789717
 10
38.082659977901095
 20
-6.668430584857425
 10
38.0945238923838
 20
-6.684328213182175
 10
38.094548078054856
 20
-6.68436048597258
 10
38.10647601048435
 20
-6.70021013837135
 10
38.10650032611344
 20
-6.700242313359538
 10
38.118492082484245
 20
-6.716043732040948
 10
38.11851652767595
 20
-6.716075808703711
 10
38.13057191294485
 20
-6.731828736660891
 10
38.130596487301446
 20
-6.731860714476324
 10
38.14271530538975
 20
-6.747564895491104
 10
38.14274000851165
 20
-6.747596773939257
 10
38.154922062309446
 20
-6.763251952586318
 10
38.1549468937948
 20
-6.763283731148612
 10
38.167191985163406
 20
-6.778889652799662
 10
38.167216944608356
 20
-6.778921330959242
 10
38.17952487438385
 20
-6.794477741787142
 10
38.17954996138241
 20
-6.794509319028743
 10
38.19192052937871
 20
-6.810015966011603
 10
38.1919457435229
 20
-6.810047441821701
 10
38.204378748535404
 20
-6.825504072747091
 10
38.204404089415064
 20
-6.825535446613664
 10
38.21689932922336
 20
-6.840941810082594
 10
38.216924796426355
 20
-6.840973081495389
 10
38.22948206779795
 20
-6.856328926926509
 10
38.22950766091005
 20
-6.85636009537689
 10
38.24212675960346
 20
-6.87166517301048
 10
38.242152478208396
 20
-6.871696237991489
 10
38.25483319897649
 20
-6.886950298893569
 10
38.254859042655994
 20
-6.886981259900001
 10
38.267601179249596
 20
-6.90218405596638
 10
38.26762714758324
 20
-6.902214912494544
 10
38.280430492753844
 20
-6.917366196454823
 10
38.28045658531936
 20
-6.917396948002972
 10
38.293320930823356
 20
-6.932496473424602
 10
38.29334714719627
 20
-6.932527119492471
 10
38.30627228379757
 20
-6.947574640784731
 10
38.30629862355154
 20
-6.947605180873944
 10
38.319284341025536
 20
-6.962600453291954
 10
38.319310803732094
 20
-6.962630886905701
 10
38.332356890868596
 20
-6.977573666554421
 10
38.33238347609738
 20
-6.977603993197772
 10
38.345489720704485
 20
-6.992494037035901
 10
38.34551642802308
 20
-6.992524256215597
 10
38.35868261693048
 20
-7.007361322059618
 10
38.35870944590448
 20
-7.007391433284105
 10
38.37193536496668
 20
-7.022175279812144
 10
38.37196231515971
 20
-7.022205282591685
 10
38.38524774925981
 20
-7.036935669347495
 10
38.385274820233555
 20
-7.036965563194115
 10
38.39861955328666
 20
-7.051642250590924
 10
38.398646744600846
 20
-7.051672035018442
 10
38.41205055955774
 20
-7.066294784342922
 10
38.412077870770034
 20
-7.066324458866814
 10
38.42554054962024
 20
-7.0808930322829235
 10
38.42556798028644
 20
-7.080922596420565
 10
38.439089304062136
 20
-7.095436756973415
 10
38.43911685373619
 20
-7.095466210244047
 10
38.452696602516085
 20
-7.1099257218637675
 10
38.45272427074976
 20
-7.109955063788202
 10
38.46636222366177
 20
-7.124359691293762
 10
38.46639001000512
 20
-7.124388921394821
 10
38.48008594523072
 20
-7.138738430497891
 10
38.480113849231834
 20
-7.138767548300182
 10
38.49386754400953
 20
-7.153061705608901
 10
38.49389556521448
 20
-7.153090710638758
 10
38.50770679584308
 20
-7.1673292836615685
 10
38.507734933796186
 20
-7.167358175447311
 10
38.52160347563899
 20
-7.181540932596721
 10
38.521631729882536
 20
-7.181569710668368
 10
38.535557357370436
 20
-7.1956964212646986
 10
38.53558572744489
 20
-7.1957250851542
 10
38.54956821408039
 20
-7.209795519429389
 10
38.54959669952432
 20
-7.209824068670538
 10
38.56363581788512
 20
-7.223837997771819
 10
38.56366441823523
 20
-7.223866431900267
 10
38.57775993997793
 20
-7.237823627893927
 10
38.577788654768995
 20
-7.237851946447166
 10
38.59194035063269
 20
-7.251752182322257
 10
38.59196917939774
 20
-7.251780384839763
 10
38.606176819208144
 20
-7.265623434511772
 10
38.60620576147824
 20
-7.26565152053479
 10
38.62046911415094
 20
-7.279437158849319
 10
38.62049816945534
 20
-7.279465127921025
 10
38.63481700299974
 20
-7.293193130657466
 10
38.63484617086588
 20
-7.293220982322965
 10
38.64922025238908
 20
-7.306891126198154
 10
38.64924953234254
 20
-7.306918860004449
 10
38.663678628053034
 20
-7.3205309226762685
 10
38.66370801961757
 20
-7.32055853817225
 10
38.67819189482897
 20
-7.3341122982432605
 10
38.6782213975266
 20
-7.334139794979835
 10
38.692759816661805
 20
-7.347635032000875
 10
38.692789430012574
 20
-7.347662409530719
 10
38.707382156606975
 20
-7.361098904004519
 10
38.70741188012932
 20
-7.3611261618824235
 10
38.72205867683532
 20
-7.374503695267123
 10
38.722088510045715
 20
-7.3745308330496835
 10
38.73678913863601
 20
-7.387849187762414
 10
38.736819081049276
 20
-7.387876205008275
 10
38.75157330242118
 20
-7.4011351644287044
 10
38.751603353550294
 20
-7.40116206069843
 10
38.766410927729396
 20
-7.41436140917228
 10
38.76644108708558
 20
-7.414388184028401
 10
38.781301773229686
 20
-7.4275277068709515
 10
38.78133204032241
 20
-7.427554359877993
 10
38.796245596725505
 20
-7.440633843377573
 10
38.796275971062485
 20
-7.440660374102022
 10
38.81124215515859
 20
-7.4536796055234715
 10
38.81127263624579
 20
-7.453706013533809
 10
38.826291204612986
 20
-7.466664781122
 10
38.826321791954605
 20
-7.466691065988683
 10
38.84139250031881
 20
-7.479589158971883
 10
38.84142319341743
 20
-7.479615320267457
 10
38.856545796656825
 20
-7.492452528860807
 10
38.856576595013124
 20
-7.492478566159679
 10
38.87175084716142
 20
-7.505254681568579
 10
38.871781750274586
 20
-7.50528059444735
 10
38.88700740452588
 20
-7.517995408870879
 10
38.88703841189318
 20
-7.5180211969080055
 10
38.90231522060518
 20
-7.530674503542306
 10
38.90234633172233
 20
-7.530700166318381
 10
38.917674046420835
 20
-7.54329175935997
 10
38.917705260781794
 20
-7.5433172964575785
 10
38.93308363216459
 20
-7.555846971106769
 10
38.93311494926173
 20
-7.5558723821106115
 10
38.94854372720293
 20
-7.568339934574781
 10
38.9485751465268
 20
-7.568365219071471
 10
38.964054080080295
 20
-7.580770446568422
 10
38.964085601119905
 20
-7.580795604146759
 10
38.979614438524
 20
-7.593138304907969
 10
38.97964606076666
 20
-7.5931633351587555
 10
38.99522454944797
 20
-7.605443308432726
 10
38.995256272379365
 20
-7.6054682109488665
 10
39.010884158956955
 20
-7.617685257004306
 10
39.010915982061114
 20
-7.617710031380762
 10
39.026593012350624
 20
-7.629863951509902
 10
39.026624935109936
 20
-7.629888597343712
 10
39.04235085412763
 20
-7.641979193865522
 10
39.04238287602289
 20
-7.642003710755831
 10
39.05815742798989
 20
-7.65403078701921
 10
39.058189548500266
 20
-7.654055174567255
 10
39.07401247684667
 20
-7.666018534954246
 10
39.07404469544972
 20
-7.666042792763371
 10
39.089915742818825
 20
-7.677942242692351
 10
39.08994805899052
 20
-7.677966370368
 10
39.10586696724292
 20
-7.68980171629683
 10
39.10589938045766
 20
-7.689825713446583
 10
39.12186589067556
 20
-7.701596762875762
 10
39.12189840040614
 20
-7.701620629109307
 10
39.137912252897536
 20
-7.713327190585128
 10
39.13794485861522
 20
-7.713350925514301
 10
39.15400579291812
 20
-7.724992808631891
 10
39.15403849409251
 20
-7.725016411870597
 10
39.17014624897891
 20
-7.736593427277107
 10
39.17017904507822
 20
-7.736616898441508
 10
39.186333358558926
 20
-7.748128857839138
 10
39.186366249049634
 20
-7.7481521965474185
 10
39.202566858377836
 20
-7.759598912696489
 10
39.202599842725085
 20
-7.759622118569106
 10
39.21884648440128
 20
-7.7710034052910855
 10
39.21887956206854
 20
-7.771026477950577
 10
39.23517197184444
 20
-7.782342150131167
 10
39.235205142293694
 20
-7.782365089202252
 10
39.2515430551765
 20
-7.793614962794333
 10
39.251576317868256
 20
-7.793637767903922
 10
39.267959468125156
 20
-7.8048216599305915
 10
39.26799282251841
 20
-7.804844330707765
 10
39.28442094368081
 20
-7.815962059265286
 10
39.28445438923301
 20
-7.815984595341282
 10
39.30092721410071
 20
-7.827035979602061
 10
39.300960750267976
 20
-7.827058380610397
 10
39.31747801091407
 20
-7.838043240825917
 10
39.31751163715082
 20
-7.838065506402174
 10
39.33407306492522
 20
-7.848983663905914
 10
39.334106780684635
 20
-7.849005793688005
 10
39.35071210621924
 20
-7.859857070898346
 10
39.35074591095286
 20
-7.859879064526283
 10
39.367394864165256
 20
-7.870663284949403
 10
39.36742875732329
 20
-7.870685142065496
 10
39.38412106742169
 20
-7.881402130298255
 10
39.384155048452904
 20
-7.88142385054702
 10
39.400890443940405
 20
-7.89207343227976
 10
39.400924512292015
 20
-7.8920950153078655
 10
39.41770272097062
 20
-7.902677017327326
 10
39.41773687608861
 20
-7.9026984627837855
 10
39.43455762506431
 20
-7.9132127129758345
 10
39.4345918663931
 20
-7.91323402051181
 10
39.4514548820798
 20
-7.923680347864321
 10
39.45148920906246
 20
-7.92370151713325
 10
39.46839421718656
 20
-7.93407975173881
 10
39.46842862926478
 20
-7.934100782396387
 10
39.48537535486978
 20
-7.944410755455137
 10
39.48540985148387
 20
-7.944431647159306
 10
39.50239801893477
 20
-7.954673190981626
 10
39.50243259952361
 20
-7.954693943392572
 10
39.519461932511206
 20
-7.964866891401822
 10
39.51949659651241
 20
-7.964887504182042
 10
39.53656681805822
 20
-7.9749916909172915
 10
39.53660156490794
 20
-7.975012163731497
 10
39.55371239736824
 20
-7.985047424850207
 10
39.553747226501315
 20
-7.985067757365411
 10
39.570898391571816
 20
-7.99503392964609
 10
39.570933302421786
 20
-7.995054121531593
 10
39.588124521142284
 20
-8.004951042876483
 10
39.588159513141335
 20
-8.004971093803881
 10
39.60539050590023
 20
-8.014798603241571
 10
39.6054255784792
 20
-8.014818512884721
 10
39.622696065017806
 20
-8.02457645057275
 10
39.62273121760626
 20
-8.024596218607837
 10
39.640040917023654
 20
-8.034284425835338
 10
39.64007614904986
 20
-8.034304051940842
 10
39.657424779807364
 20
-8.04392237113109
 10
39.657460090698216
 20
-8.04394185498777
 10
39.674847370623716
 20
-8.053490129700771
 10
39.674882759804966
 20
-8.05350947099176
 10
39.692308406097965
 20
-8.062987545926747
 10
39.692343872993995
 20
-8.063006744337457
 10
39.70980760222999
 20
-8.072414465335477
 10
39.709843146263914
 20
-8.072433520553632
 10
39.727344674398815
 20
-8.081770734600003
 10
39.727380294992514
 20
-8.08178964631568
 10
39.74491933736751
 20
-8.09105620154253
 10
39.74495503394164
 20
-8.091074969448135
 10
39.762531305287744
 20
-8.100270715136817
 10
39.76256707726173
 20
-8.100289338927107
 10
39.780180291704525
 20
-8.109414125510677
 10
39.7802161384965
 20
-8.109432604882722
 10
39.7978660095606
 20
-8.11848628394839
 10
39.79790193058755
 20
-8.118504618601639
 10
39.815588171201455
 20
-8.127487042893161
 10
39.815624165879115
 20
-8.127505232529392
 10
39.83334648837961
 20
-8.136416255949442
 10
39.83338255612253
 20
-8.136434300272809
 10
39.851140672259625
 20
-8.145273777885409
 10
39.851176812481214
 20
-8.145291676602444
 10
39.868970433422916
 20
-8.154059464635292
 10
39.8690066455353
 20
-8.15407721745484
 10
39.8868354818718
 20
-8.162773173301641
 10
39.88687176528604
 20
-8.162790779934985
 10
39.904735527035044
 20
-8.171414762157786
 10
39.904771881160976
 20
-8.171432222318543
 10
39.92267027777197
 20
-8.179984090650022
 10
39.92270670201831
 20
-8.180001404054213
 10
39.94063944237751
 20
-8.188481019399964
 10
39.94067593615183
 20
-8.188498185765992
 10
39.95864272858693
 20
-8.196905410206803
 10
39.95867929129565
 20
-8.19692242925545
 10
39.97667984358035
 20
-8.20525712604952
 10
39.9767164746288
 20
-8.205273997503985
 10
39.9947504939878
 20
-8.213536031089165
 10
39.994787192780194
 20
-8.213552754675039
 10
40.012854385893895
 20
-8.221741990671028
 10
40.01289115183327
 20
-8.221758566116282
 10
40.03099122484227
 20
-8.229874871326825
 10
40.03102805733074
 20
-8.2298912983619
 10
40.04916071584124
 20
-8.237934540776939
 10
40.049197614279635
 20
-8.237950819134616
 10
40.06736256336744
 20
-8.245920867932446
 10
40.0673995271557
 20
-8.245936997347997
 10
40.0855964713718
 20
-8.253833722897387
 10
40.08563349990863
 20
-8.253849703108433
 10
40.10386214328323
 20
-8.261672976970752
 10
40.10389923596642
 20
-8.261688807717404
 10
40.12215928201443
 20
-8.269438502648695
 10
40.12219643824068
 20
-8.269454183673462
 10
40.14048758996617
 20
-8.27713017362651
 10
40.140524809131115
 20
-8.277145704674343
 10
40.158846769032216
 20
-8.284747864800734
 10
40.15888405053051
 20
-8.28476324561902
 10
40.17723652060421
 20
-8.29229145227115
 10
40.17727386382946
 20
-8.292306682609723
 10
40.19565654557656
 20
-8.299760813342862
 10
40.19569394992144
 20
-8.299775892954024
 10
40.21410654435154
 20
-8.307155826528223
 10
40.21414400920758
 20
-8.307170755166668
 10
40.23258621684328
 20
-8.314476371548828
 10
40.23262374160122
 20
-8.314491148971786
 10
40.25109526248403
 20
-8.321722329337527
 10
40.251132846533466
 20
-8.321736955304614
 10
40.26963338022766
 20
-8.328893582040262
 10
40.269671022957326
 20
-8.328908056313605
 10
40.288200268555535
 20
-8.335990013018096
 10
40.288237969353204
 20
-8.33600433536228
 10
40.3067956254811
 20
-8.343011506848999
 10
40.30683338373352
 20
-8.343025677031054
 10
40.32541914855442
 20
-8.349957949329786
 10
40.325456963647504
 20
-8.349971967119258
 10
40.3440705348679
 20
-8.356829227478016
 10
40.344108406186585
 20
-8.356843092646898
 10
40.36274948106048
 20
-8.363625229533728
 10
40.36278740798877
 20
-8.363638941856498
 10
40.38145568332277
 20
-8.370345844961328
 10
40.381493665243816
 20
-8.370359404214971
 10
40.40018883740222
 20
-8.376990964451371
 10
40.40022687369828
 20
-8.377004370415353
 10
40.418948638608086
 20
-8.383560479922343
 10
40.418986728660435
 20
-8.383573732378599
 10
40.437734781815735
 20
-8.390054284522398
 10
40.437772925004914
 20
-8.390067383255397
 10
40.456546961472604
 20
-8.396472272631147
 10
40.456585157178175
 20
-8.396485217427827
 10
40.475384871602174
 20
-8.402814339861289
 10
40.475423119202944
 20
-8.402827130511122
 10
40.49424820580995
 20
-8.409080383060411
 10
40.49428650468377
 20
-8.40909301935534
 10
40.51313665728737
 20
-8.415270300312581
 10
40.513175006811345
 20
-8.415282782047095
 10
40.53204991881764
 20
-8.421383990940054
 10
40.53208831836805
 20
-8.42139631791114
 10
40.55098768278065
 20
-8.427421355504912
 10
40.551026131732876
 20
-8.427433527512058
 10
40.56994964115717
 20
-8.433382295810608
 10
40.569988138885904
 20
-8.43339431265586
 10
40.5889354855351
 20
-8.43926671490369
 10
40.58897403141414
 20
-8.43927857639158
 10
40.60794490711334
 20
-8.44507451707527
 10
40.607983500515765
 20
-8.445086223012881
 10
40.62697759670756
 20
-8.450805607862621
 10
40.62701623700568
 20
-8.450817158059563
 10
40.64603324475508
 20
-8.456459894050722
 10
40.64607193132035
 20
-8.456471288319117
 10
40.66511154131935
 20
-8.462037283673746
 10
40.66515027352261
 20
-8.462048521828287
 10
40.68421217609601
 20
-8.467537686016597
 10
40.68425095330726
 20
-8.467548767874488
 10
40.703334838417064
 20
-8.472961011616338
 10
40.70337366000559
 20
-8.47297193699733
 10
40.722479217256186
 20
-8.478307172263682
 10
40.72251808259059
 20
-8.47831794099009
 10
40.7416450012341
 20
-8.48357608100442
 10
40.74168390968221
 20
-8.483586692901078
 10
40.76083187862301
 20
-8.488767652140808
 10
40.76087082955204
 20
-8.488778107035133
 10
40.780039537352536
 20
-8.49388180123301
 10
40.78007853012889
 20
-8.493892098954934
 10
40.79926766501369
 20
-8.498918445100415
 10
40.799306699003225
 20
-8.498928585482465
 10
40.81851594886513
 20
-8.503877501823045
 10
40.81855502343293
 20
-8.503887484700284
 10
40.83778407583743
 20
-8.508758890742856
 10
40.83782319034795
 20
-8.50876871595291
 10
40.857071732538245
 20
-8.513562532465029
 10
40.85711088635531
 20
-8.513572199848097
 10
40.876378605257806
 20
-8.518288348859317
 10
40.876417797744594
 20
-8.518297858258165
 10
40.89570437997389
 20
-8.522936263061284
 10
40.895743610492914
 20
-8.522945614321236
 10
40.91504874235651
 20
-8.527506199473537
 10
40.91508801026973
 20
-8.527515392442503
 10
40.93441137777373
 20
-8.531998083767002
 10
40.934450682442424
 20
-8.532007118295455
 10
40.95379197129603
 20
-8.536411842882076
 10
40.95383131208094
 20
-8.536420718823075
 10
40.973190207702146
 20
-8.540747405029885
 10
40.97322958396341
 20
-8.540756122239062
 10
40.99260577148361
 20
-8.545004699693362
 10
40.99264518258075
 20
-8.545013258028934
 10
41.01203834685025
 20
-8.549183657628504
 10
41.01207779214228
 20
-8.549192056951274
 10
41.03148761773518
 20
-8.553284210865394
 10
41.031527096580525
 20
-8.553292451038747
 10
41.050953267800026
 20
-8.557306292709377
 10
41.05099277955656
 20
-8.557314373599285
 10
41.07043498043976
 20
-8.561249837742084
 10
41.07047452446483
 20
-8.561257759217117
 10
41.08993243878843
 20
-8.565114781822588
 10
41.08997201443889
 20
-8.565122543753906
 10
41.10944532572389
 20
-8.568901062088345
 10
41.10948493235601
 20
-8.568908664349697
 10
41.12897332387281
 20
-8.572608616956268
 10
41.12901296084243
 20
-8.572616059424009
 10
41.14851611561643
 20
-8.576237386123738
 10
41.14855578227885
 20
-8.576244668676816
 10
41.16807338309515
 20
-8.579787310569555
 10
41.16811307880518
 20
-8.579794433089518
 10
41.187644808213875
 20
-8.583258332554928
 10
41.1876845323259
 20
-8.583265294925935
 10
41.207230072647604
 20
-8.586650395624396
 10
41.207269824515514
 20
-8.586657197733203
 10
41.22682885784581
 20
-8.589963444606722
 10
41.226868636823035
 20
-8.589970086342692
 10
41.246440845038244
 20
-8.593197425615852
 10
41.24648065047781
 20
-8.593203906870961
 10
41.266065715239904
 20
-8.596352286051731
 10
41.26610554649436
 20
-8.596358606720562
 10
41.285703149256356
 20
-8.599427974601213
 10
41.28574300567787
 20
-8.599434134580964
 10
41.30535282768867
 20
-8.602424441238824
 10
41.305392708628986
 20
-8.6024304404293
 10
41.325014430938886
 20
-8.60534163722766
 10
41.325054335749336
 20
-8.605347475531289
 10
41.34468763921494
 20
-8.608179515120119
 10
41.34472756724648
 20
-8.608185192441939
 10
41.36437213253608
 20
-8.610938028758689
 10
41.3644120831393
 20
-8.61094354500636
 10
41.384067590738
 20
-8.61361713327671
 10
41.38410756326312
 20
-8.613622488360514
 10
41.403773693478215
 20
-8.616216785099084
 10
41.40381368727506
 20
-8.61622197893192
 10
41.423490120240864
 20
-8.61873694194302
 10
41.423530134658975
 20
-8.618741974440411
 10
41.44321655034228
 20
-8.621177562818652
 10
41.4432565847308
 20
-8.621182433898746
 10
41.462952662936
 20
-8.623538608029795
 10
41.462992716643804
 20
-8.623543317613366
 10
41.4826981370184
 20
-8.625820039174537
 10
41.48273820939402
 20
-8.625824587184981
 10
41.502452651433124
 20
-8.62802181914583
 10
41.50249274182477
 20
-8.628026205509178
 10
41.52221588487706
 20
-8.630143912132208
 10
41.522255992632694
 20
-8.630148136777116
 10
41.5419875159053
 20
-8.632186283618246
 10
41.54202764037257
 20
-8.632190346476001
 10
41.56176722293626
 20
-8.634148900385172
 10
41.56180736346254
 20
-8.63415280138969
 10
41.58155468425704
 20
-8.63603173051144
 10
41.58159484018946
 20
-8.636035469599276
 10
41.601349578028454
 20
-8.637834743373196
 10
41.601389748713885
 20
-8.637838320483532
 10
41.62115158229079
 20
-8.639557909644802
 10
41.621191767075864
 20
-8.639561324719457
 10
41.640960374968365
 20
-8.641201201299307
 10
41.641000573199484
 20
-8.641204454282736
 10
41.66077563387518
 20
-8.642764591608907
 10
41.66081584489853
 20
-8.6427676824482
 10
41.68059703672013
 20
-8.644248055145379
 10
41.680637259881685
 20
-8.644250983790267
 10
41.70042426111198
 20
-8.645651567780487
 10
41.70046449575752
 20
-8.645654334183332
 10
41.720256984565125
 20
-8.646975106686382
 10
41.72029723004024
 20
-8.646977710802192
 10
41.74009488450433
 20
-8.648218650335972
 10
41.740135140154436
 20
-8.648221092122391
 10
41.759937638270046
 20
-8.649382178503272
 10
41.75997790344039
 20
-8.649384457920585
 10
41.779784923123984
 20
-8.650465672263744
 10
41.77982519715967
 20
-8.650467789274877
 10
41.79963641625417
 20
-8.651469113994569
 10
41.799676698500136
 20
-8.651471068565087
 10
41.819491794780035
 20
-8.652392487374975
 10
41.81953208458111
 20
-8.65239427947309
 10
41.839350735757805
 20
-8.65323577738648
 10
41.83939103245868
 20
-8.653237406983042
 10
41.85921291618598
 20
-8.653998970313141
 10
41.85925321913123
 20
-8.654000437381647
 10
41.87907801301014
 20
-8.654682053741798
 10
41.879118321544254
 20
-8.654683358258383
 10
41.898945703128554
 20
-8.655285016562214
 10
41.898986016595934
 20
-8.655286158505664
 10
41.91881566339734
 20
-8.655807848967324
 10
41.918855981142265
 20
-8.655808828319064
 10
41.93868757063546
 20
-8.656250542453382
 10
41.93872789200219
 20
-8.656251359197483
 10
41.958561101630494
 20
-8.656613089820054
 10
41.95860142596321
 20
-8.65661374394323
 10
41.97843593314351
 20
-8.656895485170592
 10
41.97847625978635
 20
-8.656895976662208
 10
41.99831174191434
 20
-8.657097723911876
 10
41.99835207021139
 20
-8.657098052763937
 10
42.0181882046671
 20
-8.657219802754547
 10
42.01822853396242
 20
-8.6572199689617
 10
42.03806499811502
 20
-8.65726171971302
 10
42.038105327752675
 20
-8.657261723272565
 10
42.057941798966276
 20
-8.657223474105516
 10
42.05798212829031
 20
-8.657223315017395
 10
42.07781828392851
 20
-8.657105066554095
 10
42.077858612282974
 20
-8.657104744820897
 10
42.097694129714874
 20
-8.656906498984636
 10
42.09773445644384
 20
-8.65690601461159
 10
42.11756901304884
 20
-8.65662777462679
 10
42.117609337496404
 20
-8.656627127621778
 10
42.1374426106693
 20
-8.656268898013959
 10
42.13748293217957
 20
-8.6562680883875
 10
42.157314599336374
 20
-8.65582987498319
 10
42.157354917253556
 20
-8.655828902748459
 10
42.17718465583606
 20
-8.655310712675117
 10
42.17722496950438
 20
-8.655309577847921
 10
42.197052456985986
 20
-8.654711419533802
 10
42.19709276574975
 20
-8.654710122132602
 10
42.216917679640545
 20
-8.654032005306632
 10
42.21695798284415
 20
-8.65403054535253
 10
42.23678000069565
 20
-8.65327248104413
 10
42.23682029768355
 20
-8.653270858560871
 10
42.25663909709495
 20
-8.652432859099822
 10
42.25667938721175
 20
-8.652431074113792
 10
42.27649464583405
 20
-8.651513153129963
 10
42.27653492842441
 20
-8.651511205670202
 10
42.296346323966716
 20
-8.650513378093402
 10
42.29638659837548
 20
-8.650511268191579
 10
42.31619380860927
 20
-8.649433550251269
 10
42.31623407418135
 20
-8.649431277941703
 10
42.33603677694635
 20
-8.648273687166752
 10
42.336077033026854
 20
-8.648271252486401
 10
42.35587490623626
 20
-8.647033807704792
 10
42.35591515217044
 20
-8.647031210693257
 10
42.37570787381584
 20
-8.645713932031756
 10
42.37574810894908
 20
-8.645711172731275
 10
42.39553535710588
 20
-8.644314081615166
 10
42.39557558078378
 20
-8.644311160070622
 10
42.41535703361628
 20
-8.642834279223312
 10
42.4153972451846
 20
-8.642831195482218
 10
42.4351725809517
 20
-8.641274548924867
 10
42.43521277975642
 20
-8.641271303037385
 10
42.45498167681612
 20
-8.639634916088546
 10
42.45502186220341
 20
-8.639631508107465
 10
42.474783999018705
 20
-8.637915407382614
 10
42.47482417033495
 20
-8.637911837363367
 10
42.49457922547865
 20
-8.636116050774557
 10
42.494619382070475
 20
-8.63611231877521
 10
42.51436703423067
 20
-8.63423687553054
 10
42.514407175444944
 20
-8.63423298161179
 10
42.534147103430044
 20
-8.63227791221496
 10
42.534187228613874
 20
-8.632273856440143
 10
42.55391911135798
 20
-8.630239192689952
 10
42.55395921985872
 20
-8.630234975125035
 10
42.57368273642682
 20
-8.628120750114885
 10
42.57372282759214
 20
-8.628116370828463
 10
42.593437657185135
 20
-8.625922618945793
 10
42.59347773036295
 20
-8.625918078009098
 10
42.61318355232316
 20
-8.623644834934838
 10
42.61322360686167
 20
-8.623640132421725
 10
42.63292010067807
 20
-8.621287435129716
 10
42.63296013592584
 20
-8.621282571116671
 10
42.65264698123874
 20
-8.618850457873052
 10
42.65268699654458
 20
-8.618845432439185
 10
42.67236387315148
 20
-8.616333942801765
 10
42.67240386786453
 20
-8.616328756028818
 10
42.69207045572514
 20
-8.613737930846497
 10
42.69211042919492
 20
-8.61373258281883
 10
42.71176640843611
 20
-8.611062464230839
 10
42.711806360012446
 20
-8.611056955035437
 10
42.731451410933744
 20
-8.608307586470715
 10
42.73149133996686
 20
-8.608301916197181
 10
42.75112514304536
 20
-8.605473342373642
 10
42.75116504888577
 20
-8.605467511114206
 10
42.770787284781875
 20
-8.602559778038035
 10
42.77082716678056
 20
-8.602553785887538
 10
42.79043751634246
 20
-8.59956694085242
 10
42.79047737385071
 20
-8.599560787908324
 10
42.810075518120115
 20
-8.596494879494694
 10
42.810115350489696
 20
-8.596488565857076
 10
42.829700970706696
 20
-8.593343643931306
 10
42.82974077728973
 20
-8.593337169702854
 10
42.84931355489823
 20
-8.590113285416455
 10
42.849353335047255
 20
-8.590106650702475
 10
42.86891295169995
 20
-8.586803856491285
 10
42.86895270476796
 20
-8.586797061399686
 10
42.88849884233177
 20
-8.583415410982955
 10
42.888538567672185
 20
-8.58340845562426
 10
42.908070908233086
 20
-8.579948004003882
 10
42.908110605199795
 20
-8.579940888491217
 10
42.92762883106829
 20
-8.576401691950707
 10
42.92766849901563
 20
-8.576394416399802
 10
42.94717229273163
 20
-8.572776532503472
 10
42.94721193101438
 20
-8.572769097032669
 10
42.96670097535268
 20
-8.569072584624688
 10
42.966740583326164
 20
-8.569064989354919
 10
42.986214561301466
 20
-8.56528990855829
 10
42.98625413832145
 20
-8.56528215361309
 10
43.00571273319345
 20
-8.56142856582875
 10
43.00575227861624
 20
-8.561420651334252
 10
43.02519517389485
 20
-8.55748861924
 10
43.02523468707722
 20
-8.557480545324935
 10
43.044661566527616
 20
-8.553470132874507
 10
43.04470104682692
 20
-8.55346189967019
 10
43.06411159447492
 20
-8.5493731720921
 10
43.064151041249005
 20
-8.549364779732446
 10
43.08354494138601
 20
-8.545197803529037
 10
43.083584353993274
 20
-8.545189252150546
 10
43.102961291181465
 20
-8.540944095096835
 10
43.103000668980904
 20
-8.54093538483859
 10
43.122360328058214
 20
-8.53661211598119
 10
43.122399670409315
 20
-8.536603246984868
 10
43.141741736494915
 20
-8.532201936640867
 10
43.141781042757806
 20
-8.532192909050716
 10
43.1611052012569
 20
-8.527713628806536
 10
43.16114447079226
 20
-8.527704442769389
 10
43.18045040740136
 20
-8.523147265479619
 10
43.180489639570496
 20
-8.523137921144881
 10
43.1997770402824
 20
-8.518502920931073
 10
43.19981623444719
 20
-8.518493418450733
 10
43.219084785556284
 20
-8.513780670700232
 10
43.219123941079246
 20
-8.513771010228846
 10
43.23837332918645
 20
-8.508980591593536
 10
43.23841244543073
 20
-8.50897077328823
 10
43.25764235744873
 20
-8.5041027616833
 10
43.25768143377814
 20
-8.504092785703756
 10
43.276891556936135
 20
-8.499147260306406
 10
43.27693059271504
 20
-8.499137126814901
 10
43.29612061456454
 20
-8.49411416806312
 10
43.296159609158096
 20
-8.494103877224456
 10
43.315329217577094
 20
-8.489003566815647
 10
43.315368170351036
 20
-8.488993118797206
 10
43.33451705354974
 20
-8.483815539686866
 10
43.33455596387048
 20
-8.483804934658593
 10
43.353683810396376
 20
-8.478550171059013
 10
43.3537226776311
 20
-8.478539409193381
 10
43.3728291763735
 20
-8.473207546572201
 10
43.37286799989001
 20
-8.473196628044262
 10
43.391952840085615
 20
-8.467787753123162
 10
43.39199161925246
 20
-8.467776678110496
 10
43.41105449049016
 20
-8.462290878863726
 10
43.4110932246766
 20
-8.462279647546472
 10
43.430133816902796
 20
-8.45671701319943
 10
43.430172505478815
 20
-8.45670562576026
 10
43.449190509002115
 20
-8.451066246788084
 10
43.449229151338486
 20
-8.451054703412211
 10
43.46822425683488
 20
-8.44533867153824
 10
43.46826285230306
 20
-8.445326972413417
 10
43.48723475082107
 20
-8.439534380607746
 10
43.48727329879333
 20
-8.439522525924257
 10
43.50622168175883
 20
-8.433653468402229
 10
43.5062601816082
 20
-8.433641458352886
 10
43.5251847408296
 20
-8.427696030573514
 10
43.52522319192987
 20
-8.42768386535366
 10
43.54412361960306
 20
-8.42166216401813
 10
43.54416202132884
 20
-8.42164984382563
 10
43.56303801004224
 20
-8.415551966875691
 10
43.56307636176895
 20
-8.415539491910923
 10
43.58192760450835
 20
-8.409365538527295
 10
43.58196590561216
 20
-8.409352908993178
 10
43.60079209576606
 20
-8.403102979593967
 10
43.60083034562407
 20
-8.403090195695901
 10
43.619631176988165
 20
-8.39676439193494
 10
43.61966937497821
 20
-8.396751453880857
 10
43.63844454176081
 20
-8.390349878646045
 10
43.6384826872616
 20
-8.390336786646394
 10
43.657231884088596
 20
-8.383859544058065
 10
43.65726997647974
 20
-8.38384629832576
 10
43.67599289839904
 20
-8.37729349373495
 10
43.676030937060915
 20
-8.377280094485455
 10
43.69472727954822
 20
-8.370651834472204
 10
43.69476526386221
 20
-8.370638281923432
 10
43.713434722825106
 20
-8.363934674295022
 10
43.71347265217334
 20
-8.363920968667424
 10
43.732114923957035
 20
-8.357142122456695
 10
43.73215279772266
 20
-8.357128263973165
 10
43.75076757911417
 20
-8.350274289436653
 10
43.75080539668108
 20
-8.350260278322633
 10
43.76939238491508
 20
-8.343331286938854
 10
43.7694301456683
 20
-8.34331712342219
 10
43.78798903843091
 20
-8.33631322788978
 10
43.788026741756184
 20
-8.336298912200867
 10
43.80655723719088
 20
-8.329220226436766
 10
43.806594882475
 20
-8.32920575880844
 10
43.8250966791871
 20
-8.322052397946033
 10
43.82513426581778
 20
-8.3220377786136
 10
43.84360706287928
 20
-8.31480985900083
 10
43.84364459024516
 20
-8.314795088202079
 10
43.86208808719976
 20
-8.307492727399618
 10
43.86212555469048
 20
-8.30747780537479
 10
43.880539451558484
 20
-8.30010112215404
 10
43.880576858564645
 20
-8.300086049145838
 10
43.89896085584775
 20
-8.292635163487057
 10
43.898998201760946
 20
-8.292619939740629
 10
43.91735200044704
 20
-8.285094972830949
 10
43.91738928465979
 20
-8.285079598593937
 10
43.93571258622829
 20
-8.277480672825426
 10
43.93574980813424
 20
-8.27746514834786
 10
43.95404231456024
 20
-8.26979238731551
 10
43.95407947355397
 20
-8.269776712849898
 10
43.97234088731357
 20
-8.262030241349589
 10
43.97237798279068
 20
-8.262014417150876
 10
43.990608006865685
 20
-8.254194361177396
 10
43.990645038222816
 20
-8.254178387502966
 10
44.00884337610562
 20
-8.246284874247957
 10
44.00888034274048
 20
-8.246268751357608
 10
44.02704669843878
 20
-8.238301909207438
 10
44.02708359975011
 20
-8.238285637363418
 10
44.045217677791904
 20
-8.23024559589716
 10
44.04525451317953
 20
-8.23022917536411
 10
44.063356018617625
 20
-8.22211606535141
 10
44.0633927874824
 20
-8.222099496396421
 10
44.081461425899505
 20
-8.21391344979537
 10
44.08149812764341
 20
-8.213896732687926
 10
44.09953360515681
 20
-8.205637882642897
 10
44.09957023918286
 20
-8.20562101765491
 10
44.11757226244926
 20
-8.19728949849443
 10
44.11760882816167
 20
-8.197272485900182
 10
44.13557710438167
 20
-8.188868433134722
 10
44.13561360118565
 20
-8.188851273210947
 10
44.153547838109056
 20
-8.180374823530697
 10
44.15358426541105
 20
-8.180357516556471
 10
44.17148417134096
 20
-8.171808807829192
 10
44.17152052854845
 20
-8.17179135408602
 10
44.18938581234654
 20
-8.1631705253547
 10
44.18942209886817
 20
-8.16315292512648
 10
44.20725246995937
 20
-8.15446011660716
 10
44.20728868520497
 20
-8.154442370180137
 10
44.225083853581864
 20
-8.145677723259576
 10
44.22511999696239
 20
-8.145659830922398
 10
44.242879673190195
 20
-8.136823488155798
 10
44.24291574411781
 20
-8.136805450199473
 10
44.26063963933891
 20
-8.127897555308154
 10
44.26067563722689
 20
-8.127879372026078
 10
44.27836346316579
 20
-8.118900069895147
 10
44.27839938742866
 20
-8.118881741583058
 10
44.296050856396455
 20
-8.109831178259027
 10
44.296086706449884
 20
-8.109812705215043
 10
44.31370153134908
 20
-8.100691027903505
 10
44.313737306610015
 20
-8.100672410428071
 10
44.33131520093902
 20
-8.091479767491242
 10
44.33135090082558
 20
-8.091461005887162
 10
44.348891578683386
 20
-8.082197546841511
 10
44.34892720261488
 20
-8.082178641413968
 10
44.366430378706085
 20
-8.072844516927768
 10
44.36646592610311
 20
-8.072825467984241
 10
44.3839313157421
 20
-8.063420829875152
 10
44.38396678602653
 20
-8.063401637725454
 10
44.40139410514223
 20
-8.053926638957982
 10
44.4014294977371
 20
-8.053907303914285
 10
44.418818462877695
 20
-8.044362098597384
 10
44.41885377720736
 20
-8.044342620974168
 10
44.43620410554496
 20
-8.03472736435864
 10
44.43623934103506
 20
-8.03470774447269
 10
44.45355075036996
 20
-8.02502259294875
 10
44.45358590644736
 20
-8.025002831119203
 10
44.470858115213154
 20
-8.015247942213854
 10
44.47089319130609
 20
-8.015228038762109
 10
44.488125918573694
 20
-8.005403571136648
 10
44.488160914111624
 20
-8.005383526386455
 10
44.50535387959433
 20
-7.995489639833854
 10
44.5053887940081
 20
-7.995469454111205
 10
44.52254171806569
 20
-7.9855063095535135
 10
44.52257655078736
 20
-7.985485983186764
 10
44.539689154431166
 20
-7.9754537426725145
 10
44.539723904894274
 20
-7.975433275992221
 10
44.55679590979107
 20
-7.96533210269376
 10
44.55683057743032
 20
-7.965311496032863
 10
44.573861705907625
 20
-7.955141554243724
 10
44.57389629015923
 20
-7.955120807937334
 10
44.590886265209036
 20
-7.944882263069543
 10
44.59092076551043
 20
-7.944861377455134
 10
44.60786931079433
 20
-7.934554396036554
 10
44.60790372658439
 20
-7.934533371453822
 10
44.62481056643779
 20
-7.924158121125423
 10
44.62484489715678
 20
-7.924136957916303
 10
44.64170975659328
 20
-7.913693607429401
 10
44.64174400168282
 20
-7.913672305938115
 10
44.658566606398814
 20
-7.903161025151706
 10
44.658600765301856
 20
-7.9031395857247455
 10
44.67538084168126
 20
-7.892560545602655
 10
44.67541491384224
 20
-7.892538968588714
 10
44.692152188960534
 20
-7.881892341196894
 10
44.69218617382532
 20
-7.881870626946901
 10
44.708880375454015
 20
-7.87115658545059
 10
44.70891427246981
 20
-7.871134734317733
 10
44.72556512908112
 20
-7.860353452978623
 10
44.72559893769658
 20
-7.860331465318322
 10
44.742206178467775
 20
-7.849483119491772
 10
44.74223989813306
 20
-7.8494609956616275
 10
44.75880325295066
 20
-7.838545761793778
 10
44.758836883117304
 20
-7.838523502153637
 10
44.77535608258171
 20
-7.827541557778547
 10
44.77538962270268
 20
-7.827519162690482
 10
44.791864398132574
 20
-7.816470686427252
 10
44.79189784766242
 20
-7.816448156255478
 10
44.80832793109882
 20
-7.805333327805329
 10
44.80836128949345
 20
-7.805310662916318
 10
44.824746413704446
 20
-7.7941296630596675
 10
44.824779680421315
 20
-7.7941068638220425
 10
44.84111957890612
 20
-7.782859874415592
 10
44.84115275340411
 20
-7.782836941200207
 10
44.85744716039771
 20
-7.771524145173948
 10
44.857480242137285
 20
-7.771501078353777
 10
44.87372889261438
 20
-7.760122659708047
 10
44.87376188105747
 20
-7.760099459658278
 10
44.88996451073707
 20
-7.748655603460737
 10
44.88999740534712
 20
-7.748632270558707
 10
44.90615375069671
 20
-7.737123162941347
 10
44.90618655093866
 20
-7.737099697566589
 10
44.922296349178666
 20
-7.725525525722729
 10
44.92232905451909
 20
-7.725501928256856
 10
44.938392043626784
 20
-7.713862880438026
 10
44.93842465353369
 20
-7.713839151264888
 10
44.9544405722479
 20
-7.702135416777847
 10
44.954473086190895
 20
-7.702111556283383
 10
44.97044167401599
 20
-7.690343325486994
 10
44.97047409146628
 20
-7.690319334059262
 10
44.98639508867628
 20
-7.678486798361411
 10
44.98642740910655
 20
-7.678462676390681
 10
45.002300556749844
 20
-7.666566028245161
 10
45.00233277963444
 20
-7.666541776123724
 10
45.01815781953744
 20
-7.654581209027084
 10
45.01818994435227
 20
-7.654556827149409
 10
45.03396661912387
 20
-7.642532535637859
 10
45.03399864534643
 20
-7.642508024400515
 10
45.04972669838223
 20
-7.630420204046705
 10
45.04975862549157
 20
-7.630395563848381
 10
45.065437800978074
 20
-7.618244411258262
 10
45.06546962845498
 20
-7.618219642499687
 10
45.08109967137347
 20
-7.606005355309277
 10
45.081131398700215
 20
-7.605980458393351
 10
45.09671205483132
 20
-7.593703235265561
 10
45.096743681491915
 20
-7.593678210597181
 10
45.11227469741931
 20
-7.581338251218541
 10
45.11230622289932
 20
-7.581313099204765
 10
45.12778734601422
 20
-7.568910604282215
 10
45.127818769800875
 20
-7.568885325332143
 10
45.143249748306076
 20
-7.556420496589733
 10
45.14328106988833
 20
-7.5563950911144735
 10
45.158661652801925
 20
-7.5438681312901235
 10
45.15869287167029
 20
-7.543842599702936
 10
45.174022808830294
 20
-7.531253712545106
 10
45.174053924477
 20
-7.53122805526126
 10
45.1893329665452
 20
-7.51857744552563
 10
45.18936397846419
 20
-7.518551662962401
 10
45.20459187692999
 20
-7.50583953640857
 10
45.20462278461687
 20
-7.505813628985299
 10
45.21979929180148
 20
-7.49304019237342
 10
45.219830094753476
 20
-7.493014160511554
 10
45.234954963814275
 20
-7.480179621598994
 10
45.234985661530445
 20
-7.480153465721874
 10
45.250058646464446
 20
-7.4672580332597835
 10
45.25008923844549
 20
-7.46723175379284
 10
45.26511009409359
 20
-7.45427563752283
 10
45.265140579841926
 20
-7.454249234893507
 10
45.28010906189302
 20
-7.441232645544157
 10
45.280139440912784
 20
-7.44120612018189
 10
45.29505530590759
 20
-7.428129269465381
 10
45.29508557770471
 20
-7.428102621801573
 10
45.309948583039606
 20
-7.414965722410242
 10
45.30997874712169
 20
-7.414938952878345
 10
45.32478865105299
 20
-7.401742218481185
 10
45.32481870692944
 20
-7.401715327516576
 10
45.33957526857704
 20
-7.388458972755777
 10
45.33960521575898
 20
-7.388431960795864
 10
45.35430819511048
 20
-7.3751162012833635
 10
45.354338033110864
 20
-7.375089068767438
 10
45.36898719102517
 20
-7.361714121081348
 10
45.36901691935866
 20
-7.361686868450761
 10
45.38361201757025
 20
-7.348252950131901
 10
45.38364163575335
 20
-7.348225577829871
 10
45.39818243687585
 20
-7.334732907378171
 10
45.398211944426755
 20
-7.334705415849975
 10
45.412698211957164
 20
-7.321154212721006
 10
45.41272760839605
 20
-7.321126602413685
 10
45.427159106717944
 20
-7.307517087014995
 10
45.427188391566574
 20
-7.307489358377725
 10
45.44156488595477
 20
-7.293821752065315
 10
45.44159405873691
 20
-7.293793905549024
 10
45.455915315360514
 20
-7.280068430623745
 10
45.45594437560164
 20
-7.28004046668138
 10
45.470210161528335
 20
-7.266257346385289
 10
45.47023910875576
 20
-7.2662292654717096
 10
45.48444919195556
 20
-7.25238872398447
 10
45.48447802569856
 20
-7.25236052655632
 10
45.498632175047156
 20
-7.2384627889915
 10
45.49866089483664
 20
-7.238434475507508
 10
45.51275888011984
 20
-7.224479767909018
 10
45.51278748548878
 20
-7.224451338829608
 10
45.52682907740559
 20
-7.210439888167907
 10
45.52685756788864
 20
-7.210411343955547
 10
45.54084253805554
 20
-7.196343378124048
 10
45.540870913189416
 20
-7.196314719242913
 10
45.55479903414351
 20
-7.1821904670542125
 10
45.55482729346656
 20
-7.182161693970563
 10
45.56869833867006
 20
-7.167981385152763
 10
45.5687264817228
 20
-7.167952498334438
 10
45.582540225565694
 20
-7.153716363527378
 10
45.58256825189024
 20
-7.153687363444357
 10
45.59632446969504
 20
-7.139395634195877
 10
45.596352378835675
 20
-7.139366521319717
 10
45.61005084686008
 20
-7.125019430081897
 10
45.610078638362765
 20
-7.1249902048862195
 10
45.623719133804165
 20
-7.110587985011569
 10
45.623746807216946
 20
-7.110558647971637
 10
45.63732910821534
 20
-7.096101533709348
 10
45.63735666308807
 20
-7.096072085302374
 10
45.65088054873018
 20
-7.0815603117944645
 10
45.65090798461475
 20
-7.081530752499355
 10
45.664373234937145
 20
-7.066964555776885
 10
45.664400551387224
 20
-7.066934886074506
 10
45.677806947380525
 20
-7.052314503053696
 10
45.67783414395189
 20
-7.052284723426549
 10
45.691181467563695
 20
-7.03761039190497
 10
45.69120854381397
 20
-7.037580502837434
 10
45.70449657795277
 20
-7.022852461490094
 10
45.70452353344155
 20
-7.022822463468337
 10
45.71775206198025
 20
-7.008040951843837
 10
45.717778896269145
 20
-7.008010845355733
 10
45.73094770404835
 20
-6.993176103872373
 10
45.73097441670087
 20
-6.9931458894076295
 10
45.74408328953267
 20
-6.9782581593494495
 10
45.74410988011439
 20
-6.9782278373994435
 10
45.75715860478549
 20
-6.963287360912363
 10
45.75718507286388
 20
-6.9632569319703235
 10
45.770173437139476
 20
-6.948263952058144
 10
45.770199782284024
 20
-6.948233416619012
 10
45.78312757491112
 20
-6.933188177139511
 10
45.783153796693355
 20
-6.933157535699888
 10
45.796020807403956
 20
-6.9180602813608285
 10
45.796046905397404
 20
-6.9180295344190865
 10
45.8088529249121
 20
-6.902880510774256
 10
45.80887889869224
 20
-6.902849658830538
 10
45.82162371872384
 20
-6.887649112275708
 10
45.82164956786823
 20
-6.887618155831795
 10
45.83433298112483
 20
-6.872366333600775
 10
45.83435870521305
 20
-6.872335273160142
 10
45.84698050540145
 20
-6.8570324233207325
 10
45.847006104015065
 20
-6.8570012593886265
 10
45.859566085844364
 20
-6.841647630838566
 10
45.85959155856711
 20
-6.841616363921749
 10
45.87208951775151
 20
-6.826212206384678
 10
45.87211486416895
 20
-6.826180836991861
 10
45.884550597431954
 20
-6.810726401013281
 10
45.884575817131925
 20
-6.810694929654555
 10
45.896949122208724
 20
-6.795190466597725
 10
45.89697421478101
 20
-6.795158893785009
 10
45.90928489042231
 20
-6.77960465582688
 10
45.90930985545878
 20
-6.779572982073705
 10
45.92155770143398
 20
-6.763969222200784
 10
45.921582538528575
 20
-6.763937448022318
 10
45.93376735562897
 20
-6.748284420026598
 10
45.93379206437776
 20
-6.748252545939595
 10
45.94591365441966
 20
-6.732550504414385
 10
45.9459382344207
 20
-6.732518530937343
 10
45.957996400249
 20
-6.716767731273183
 10
45.95802085110254
 20
-6.716735658926109
 10
45.97001539659364
 20
-6.700936357306529
 10
45.97003971790198
 20
-6.70090418661106
 10
45.98197044796698
 20
-6.6850566400085105
 10
45.98199463933455
 20
-6.685024371487913
 10
45.993861359922555
 20
-6.669128837659512
 10
45.993885420955884
 20
-6.66909647183862
 10
46.00568793905708
 20
-6.653153209322
 10
46.00571186936481
 20
-6.65312074672726
 10
46.017449993013706
 20
-6.63713001483634
 10
46.017473792206616
 20
-6.637097455995733
 10
46.02914733048502
 20
-6.621059514816523
 10
46.02917099817604
 20
-6.621026860259586
 10
46.04077976121614
 20
-6.604941970645947
 10
46.040803297020325
 20
-6.604909220903808
 10
46.05234709600792
 20
-6.588777644473188
 10
46.052370499542405
 20
-6.588744800078588
 10
46.06384914672011
 20
-6.572566799207818
 10
46.063872417604316
 20
-6.572533860694856
 10
46.07528572627412
 20
-6.556309698515825
 10
46.07530886412951
 20
-6.556276666420304
 10
46.08665664865631
 20
-6.540006606815714
 10
46.08667965310655
 20
-6.539973481674886
 10
46.09796172892095
 20
-6.523657789273946
 10
46.0979845995919
 20
-6.523624571626571
 10
46.1092007831932
 20
-6.507263511800721
 10
46.10922351971285
 20
-6.507230202187101
 10
46.120373628672155
 20
-6.490824041045641
 10
46.12039623067072
 20
-6.490790640007513
 10
46.13148008363372
 20
-6.474339644393323
 10
46.13150255074356
 20
-6.4743061524739804
 10
46.142519967433664
 20
-6.45781058995916
 10
46.14254229928937
 20
-6.4577770077033465
 10
46.153493100510566
 20
-6.441237146584877
 10
46.15351529674892
 20
-6.441203474538769
 10
46.164399304388624
 20
-6.424619583834119
 10
46.16442136464861
 20
-6.424585822545394
 10
46.17523840168061
 20
-6.407958171988194
 10
46.17526032560342
 20
-6.407924322005983
 10
46.186010216090814
 20
-6.391253182041583
 10
46.18603200331985
 20
-6.391219243916443
 10
46.196714572417854
 20
-6.374504885697543
 10
46.19673622259875
 20
-6.3744708599814786
 10
46.20735129655755
 20
-6.357713555363729
 10
46.20737280933815
 20
-6.357679442610204
 10
46.217920215505856
 20
-6.340879464147754
 10
46.217941590536334
 20
-6.340845264911489
 10
46.22842115736133
 20
-6.324002885852578
 10
46.228442394293964
 20
-6.323968600689902
 10
46.23885395132827
 20
-6.307084094972413
 10
46.23887504981763
 20
-6.3070497244410015
 10
46.249218427719526
 20
-6.290123366687972
 10
46.249239387422506
 20
-6.290088911346752
 10
46.259514417958904
 20
-6.273120976861961
 10
46.25953523853458
 20
-6.273086437271391
 10
46.26974175458419
 20
-6.256077202034851
 10
46.269762435693885
 20
-6.256042578756747
 10
46.279900271249886
 20
-6.2389923194201975
 10
46.27992081255724
 20
-6.2389576130176865
 10
46.28998980272984
 20
-6.221866606900156
 10
46.29001020390081
 20
-6.221831817937628
 10
46.300010184919714
 20
-6.204700343020848
 10
46.300030445622404
 20
-6.204665472064278
 10
46.309961254840104
 20
-6.187493806988198
 10
46.309981374744986
 20
-6.187458854604735
 10
46.31984285063898
 20
-6.170247278663014
 10
46.31986282941889
 20
-6.170212245421008
 10
46.32965481159399
 20
-6.152961038556428
 10
46.329674648923856
 20
-6.152925925025904
 10
46.33939697811576
 20
-6.135635367825834
 10
46.33941667367301
 20
-6.135600174577762
 10
46.349069191749905
 20
-6.118270548269612
 10
46.34908874521421
 20
-6.118235275876383
 10
46.35867129517972
 20
-6.100866862323003
 10
46.35869070623296
 20
-6.100831511358448
 10
46.368203132229056
 20
-6.083424593053549
 10
46.36822240055562
 20
-6.08338916409249
 10
46.37766454786442
 20
-6.06594402415606
 10
46.37768367315081
 20
-6.065908517774897
 10
46.387055388197915
 20
-6.048425439948606
 10
46.38707437013313
 20
-6.048389856724742
 10
46.39637550048943
 20
-6.030869125367302
 10
46.396394338764736
 20
-6.030833465879469
 10
46.40562473314913
 20
-6.013275365961999
 10
46.40564342745809
 20
-6.013239630790276
 10
46.41480293574019
 20
-5.995644447891715
 10
46.41482148577875
 20
-5.995608637617301
 10
46.423909958981056
 20
-5.977976657919721
 10
46.42392836444754
 20
-5.977940773124993
 10
46.43294565474773
 20
-5.960272283408962
 10
46.432963915342725
 20
-5.960236324677682
 10
46.44190987607653
 20
-5.942531612317603
 10
46.44192799150308
 20
-5.942495580234549
 10
46.45080247716618
 20
-5.9247549331939595
 10
46.45082044712959
 20
-5.924718828345271
 10
46.45962331338038
 20
-5.906942535172211
 10
46.45964113758842
 20
-5.906906358145047
 10
46.46837224125002
 20
-5.8890947079672875
 10
46.46838991941277
 20
-5.889058459350065
 10
46.47704911847548
 20
-5.871211741870504
 10
46.47706665030536
 20
-5.871175422252902
 10
46.48565380392925
 20
-5.853293927744752
 10
46.48567118914121
 20
-5.853257537717321
 10
46.494186157657715
 20
-5.835341557019481
 10
46.49420339596888
 20
-5.8353050971742775
 10
46.502646040883974
 20
-5.8173549216865075
 10
46.50266313201403
 20
-5.817318392616443
 10
46.51103331600973
 20
-5.799334314294722
 10
46.51105025968067
 20
-5.799297716593967
 10
46.51934784661767
 20
-5.781280027945669
 10
46.519364642553924
 20
-5.781243362209457
 10
46.52758949747362
 20
-5.763192356288626
 10
46.52760614540199
 20
-5.763155623113333
 10
46.5357581345288
 20
-5.745071593515913
 10
46.535774634178516
 20
-5.745034793499003
 10
46.543853624922015
 20
-5.726918034358063
 10
46.54386997602473
 20
-5.7268811680980525
 10
46.55187583698173
 20
-5.708731974079003
 10
46.55189203927147
 20
-5.708695042175532
 10
46.55982464022827
 20
-5.690513708471323
 10
46.55984069344152
 20
-5.690476711525101
 10
46.567699905376024
 20
-5.672263533851431
 10
46.5677158092517
 20
-5.672226472464137
 10
46.5755015043353
 20
-5.653981747054647
 10
46.575517258614674
 20
-5.653944621829234
 10
46.583229310214875
 20
-5.635668645430664
 10
46.58324491464178
 20
-5.635631456970754
 10
46.59088319732338
 20
-5.617324526838164
 10
46.590898651643954
 20
-5.617287275748778
 10
46.59846304117196
 20
-5.598949689640657
 10
46.59847834513488
 20
-5.598912376527598
 10
46.60596871847598
 20
-5.580544432701059
 10
46.60598387183231
 20
-5.580507058171247
 10
46.613400107157105
 20
-5.562109055377177
 10
46.61341510966037
 20
-5.562071620038522
 10
46.62075708634537
 20
-5.543643857516682
 10
46.6207719377516
 20
-5.5436063619779805
 10
46.6280395363809
 20
-5.525149139452202
 10
46.62805423644848
 20
-5.525111584323451
 10
46.63524733881627
 20
-5.50662520199669
 10
46.63526188730617
 20
-5.506587587888534
 10
46.642380376417876
 20
-5.488072346438054
 10
46.64239477309339
 20
-5.488034673962493
 10
46.64943853316849
 20
-5.469490874534932
 10
46.649452777795545
 20
-5.4694531443044685
 10
46.656421694268445
 20
-5.450881088510969
 10
46.65643578661528
 20
-5.450843301139486
 10
46.66332974613818
 20
-5.432243291050746
 10
46.66334368597565
 20
-5.432205447152693
 10
46.67016257641955
 20
-5.413577785294113
 10
46.67017636352089
 20
-5.413539885485101
 10
46.67692007397798
 20
-5.394884874831811
 10
46.676933708118945
 20
-5.394846919728246
 10
46.68360212890415
 20
-5.376164863700196
 10
46.68361560986298
 20
-5.376126853919413
 10
46.690208632515784
 20
-5.357418056376463
 10
46.690221960073224
 20
-5.357379992536713
 10
46.69673947735952
 20
-5.338644757773643
 10
46.696752651298816
 20
-5.338606640493953
 10
46.70319455721241
 20
-5.319845273235564
 10
46.703207577319276
 20
-5.319807103135943
 10
46.70957376708388
 20
-5.3010199085320435
 10
46.70958663314653
 20
-5.300981686233359
 10
46.71587700321743
 20
-5.282168969853869
 10
46.715889715026634
 20
-5.282130695977717
 10
46.72210416309213
 20
-5.263292763807646
 10
46.72211672044109
 20
-5.2632544389766505
 10
46.72825514542459
 20
-5.244391597411131
 10
46.728267548109095
 20
-5.244353222248551
 10
46.7343298501703
 20
-5.225465778087871
 10
46.734342097988616
 20
-5.225427353217901
 10
46.74032817852542
 20
-5.206515613662511
 10
46.74034027127834
 20
-5.20647713971011
 10
46.74625003292834
 20
-5.187541412355601
 10
46.74626197041918
 20
-5.187502889946541
 10
46.752095317061276
 20
-5.16854348277867
 10
46.752107099095866
 20
-5.168504912539523
 10
46.75786393585187
 20
-5.149522133929213
 10
46.75787556223858
 20
-5.149483516487341
 10
46.76355579547478
 20
-5.130477675185621
 10
46.763567266024516
 20
-5.130439011169077
 10
46.76917080335302
 20
-5.111410416302087
 10
46.76918211787922
 20
-5.11137170633975
 10
46.774708868159614
 20
-5.0923206674037305
 10
46.77472002647822
 20
-5.092281912125255
 10
46.78016989981912
 20
-5.073208738981474
 10
46.78018090174869
 20
-5.073169939017116
 10
46.7855538095089
 20
-5.054074941886876
 10
46.785564654870434
 20
-5.054036097867826
 10
46.79086050966083
 20
-5.034919587327367
 10
46.790871198278
 20
-5.034880699885258
 10
46.79608991396239
 20
-5.0157429868607375
 10
46.79610044566128
 20
-5.015704056628239
 10
46.80124193735849
 20
-4.99654545239067
 10
46.80125231196785
 20
-4.996506480000844
 10
46.806316496052446
 20
-4.977327296161043
 10
46.806326713403514
 20
-4.977288282247839
 10
46.81131350750762
 20
-4.958088830751339
 10
46.81132356743421
 20
-4.958049775949322
 10
46.8162328904487
 20
-4.938830369071281
 10
46.816242792787214
 20
-4.938791274015569
 10
46.82107456486281
 20
-4.919552224355749
 10
46.82108430945215
 20
-4.919513089682373
 10
46.82583845200125
 20
-4.900254710160003
 10
46.82584803868296
 20
-4.900215536505273
 10
46.83052447438016
 20
-4.880938140353994
 10
46.83053390299829
 20
-4.880898928355263
 10
46.83513255578249
 20
-4.861602829118003
 10
46.83514182618369
 20
-4.861563579412943
 10
46.83966262125869
 20
-4.842249090936833
 10
46.8396717332922
 20
-4.842209804163804
 10
46.8441145971281
 20
-4.822877240595074
 10
46.84412355064567
 20
-4.822837917393205
 10
46.84848841098037
 20
-4.8034875931720755
 10
46.848497205836416
 20
-4.80344823418079
 10
46.85278399167621
 20
-4.78408046403636
 10
46.85279262772767
 20
-4.784041069895902
 10
46.85700126934888
 20
-4.764656168841011
 10
46.857009746455276
 20
-4.764616740192155
 10
46.86114017540528
 20
-4.745215023518285
 10
46.861148493428765
 20
-4.745175561002224
 10
46.86520064252686
 20
-4.725757344274354
 10
46.865208801332116
 20
-4.725717848533047
 10
46.86918260467102
 20
-4.706283447584527
 10
46.86919060412536
 20
-4.706243919260265
 10
46.873085997071854
 20
-4.686793650187686
 10
46.87309383704516
 20
-4.686754089923476
 10
46.87691075624156
 20
-4.667288269081496
 10
46.87691843660631
 20
-4.667248677520759
 10
46.88065681997122
 20
-4.647767621517019
 10
46.880664340602515
 20
-4.647727999303642
 10
46.88432412733181
 20
-4.628232024993542
 10
46.884331488107314
 20
-4.628192372772074
 10
46.887912618675415
 20
-4.608681797253695
 10
46.887919819475414
 20
-4.6086421156689426
 10
46.891422235635815
 20
-4.589117256277822
 10
46.89142927634319
 20
-4.589077545975307
 10
46.89485292112988
 20
-4.569538720279318
 10
46.894859801630105
 20
-4.569498981904887
 10
46.89820461935821
 20
-4.549946507699056
 10
46.89821133953938
 20
-4.549906741899024
 10
46.90147727580608
 20
-4.530340937200374
 10
46.90148383555889
 20
-4.5303011446215855
 10
46.90467083724449
 20
-4.510722327663965
 10
46.90467723646226
 20
-4.510682508953518
 10
46.907785251730665
 20
-4.491090998182398
 10
46.90779149030929
 20
-4.491051153988075
 10
46.910820468609394
 20
-4.471447268055396
 10
46.910826546447424
 20
-4.471407399025199
 10
46.91377643851352
 20
-4.451791456784189
 10
46.913782355512105
 20
-4.451751563566522
 10
46.9166531133647
 20
-4.432123884066502
 10
46.91665886942759
 20
-4.43208396731027
 10
46.9194504463744
 20
-4.412444869791449
 10
46.91945604140796
 20
-4.412404930145946
 10
46.922168392044654
 20
-4.392754734034256
 10
46.922173825957906
 20
-4.392714772148967
 10
46.92480690616851
 20
-4.373053797050867
 10
46.92481217887307
 20
-4.373013813575875
 10
46.92736594583116
 20
-4.353342379273125
 10
46.92737105724125
 20
-4.353302374858721
 10
46.92984546941035
 20
-4.333620801303201
 10
46.92985041944285
 20
-4.333580776600045
 10
46.932245436577155
 20
-4.313889383908555
 10
46.93225022515155
 20
-4.313849339567564
 10
46.93456580829645
 20
-4.294148448016603
 10
46.934570435334855
 20
-4.294108384689206
 10
46.93680654682795
 20
-4.274398314709776
 10
46.9368110122551
 20
-4.274358233047601
 10
46.9389676157266
 20
-4.254639305219982
 10
46.93897191946988
 20
-4.2545992058748086
 10
46.94104897984288
 20
-4.234871740923358
 10
46.941053121832276
 20
-4.23483162454756
 10
46.943050605323975
 20
-4.2150959433354895
 10
46.94305458549213
 20
-4.21505581058141
 10
46.94497245961373
 20
-4.195312234105572
 10
46.9449762778959
 20
-4.195272085626089
 10
46.946814511453695
 20
-4.175520935011728
 10
46.94681816778778
 20
-4.175480771459688
 10
46.94857673088308
 20
-4.155722367955269
 10
46.948580225209604
 20
-4.155682189984158
 10
46.95025908924001
 20
-4.135916854956098
 10
46.95026242150215
 20
-4.135876663219155
 10
46.95186155916105
 20
-4.116104718146615
 10
46.951864729304596
 20
-4.1160645132976885
 10
46.9533841145824
 20
-4.0962862797673285
 10
46.953387122555796
 20
-4.096246062460357
 10
46.95482673074009
 20
-4.076461862161137
 10
46.95482957649441
 20
-4.07642163305018
 10
46.95618938417021
 20
-4.056631787768099
 10
46.95619206765917
 20
-4.0565915475075025
 10
46.95747205270948
 20
-4.036796379120373
 10
46.957474573889435
 20
-4.03675612836457
 10
46.958674715495434
 20
-4.01695595883678
 10
46.95867707432537
 20
-4.016915698240642
 10
46.95979735296727
 20
-3.997110849617932
 10
46.959799549408835
 20
-3.9970705798360546
 10
46.960839946865335
 20
-3.9772613742402547
 10
46.9608419808828
 20
-3.977221095927695
 10
46.961802480232
 20
-3.957407855551525
 10
46.96180435179227
 20
-3.9573675693635297
 10
46.962684937412064
 20
-3.937550616465319
 10
46.96268664648471
 20
-3.937510323056903
 10
46.96348730405231
 20
-3.9176899799553433
 10
46.96348885060953
 20
-3.9176496799820657
 10
46.96420956710253
 20
-3.897826269051036
 10
46.96421095111916
 20
-3.8977859631683005
 10
46.96485171481527
 20
-3.8779598068315404
 10
46.96485293626882
 20
-3.8779194956949032
 10
46.96541373674612
 20
-3.858090916420823
 10
46.96541479561672
 20
-3.8580506006859463
 10
46.965895623753916
 20
-3.838219920982356
 10
46.96589652002433
 20
-3.8381796013049536
 10
46.96629736800083
 20
-3.818347143713834
 10
46.966298101656484
 20
-3.8183068207497106
 10
46.96661896295258
 20
-3.7984729078419504
 10
46.96661953398155
 20
-3.798432582246923
 10
46.96686040337845
 20
-3.7785975366170934
 10
46.96686081177143
 20
-3.7785572090471264
 10
46.96702168535154
 20
-3.7587213533082164
 10
46.96702193110191
 20
-3.7586810244191544
 10
46.967102806248604
 20
-3.7388446811973144
 10
46.96710288935236
 20
-3.7388043516450926
 10
46.96710376475016
 20
-3.7189678435744327
 10
46.96710368520595
 20
-3.718927514015097
 10
46.96702456084075
 20
-3.699091163732377
 10
46.967024318649855
 20
-3.6990508348217443
 10
46.96686519580845
 20
-3.6792149649611745
 10
46.96686479097483
 20
-3.6791746373553624
 10
46.966625672245534
 20
-3.6593395705433522
 10
46.96662510477576
 20
-3.6592992448980626
 10
46.96630599404756
 20
-3.6394653037479223
 10
46.96630526395086
 20
-3.639424980719169
 10
46.96590616641405
 20
-3.619592487825939
 10
46.96590527370231
 20
-3.6195521680696463
 10
46.965426195848316
 20
-3.5997214460047964
 10
46.96542514053604
 20
-3.599681130176609
 10
46.964866090156846
 20
-3.579852501482789
 10
46.96486487226122
 20
-3.5798121902384663
 10
46.96422585844961
 20
-3.559985977424306
 10
46.96422447799042
 20
-3.5599456714195754
 10
46.96350551113992
 20
-3.5401221969543855
 10
46.963503968139634
 20
-3.5400818968447405
 10
46.962705059944035
 20
-3.5202614831533308
 10
46.96270335442775
 20
-3.520221189594335
 10
46.961824517881254
 20
-3.5004041590516852
 10
46.961822649876694
 20
-3.5003638726985424
 10
46.96086389927319
 20
-3.4805505476246323
 10
46.96086186881076
 20
-3.4805102691327536
 10
46.95982321974426
 20
-3.4607009717873036
 10
46.959821026856964
 20
-3.460660701811744
 10
46.958702496220866
 20
-3.440855754388944
 10
46.95870014094439
 20
-3.4408154935847066
 10
46.95750174693139
 20
-3.4210152182079963
 10
46.957499229304034
 20
-3.4209749672298804
 10
46.956220991405736
 20
-3.4011796859467305
 10
46.95621831146844
 20
-3.4011394454494392
 10
46.954860250475136
 20
-3.3813494802260595
 10
46.9548574082715
 20
-3.3813092508641014
 10
46.9534195462718
 20
-3.3615249235802813
 10
46.95341654184805
 20
-3.3614847060079445
 10
46.95189890222845
 20
-3.3417063384517243
 10
46.95189573563344
 20
-3.3416661333231596
 10
46.95029834307804
 20
-3.3218940471856797
 10
46.950295014363284
 20
-3.321853855154787
 10
46.948617894853285
 20
-3.302088372025017
 10
46.94861440407294
 20
-3.3020481937456356
 10
46.946857584886544
 20
-3.2822896351051356
 10
46.946853932097355
 20
-3.2822494712305548
 10
46.94501744180865
 20
-3.262498158448275
 10
46.94501362707006
 20
-3.262458009631942
 10
46.94309749554936
 20
-3.2427142639589617
 10
46.943093518923384
 20
-3.2426741308537603
 10
46.94109777733608
 20
-3.2229382734181105
 10
46.94109363888743
 20
-3.222898156676878
 10
46.93901831969393
 20
-3.203170508478248
 10
46.93901401948988
 20
-3.2031304087533687
 10
46.93685915644468
 20
-3.183411290657969
 10
46.936854694555215
 20
-3.1833712086018213
 10
46.93462032270691
 20
-3.1636609413370813
 10
46.934615699204564
 20
-3.1636208776014514
 10
46.93230185489467
 20
-3.1439197817508813
 10
46.932297069854656
 20
-3.1438797369874356
 10
46.929903790717354
 20
-3.1241881329853554
 10
46.929898844217504
 20
-3.124148107845429
 10
46.92742616917901
 20
-3.1044663159717696
 10
46.92742106129978
 20
-3.104426311106375
 10
46.92486903057768
 20
-3.0847546514814947
 10
46.924863761402136
 20
-3.084714667541256
 10
46.922232416504635
 20
-3.065053460120696
 10
46.922226986118496
 20
-3.065013497756031
 10
46.919516369844
 20
-3.0453630623253307
 10
46.91951077833557
 20
-3.045323122186097
 10
46.91672093477157
 20
-3.025683778355597
 10
46.91671518223181
 20
-3.0256438610915124
 10
46.913846156754616
 20
-3.0060159282911627
 10
46.913840243277086
 20
-3.005976034551426
 10
46.91089208255079
 20
-2.986359832025566
 10
46.91088600823168
 20
-2.9863199624590844
 10
46.907858760207574
 20
-2.9667158092612445
 10
46.907852525145664
 20
-2.9666759645164227
 10
46.90474623906126
 20
-2.9470841795041927
 10
46.904739843357966
 20
-2.9470443602291296
 10
46.90155456973637
 20
-2.9274652620588997
 10
46.90154801349572
 20
-2.9274254689012302
 10
46.89828380414472
 20
-2.90785937602306
 10
46.89827708747336
 20
-2.9078196096300846
 10
46.89493399548476
 20
-2.8882668402825047
 10
46.89492711849192
 20
-2.888227101300954
 10
46.891505198240424
 20
-2.868687973505784
 10
46.891498161037966
 20
-2.868648262581995
 10
46.887997468180366
 20
-2.8491230941391654
 10
46.887990270882746
 20
-2.849083411919065
 10
46.88441086235714
 20
-2.8295725204014945
 10
46.88440350508142
 20
-2.8295328675304647
 10
46.88074543910612
 20
-2.810036570278825
 10
46.88073792197196
 20
-2.809996947401834
 10
46.877001258044665
 20
-2.790515561519454
 10
46.87699358117433
 20
-2.790475969280969
 10
46.87317838007113
 20
-2.771009811628619
 10
46.8731705435895
 20
-2.770970250672608
 10
46.86927686736391
 20
-2.751519637863398
 10
46.86926887139842
 20
-2.751480108833263
 10
46.86529678338022
 20
-2.7320453572274532
 10
46.86528862806094
 20
-2.73200586076616
 10
46.86123819285534
 20
-2.7125872864660403
 10
46.86122987831491
 20
-2.71254782321603
 10
46.8571011618015
 20
-2.6931457420607594
 10
46.85709268817515
 20
-2.693106312663795
 10
46.852885757506556
 20
-2.673721040224295
 10
46.852877124932114
 20
-2.6736816453217944
 10
46.848592048533305
 20
-2.6543134968955746
 10
46.84858325715117
 20
-2.654274137128206
 10
46.84422010471798
 20
-2.6349234277342664
 10
46.84421115467115
 20
-2.634884103742282
 10
46.83976999716945
 20
-2.6155511481159817
 10
46.83976088860348
 20
-2.615511860538884
 10
46.83524179826768
 20
-2.596196973126824
 10
46.83523253133074
 20
-2.5961577226036714
 10
46.83063558166293
 20
-2.576861217558561
 10
46.830626156505744
 20
-2.5768220047277866
 10
46.82595142227445
 20
-2.5575441959033665
 10
46.8259418390503
 20
-2.557505021402715
 10
46.8211893962891
 20
-2.5382462223486355
 10
46.82117965515388
 20
-2.538207086815329
 10
46.816349581160374
 20
-2.518967610772029
 10
46.81633968227248
 20
-2.518928514842473
 10
46.81143205560668
 20
-2.499708674736143
 10
46.81142199912715
 20
-2.4996696190463257
 10
46.806436899610645
 20
-2.4804697274837455
 10
46.80642668570304
 20
-2.480430712668919
 10
46.801364194417545
 20
-2.4612510819324296
 10
46.80135382324799
 20
-2.4612121086271177
 10
46.79621402253389
 20
-2.4420530506695073
 10
46.796203494271055
 20
-2.4420141195075606
 10
46.79098646772606
 20
-2.422875945947031
 10
46.79097578254121
 20
-2.422837057561757
 10
46.78568161501931
 20
-2.403720079676807
 10
46.78567077308622
 20
-2.4036812347006435
 10
46.78029955069592
 20
-2.384585763425034
 10
46.78028855219093
 20
-2.3845469624897815
 10
46.77484036229403
 20
-2.3654733084074713
 10
46.77482920739605
 20
-2.365434552144294
 10
46.76930413860635
 20
-2.3463830254844042
 10
46.7692928274968
 20
-2.3463443145236105
 10
46.7636909696784
 20
-2.3273152251553304
 10
46.76367950254124
 20
-2.3272765601265104
 10
46.75800094680714
 20
-2.3082702175541305
 10
46.757989323828895
 20
-2.3082315990862257
 10
46.75223416253969
 20
-2.2892483124440455
 10
46.752222383909405
 20
-2.2892097411651453
 10
46.746390710671605
 20
-2.2702498192124554
 10
46.74637877658086
 20
-2.2702112957499803
 10
46.740470686245565
 20
-2.2512750468660703
 10
46.74045859688845
 20
-2.2512365718464964
 10
46.73447418554945
 20
-2.232324304025606
 10
46.7344619411226
 20
-2.232285878074753
 10
46.7284013061151
 20
-2.213397898921073
 10
46.72838890681769
 20
-2.2133595226639926
 10
46.72225214671679
 20
-2.1944961393866627
 10
46.722239592750455
 20
-2.194457813447416
 10
46.716026807369154
 20
-2.175619332855546
 10
46.71601409893812
 20
-2.175581057857623
 10
46.70972538932622
 20
-2.156767786355263
 10
46.70971252663717
 20
-2.156729562921142
 10
46.70334799507926
 20
-2.137941806502342
 10
46.7033349783414
 20
-2.137903635253728
 10
46.6968947283553
 20
-2.119141699497518
 10
46.69688155778034
 20
-2.119103581055224
 10
46.690365694115336
 20
-2.1003677711206734
 10
46.69035236991751
 20
-2.1003297061047643
 10
46.68376099855292
 20
-2.0816203267260347
 10
46.68374752094892
 20
-2.0815823157555244
 10
46.677080749091914
 20
-2.0628996712368544
 10
46.677067118300975
 20
-2.0628617149300976
 10
46.67032505438537
 20
-2.0442061091409176
 10
46.67031127062918
 20
-2.0441682081151686
 10
46.66349402431318
 20
-2.0255399444851085
 10
46.663480087815934
 20
-2.025502099356889
 10
46.65658776998073
 20
-2.0069014808708787
 10
46.65657368096909
 20
-2.0068636922556884
 10
46.64960640371679
 20
-1.9882910214489984
 10
46.649592162419935
 20
-1.988253289961501
 10
46.64255003907194
 20
-1.9697088689148607
 10
46.642535645721466
 20
-1.969671195168678
 10
46.63541879081637
 20
-1.9511553255033183
 10
46.635404245646434
 20
-1.9511177101113442
 10
46.62821277493863
 20
-1.9326306929841341
 10
46.62819807818574
 20
-1.9325931365579947
 10
46.62093210864283
 20
-1.9141352726565146
 10
46.620917260546086
 20
-1.914097775807195
 10
46.61357691034769
 20
-1.8956693653448353
 10
46.61356191114858
 20
-1.8956319286822056
 10
46.60614729968408
 20
-1.8772332713933255
 10
46.60613214962652
 20
-1.8771958955261792
 10
46.598643397492914
 20
-1.858827290661219
 10
46.598628096823354
 20
-1.8587899761975337
 10
46.59106532582366
 20
-1.8404517225180936
 10
46.59104987479099
 20
-1.8404144700648917
 10
46.58341320793239
 20
-1.8221068658389619
 10
46.58339760678783
 20
-1.822069676001899
 10
46.575687168278826
 20
-1.803793018998939
 10
46.57567141727623
 20
-1.8037558923831651
 10
46.567887332525835
 20
-1.7855104798692851
 10
46.56787143192132
 20
-1.7854734170784636
 10
46.56001382753592
 20
-1.7672595458115936
 10
46.55999777758811
 20
-1.7672225474485987
 10
46.55206678137001
 20
-1.7490405136736489
 10
46.55205058234
 20
-1.7490035803403297
 10
46.5440463232854
 20
-1.7308536797843996
 10
46.54402997543663
 20
-1.7308168120813885
 10
46.53595258373313
 20
-1.7126993399489083
 10
46.535936087331464
 20
-1.7126625384758132
 10
46.52778569435607
 20
-1.6945777894437932
 10
46.52776904966988
 20
-1.6945410547992796
 10
46.51954578798718
 20
-1.6764893230124895
 10
46.51952899528717
 20
-1.6764526557940065
 10
46.51123299864687
 20
-1.6584342348602064
 10
46.51121605820615
 20
-1.6583976356641308
 10
46.50284746154095
 20
-1.6404128186492608
 10
46.50283037363505
 20
-1.640376288070815
 10
46.49438931305835
 20
-1.6224253674942852
 10
46.494372077965245
 20
-1.6223889061277588
 10
46.48585869076935
 20
-1.6044721739576289
 10
46.48584130876931
 20
-1.6044357823959345
 10
46.47725573342261
 20
-1.5865535300442246
 10
46.4772382047984
 20
-1.586517208879341
 10
46.468580580943595
 20
-1.5686697271972507
 10
46.468562905980264
 20
-1.568633477019872
 10
46.45983337443177
 20
-1.5508210562930718
 10
46.459815553416846
 20
-1.5507848776928896
 10
46.45101425615884
 20
-1.53300780763678
 10
46.45099628938216
 20
-1.5329717012021784
 10
46.44212336956596
 20
-1.5152302709571883
 10
46.44210525731972
 20
-1.515194237275371
 10
46.43316085926141
 20
-1.497488735402261
 10
46.433142601840245
 20
-1.4974527750594078
 10
46.42412687101875
 20
-1.4797834895345678
 10
46.42410846871959
 20
-1.4797476031155086
 10
46.41502155177389
 20
-1.4621148213262884
 10
46.41500300489605
 20
-1.462079009414745
 10
46.405845049623046
 20
-1.444483018154745
 10
46.405826358468204
 20
-1.4444472813331823
 10
46.396597513820204
 20
-1.4268883667976322
 10
46.39657867869232
 20
-1.4268527056472573
 10
46.38727909477452
 20
-1.4093311534283375
 10
46.38726011598002
 20
-1.4092955685292716
 10
46.37788994404842
 20
-1.3918116636114615
 10
46.37787082189589
 20
-1.3917761555423227
 10
46.36843021435419
 20
-1.3743301822978027
 10
46.36841094915476
 20
-1.3742947516363173
 10
46.35890005955276
 20
-1.3568869938202777
 10
46.35888065161969
 20
-1.3568516411425873
 10
46.349299634649995
 20
-1.339482381888677
 10
46.34928008429896
 20
-1.3394471077697794
 10
46.339629095794756
 20
-1.3221166295854794
 10
46.339609403343786
 20
-1.3220814345992011
 10
46.32988860027659
 20
-1.3047900193612112
 10
46.329868766045934
 20
-1.3047549040798914
 10
46.32007830652253
 20
-1.2875028330295815
 10
46.32005833083485
 20
-1.2874677980244722
 10
46.31019837409524
 20
-1.2702553517632522
 10
46.31017825727532
 20
-1.2702203976040105
 10
46.30024896368942
 20
-1.2530478560888403
 10
46.30022870606458
 20
-1.2530129833441972
 10
46.29023023713058
 20
-1.2358806258829673
 10
46.29020983903024
 20
-1.2358458351200017
 10
46.28014235737114
 20
-1.2187539403670218
 10
46.28012181912707
 20
-1.2187192321516003
 10
46.269985488488366
 20
-1.2016680781030802
 10
46.26996481043462
 20
-1.2016334529997277
 10
46.259759795681624
 20
-1.1846233169892177
 10
46.25973897815456
 20
-1.184588775561161
 10
46.249465445269855
 20
-1.167619934255061
 10
46.249444488608056
 20
-1.1675854770640977
 10
46.239102604688654
 20
-1.1506582064571775
 10
46.23908150923291
 20
-1.150623834063634
 10
46.22867144248721
 20
-1.1337384094745042
 10
46.22865020858075
 20
-1.1337041224376287
 10
46.21817212832666
 20
-1.1168608185042888
 10
46.21815075631473
 20
-1.1168266173815615
 10
46.20760483297583
 20
-1.1000257080569213
 10
46.20758332320612
 20
-1.099991593404738
 10
46.196969728309824
 20
-1.083233351952188
 10
46.19694808113216
 20
-1.083199324325395
 10
46.18626698730646
 20
-1.0664840233143351
 10
46.18624520307294
 20
-1.066450083266373
 10
46.17549678404364
 20
-1.049777994567753
 10
46.175474863108576
 20
-1.0497441426506644
 10
46.16465929369657
 20
-1.0331155374326444
 10
46.164637236416475
 20
-1.0330817741969651
 10
46.153754692534676
 20
-1.0164969229204153
 10
46.15373249926836
 20
-1.016463248915387
 10
46.14278315791926
 20
-0.9999224213295569
 10
46.14276082902763
 20
-0.9998888371027959
 10
46.131744868299926
 20
-0.9833923022408758
 10
46.131722404146224
 20
-0.9833588083387138
 10
46.12064000321242
 20
-0.9669068345134938
 10
46.12061740416196
 20
-0.9668734314806189
 10
46.10946874327497
 20
-0.9504662862801089
 10
46.10944600969534
 20
-0.9504329746598389
 10
46.09823127018584
 20
-0.934070924942939
 10
46.09820840244684
 20
-0.9340377052771407
 10
46.08692776672044
 20
-0.9177210171692506
 10
46.08690476519392
 20
-0.9176878899981026
 10
46.075558416727624
 20
-0.9014168288868326
 10
46.07553528178781
 20
-0.9013837947492985
 10
46.06412340512791
 20
-0.8851586252801785
 10
46.06410013715099
 20
-0.8851256847134282
 10
46.05262291790918
 20
-0.8689466707855182
 10
46.052599517273634
 20
-0.8689138243253562
 10
46.04105714212453
 20
-0.8527812290870462
 10
46.04103360921103
 20
-0.8527484772678071
 10
46.029426265889235
 20
-0.8366625631124672
 10
46.02940260108042
 20
-0.8366299064666987
 10
46.01773047837681
 20
-0.8205909350284786
 10
46.017706682057685
 20
-0.8205583740874547
 10
46.00596996981709
 20
-0.8045666062369448
 10
46.00594604237464
 20
-0.804534141530201
 10
45.994144931492244
 20
-0.7885898373702609
 10
45.99412087331564
 20
-0.7885574694258164
 10
45.982255555734035
 20
-0.7726608882873264
 10
45.98223136721463
 20
-0.7726286176317134
 10
45.97030203592093
 20
-0.7567800180693235
 10
45.97027771745211
 20
-0.7567478452273583
 10
45.95828456647442
 20
-0.7409474850153183
 10
45.95826011845172
 20
-0.7409154105103016
 10
45.946203342856215
 20
-0.7251635466382816
 10
45.94617876567727
 20
-0.7251315709918742
 10
45.93405856156487
 20
-0.7094284596607141
 10
45.934033855629465
 20
-0.7093965833930529
 10
45.92185042013296
 20
-0.6937424800106929
 10
45.921825585842875
 20
-0.6937107036401764
 10
45.90957911712327
 20
-0.6781058628174065
 10
45.90955415488248
 20
-0.6780741868609172
 10
45.89724485212618
 20
-0.6625188624073172
 10
45.89721976234063
 20
-0.6624872873800042
 10
45.884847825755834
 20
-0.6469817322997642
 10
45.884822608833666
 20
-0.6469502587152444
 10
45.87238823964747
 20
-0.6314947252030644
 10
45.87236289599883
 20
-0.6314633535732583
 10
45.85986629645383
 20
-0.6160580930102484
 10
45.85984082649087
 20
-0.6160268238453324
 10
45.84728219984157
 20
-0.6006720867949423
 10
45.847256603978586
 20
-0.6006409206035439
 10
45.83463615448848
 20
-0.5853369568074339
 10
45.834610433141805
 20
-0.5853058940964913
 10
45.82192836608001
 20
-0.5700529524705312
 10
45.82190251966798
 20
-0.5700219937452641
 10
45.809159041305776
 20
-0.5548203223754441
 10
45.80913307024876
 20
-0.5547894681393496
 10
45.796328387856164
 20
-0.5396393142777896
 10
45.79630229257663
 20
-0.5396085650327779
 10
45.78343661441932
 20
-0.5245101750936279
 10
45.783410395341605
 20
-0.5244795313397174
 10
45.77048393067701
 20
-0.5094331508952274
 10
45.77045758822766
 20
-0.5094026131309469
 10
45.75747054730226
 20
-0.4944084869074469
 10
45.757444081909696
 20
-0.49437805562944465
 10
45.744396675955095
 20
-0.47943642750334464
 10
45.744370088049735
 20
-0.4794061032065451
 10
45.731262529279235
 20
-0.4645172162003951
 10
45.73123581929356
 20
-0.46448699937804694
 10
45.71806832089895
 20
-0.44965109565657696
 10
45.71804148926743
 20
-0.44962098680019175
 10
45.70481426541553
 20
-0.4348383076663417
 10
45.704787312574496
 20
-0.43480830726555547
 10
45.6915005784033
 20
-0.4200790931566155
 10
45.69147350479117
 20
-0.4200492016994065
 10
45.67812747640667
 20
-0.4053736921830465
 10
45.67810028246381
 20
-0.4053439101556186
 10
45.66469517693651
 20
-0.3907223439260186
 10
45.66466786310522
 20
-0.3906926718127734
 10
45.65120389846652
 20
-0.3761252866867434
 10
45.65117646519101
 20
-0.3760957249702323
 10
45.6376538604294
 20
-0.36158275788333233
 10
45.63762630815593
 20
-0.361553307044437
 10
45.62404528321393
 20
-0.34709499404711697
 10
45.62401761239056
 20
-0.34706565456479016
 10
45.61037838816066
 20
-0.3326622308185802
 10
45.61035059923754
 20
-0.3326330031701032
 10
45.596653397559145
 20
-0.31828470294377315
 10
45.5966254909882
 20
-0.31825558760447836
 10
45.5828705346435
 20
-0.3039626442702084
 10
45.58284251087857
 20
-0.3039336417135856
 10
45.56903002358887
 20
-0.2896962877431956
 10
45.5690018830859
 20
-0.2896673984411077
 10
45.5551320895088
 20
-0.2754858654022677
 10
45.55510383272536
 20
-0.2754570898244747
 10
45.54117695845006
 20
-0.2613316083769347
 10
45.54114858584582
 20
-0.261302946991535
 10
45.52716485739022
 20
-0.24723374688339497
 10
45.52713636942659
 20
-0.24720520015651046
 10
45.51309601423309
 20
-0.23319251022044044
 10
45.51306741137347
 20
-0.23316407861641722
 10
45.49897065780567
 20
-0.21920812676598722
 10
45.498941940515266
 20
-0.21917981074723902
 10
45.48478901785396
 20
-0.20528082397314903
 10
45.48476018659982
 20
-0.20525262400020614
 10
45.470551325039324
 20
-0.19141082836666612
 10
45.470522380290475
 20
-0.19138274489828372
 10
45.45625781093527
 20
-0.1775983655392837
 10
45.45622875316238
 20
-0.17757039903212335
 10
45.44190870802258
 20
-0.1638436601477934
 10
45.441879537698334
 20
-0.16381581105679258
 10
45.42750424968664
 20
-0.15014693590975256
 10
45.427474967285484
 20
-0.15011920468786227
 10
45.413044670213075
 20
-0.13650841559959226
 10
45.413015276211254
 20
-0.1364808026978415
 10
45.39853020478396
 20
-0.12292832104506149
 10
45.39850069965957
 20
-0.12290082691255873
 10
45.38396108947407
 20
-0.10940687312362875
 10
45.38393147370701
 20
-0.10937949820757495
 10
45.36933756124711
 20
-0.09594429175891495
 10
45.36930783531909
 20
-0.09591703650457785
 10
45.354659857951894
 20
-0.08254079591708785
 10
45.3546300223464
 20
-0.0825136607677539
 10
45.3399282183183
 20
-0.0691966036032639
 10
45.339898273520575
 20
-0.06916958900026086
 10
45.325142881953376
 20
-0.05591193185801086
 10
45.325112828450465
 20
-0.055885038240729656
 10
45.31030408933756
 20
-0.042686996753819643
 10
45.31027392761831
 20
-0.042660224559705646
 10
45.295412081820906
 20
-0.029522013391595645
 10
45.29538181237587
 20
-0.029495363056081227
 10
45.280467101618875
 20
-0.01641719589710123
 10
45.28043672494037
 20
-0.016390667853630702
 10
45.265469391808466
 20
-0.0033727574175207034
 10
45.265438908390585
 20
-0.0033463520975823106
 10
45.250419196324394
 20
0.00961108988199769
 10
45.250388606662945
 20
0.00963737204890756
 10
45.23531675995515
 20
0.02253413482177756
 10
45.23528606454764
 20
0.02256029340822726
 10
45.22016232833863
 20
0.03539616721117726
 10
45.22013152768435
 20
0.035422201791657365
 10
45.204956147958754
 20
0.04819697785179737
 10
45.20492524255864
 20
0.048222888002894974
 10
45.18969846614084
 20
0.06093635854110497
 10
45.18966745649755
 20
0.060962143841398565
 10
45.17438953104794
 20
0.07361410207563857
 10
45.17435841766589
 20
0.07363976210570287
 10
45.159029591676905
 20
0.08623000225445286
 10
45.158998375062126
 20
0.08625553659694617
 10
45.14361889785402
 20
0.09878385388251618
 10
45.1435875785142
 20
0.0988092621221659
 10
45.1281577002309
 20
0.1112754527740059
 10
45.128126278675516
 20
0.11130073449748602
 10
45.11264625028102
 20
0.12370459575554603
 10
45.112614727021096
 20
0.12372975055169119
 10
45.097084800294894
 20
0.13607108066969117
 10
45.09705317584313
 20
0.13609610812938217
 10
45.08147360337623
 20
0.14837470637808214
 10
45.08144187824705
 20
0.14839960609420458
 10
45.06581291343815
 20
0.16061527276471457
 10
45.06578108814749
 20
0.16064004433233633
 10
45.050102985198386
 20
0.17279258073930634
 10
45.05007106026393
 20
0.17281722375546463
 10
45.034344074175934
 20
0.18490643224035463
 10
45.03431205011692
 20
0.18493094630426846
 10
45.01853643668622
 20
0.19695663023856846
 10
45.01850431402347
 20
0.1969810149515434
 10
45.00268032983706
 20
0.2089429787399534
 10
45.00264810909313
 20
0.20896723370531384
 10
44.98677601152513
 20
0.22086528278890386
 10
44.98674369322403
 20
0.22088940761218734
 10
44.97082374043083
 20
0.23272334847162734
 10
44.970791325098176
 20
0.23274734276046838
 10
44.95482377601447
 20
0.24451698291909837
 10
44.95479126417755
 20
0.24454084628319883
 10
44.93877637851236
 20
0.25624599431020884
 10
44.938743770699936
 20
0.256269726361461
 10
44.922681808932026
 20
0.267910191875011
 10
44.922649105674516
 20
0.26793379222737324
 10
44.906540329048624
 20
0.2795093858976533
 10
44.906507530877846
 20
0.27953285416733925
 10
44.89035220139974
 20
0.2910433877196692
 10
44.890319308849236
 20
0.2910667235249106
 10
44.87411768928224
 20
0.30251200974279063
 10
44.874084702886954
 20
0.3025352127040694
 10
44.85783705674705
 20
0.3139150654322494
 10
44.8578039770435
 20
0.3139381351721742
 10
44.841510568595304
 20
0.3252523693196642
 10
44.84147739612153
 20
0.32527530546299915
 10
44.82513849037403
 20
0.3365237370060792
 10
44.82510522566962
 20
0.33654653917975635
 10
44.80872108837192
 20
0.3477289851649663
 10
44.808687731977834
 20
0.3477516529981566
 10
44.79225862961443
 20
0.3588679315452966
 10
44.79222518207327
 20
0.358890464669275
 10
44.775751381860275
 20
0.36994039497431497
 10
44.77571784371603
 20
0.3699627930225975
 10
44.75919961359643
 20
0.38094619536068747
 10
44.7591659853946
 20
0.3809684579689714
 10
44.7426035940341
 20
0.3918851536972814
 10
44.74256987632164
 20
0.391907280503475
 10
44.72596359310414
 20
0.402757092064175
 10
44.72592978642943
 20
0.40277908270840357
 10
44.70927988145264
 20
0.4135618336315236
 10
44.7092459863656
 20
0.41358368775607685
 10
44.692552730437
 20
0.4242992026623469
 10
44.6925187474889
 20
0.42432091991179205
 10
44.675782412120896
 20
0.434969024515552
 10
44.675748341864434
 20
0.43499060453667987
 10
44.65896919927003
 20
0.44557112564865986
 10
44.65893504225939
 20
0.4455925680904496
 10
44.64211336534799
 20
0.4561053336206296
 10
44.64207912213872
 20
0.4561266381343287
 10
44.62521518451151
 20
0.4665714770947187
 10
44.62518085566054
 20
0.46659264333383577
 10
44.60827493160595
 20
0.47696938584123577
 10
44.60824051767165
 20
0.4769904134614806
 10
44.59129288216115
 20
0.4872988907402906
 10
44.59125838370329
 20
0.4873197793996508
 10
44.57426931238679
 20
0.49755982378459085
 10
44.57423472996642
 20
0.4975805731433442
 10
44.557204499167625
 20
0.5077520180821542
 10
44.55716983334727
 20
0.5077726278027915
 10
44.54009872005946
 20
0.5178753078590015
 10
44.540063971402915
 20
0.5178957776063307
 10
44.52295225328422
 20
0.5279295284618906
 10
44.52291742235669
 20
0.5279498579029512
 10
44.505765377725794
 20
0.5379145163609513
 10
44.50573046509381
 20
0.5379347051650939
 10
44.488538372925305
 20
0.547830109152384
 10
44.48850337915666
 20
0.5478501569912705
 10
44.47127151907627
 20
0.5576761455611104
 10
44.4712364447402
 20
0.557696052108622
 10
44.4539650970208
 20
0.5674524654433121
 10
44.453929942687715
 20
0.5674722303757174
 10
44.43661938824411
 20
0.5771589097891673
 10
44.436584154485836
 20
0.577178532784962
 10
44.419234674870744
 20
0.5867953207253122
 10
44.41919936226033
 20
0.5868148014653451
 10
44.40181123965952
 20
0.5963615415174751
 10
44.40177584877132
 20
0.5963808796848962
 10
44.38434936599903
 20
0.6058574165730362
 10
44.38431389740868
 20
0.6058766118533057
 10
44.366849337903176
 20
0.6152827914434957
 10
44.36681379218757
 20
0.6153018435244092
 10
44.349311440006375
 20
0.6246375128270591
 10
44.34927581774363
 20
0.6246564213987447
 10
44.33173595755893
 20
0.6339214285710847
 10
44.331700259328436
 20
0.6339401933260018
 10
44.31412317642244
 20
0.6431343876745618
 10
44.31408740280485
 20
0.6431530083074932
 10
44.296473383065255
 20
0.6522762402905933
 10
44.29643753464241
 20
0.6522947164986843
 10
44.2787868645577
 20
0.6613468377287843
 10
44.278750941912655
 20
0.6613651692115233
 10
44.26106390856735
 20
0.6703460324577333
 10
44.261027912284376
 20
0.6703642189169656
 10
44.243304803354484
 20
0.6792736781073457
 10
44.2432687340191
 20
0.6792917192472526
 10
44.22550983776749
 20
0.6881296294712825
 10
44.22547369596631
 20
0.688147524998449
 10
44.20767930123781
 20
0.6969137425092989
 10
44.20764308755864
 20
0.6969314921326761
 10
44.18981348377523
 20
0.7056258743495962
 10
44.189777198807185
 20
0.7056434777804325
 10
44.171912675964094
 20
0.7142658832910724
 10
44.17187632029723
 20
0.7142833402431099
 10
44.15397716895703
 20
0.7228336288057999
 10
44.15394074318273
 20
0.7228509389950694
 10
44.13600725447163
 20
0.7313289715410893
 10
44.135970759182314
 20
0.7313461346860679
 10
44.118003224784715
 20
0.739751773321948
 10
44.11796666057403
 20
0.7397687891434519
 10
44.09996537272842
 20
0.7481018971531819
 10
44.09992874019101
 20
0.7481187653744821
 10
44.08189399168452
 20
0.756379207221762
 10
44.08185729141623
 20
0.7563959275684836
 10
44.06378937558043
 20
0.7645835688988937
 10
44.0637526081782
 20
0.7646001410990839
 10
44.0456518188841
 20
0.7727148487423039
 10
44.04561498494594
 20
0.7727312725264179
 10
44.02748161659924
 20
0.7807729144983879
 10
44.02744471672422
 20
0.7807891895993057
 10
44.00927906426042
 20
0.7887576351043456
 10
44.00924209904871
 20
0.7887737612573572
 10
43.99104445792841
 20
0.7966688806903073
 10
43.991007427981266
 20
0.7966848576331158
 10
43.972778094185365
 20
0.8045065225814858
 10
43.97274100010509
 20
0.8045223500542199
 10
43.95448027013019
 20
0.8122704333001999
 10
43.95444311252005
 20
0.8122861110454538
 10
43.93615128337305
 20
0.8199604865680438
 10
43.93611406283747
 20
0.8199760143307977
 10
43.91779143203137
 20
0.8275765573078477
 10
43.9177541491757
 20
0.8275919348355616
 10
43.8994010147243
 20
0.8351185216457917
 10
43.89936367015492
 20
0.8351337486883524
 10
43.88098033056822
 20
0.8425862569133323
 10
43.88094292489257
 20
0.8426013332230664
 10
43.86252967917187
 20
0.8499796416492864
 10
43.862492212998305
 20
0.8499945669809963
 10
43.8440493606312
 20
0.8572985556017463
 10
43.84401183456919
 20
0.8573133297126405
 10
43.82553967552519
 20
0.8645428797300606
 10
43.825502090184955
 20
0.8645575023798914
 10
43.80700092490965
 20
0.8717124962067914
 10
43.80696328090263
 20
0.8717269671576746
 10
43.78843341031403
 20
0.8788072884195446
 10
43.78839570825241
 20
0.8788216074361485
 10
43.76983743373491
 20
0.8858271409729984
 10
43.769799674231926
 20
0.8858413078224181
 10
43.75121329763203
 20
0.8927719396906681
 10
43.751175481301885
 20
0.8927859541424675
 10
43.732561304923394
 20
0.8996415716168075
 10
43.73252343238111
 20
0.8996554334430594
 10
43.7138817589798
 20
0.9064359250182494
 10
43.71384383084138
 20
0.9064496339934962
 10
43.695174963620175
 20
0.9131548893862262
 10
43.69513698050251
 20
0.913168445287485
 10
43.67644122310681
 20
0.919798355438135
 10
43.6764031856277
 20
0.9198117580449255
 10
43.657680842140195
 20
0.9263662151193555
 10
43.65764275091831
 20
0.9263794642136812
 10
43.638894125854215
 20
0.9328583616049813
 10
43.63885598150907
 20
0.9328714569713639
 10
43.62008137981077
 20
0.9392746893015839
 10
43.62004318296281
 20
0.9392876307270155
 10
43.601242909995506
 20
0.9456150938488754
 10
43.60120466126599
 20
0.945627881122871
 10
43.58237902281229
 20
0.951879472121471
 10
43.582340722823304
 20
0.9518921050360516
 10
43.5634900250783
 20
0.9580677222305417
 10
43.56345167445282
 20
0.958080200580227
 10
43.54457622401942
 20
0.964179743525437
 10
43.5445378233812
 20
0.9641920671072736
 10
43.525637927264796
 20
0.9702154365953735
 10
43.52559947723838
 20
0.970227605208926
 10
43.50667544284178
 20
0.976174703271056
 10
43.50663694405258
 20
0.9761867167184014
 10
43.48768907917138
 20
0.9820574466262014
 10
43.4876505322456
 20
0.9820693047119321
 10
43.468679145063206
 20
0.9878635709791722
 10
43.46864055062774
 20
0.9878752735104382
 10
43.449645949709634
 20
0.9935929818945681
 10
43.449607308392245
 20
0.9936045286810189
 10
43.430589802681844
 20
0.9992455861846591
 10
43.43055111511104
 20
0.9992569770384868
 10
43.41151101392424
 20
1.0048212919109965
 10
43.411472280729235
 20
1.0048325266469404
 10
43.39240989374934
 20
1.0103200083858503
 10
43.39237111556015
 20
1.0103310868211663
 10
43.37328675283315
 20
1.0157416461737165
 10
43.373247930280485
 20
1.0157525681282271
 10
43.35414190220958
 20
1.0210861170927672
 10
43.35410303592486
 20
1.0210968823888282
 10
43.334975653265666
 20
1.026353334216258
 10
43.33493674388107
 20
1.0263639426787687
 10
43.31578831773667
 20
1.0315432118739687
 10
43.31574936588506
 20
1.031553663330384
 10
43.296580207700764
 20
1.036655665653604
 10
43.29654121401564
 20
1.0366659599339434
 10
43.27735163557374
 20
1.0416906124021434
 10
43.27731260068937
 20
1.0417007493389605
 10
43.25810291410457
 20
1.0466479702272005
 10
43.258063838655815
 20
1.0466579496556296
 10
43.23883435636972
 20
1.0515276584983397
 10
43.23879524099216
 20
1.0515374802560613
 10
43.21954627576836
 20
1.0563295978484413
 10
43.219507121098204
 20
1.0563392617757024
 10
43.2002389860174
 20
1.0610537101749324
 10
43.20019979269145
 20
1.0610632161145677
 10
43.180912801145645
 20
1.0656999186410876
 10
43.18087356980142
 20
1.0657092664384649
 10
43.16156803548992
 20
1.0702681476772549
 10
43.16152876676548
 20
1.0702773371803478
 10
43.14220500368868
 20
1.0747583229821378
 10
43.142165698222726
 20
1.074767354041477
 10
43.122824020677726
 20
1.0791703715239371
 10
43.12278467910958
 20
1.0791792439926295
 10
43.10342540168498
 20
1.0835042215415795
 10
43.10338602465447
 20
1.0835129352753268
 10
43.08400946222477
 20
1.0877598025458766
 10
43.08397005037242
 20
1.0877683574029382
 10
43.06457651809372
 20
1.0919370453206683
 10
43.064537072060496
 20
1.0919454411619163
 10
43.04512688536439
 20
1.0960358819239464
 10
43.045087405791925
 20
1.0960441186128105
 10
43.02566088038133
 20
1.1000562456889704
 10
43.02562136791171
 20
1.1000643230914915
 10
43.006178819755014
 20
1.1039980712253414
 10
43.00613927503094
 20
1.1040059892101355
 10
42.98668102035743
 20
1.1078612944200554
 10
42.98664144402205
 20
1.1078690528583452
 10
42.96716779931606
 20
1.1116458524385853
 10
42.9671281920131
 20
1.1116534512041765
 10
42.94763947400959
 20
1.1153516837258564
 10
42.947599836383255
 20
1.115359122695157
 10
42.928096362062256
 20
1.1189787280072871
 10
42.92805669475724
 20
1.1189860070593036
 10
42.90853878133894
 20
1.1225269262897235
 10
42.90849908500039
 20
1.1225340453060693
 10
42.888967049939396
 20
1.1259962208624492
 10
42.88892732521303
 20
1.1260031797273242
 10
42.86938148619423
 20
1.1293865552980944
 10
42.86934173372611
 20
1.1293933538983245
 10
42.849782408658406
 20
1.1326978744535543
 10
42.84974262909512
 20
1.1327045126785558
 10
42.83017013610702
 20
1.135930124470896
 10
42.83013033009557
 20
1.1359366022127013
 10
42.81054498752967
 20
1.1390832527782313
 10
42.8105051557175
 20
1.1390895699314805
 10
42.7909072821255
 20
1.1421572080905604
 10
42.79086742516046
 20
1.1421633645525064
 10
42.77125733929776
 20
1.1451519404106365
 10
42.771217457828115
 20
1.145157936081147
 10
42.75159547864871
 20
1.148067401029747
 10
42.75155557332312
 20
1.1480732358113024
 10
42.73192201997452
 20
1.1509035425285123
 10
42.73188209144204
 20
1.150909216326211
 10
42.71223728326014
 20
1.153660318777661
 10
42.7121973321702
 20
1.1536658314992212
 10
42.6925415886736
 20
1.1563376849388012
 10
42.692501615676
 20
1.1563430364945575
 10
42.6728352565616
 20
1.1589355974650974
 10
42.67279526230649
 20
1.158940787768009
 10
42.65311860744349
 20
1.1614540141020488
 10
42.653078592581366
 20
1.1614590430676965
 10
42.63339196200657
 20
1.1638928938881166
 10
42.633351927188265
 20
1.1638977614347055
 10
42.61365564110076
 20
1.1662521971554056
 10
42.613615586977446
 20
1.1662569032037653
 10
42.593909965733346
 20
1.1685318855303353
 10
42.59386989295647
 20
1.1685364300039236
 10
42.57415525706357
 20
1.1707319219342436
 10
42.57411516628493
 20
1.170736304759145
 10
42.554391836397926
 20
1.1728522705839748
 10
42.55435172826958
 20
1.1728564916889042
 10
42.53462002518438
 20
1.1748928969924843
 10
42.53457990035868
 20
1.1748969563087854
 10
42.51484014500738
 20
1.1768537679694155
 10
42.51480000413696
 20
1.1768576654310652
 10
42.49505251758276
 20
1.1787348516215852
 10
42.49501236132047
 20
1.1787385871651919
 10
42.47525746475207
 20
1.1805361173535618
 10
42.475217293751086
 20
1.1805396909183667
 10
42.455455308478086
 20
1.1822575358681167
 10
42.45541512339174
 20
1.1822609473959982
 10
42.43564637083864
 20
1.183899079166718
 10
42.43560617232057
 20
1.1839023286021868
 10
42.41583097402217
 20
1.185460720550017
 10
42.41579076272618
 20
1.1854638078402218
 10
42.39600944032208
 20
1.1869424346182318
 10
42.395969216902195
 20
1.18694535971296
 10
42.376182092131494
 20
1.18834419727157
 10
42.376141857241954
 20
1.1883469601232435
 10
42.356349251938454
 20
1.1896659857106533
 10
42.356309006233644
 20
1.1896685862743366
 10
42.336511242319744
 20
1.1909077784368565
 10
42.33647098645429
 20
1.19091021667025
 10
42.31666838593678
 20
1.1920695552526903
 10
42.316628120565404
 20
1.1920718311161387
 10
42.29682100552961
 20
1.1931512972620688
 10
42.29678073130724
 20
1.1931534107185544
 10
42.27696942391174
 20
1.1941529868706942
 10
42.27692914149341
 20
1.1941549378858425
 10
42.25711396396511
 20
1.1950746077862826
 10
42.257073674006016
 20
1.1950763963283608
 10
42.23725494863472
 20
1.1959161450188507
 10
42.237214651790175
 20
1.1959177710587678
 10
42.21739270092357
 20
1.196677584880978
 10
42.217352397848984
 20
1.196679048392288
 10
42.19752754388689
 20
1.1973589149879977
 10
42.197487235237794
 20
1.197360215946896
 10
42.17765980062759
 20
1.197960124258206
 10
42.17761948705959
 20
1.197961262643533
 10
42.157789794290494
 20
1.198481202913063
 10
42.15774947645927
 20
1.198482178706303
 10
42.13791784805697
 20
1.198922142477323
 10
42.13787752661831
 20
1.198922955662605
 10
42.118044285140506
 20
1.199282935779205
 10
42.118003960750215
 20
1.1992835863433027
 10
42.09816942878032
 20
1.1995635769504727
 10
42.09812910209426
 20
1.1995640648828048
 10
42.07829360223706
 20
1.1997640614265548
 10
42.07825327391114
 20
1.1997643867191854
 10
42.05841712878684
 20
1.1998843859466053
 10
42.05837679947701
 20
1.1998845485942433
 10
42.0385403317167
 20
1.1999245485535834
  0
LWPOLYLINE
  5
35
330
17
100
AcDbEntity
  8
body
100
AcDbPolyline
 90
4
 70
0
 10
-51.27199921199431
 20
-22.562365418751774
 10
-17.70441976429407
 20
37.768554399412146
 10
-0.013398163479124037
 20
0.0050275207494160645
 10
-51.27199921199431
 20
-22.562365418751774
  0
LWPOLYLINE
  5
36
330
17
100
AcDbEntity
  8
body
100
AcDbPolyline
 90
4
 70
0
 10
0.004452241172035774
 20
0.01406858263687738
 10
-17.687927951363562
 20
37.780495532087706
 10
66.01063988255467
 20
37.780495532087706
 10
0.004452241172035774
 20
0.01406858263687738
  0
LWPOLYLINE
  5
38
330
17
100
AcDbEntity
  8
joints
100
AcDbPolyline
 90
2
 70
0
 10
0.0
 20
1e-14
 10
66.0482534524777
 20
37.790495532087704
  0
LWPOLYLINE
  5
39
330
17
100
AcDbEntity
  8
joints
100
AcDbPolyline
 90
2
 70
0
 10
-17.703655564581698
 20
37.790495532087704
 10
0.0
 20
1e-14
  0
LWPOLYLINE
  5
3A
330
17
100
AcDbEntity
  8
joints
100
AcDbPolyline
 90
2
 70
0
 10
57.4233956133225
 20
-38.4714053614947
 10
0.0
 20
0.0
  0
LWPOLYLINE
  5
3B
330
17
100
AcDbEntity
  8
joints
100
AcDbPolyline
 90
2
 70
0
 10
-51.2952071486596
 20
-22.5835093419984
 10
0.0
 20
0.0
  0
LWPOLYLINE
  5
3C
330
17
100
AcDbEntity
  8
joints
100
AcDbPolyline
 90
2
 70
0
 10
0.0
 20
0.0
 10
6.58212835093419
 20
-63.438099106417496
  0
ENDSEC
  0
SECTION
  2
OBJECTS
  0
DICTIONARY
  5
A
330
0
100
AcDbDictionary
281
1
  3
ACAD_COLOR
350
B
  3
ACAD_GROUP
350
C
  3
ACAD_LAYOUT
350
D
  3
ACAD_MATERIAL
350
E
  3
ACAD_MLEADERSTYLE
350
F
  3
ACAD_MLINESTYLE
350
10
  3
ACAD_PLOTSETTINGS
350
11
  3
ACAD_PLOTSTYLENAME
350
12
  3
ACAD_SCALELIST
350
14
  3
ACAD_TABLESTYLE
350
15
  3
ACAD_VISUALSTYLE
350
16
  3
EZDXF_META
350
2D
  0
DICTIONARY
  5
B
330
A
100
AcDbDictionary
281
1
  0
DICTIONARY
  5
C
330
A
100
AcDbDictionary
281
1
  0
DICTIONARY
  5
D
330
A
100
AcDbDictionary
281
1
  3
Model
350
1A
  3
Layout1
350
1E
  0
DICTIONARY
  5
E
330
A
100
AcDbDictionary
281
1
  3
ByBlock
350
1F
  3
ByLayer
350
20
  3
Global
350
21
  0
DICTIONARY
  5
F
330
A
100
AcDbDictionary
281
1
  3
Standard
350
2C
  0
DICTIONARY
  5
10
330
A
100
AcDbDictionary
281
1
  3
Standard
350
22
  0
DICTIONARY
  5
11
330
A
100
AcDbDictionary
281
1
  0
ACDBDICTIONARYWDFLT
  5
12
330
A
100
AcDbDictionary
281
1
  3
Normal
350
13
100
AcDbDictionaryWithDefault
340
13
  0
ACDBPLACEHOLDER
  5
13
330
12
  0
DICTIONARY
  5
14
330
A
100
AcDbDictionary
281
1
  0
DICTIONARY
  5
15
330
A
100
AcDbDictionary
281
1
  0
DICTIONARY
  5
16
330
A
100
AcDbDictionary
281
1
  0
LAYOUT
  5
1A
330
D
100
AcDbPlotSettings
  1

  2
Adobe PDF
  4
A3
  6

 40
7.5
 41
20.0
 42
7.5
 43
20.0
 44
420.0
 45
297.0
 46
0.0
 47
0.0
 48
0.0
 49
0.0
140
0.0
141
0.0
142
1.0
143
1.0
 70
1024
 72
1
 73
1
 74
5
  7

 75
16
 76
0
 77
2
 78
300
147
1.0
148
0.0
149
0.0
100
AcDbLayout
  1
Model
 70
1
 71
0
 10
0.0
 20
0.0
 11
420.0
 21
297.0
 12
0.0
 22
0.0
 32
0.0
 14
1e+20
 24
1e+20
 34
1e+20
 15
-1e+20
 25
-1e+20
 35
-1e+20
146
0.0
 13
0.0
 23
0.0
 33
0.0
 16
1.0
 26
0.0
 36
0.0
 17
0.0
 27
1.0
 37
0.0
 76
1
330
17
  0
LAYOUT
  5
1E
330
D
100
AcDbPlotSettings
  1

  2
Adobe PDF
  4
A3
  6

 40
7.5
 41
20.0
 42
7.5
 43
20.0
 44
420.0
 45
297.0
 46
0.0
 47
0.0
 48
0.0
 49
0.0
140
0.0
141
0.0
142
1.0
143
1.0
 70
0
 72
1
 73
1
 74
5
  7

 75
16
 76
0
 77
2
 78
300
147
1.0
148
0.0
149
0.0
100
AcDbLayout
  1
Layout1
 70
1
 71
1
 10
0.0
 20
0.0
 11
420.0
 21
297.0
 12
0.0
 22
0.0
 32
0.0
 14
1e+20
 24
1e+20
 34
1e+20
 15
-1e+20
 25
-1e+20
 35
-1e+20
146
0.0
 13
0.0
 23
0.0
 33
0.0
 16
1.0
 26
0.0
 36
0.0
 17
0.0
 27
1.0
 37
0.0
 76
1
330
1B
  0
MATERIAL
  5
1F
102
{ACAD_REACTORS
330
E
102
}
330
E
100
AcDbMaterial
  1
ByBlock
  2

 70
0
 40
1.0
 71
1
 41
1.0
 91
-1023410177
 42
1.0
 72
1
  3

 73
1
 74
1
 75
1
 44
0.5
 73
0
 45
1.0
 46
1.0
 77
1
  4

 78
1
 79
1
170
1
 48
1.0
171
1
  6

172
1
173
1
174
1
140
1.0
141
1.0
175
1
  7

176
1
177
1
178
1
143
1.0
179
1
  8

270
1
271
1
272
1
145
1.0
146
1.0
273
1
  9

274
1
275
1
276
1
 42
1.0
 72
1
  3

 73
1
 74
1
 75
1
 94
63
  0
MATERIAL
  5
20
102
{ACAD_REACTORS
330
E
102
}
330
E
100
AcDbMaterial
  1
ByLayer
  2

 70
0
 40
1.0
 71
1
 41
1.0
 91
-1023410177
 42
1.0
 72
1
  3

 73
1
 74
1
 75
1
 44
0.5
 73
0
 45
1.0
 46
1.0
 77
1
  4

 78
1
 79
1
170
1
 48
1.0
171
1
  6

172
1
173
1
174
1
140
1.0
141
1.0
175
1
  7

176
1
177
1
178
1
143
1.0
179
1
  8

270
1
271
1
272
1
145
1.0
146
1.0
273
1
  9

274
1
275
1
276
1
 42
1.0
 72
1
  3

 73
1
 74
1
 75
1
 94
63
  0
MATERIAL
  5
21
102
{ACAD_REACTORS
330
E
102
}
330
E
100
AcDbMaterial
  1
Global
  2

 70
0
 40
1.0
 71
1
 41
1.0
 91
-1023410177
 42
1.0
 72
1
  3

 73
1
 74
1
 75
1
 44
0.5
 73
0
 45
1.0
 46
1.0
 77
1
  4

 78
1
 79
1
170
1
 48
1.0
171
1
  6

172
1
173
1
174
1
140
1.0
141
1.0
175
1
  7

176
1
177
1
178
1
143
1.0
179
1
  8

270
1
271
1
272
1
145
1.0
146
1.0
273
1
  9

274
1
275
1
276
1
 42
1.0
 72
1
  3

 73
1
 74
1
 75
1
 94
63
  0
MLINESTYLE
  5
22
102
{ACAD_REACTORS
330
10
102
}
330
10
100
AcDbMlineStyle
  2
Standard
 70
0
  3

 62
256
 51
90.0
 52
90.0
 71
2
 49
0.5
 62
256
  6
BYLAYER
 49
-0.5
 62
256
  6
BYLAYER
  0
MLEADERSTYLE
  5
2C
102
{ACAD_REACTORS
330
F
102
}
330
F
100
AcDbMLeaderStyle
179
2
170
2
171
1
172
0
 90
2
 40
0.0
 41
0.0
173
1
 91
-1056964608
 92
-2
290
1
 42
2.0
291
1
 43
8.0
  3
Standard
 44
4.0
300

342
29
174
1
175
1
176
0
178
1
 93
-1056964608
 45
4.0
292
0
297
0
 46
4.0
 94
-1056964608
 47
1.0
 49
1.0
140
1.0
294
1
141
0.0
177
0
142
1.0
295
0
296
0
143
3.75
271
0
272
9
273
9
  0
DICTIONARY
  5
2D
330
A
100
AcDbDictionary
280
1
281
1
  3
CREATED_BY_EZDXF
350
2E
  3
WRITTEN_BY_EZDXF
350
3F
  0
DICTIONARYVAR
  5
2E
330
2D
100
DictionaryVariables
280
0
  1
0.17.2 @ 2022-03-24T16:18:43.778657+00:00
  0
DICTIONARYVAR
  5
3F
330
2D
100
DictionaryVariables
280
0
  1
0.17.2 @ 2022-03-24T16:18:43.792981+00:00
  0
ENDSEC
  0
EOF
