  0
SECTION
  2
HEADER
  9
$ACADVER
  1
AC1024
  9
$ACADMAINTVER
 70
6
  9
$DWGCODEPAGE
  3
ANSI_1252
  9
$LASTSAVEDBY
  1
ezdxf
  9
$INSBASE
 10
0.0
 20
0.0
 30
0.0
  9
$EXTMIN
 10
1e+20
 20
1e+20
 30
1e+20
  9
$EXTMAX
 10
-1e+20
 20
-1e+20
 30
-1e+20
  9
$LIMMIN
 10
0.0
 20
0.0
  9
$LIMMAX
 10
420.0
 20
297.0
  9
$ORTHOMODE
 70
0
  9
$REGENMODE
 70
1
  9
$FILLMODE
 70
1
  9
$QTEXTMODE
 70
0
  9
$MIRRTEXT
 70
1
  9
$LTSCALE
 40
1.0
  9
$ATTMODE
 70
1
  9
$TEXTSIZE
 40
2.5
  9
$TRACEWID
 40
1.0
  9
$TEXTSTYLE
  7
Standard
  9
$CLAYER
  8
0
  9
$CELTYPE
  6
ByLayer
  9
$CECOLOR
 62
256
  9
$CELTSCALE
 40
1.0
  9
$DISPSILH
 70
0
  9
$DIMSCALE
 40
1.0
  9
$DIMASZ
 40
2.5
  9
$DIMEXO
 40
0.625
  9
$DIMDLI
 40
3.75
  9
$DIMRND
 40
0.0
  9
$DIMDLE
 40
0.0
  9
$DIMEXE
 40
1.25
  9
$DIMTP
 40
0.0
  9
$DIMTM
 40
0.0
  9
$DIMTXT
 40
2.5
  9
$DIMCEN
 40
2.5
  9
$DIMTSZ
 40
0.0
  9
$DIMTOL
 70
0
  9
$DIMLIM
 70
0
  9
$DIMTIH
 70
0
  9
$DIMTOH
 70
0
  9
$DIMSE1
 70
0
  9
$DIMSE2
 70
0
  9
$DIMTAD
 70
1
  9
$DIMZIN
 70
8
  9
$DIMBLK
  1

  9
$DIMASO
 70
1
  9
$DIMSHO
 70
1
  9
$DIMPOST
  1

  9
$DIMAPOST
  1

  9
$DIMALT
 70
0
  9
$DIMALTD
 70
3
  9
$DIMALTF
 40
0.03937007874
  9
$DIMLFAC
 40
1.0
  9
$DIMTOFL
 70
1
  9
$DIMTVP
 40
0.0
  9
$DIMTIX
 70
0
  9
$DIMSOXD
 70
0
  9
$DIMSAH
 70
0
  9
$DIMBLK1
  1

  9
$DIMBLK2
  1

  9
$DIMSTYLE
  2
ISO-25
  9
$DIMCLRD
 70
0
  9
$DIMCLRE
 70
0
  9
$DIMCLRT
 70
0
  9
$DIMTFAC
 40
1.0
  9
$DIMGAP
 40
0.625
  9
$DIMJUST
 70
0
  9
$DIMSD1
 70
0
  9
$DIMSD2
 70
0
  9
$DIMTOLJ
 70
0
  9
$DIMTZIN
 70
8
  9
$DIMALTZ
 70
0
  9
$DIMALTTZ
 70
0
  9
$DIMUPT
 70
0
  9
$DIMDEC
 70
2
  9
$DIMTDEC
 70
2
  9
$DIMALTU
 70
2
  9
$DIMALTTD
 70
3
  9
$DIMTXSTY
  7
Standard
  9
$DIMAUNIT
 70
0
  9
$DIMADEC
 70
0
  9
$DIMALTRND
 40
0.0
  9
$DIMAZIN
 70
0
  9
$DIMDSEP
 70
44
  9
$DIMATFIT
 70
3
  9
$DIMFRAC
 70
0
  9
$DIMLDRBLK
  1

  9
$DIMLUNIT
 70
2
  9
$DIMLWD
 70
-2
  9
$DIMLWE
 70
-2
  9
$DIMTMOVE
 70
0
  9
$DIMFXL
 40
1.0
  9
$DIMFXLON
 70
0
  9
$DIMJOGANG
 40
0.785398163397
  9
$DIMTFILL
 70
0
  9
$DIMTFILLCLR
 70
0
  9
$DIMARCSYM
 70
0
  9
$DIMLTYPE
  6

  9
$DIMLTEX1
  6

  9
$DIMLTEX2
  6

  9
$DIMTXTDIRECTION
 70
0
  9
$LUNITS
 70
2
  9
$LUPREC
 70
4
  9
$SKETCHINC
 40
1.0
  9
$FILLETRAD
 40
10.0
  9
$AUNITS
 70
0
  9
$AUPREC
 70
2
  9
$MENU
  1
.
  9
$ELEVATION
 40
0.0
  9
$PELEVATION
 40
0.0
  9
$THICKNESS
 40
0.0
  9
$LIMCHECK
 70
0
  9
$CHAMFERA
 40
0.0
  9
$CHAMFERB
 40
0.0
  9
$CHAMFERC
 40
0.0
  9
$CHAMFERD
 40
0.0
  9
$SKPOLY
 70
0
  9
$TDCREATE
 40
2459663.3625578703
  9
$TDUCREATE
 40
2458532.153996898
  9
$TDUPDATE
 40
2459663.3625578703
  9
$TDUUPDATE
 40
2458532.1544311
  9
$TDINDWG
 40
0.0
  9
$TDUSRTIMER
 40
0.0
  9
$USRTIMER
 70
1
  9
$ANGBASE
 50
0.0
  9
$ANGDIR
 70
0
  9
$PDMODE
 70
0
  9
$PDSIZE
 40
0.0
  9
$PLINEWID
 40
0.0
  9
$SPLFRAME
 70
0
  9
$SPLINETYPE
 70
6
  9
$SPLINESEGS
 70
8
  9
$HANDSEED
  5
67
  9
$SURFTAB1
 70
6
  9
$SURFTAB2
 70
6
  9
$SURFTYPE
 70
6
  9
$SURFU
 70
6
  9
$SURFV
 70
6
  9
$UCSBASE
  2

  9
$UCSNAME
  2

  9
$UCSORG
 10
0.0
 20
0.0
 30
0.0
  9
$UCSXDIR
 10
1.0
 20
0.0
 30
0.0
  9
$UCSYDIR
 10
0.0
 20
1.0
 30
0.0
  9
$UCSORTHOREF
  2

  9
$UCSORTHOVIEW
 70
0
  9
$UCSORGTOP
 10
0.0
 20
0.0
 30
0.0
  9
$UCSORGBOTTOM
 10
0.0
 20
0.0
 30
0.0
  9
$UCSORGLEFT
 10
0.0
 20
0.0
 30
0.0
  9
$UCSORGRIGHT
 10
0.0
 20
0.0
 30
0.0
  9
$UCSORGFRONT
 10
0.0
 20
0.0
 30
0.0
  9
$UCSORGBACK
 10
0.0
 20
0.0
 30
0.0
  9
$PUCSBASE
  2

  9
$PUCSNAME
  2

  9
$PUCSORG
 10
0.0
 20
0.0
 30
0.0
  9
$PUCSXDIR
 10
1.0
 20
0.0
 30
0.0
  9
$PUCSYDIR
 10
0.0
 20
1.0
 30
0.0
  9
$PUCSORTHOREF
  2

  9
$PUCSORTHOVIEW
 70
0
  9
$PUCSORGTOP
 10
0.0
 20
0.0
 30
0.0
  9
$PUCSORGBOTTOM
 10
0.0
 20
0.0
 30
0.0
  9
$PUCSORGLEFT
 10
0.0
 20
0.0
 30
0.0
  9
$PUCSORGRIGHT
 10
0.0
 20
0.0
 30
0.0
  9
$PUCSORGFRONT
 10
0.0
 20
0.0
 30
0.0
  9
$PUCSORGBACK
 10
0.0
 20
0.0
 30
0.0
  9
$USERI1
 70
0
  9
$USERI2
 70
0
  9
$USERI3
 70
0
  9
$USERI4
 70
0
  9
$USERI5
 70
0
  9
$USERR1
 40
0.0
  9
$USERR2
 40
0.0
  9
$USERR3
 40
0.0
  9
$USERR4
 40
0.0
  9
$USERR5
 40
0.0
  9
$WORLDVIEW
 70
1
  9
$SHADEDGE
 70
3
  9
$SHADEDIF
 70
70
  9
$TILEMODE
 70
1
  9
$MAXACTVP
 70
64
  9
$PINSBASE
 10
0.0
 20
0.0
 30
0.0
  9
$PLIMCHECK
 70
0
  9
$PEXTMIN
 10
1e+20
 20
1e+20
 30
1e+20
  9
$PEXTMAX
 10
-1e+20
 20
-1e+20
 30
-1e+20
  9
$PLIMMIN
 10
0.0
 20
0.0
  9
$PLIMMAX
 10
420.0
 20
297.0
  9
$UNITMODE
 70
0
  9
$VISRETAIN
 70
1
  9
$PLINEGEN
 70
0
  9
$PSLTSCALE
 70
1
  9
$TREEDEPTH
 70
3020
  9
$CMLSTYLE
  2
Standard
  9
$CMLJUST
 70
0
  9
$CMLSCALE
 40
20.0
  9
$PROXYGRAPHICS
 70
1
  9
$MEASUREMENT
 70
1
  9
$CELWEIGHT
370
-1
  9
$ENDCAPS
280
0
  9
$JOINSTYLE
280
0
  9
$LWDISPLAY
290
0
  9
$INSUNITS
 70
6
  9
$HYPERLINKBASE
  1

  9
$STYLESHEET
  1

  9
$XEDIT
290
1
  9
$CEPSNTYPE
380
0
  9
$PSTYLEMODE
290
1
  9
$FINGERPRINTGUID
  2
{3294436F-4872-4FB9-81B1-5048A18502DA}
  9
$VERSIONGUID
  2
{9B501C07-CDBA-4732-9414-E053CC2624C8}
  9
$EXTNAMES
290
1
  9
$PSVPSCALE
 40
0.0
  9
$OLESTARTUP
290
0
  9
$SORTENTS
280
127
  9
$INDEXCTL
280
0
  9
$HIDETEXT
280
1
  9
$XCLIPFRAME
280
0
  9
$HALOGAP
280
0
  9
$OBSCOLOR
 70
257
  9
$OBSLTYPE
280
0
  9
$INTERSECTIONDISPLAY
280
0
  9
$INTERSECTIONCOLOR
 70
257
  9
$DIMASSOC
280
2
  9
$PROJECTNAME
  1

  9
$CAMERADISPLAY
290
0
  9
$LENSLENGTH
 40
50.0
  9
$CAMERAHEIGHT
 40
0.0
  9
$STEPSPERSEC
 40
24.0
  9
$STEPSIZE
 40
100.0
  9
$3DDWFPREC
 40
2.0
  9
$PSOLWIDTH
 40
0.005
  9
$PSOLHEIGHT
 40
0.08
  9
$LOFTANG1
 40
1.570796326795
  9
$LOFTANG2
 40
1.570796326795
  9
$LOFTMAG1
 40
0.0
  9
$LOFTMAG2
 40
0.0
  9
$LOFTPARAM
 70
7
  9
$LOFTNORMALS
280
1
  9
$LATITUDE
 40
37.795
  9
$LONGITUDE
 40
-122.394
  9
$NORTHDIRECTION
 40
0.0
  9
$TIMEZONE
 70
-8000
  9
$LIGHTGLYPHDISPLAY
280
1
  9
$TILEMODELIGHTSYNCH
280
1
  9
$CMATERIAL
347
20
  9
$SOLIDHIST
280
0
  9
$SHOWHIST
280
1
  9
$DWFFRAME
280
2
  9
$DGNFRAME
280
2
  9
$REALWORLDSCALE
290
1
  9
$INTERFERECOLOR
 62
256
  9
$CSHADOW
280
0
  9
$SHADOWPLANELOCATION
 40
0.0
  0
ENDSEC
  0
SECTION
  2
CLASSES
  0
CLASS
  1
ACDBDICTIONARYWDFLT
  2
AcDbDictionaryWithDefault
  3
ObjectDBX Classes
 90
0
 91
0
280
0
281
0
  0
CLASS
  1
SUN
  2
AcDbSun
  3
SCENEOE
 90
1153
 91
0
280
0
281
0
  0
CLASS
  1
VISUALSTYLE
  2
AcDbVisualStyle
  3
ObjectDBX Classes
 90
4095
 91
0
280
0
281
0
  0
CLASS
  1
MATERIAL
  2
AcDbMaterial
  3
ObjectDBX Classes
 90
1153
 91
0
280
0
281
0
  0
CLASS
  1
SCALE
  2
AcDbScale
  3
ObjectDBX Classes
 90
1153
 91
0
280
0
281
0
  0
CLASS
  1
TABLESTYLE
  2
AcDbTableStyle
  3
ObjectDBX Classes
 90
4095
 91
0
280
0
281
0
  0
CLASS
  1
MLEADERSTYLE
  2
AcDbMLeaderStyle
  3
ACDB_MLEADERSTYLE_CLASS
 90
4095
 91
0
280
0
281
0
  0
CLASS
  1
DICTIONARYVAR
  2
AcDbDictionaryVar
  3
ObjectDBX Classes
 90
0
 91
0
280
0
281
0
  0
CLASS
  1
CELLSTYLEMAP
  2
AcDbCellStyleMap
  3
ObjectDBX Classes
 90
1152
 91
0
280
0
281
0
  0
CLASS
  1
MENTALRAYRENDERSETTINGS
  2
AcDbMentalRayRenderSettings
  3
SCENEOE
 90
1024
 91
0
280
0
281
0
  0
CLASS
  1
ACDBDETAILVIEWSTYLE
  2
AcDbDetailViewStyle
  3
ObjectDBX Classes
 90
1025
 91
0
280
0
281
0
  0
CLASS
  1
ACDBSECTIONVIEWSTYLE
  2
AcDbSectionViewStyle
  3
ObjectDBX Classes
 90
1025
 91
0
280
0
281
0
  0
CLASS
  1
RASTERVARIABLES
  2
AcDbRasterVariables
  3
ISM
 90
0
 91
0
280
0
281
0
  0
CLASS
  1
ACDBPLACEHOLDER
  2
AcDbPlaceHolder
  3
ObjectDBX Classes
 90
0
 91
0
280
0
281
0
  0
CLASS
  1
LAYOUT
  2
AcDbLayout
  3
ObjectDBX Classes
 90
0
 91
0
280
0
281
0
  0
ENDSEC
  0
SECTION
  2
TABLES
  0
TABLE
  2
VPORT
  5
8
330
0
100
AcDbSymbolTable
 70
1
  0
VPORT
  5
23
330
8
100
AcDbSymbolTableRecord
100
AcDbViewportTableRecord
  2
*Active
 70
0
 10
0.0
 20
0.0
 11
1.0
 21
1.0
 12
0.0
 22
0.0
 13
0.0
 23
0.0
 14
0.5
 24
0.5
 15
0.5
 25
0.5
 16
0.0
 26
0.0
 36
1.0
 17
0.0
 27
0.0
 37
0.0
 40
1000.0
 41
1.34
 42
50.0
 43
0.0
 44
0.0
 50
0.0
 51
0.0
 71
0
 72
1000
 73
1
 74
3
 75
0
 76
0
 77
0
 78
0
281
0
 65
0
146
0.0
  0
ENDTAB
  0
TABLE
  2
LTYPE
  5
2
330
0
100
AcDbSymbolTable
 70
3
  0
LTYPE
  5
24
330
2
100
AcDbSymbolTableRecord
100
AcDbLinetypeTableRecord
  2
ByBlock
 70
0
  3

 72
65
 73
0
 40
0.0
  0
LTYPE
  5
25
330
2
100
AcDbSymbolTableRecord
100
AcDbLinetypeTableRecord
  2
ByLayer
 70
0
  3

 72
65
 73
0
 40
0.0
  0
LTYPE
  5
26
330
2
100
AcDbSymbolTableRecord
100
AcDbLinetypeTableRecord
  2
Continuous
 70
0
  3

 72
65
 73
0
 40
0.0
  0
ENDTAB
  0
TABLE
  2
LAYER
  5
1
330
0
100
AcDbSymbolTable
 70
2
  0
LAYER
  5
27
330
1
100
AcDbSymbolTableRecord
100
AcDbLayerTableRecord
  2
0
 70
0
 62
7
  6
Continuous
370
-3
390
13
347
21
  0
LAYER
  5
28
330
1
100
AcDbSymbolTableRecord
100
AcDbLayerTableRecord
  2
Defpoints
 70
0
 62
7
  6
Continuous
290
0
370
-3
390
13
347
21
  0
ENDTAB
  0
TABLE
  2
STYLE
  5
5
330
0
100
AcDbSymbolTable
 70
1
  0
STYLE
  5
29
330
5
100
AcDbSymbolTableRecord
100
AcDbTextStyleTableRecord
  2
Standard
 70
0
 40
0.0
 41
1.0
 50
0.0
 71
0
 42
2.5
  3
txt
  4

  0
ENDTAB
  0
TABLE
  2
VIEW
  5
7
330
0
100
AcDbSymbolTable
 70
0
  0
ENDTAB
  0
TABLE
  2
UCS
  5
6
330
0
100
AcDbSymbolTable
 70
0
  0
ENDTAB
  0
TABLE
  2
APPID
  5
3
330
0
100
AcDbSymbolTable
 70
3
  0
APPID
  5
2A
330
3
100
AcDbSymbolTableRecord
100
AcDbRegAppTableRecord
  2
ACAD
 70
0
  0
APPID
  5
64
330
3
100
AcDbSymbolTableRecord
100
AcDbRegAppTableRecord
  2
HATCHBACKGROUNDCOLOR
 70
0
  0
APPID
  5
65
330
3
100
AcDbSymbolTableRecord
100
AcDbRegAppTableRecord
  2
EZDXF
 70
0
  0
ENDTAB
  0
TABLE
  2
DIMSTYLE
  5
4
330
0
100
AcDbSymbolTable
 70
1
100
AcDbDimStyleTable
  0
DIMSTYLE
105
2B
330
4
100
AcDbSymbolTableRecord
100
AcDbDimStyleTableRecord
  2
Standard
 70
0
 40
1.0
 41
2.5
 42
0.625
 43
3.75
 44
1.25
 45
0.0
 46
0.0
 47
0.0
 48
0.0
 49
2.5
140
2.5
141
2.5
142
0.0
143
0.03937007874
144
1.0
145
0.0
146
1.0
147
0.625
148
0.0
 69
0
 70
0
 71
0
 72
0
 73
0
 74
0
 75
0
 76
0
 77
1
 78
8
 79
3
170
0
171
3
172
1
173
0
174
0
175
0
176
0
177
0
178
0
179
2
271
2
272
2
273
2
274
3
275
0
276
0
277
2
278
44
279
0
280
0
281
0
282
0
283
0
284
8
285
0
286
0
288
0
289
3
290
0
371
-2
372
-2
  0
ENDTAB
  0
TABLE
  2
BLOCK_RECORD
  5
9
330
0
100
AcDbSymbolTable
 70
2
  0
BLOCK_RECORD
  5
17
330
9
100
AcDbSymbolTableRecord
100
AcDbBlockTableRecord
  2
*Model_Space
340
1A
 70
0
280
1
281
0
  0
BLOCK_RECORD
  5
1B
330
9
100
AcDbSymbolTableRecord
100
AcDbBlockTableRecord
  2
*Paper_Space
340
1E
 70
0
280
1
281
0
  0
ENDTAB
  0
ENDSEC
  0
SECTION
  2
BLOCKS
  0
BLOCK
  5
18
330
17
100
AcDbEntity
  8
0
100
AcDbBlockBegin
  2
*Model_Space
 70
0
 10
0.0
 20
0.0
 30
0.0
  3
*Model_Space
  1

  0
ENDBLK
  5
19
330
17
100
AcDbEntity
  8
0
100
AcDbBlockEnd
  0
BLOCK
  5
1C
330
1B
100
AcDbEntity
  8
0
100
AcDbBlockBegin
  2
*Paper_Space
 70
0
 10
0.0
 20
0.0
 30
0.0
  3
*Paper_Space
  1

  0
ENDBLK
  5
1D
330
1B
100
AcDbEntity
  8
0
100
AcDbBlockEnd
  0
ENDSEC
  0
SECTION
  2
ENTITIES
  0
LWPOLYLINE
  5
2F
330
17
100
AcDbEntity
  8
0
100
AcDbPolyline
 90
63
 70
0
 10
-51.55974002090183
 20
-74.53825185813105
 10
-51.11286502090182
 20
-74.53825185813105
 10
-51.11286502090182
 20
-74.63825185813104
 10
-51.11512283340183
 20
-74.72432217063104
 10
-51.12189627090182
 20
-74.80690810813104
 10
-51.133185333401826
 20
-74.88600967063104
 10
-51.14899002090183
 20
-74.96162685813104
 10
-51.169310333401825
 20
-75.03375967063104
 10
-51.194146270901825
 20
-75.10240810813104
 10
-51.22349783340182
 20
-75.16757217063105
 10
-51.25736502090182
 20
-75.22925185813105
 10
-51.295747833401826
 20
-75.28744717063104
 10
-51.338646270901826
 20
-75.34215810813104
 10
-51.38528689590183
 20
-75.39247842063105
 10
-51.434896270901824
 20
-75.43750185813104
 10
-51.48747439590183
 20
-75.47722842063105
 10
-51.543021270901825
 20
-75.51165810813104
 10
-51.60153689590182
 20
-75.54079092063104
 10
-51.66302127090182
 20
-75.56462685813105
 10
-51.72747439590182
 20
-75.58316592063105
 10
-51.79489627090182
 20
-75.59640810813104
 10
-51.865286895901825
 20
-75.60435342063104
 10
-51.93864627090183
 20
-75.60700185813104
 10
-51.991583770901826
 20
-75.60560342063104
 10
-52.04227127090182
 20
-75.60140810813104
 10
-52.09070877090183
 20
-75.59441592063105
 10
-52.13689627090182
 20
-75.58462685813105
 10
-52.18083377090183
 20
-75.57204092063104
 10
-52.22252127090182
 20
-75.55665810813105
 10
-52.26195877090183
 20
-75.53847842063105
 10
-52.29914627090182
 20
-75.51750185813104
 10
-52.33408377090183
 20
-75.49372842063104
 10
-52.36677127090182
 20
-75.46715810813104
 10
-52.39675564590183
 20
-75.43804873313104
 10
-52.42358377090182
 20
-75.40697060813105
 10
-52.447255645901826
 20
-75.37392373313105
 10
-52.46777127090182
 20
-75.33890810813105
 10
-52.485130645901826
 20
-75.30192373313105
 10
-52.49933377090183
 20
-75.26297060813104
 10
-52.510380645901826
 20
-75.22204873313105
 10
-52.51827127090182
 20
-75.17915810813105
 10
-52.523005645901826
 20
-75.13429873313105
 10
-52.52458377090183
 20
-75.08747060813104
 10
-52.522482208401826
 20
-75.02907998313104
 10
-52.51617752090183
 20
-74.97422060813105
 10
-52.505669708401825
 20
-74.92289248313105
 10
-52.49095877090183
 20
-74.87509560813105
 10
-52.472044708401825
 20
-74.83082998313104
 10
-52.448927520901826
 20
-74.79009560813104
 10
-52.421607208401824
 20
-74.75289248313105
 10
-52.390083770901825
 20
-74.71922060813104
 10
-52.35435720840182
 20
-74.68907998313105
 10
-52.31442752090182
 20
-74.66247060813104
 10
-52.26905252090182
 20
-74.63886904563104
 10
-52.216990020901825
 20
-74.61775185813104
 10
-52.15824002090182
 20
-74.59911904563104
 10
-52.09280252090183
 20
-74.58297060813105
 10
-52.02067752090183
 20
-74.56930654563105
 10
-51.94186502090182
 20
-74.55812685813105
 10
-51.856365020901826
 20
-74.54943154563105
 10
-51.764177520901825
 20
-74.54322060813105
 10
-51.665302520901825
 20
-74.53949404563105
 10
-51.55974002090183
 20
-74.53825185813105
  0
LWPOLYLINE
  5
30
330
17
100
AcDbEntity
  8
0
100
AcDbPolyline
 90
63
 70
0
 10
244.34454045004208
 20
-74.53825185813105
 10
244.4501029500421
 20
-74.53949404563105
 10
244.5489779500421
 20
-74.54322060813105
 10
244.64116545004208
 20
-74.54943154563105
 10
244.72666545004208
 20
-74.55812685813105
 10
244.80547795004208
 20
-74.56930654563105
 10
244.8776029500421
 20
-74.58297060813105
 10
244.94304045004208
 20
-74.59911904563104
 10
245.00179045004208
 20
-74.61775185813104
 10
245.05385295004209
 20
-74.63886904563104
 10
245.0992279500421
 20
-74.66247060813104
 10
245.1391576375421
 20
-74.68907998313105
 10
245.17488420004207
 20
-74.71922060813104
 10
245.2064076375421
 20
-74.75289248313105
 10
245.2337279500421
 20
-74.79009560813104
 10
245.2568451375421
 20
-74.83082998313104
 10
245.2757592000421
 20
-74.87509560813105
 10
245.2904701375421
 20
-74.92289248313105
 10
245.3009779500421
 20
-74.97422060813105
 10
245.30728263754207
 20
-75.02907998313104
 10
245.30938420004208
 20
-75.08747060813104
 10
245.3078060750421
 20
-75.13429873313105
 10
245.3030717000421
 20
-75.17915810813105
 10
245.29518107504208
 20
-75.22204873313105
 10
245.2841342000421
 20
-75.26297060813104
 10
245.26993107504208
 20
-75.30192373313105
 10
245.2525717000421
 20
-75.33890810813105
 10
245.2320560750421
 20
-75.37392373313105
 10
245.20838420004208
 20
-75.40697060813105
 10
245.1815560750421
 20
-75.43804873313104
 10
245.1515717000421
 20
-75.46715810813104
 10
245.1188842000421
 20
-75.49372842063104
 10
245.08394670004208
 20
-75.51750185813104
 10
245.0467592000421
 20
-75.53847842063105
 10
245.0073217000421
 20
-75.55665810813105
 10
244.96563420004208
 20
-75.57204092063104
 10
244.92169670004208
 20
-75.58462685813105
 10
244.87550920004207
 20
-75.59441592063105
 10
244.8270717000421
 20
-75.60140810813104
 10
244.7763842000421
 20
-75.60560342063104
 10
244.72344670004208
 20
-75.60700185813104
 10
244.65008732504208
 20
-75.60435342063104
 10
244.5796967000421
 20
-75.59640810813104
 10
244.51227482504208
 20
-75.58316592063105
 10
244.44782170004208
 20
-75.56462685813105
 10
244.3863373250421
 20
-75.54079092063104
 10
244.32782170004208
 20
-75.51165810813104
 10
244.27227482504208
 20
-75.47722842063105
 10
244.21969670004208
 20
-75.43750185813104
 10
244.1700873250421
 20
-75.39247842063105
 10
244.12344670004208
 20
-75.34215810813104
 10
244.0805482625421
 20
-75.28744717063104
 10
244.0421654500421
 20
-75.22925185813105
 10
244.0082982625421
 20
-75.16757217063105
 10
243.9789467000421
 20
-75.10240810813104
 10
243.9541107625421
 20
-75.03375967063104
 10
243.9337904500421
 20
-74.96162685813104
 10
243.9179857625421
 20
-74.88600967063104
 10
243.9066967000421
 20
-74.80690810813104
 10
243.89992326254207
 20
-74.72432217063104
 10
243.8976654500421
 20
-74.63825185813104
 10
243.8976654500421
 20
-74.53825185813105
 10
244.34454045004208
 20
-74.53825185813105
  0
LWPOLYLINE
  5
31
330
17
100
AcDbEntity
  8
0
100
AcDbPolyline
 90
42
 70
0
 10
-44.889915802151826
 20
-74.30075185813105
 10
-46.491478302151826
 20
-74.30387685813105
 10
-46.482689239651826
 20
-74.22842373313104
 10
-46.47007205215182
 20
-74.15643935813104
 10
-46.453626739651824
 20
-74.08792373313105
 10
-46.43335330215182
 20
-74.02287685813104
 10
-46.40925173965182
 20
-73.96129873313104
 10
-46.38132205215182
 20
-73.90318935813104
 10
-46.349564239651826
 20
-73.84854873313104
 10
-46.313978302151824
 20
-73.79737685813105
 10
-46.27456423965182
 20
-73.74967373313105
 10
-46.231322052151825
 20
-73.70543935813104
 10
-46.18466580215183
 20
-73.66506435813105
 10
-46.13500955215183
 20
-73.62893935813105
 10
-46.08235330215182
 20
-73.59706435813105
 10
-46.026697052151825
 20
-73.56943935813105
 10
-45.968040802151826
 20
-73.54606435813105
 10
-45.90638455215182
 20
-73.52693935813105
 10
-45.84172830215182
 20
-73.51206435813104
 10
-45.77407205215182
 20
-73.50143935813105
 10
-45.703415802151824
 20
-73.49506435813105
 10
-45.629759552151825
 20
-73.49293935813104
 10
-45.56465798965182
 20
-73.49514248313105
 10
-45.50216580215182
 20
-73.50175185813104
 10
-45.44228298965183
 20
-73.51276748313104
 10
-45.38500955215183
 20
-73.52818935813104
 10
-45.330345489651826
 20
-73.54801748313105
 10
-45.27829080215182
 20
-73.57225185813104
 10
-45.228845489651825
 20
-73.60089248313105
 10
-45.182009552151825
 20
-73.63393935813104
 10
-45.137782989651825
 20
-73.67139248313104
 10
-45.09616580215182
 20
-73.71325185813104
 10
-45.05782205215182
 20
-73.75864248313104
 10
-45.023415802151824
 20
-73.80700185813104
 10
-44.99294705215182
 20
-73.85832998313104
 10
-44.96641580215182
 20
-73.91262685813105
 10
-44.94382205215182
 20
-73.96989248313105
 10
-44.925165802151824
 20
-74.03012685813104
 10
-44.910447052151824
 20
-74.09332998313104
 10
-44.89966580215182
 20
-74.15950185813105
 10
-44.89282205215183
 20
-74.22864248313104
 10
-44.889915802151826
 20
-74.30075185813105
  0
LWPOLYLINE
  5
32
330
17
100
AcDbEntity
  8
0
100
AcDbPolyline
 90
5
 70
0
 10
91.39240021457013
 20
-85.864317874853
 10
-73.5112943188738
 20
-85.864317874853
 10
-73.5112943188738
 20
59.039376658590925
 10
91.39240021457013
 20
59.039376658590925
 10
91.39240021457013
 20
-85.864317874853
  0
LWPOLYLINE
  5
33
330
17
100
AcDbEntity
  8
0
100
AcDbPolyline
 90
5
 70
0
 10
-52.11770326122012
 20
-23.110712558450917
 10
-52.10723379486905
 20
-23.113896934687556
 10
-52.10185985334117
 20
-23.1104861852011
 10
-52.10558273042768
 20
-23.103019863254783
 10
-52.11770326122012
 20
-23.110712558450917
  0
LWPOLYLINE
  5
34
330
17
100
AcDbEntity
  8
0
100
AcDbPolyline
 90
36
 70
0
 10
-51.28112782225225
 20
-23.365164013632647
 10
-51.276346788149375
 20
-23.366618205362506
 10
-51.27713454406978
 20
-23.36996534005012
 10
-51.03625896628516
 20
-23.659582597374683
 10
-50.76666384110985
 20
-23.82639124873171
 10
-50.76580917119039
 20
-23.82659239728172
 10
-50.45011597788467
 20
-23.79753271066156
 10
-50.32010105515336
 20
-23.740291627424394
 10
-50.65202302067875
 20
-23.34120455441495
 10
-40.67061625334479
 20
-18.94673564578782
 10
-40.66037058802834
 20
-18.920372293530882
 10
-41.02810687545743
 20
-18.085111982385413
 10
-41.05447022771437
 20
-18.07486631706897
 10
-51.2746612438706
 20
-22.574463689226256
 10
-51.276200660334624
 20
-22.572038200606354
 10
-51.275203593221484
 20
-22.56732760919976
 10
-51.26853633220094
 20
-22.56429213382478
 10
-51.27199921199431
 20
-22.56236541875177
 10
-50.87827624625569
 20
-21.854728196545864
 10
-51.474464528061
 20
-22.117209320610552
 10
-51.75106549259501
 20
-22.428997135246462
 10
-51.75139560068995
 20
-22.430082451595595
 10
-51.743561763270804
 20
-22.697173845910342
 10
-51.744332075915054
 20
-22.69817652928648
 10
-51.755801572772825
 20
-22.7008779475949
 10
-51.752060707261954
 20
-22.71676065820235
 10
-51.74224068867176
 20
-22.74392129987531
 10
-51.74218153952035
 20
-22.744231994586357
 10
-51.74205525725585
 20
-22.7485375353194
 10
-51.73874206444294
 20
-22.757505028838494
 10
-51.73844050666004
 20
-22.757393613192992
 10
-51.73715351659409
 20
-22.757991625370238
 10
-51.712877007950944
 20
-22.82513666651971
 10
-51.71272412764728
 20
-22.825443271743666
 10
-51.64974619584186
 20
-22.92195493722756
 10
-51.28112782225225
 20
-23.365164013632647
  0
LWPOLYLINE
  5
35
330
17
100
AcDbEntity
  8
0
100
AcDbPolyline
 90
45
 70
0
 10
5.878149101589572
 20
-63.8026467481595
 10
5.904776221445463
 20
-63.778155085599664
 10
5.953179871485014
 20
-63.816834591712635
 10
6.458060251441831
 20
-63.912304275068614
 10
6.573710004659526
 20
-63.92047927232529
 10
6.573869430323786
 20
-63.920471974031486
 10
6.580836227125992
 20
-63.9201598359456
 10
6.617824901569201
 20
-63.91712245990425
 10
6.638290410927154
 20
-63.914673604818596
 10
6.978753188552211
 20
-63.71812258771326
 10
6.979358585135155
 20
-63.71731414043782
 10
7.076366962361087
 20
-63.36639111311107
 10
7.058390704175615
 20
-63.1930795759029
 10
6.607059603080885
 20
-63.4147153844762
 10
6.600619993579671
 20
-63.41662152509715
 10
6.5792770964233975
 20
-63.41917536637673
 10
6.580064297262203
 20
-63.418205899475446
 10
5.268621693443735
 20
-50.77861252819054
 10
5.293835923803884
 20
-50.747560272437624
 10
6.193350715405829
 20
-50.65422957849682
 10
6.211179868675895
 20
-50.63227231788278
 10
4.896818252161039
 20
-37.96454570354132
 10
4.851087500887796
 20
-37.52379587661471
 10
4.831171729136789
 20
-37.52977145645003
 10
4.829889683474973
 20
-37.52891684407807
 10
4.823822393616314
 20
-37.47044072292305
 10
3.925912115265455
 20
-37.5636049379602
 10
3.8723486786135326
 20
-37.5691625037512
 10
3.4451968408070965
 20
-37.92345876153548
 10
3.4448418858582093
 20
-37.9246512299797
 10
3.5007282221786276
 20
-38.109208897088266
 10
3.500592192892918
 20
-38.109413523644285
 10
3.9211437675039744
 20
-38.065778476546896
 10
3.952196023256896
 20
-38.090992706907045
 10
5.262783668050962
 20
-50.72234604207747
 10
5.237569437690813
 20
-50.75339829783039
 10
4.338054646088867
 20
-50.846728991771194
 10
4.3202254928188015
 20
-50.86868625238523
 10
5.604142620694271
 20
-63.24299098484019
 10
5.092424046476868
 20
-63.14622824228136
 10
5.107713564997781
 20
-63.2935875673329
 10
5.236909122684427
 20
-63.58018054467378
 10
5.23749939075646
 20
-63.580822278923705
 10
5.512318508782612
 20
-63.73347049920287
 10
5.878149101589572
 20
-63.8026467481595
  0
LWPOLYLINE
  5
36
330
17
100
AcDbEntity
  8
0
100
AcDbPolyline
 90
51
 70
0
 10
57.99170927462554
 20
-37.79766954577545
 10
57.98512556784673
 20
-37.76331081187574
 10
57.99617413403275
 20
-37.75819078891497
 10
58.03034383711682
 20
-37.45605867745945
 10
57.98721110923182
 20
-37.189911709081606
 10
57.98688966171723
 20
-37.189218053180525
 10
57.81170894999232
 20
-36.98426352351207
 10
57.59773331649427
 20
-36.840908306603865
 10
57.53458860676911
 20
-37.39924047680523
 10
46.4855584501284
 20
-29.996826992415517
 10
46.45781088245457
 20
-30.002310831233896
 10
45.95445932430618
 20
-30.75362613631675
 10
45.915218337778974
 20
-30.761381455547568
 10
34.47753552087251
 20
-23.098586050545016
 10
34.46978020164168
 20
-23.059345064017815
 10
34.70449072720597
 20
-22.70901017925224
 10
34.70423953487511
 20
-22.70903460739738
 10
34.567903217864256
 20
-22.572362259293364
 10
34.566686297829534
 20
-22.572118641364426
 10
34.05370582992571
 20
-22.783862755333022
 10
34.023799414421326
 20
-22.828501829837432
 10
33.52046981308237
 20
-23.579006398557294
 10
33.57101123717717
 20
-23.61290225463598
 10
33.571160481836124
 20
-23.61444074958245
 10
33.55702577739277
 20
-23.628540701516634
 10
33.92381111176919
 20
-23.87427237810479
 10
45.39187453118759
 20
-31.55742158597601
 10
45.419622098861424
 20
-31.55193774715763
 10
45.92297365700981
 20
-30.800622442074772
 10
45.96221464353702
 20
-30.792867122843955
 10
57.40231676811613
 20
-38.457283368362376
 10
57.391463925627455
 20
-38.4730833343143
 10
57.38379420790155
 20
-38.479711783894665
 10
56.89647010445809
 20
-38.719022727549934
 10
57.1235915397628
 20
-38.87118511207506
 10
57.49559769357982
 20
-38.94677995140153
 10
57.496590805274785
 20
-38.94658965462909
 10
57.814302167113254
 20
-38.738833430247176
 10
57.82409550067883
 20
-38.72457593628162
 10
57.83264870208247
 20
-38.70480923761979
 10
57.83268730852975
 20
-38.7047298321682
 10
57.88317317001027
 20
-38.611587458568806
 10
57.88330951328056
 20
-38.6112345472244
 10
57.89661418429227
 20
-38.55701847769638
 10
57.89666760364997
 20
-38.55685968326846
 10
57.90038024365997
 20
-38.54827966359465
 10
57.9004998059521
 20
-38.54773186249066
 10
57.90065094321276
 20
-38.54066927083066
 10
57.90067952996226
 20
-38.54045233612809
 10
57.913708681897226
 20
-38.48735899721159
 10
57.99170927462554
 20
-37.79766954577545
  0
LWPOLYLINE
  5
37
330
17
100
AcDbEntity
  8
0
100
AcDbPolyline
 90
48
 70
0
 10
66.42916381615511
 20
36.80719166379851
 10
66.38921973127943
 20
36.83346785580619
 10
66.43510470513444
 20
36.85972162950674
 10
66.5291390229568
 20
37.69118296598344
 10
66.52570064989364
 20
37.82826187002808
 10
66.52563486694049
 20
37.82866243485077
 10
66.48505134546264
 20
37.959641158793715
 10
66.47646783321635
 20
37.97796098158838
 10
66.40179758284869
 20
38.092968819178765
 10
66.40152931940527
 20
38.09327869162664
 10
66.3048974651961
 20
38.179300819857346
 10
66.29783712690644
 20
38.18410527706787
 10
66.11809296181542
 20
38.26027541685688
 10
66.11707168729711
 20
38.26048685328798
 10
65.7677687680925
 20
38.20491823106476
 10
65.02593571552708
 20
37.78049553208771
 10
66.00620028233183
 20
37.78049553208771
 10
66.01390793358944
 20
37.77895066991139
 10
66.0146662242938
 20
37.77863397543005
 10
66.0165800395634
 20
37.77237311542024
 10
52.86315259532401
 20
30.246442979798754
 10
52.824556207853576
 20
30.256946259012018
 10
52.37544043459179
 20
31.041887340208316
 10
52.34814866728213
 20
31.04931428016471
 10
39.15585733041961
 20
23.501147587423798
 10
38.77124703958284
 20
23.28108706019245
 10
38.78476600385436
 20
23.265288860243242
 10
38.784502837069724
 20
23.263770721043734
 10
38.73347498263346
 20
23.234574371336155
 10
39.18178964398485
 20
22.451033431793963
 10
39.20853315557991
 20
22.404292519526184
 10
39.70530433647994
 20
22.1569002714765
 10
39.70653849202547
 20
22.15705785984959
 10
39.85273227646842
 20
22.282804400449482
 10
39.852974434171095
 20
22.28276273942572
 10
39.642998625615206
 20
22.649747485910783
 10
39.653501904828474
 20
22.688343873381218
 10
52.81405292864031
 20
30.21834987154158
 10
52.85264931611074
 20
30.207846592328316
 10
53.30176508937253
 20
29.42290551113202
 10
53.329056856682186
 20
29.415478571175623
 10
65.90477923340664
 20
36.61086611662105
 10
65.8352616581467
 20
35.99618439853313
 10
66.15205059614888
 20
36.17743992491503
 10
66.32129052885276
 20
36.33647462609433
 10
66.32165803765548
 20
36.337033299238605
 10
66.40068850699159
 20
36.55540998279119
 10
66.42916381615511
 20
36.80719166379851
  0
LWPOLYLINE
  5
38
330
17
100
AcDbEntity
  8
0
100
AcDbPolyline
 90
48
 70
0
 10
-18.558963989081093
 20
37.25900953974385
 10
-18.53977435104421
 20
37.21804704316512
 10
-18.58095701462639
 20
37.21948153437222
 10
-18.705589070478254
 20
36.99548067723487
 10
-18.705914830498404
 20
36.994895189631094
 10
-18.7044810285823
 20
36.54581104163507
 10
-18.70505679863704
 20
36.544902292038685
 10
-18.71989937871783
 20
36.53794901128011
 10
-18.568697298095007
 20
36.21519072379696
 10
-18.269539328039667
 20
36.75286653484237
 10
-15.034067745419494
 20
29.846379118095488
 10
-15.007472110683288
 20
29.836752477301403
 10
-14.188537468322833
 20
30.22039753498378
 10
-14.150925560978976
 20
30.206783409012687
 10
-10.634192229435405
 20
22.699910335910097
 10
-10.647806355406495
 20
22.66229842856624
 10
-11.029671827436117
 20
22.483406495723532
 10
-11.029444079738127
 20
22.483297751489154
 10
-10.98322720201563
 20
22.29586530508785
 10
-10.982310706927688
 20
22.295028477256032
 10
-10.433657251083071
 20
22.211578397711854
 10
-10.385000602733685
 20
22.234372503182428
 10
-9.566503269371323
 20
22.617334526562097
 10
-9.59229318031444
 20
22.67245480495235
 10
-9.591626828355224
 20
22.673849514861903
 10
-9.572242495782866
 20
22.678629281393963
 10
-9.759534541965943
 20
23.07842576459245
 10
-13.291781157911222
 20
30.61841373324484
 10
-13.318376792647427
 20
30.628040374038925
 10
-14.137311435007883
 20
30.24439531635655
 10
-14.17492334235174
 20
30.25800944232764
 10
-17.69232765787141
 20
37.76631480814843
 10
-17.67895265248036
 20
37.77336009027367
 10
-17.66596012257298
 20
37.78049553208771
 10
-17.14792874614002
 20
37.78049553208771
 10
-17.239923290070614
 20
37.97686850086253
 10
-17.533245417475477
 20
38.238478090482175
 10
-17.53422836553911
 20
38.23880812890293
 10
-17.925993632384152
 20
38.20722611656851
 10
-17.9383288639633
 20
38.200728535176026
 10
-17.999565041990014
 20
38.16258365010956
 10
-17.99973949599532
 20
38.16245661917858
 10
-18.054841882022554
 20
38.115888080360364
 10
-18.062737946960905
 20
38.10817094182588
 10
-18.110557028137716
 20
38.05415023503538
 10
-18.11068802364281
 20
38.05397873800656
 10
-18.150226231460504
 20
37.993632806812734
 10
-18.558963989081093
 20
37.25900953974385
  0
LWPOLYLINE
  5
39
330
17
100
AcDbEntity
  8
0
100
AcDbPolyline
 90
33
 70
0
 10
81.44055294784818
 20
-73.41247060813104
 10
81.39251614885625
 20
-72.92474480309072
 10
81.25025177912639
 20
-72.45576202721831
 10
81.01922697860454
 20
-72.02354502558204
 10
80.70831990081454
 20
-71.64470365516468
 10
80.32947853039717
 20
-71.33379657737468
 10
79.8972615287609
 20
-71.10277177685282
 10
79.42827875288849
 20
-70.96050740712296
 10
78.94055294784816
 20
-70.91247060813104
 10
78.45282714280785
 20
-70.96050740712298
 10
77.98384436693544
 20
-71.10277177685283
 10
77.55162736529915
 20
-71.33379657737468
 10
77.17278599488179
 20
-71.64470365516469
 10
76.8618789170918
 20
-72.02354502558205
 10
76.63085411656995
 20
-72.45576202721833
 10
76.48858974684009
 20
-72.92474480309073
 10
76.44055294784818
 20
-73.41247060813106
 10
76.4885897468401
 20
-73.90019641317137
 10
76.63085411656996
 20
-74.36917918904378
 10
76.86187891709181
 20
-74.80139619068005
 10
77.1727859948818
 20
-75.18023756109741
 10
77.55162736529917
 20
-75.4911446388874
 10
77.98384436693546
 20
-75.72216943940927
 10
78.45282714280786
 20
-75.86443380913911
 10
78.94055294784818
 20
-75.91247060813104
 10
79.4282787528885
 20
-75.86443380913911
 10
79.89726152876091
 20
-75.72216943940926
 10
80.32947853039718
 20
-75.4911446388874
 10
80.70831990081454
 20
-75.18023756109741
 10
81.01922697860454
 20
-74.80139619068005
 10
81.25025177912639
 20
-74.36917918904376
 10
81.39251614885625
 20
-73.90019641317137
 10
81.44055294784818
 20
-73.41247060813104
  0
LWPOLYLINE
  5
3A
330
17
100
AcDbEntity
  8
0
100
AcDbPolyline
 90
33
 70
0
 10
-58.559447052151825
 20
-73.41247060813104
 10
-58.60748385114375
 20
-72.92474480309072
 10
-58.74974822087361
 20
-72.45576202721831
 10
-58.980773021395464
 20
-72.02354502558204
 10
-59.29168009918546
 20
-71.64470365516468
 10
-59.670521469602825
 20
-71.33379657737468
 10
-60.10273847123911
 20
-71.10277177685282
 10
-60.57172124711151
 20
-70.96050740712296
 10
-61.05944705215183
 20
-70.91247060813104
 10
-61.54717285719215
 20
-70.96050740712298
 10
-62.01615563306456
 20
-71.10277177685283
 10
-62.44837263470084
 20
-71.33379657737468
 10
-62.8272140051182
 20
-71.64470365516469
 10
-63.13812108290819
 20
-72.02354502558205
 10
-63.36914588343004
 20
-72.45576202721833
 10
-63.5114102531599
 20
-72.92474480309073
 10
-63.559447052151825
 20
-73.41247060813106
 10
-63.5114102531599
 20
-73.90019641317137
 10
-63.369145883430036
 20
-74.36917918904378
 10
-63.138121082908185
 20
-74.80139619068005
 10
-62.827214005118186
 20
-75.18023756109741
 10
-62.448372634700824
 20
-75.4911446388874
 10
-62.01615563306454
 20
-75.72216943940927
 10
-61.54717285719214
 20
-75.86443380913911
 10
-61.05944705215182
 20
-75.91247060813104
 10
-60.5717212471115
 20
-75.86443380913911
 10
-60.1027384712391
 20
-75.72216943940926
 10
-59.67052146960282
 20
-75.4911446388874
 10
-59.291680099185456
 20
-75.18023756109741
 10
-58.980773021395464
 20
-74.80139619068005
 10
-58.749748220873606
 20
-74.36917918904376
 10
-58.60748385114375
 20
-73.90019641317137
 10
-58.559447052151825
 20
-73.41247060813104
  0
LWPOLYLINE
  5
3B
330
17
100
AcDbEntity
  8
0
100
AcDbPolyline
 90
33
 70
0
 10
81.44055294784818
 20
46.587529391868955
 10
81.39251614885625
 20
47.07525519690928
 10
81.25025177912639
 20
47.54423797278169
 10
81.01922697860454
 20
47.97645497441797
 10
80.70831990081454
 20
48.35529634483533
 10
80.32947853039717
 20
48.66620342262532
 10
79.8972615287609
 20
48.897228223147174
 10
79.42827875288849
 20
49.03949259287703
 10
78.94055294784816
 20
49.087529391868955
 10
78.45282714280785
 20
49.03949259287703
 10
77.98384436693544
 20
48.89722822314717
 10
77.55162736529915
 20
48.666203422625316
 10
77.17278599488179
 20
48.35529634483532
 10
76.8618789170918
 20
47.976454974417955
 10
76.63085411656995
 20
47.54423797278167
 10
76.48858974684009
 20
47.07525519690927
 10
76.44055294784818
 20
46.58752939186895
 10
76.4885897468401
 20
46.09980358682863
 10
76.63085411656996
 20
45.63082081095622
 10
76.86187891709181
 20
45.19860380931994
 10
77.1727859948818
 20
44.81976243890258
 10
77.55162736529917
 20
44.50885536111259
 10
77.98384436693546
 20
44.277830560590736
 10
78.45282714280786
 20
44.13556619086088
 10
78.94055294784818
 20
44.087529391868955
 10
79.4282787528885
 20
44.13556619086088
 10
79.89726152876091
 20
44.277830560590736
 10
80.32947853039718
 20
44.508855361112595
 10
80.70831990081454
 20
44.819762438902586
 10
81.01922697860454
 20
45.19860380931995
 10
81.25025177912639
 20
45.63082081095623
 10
81.39251614885625
 20
46.099803586828635
 10
81.44055294784818
 20
46.587529391868955
  0
LWPOLYLINE
  5
3C
330
17
100
AcDbEntity
  8
0
100
AcDbPolyline
 90
33
 70
0
 10
-58.559447052151825
 20
46.587529391868955
 10
-58.60748385114375
 20
47.07525519690928
 10
-58.74974822087361
 20
47.54423797278169
 10
-58.980773021395464
 20
47.97645497441797
 10
-59.29168009918546
 20
48.35529634483533
 10
-59.670521469602825
 20
48.66620342262532
 10
-60.10273847123911
 20
48.897228223147174
 10
-60.57172124711151
 20
49.03949259287703
 10
-61.05944705215183
 20
49.087529391868955
 10
-61.54717285719215
 20
49.03949259287703
 10
-62.01615563306456
 20
48.89722822314717
 10
-62.44837263470084
 20
48.666203422625316
 10
-62.8272140051182
 20
48.35529634483532
 10
-63.13812108290819
 20
47.976454974417955
 10
-63.36914588343004
 20
47.54423797278167
 10
-63.5114102531599
 20
47.07525519690927
 10
-63.559447052151825
 20
46.58752939186895
 10
-63.5114102531599
 20
46.09980358682863
 10
-63.369145883430036
 20
45.63082081095622
 10
-63.138121082908185
 20
45.19860380931994
 10
-62.827214005118186
 20
44.81976243890258
 10
-62.448372634700824
 20
44.50885536111259
 10
-62.01615563306454
 20
44.277830560590736
 10
-61.54717285719214
 20
44.13556619086088
 10
-61.05944705215182
 20
44.087529391868955
 10
-60.5717212471115
 20
44.13556619086088
 10
-60.1027384712391
 20
44.277830560590736
 10
-59.67052146960282
 20
44.508855361112595
 10
-59.291680099185456
 20
44.819762438902586
 10
-58.980773021395464
 20
45.19860380931995
 10
-58.749748220873606
 20
45.63082081095623
 10
-58.60748385114375
 20
46.099803586828635
 10
-58.559447052151825
 20
46.587529391868955
  0
LWPOLYLINE
  5
3D
330
17
100
AcDbEntity
  8
0
100
AcDbPolyline
 90
7
 70
0
 10
-55.56882205215182
 20
-72.26715810813104
 10
-55.56882205215182
 20
-75.91247060813104
 10
-53.30085330215182
 20
-75.91247060813104
 10
-53.30085330215182
 20
-75.49762685813104
 10
-55.07585330215183
 20
-75.49762685813104
 10
-55.07585330215183
 20
-72.26715810813104
 10
-55.56882205215182
 20
-72.26715810813104
  0
LWPOLYLINE
  5
3E
330
17
100
AcDbEntity
  8
0
100
AcDbPolyline
 90
12
 70
0
 10
-39.90934939590183
 20
-75.49762685813104
 10
-39.90934939590183
 20
-75.91247060813104
 10
-37.81013064590182
 20
-75.91247060813104
 10
-37.81013064590182
 20
-75.49762685813104
 10
-38.615599395901825
 20
-75.49762685813104
 10
-38.615599395901825
 20
-72.26715810813104
 10
-39.10856814590183
 20
-72.26715810813104
 10
-39.98044314590182
 20
-72.44293935813104
 10
-39.98044314590182
 20
-72.89215810813104
 10
-39.103880645901825
 20
-72.71637685813104
 10
-39.103880645901825
 20
-75.49762685813104
 10
-39.90934939590183
 20
-75.49762685813104
  0
LWPOLYLINE
  5
3F
330
17
100
AcDbEntity
  8
0
100
AcDbPolyline
 90
87
 70
0
 10
-42.11921267715182
 20
-73.59762685813105
 10
-42.12155642715182
 20
-73.13668935813105
 10
-42.13503298965182
 20
-73.13425967063104
 10
-42.148275177151824
 20
-73.13197060813104
 10
-42.16128298965182
 20
-73.12982217063104
 10
-42.174056427151825
 20
-73.12781435813105
 10
-42.18659548965182
 20
-73.12594717063105
 10
-42.19890017715182
 20
-73.12422060813104
 10
-42.21097048965183
 20
-73.12263467063104
 10
-42.22280642715182
 20
-73.12118935813105
 10
-42.23440798965182
 20
-73.11988467063104
 10
-42.24577517715183
 20
-73.11872060813104
 10
-42.256923614651825
 20
-73.11753310813104
 10
-42.267868927151824
 20
-73.11647060813104
 10
-42.278611114651824
 20
-73.11553310813105
 10
-42.289150177151825
 20
-73.11472060813105
 10
-42.29948611465183
 20
-73.11403310813104
 10
-42.309618927151824
 20
-73.11347060813104
 10
-42.31954861465182
 20
-73.11303310813105
 10
-42.32927517715182
 20
-73.11272060813104
 10
-42.33879861465182
 20
-73.11253310813105
 10
-42.34811892715182
 20
-73.11247060813105
 10
-42.41214236465182
 20
-73.11368154563104
 10
-42.474212677151826
 20
-73.11731435813104
 10
-42.53432986465182
 20
-73.12336904563105
 10
-42.59249392715182
 20
-73.13184560813104
 10
-42.648704864651826
 20
-73.14274404563105
 10
-42.702962677151824
 20
-73.15606435813105
 10
-42.75526736465182
 20
-73.17180654563104
 10
-42.80561892715182
 20
-73.18997060813105
 10
-42.854017364651824
 20
-73.21055654563105
 10
-42.90046267715182
 20
-73.23356435813105
 10
-42.94493142715182
 20
-73.25891592063104
 10
-42.98771267715182
 20
-73.28684560813105
 10
-43.02880642715182
 20
-73.31735342063105
 10
-43.06821267715182
 20
-73.35043935813104
 10
-43.10593142715182
 20
-73.38610342063104
 10
-43.141962677151824
 20
-73.42434560813105
 10
-43.17630642715182
 20
-73.46516592063105
 10
-43.208962677151824
 20
-73.50856435813104
 10
-43.239931427151824
 20
-73.55454092063104
 10
-43.26921267715183
 20
-73.60309560813104
 10
-43.26921267715183
 20
-73.17809560813104
 10
-43.72077517715182
 20
-73.17809560813104
 10
-43.72077517715182
 20
-75.91247060813104
 10
-43.26921267715183
 20
-75.91247060813104
 10
-43.26921267715183
 20
-74.47184560813105
 10
-43.267173614651824
 20
-74.38119717063104
 10
-43.26105642715182
 20
-74.29487685813105
 10
-43.250861114651826
 20
-74.21288467063104
 10
-43.236587677151824
 20
-74.13522060813105
 10
-43.21823611465182
 20
-74.06188467063104
 10
-43.19580642715182
 20
-73.99287685813104
 10
-43.16929861465182
 20
-73.92819717063105
 10
-43.13871267715182
 20
-73.86784560813105
 10
-43.10404861465182
 20
-73.81182217063105
 10
-43.065306427151825
 20
-73.76012685813104
 10
-43.022751739651824
 20
-73.71307217063105
 10
-42.976650177151825
 20
-73.67097060813104
 10
-42.92700173965183
 20
-73.63382217063105
 10
-42.87380642715182
 20
-73.60162685813104
 10
-42.81706423965183
 20
-73.57438467063105
 10
-42.75677517715182
 20
-73.55209560813104
 10
-42.69293923965182
 20
-73.53475967063105
 10
-42.62555642715182
 20
-73.52237685813104
 10
-42.55462673965182
 20
-73.51494717063105
 10
-42.48015017715183
 20
-73.51247060813104
 10
-42.45892361465182
 20
-73.51268154563104
 10
-42.43805642715182
 20
-73.51331435813104
 10
-42.41754861465182
 20
-73.51436904563104
 10
-42.39740017715182
 20
-73.51584560813104
 10
-42.37761111465183
 20
-73.51774404563105
 10
-42.35818142715182
 20
-73.52006435813104
 10
-42.33911111465183
 20
-73.52280654563104
 10
-42.320400177151825
 20
-73.52597060813105
 10
-42.302048614651824
 20
-73.52955654563104
 10
-42.284056427151825
 20
-73.53356435813104
 10
-42.266376739651825
 20
-73.53786123313104
 10
-42.24896267715182
 20
-73.54262685813104
 10
-42.231814239651825
 20
-73.54786123313104
 10
-42.214931427151825
 20
-73.55356435813104
 10
-42.19831423965182
 20
-73.55973623313105
 10
-42.18196267715182
 20
-73.56637685813105
 10
-42.16587673965182
 20
-73.57348623313105
 10
-42.150056427151824
 20
-73.58106435813104
 10
-42.134501739651824
 20
-73.58911123313105
 10
-42.11921267715182
 20
-73.59762685813105
  0
LWPOLYLINE
  5
40
330
17
100
AcDbEntity
  8
0
100
AcDbPolyline
 90
124
 70
0
 10
-44.440697052151826
 20
-74.43278310813105
 10
-44.44390798965183
 20
-74.31330654563105
 10
-44.45354080215182
 20
-74.19893935813104
 10
-44.46959548965182
 20
-74.08968154563104
 10
-44.492072052151826
 20
-73.98553310813105
 10
-44.52097048965182
 20
-73.88649404563104
 10
-44.55629080215182
 20
-73.79256435813105
 10
-44.59803298965183
 20
-73.70374404563104
 10
-44.64619705215182
 20
-73.62003310813104
 10
-44.70078298965182
 20
-73.54143154563104
 10
-44.76179080215182
 20
-73.46793935813105
 10
-44.828314239651824
 20
-73.40040029563104
 10
-44.89944705215183
 20
-73.33997060813104
 10
-44.975189239651826
 20
-73.28665029563105
 10
-45.055540802151825
 20
-73.24043935813104
 10
-45.140501739651825
 20
-73.20133779563105
 10
-45.230072052151826
 20
-73.16934560813104
 10
-45.32425173965182
 20
-73.14446279563104
 10
-45.423040802151824
 20
-73.12668935813105
 10
-45.52643923965182
 20
-73.11602529563105
 10
-45.63444705215183
 20
-73.11247060813105
 10
-45.755040802151825
 20
-73.11641592063104
 10
-45.87057205215182
 20
-73.12825185813105
 10
-45.981040802151824
 20
-73.14797842063105
 10
-46.086447052151826
 20
-73.17559560813105
 10
-46.18679080215182
 20
-73.21110342063105
 10
-46.282072052151825
 20
-73.25450185813105
 10
-46.372290802151824
 20
-73.30579092063104
 10
-46.45744705215182
 20
-73.36497060813105
 10
-46.537540802151824
 20
-73.43204092063104
 10
-46.612572052151826
 20
-73.50700185813105
 10
-46.681447052151825
 20
-73.58852529563104
 10
-46.743072052151824
 20
-73.67559560813105
 10
-46.797447052151824
 20
-73.76821279563104
 10
-46.844572052151825
 20
-73.86637685813105
 10
-46.88444705215183
 20
-73.97008779563104
 10
-46.91707205215182
 20
-74.07934560813105
 10
-46.94244705215183
 20
-74.19415029563105
 10
-46.960572052151825
 20
-74.31450185813104
 10
-46.971447052151824
 20
-74.44040029563105
 10
-46.97507205215182
 20
-74.57184560813104
 10
-46.97125173965183
 20
-74.69915810813104
 10
-46.95979080215182
 20
-74.82109560813105
 10
-46.940689239651824
 20
-74.93765810813105
 10
-46.913947052151826
 20
-75.04884560813105
 10
-46.87956423965183
 20
-75.15465810813104
 10
-46.83754080215182
 20
-75.25509560813104
 10
-46.78787673965182
 20
-75.35015810813104
 10
-46.73057205215182
 20
-75.43984560813105
 10
-46.66562673965183
 20
-75.52415810813105
 10
-46.593040802151826
 20
-75.60309560813104
 10
-46.51390798965183
 20
-75.67538467063105
 10
-46.429322052151825
 20
-75.74006435813105
 10
-46.33928298965182
 20
-75.79713467063104
 10
-46.24379080215182
 20
-75.84659560813104
 10
-46.142845489651826
 20
-75.88844717063104
 10
-46.03644705215182
 20
-75.92268935813105
 10
-45.92459548965182
 20
-75.94932217063105
 10
-45.80729080215182
 20
-75.96834560813105
 10
-45.68453298965182
 20
-75.97975967063104
 10
-45.55632205215183
 20
-75.98356435813105
 10
-45.504204864651825
 20
-75.98302529563105
 10
-45.45222830215182
 20
-75.98140810813105
 10
-45.40039236465182
 20
-75.97871279563104
 10
-45.34869705215182
 20
-75.97493935813104
 10
-45.29714236465182
 20
-75.97008779563104
 10
-45.245728302151825
 20
-75.96415810813104
 10
-45.194454864651824
 20
-75.95715029563104
 10
-45.14332205215182
 20
-75.94906435813104
 10
-45.09232986465182
 20
-75.93990029563105
 10
-45.04147830215182
 20
-75.92965810813105
 10
-44.990814239651826
 20
-75.91839248313104
 10
-44.940384552151826
 20
-75.90615810813104
 10
-44.890189239651825
 20
-75.89295498313105
 10
-44.84022830215182
 20
-75.87878310813105
 10
-44.79050173965182
 20
-75.86364248313104
 10
-44.74100955215182
 20
-75.84753310813105
 10
-44.69175173965182
 20
-75.83045498313105
 10
-44.64272830215182
 20
-75.81240810813104
 10
-44.59393923965182
 20
-75.79339248313104
 10
-44.54538455215182
 20
-75.77340810813105
 10
-44.54538455215182
 20
-75.34840810813104
 10
-44.593384552151825
 20
-75.37323623313104
 10
-44.64144705215182
 20
-75.39678310813105
 10
-44.689572052151824
 20
-75.41904873313105
 10
-44.73775955215182
 20
-75.44003310813105
 10
-44.786009552151825
 20
-75.45973623313104
 10
-44.834322052151826
 20
-75.47815810813104
 10
-44.882697052151826
 20
-75.49529873313105
 10
-44.931134552151825
 20
-75.51115810813104
 10
-44.97963455215182
 20
-75.52573623313104
 10
-45.028197052151825
 20
-75.53903310813105
 10
-45.07694705215182
 20
-75.55105654563104
 10
-45.12600955215183
 20
-75.56181435813104
 10
-45.175384552151826
 20
-75.57130654563105
 10
-45.22507205215182
 20
-75.57953310813105
 10
-45.27507205215183
 20
-75.58649404563104
 10
-45.325384552151824
 20
-75.59218935813105
 10
-45.37600955215183
 20
-75.59661904563104
 10
-45.42694705215182
 20
-75.59978310813105
 10
-45.47819705215183
 20
-75.60168154563104
 10
-45.52975955215182
 20
-75.60231435813104
 10
-45.617165802151824
 20
-75.59988467063104
 10
-45.700634552151826
 20
-75.59259560813105
 10
-45.78016580215182
 20
-75.58044717063105
 10
-45.855759552151824
 20
-75.56343935813105
 10
-45.92741580215183
 20
-75.54157217063104
 10
-45.995134552151825
 20
-75.51484560813104
 10
-46.05891580215182
 20
-75.48325967063104
 10
-46.11875955215182
 20
-75.44681435813105
 10
-46.17466580215182
 20
-75.40550967063105
 10
-46.22663455215182
 20
-75.35934560813105
 10
-46.274431427151825
 20
-75.30854092063105
 10
-46.317822052151826
 20
-75.25331435813105
 10
-46.356806427151824
 20
-75.19366592063105
 10
-46.39138455215182
 20
-75.12959560813104
 10
-46.42155642715183
 20
-75.06110342063104
 10
-46.447322052151826
 20
-74.98818935813104
 10
-46.46868142715182
 20
-74.91085342063104
 10
-46.48563455215182
 20
-74.82909560813104
 10
-46.49818142715182
 20
-74.74291592063105
 10
-46.50632205215182
 20
-74.65231435813105
 10
-44.440697052151826
 20
-74.65231435813105
 10
-44.440697052151826
 20
-74.43278310813105
  0
LWPOLYLINE
  5
41
330
17
100
AcDbEntity
  8
0
100
AcDbPolyline
 90
147
 70
0
 10
-50.66364627090182
 20
-74.35231435813104
 10
-50.66657595840182
 20
-74.23049404563105
 10
-50.67536502090182
 20
-74.11503310813104
 10
-50.69001345840182
 20
-74.00593154563104
 10
-50.71052127090182
 20
-73.90318935813104
 10
-50.73688845840182
 20
-73.80680654563105
 10
-50.76911502090182
 20
-73.71678310813104
 10
-50.80720095840182
 20
-73.63311904563105
 10
-50.85114627090182
 20
-73.55581435813104
 10
-50.90095095840182
 20
-73.48486904563104
 10
-50.95661502090182
 20
-73.42028310813104
 10
-51.01821658340182
 20
-73.36179873313104
 10
-51.08583377090182
 20
-73.30947060813105
 10
-51.15946658340182
 20
-73.26329873313105
 10
-51.23911502090183
 20
-73.22328310813104
 10
-51.32477908340182
 20
-73.18942373313105
 10
-51.416458770901826
 20
-73.16172060813105
 10
-51.51415408340183
 20
-73.14017373313105
 10
-51.617865020901824
 20
-73.12478310813104
 10
-51.727591583401825
 20
-73.11554873313105
 10
-51.84333377090182
 20
-73.11247060813105
 10
-51.887365020901825
 20
-73.11294717063105
 10
-51.93164627090182
 20
-73.11437685813104
 10
-51.97617752090183
 20
-73.11675967063104
 10
-52.02095877090183
 20
-73.12009560813104
 10
-52.06599002090182
 20
-73.12438467063104
 10
-52.111271270901824
 20
-73.12962685813105
 10
-52.15680252090183
 20
-73.13582217063104
 10
-52.202583770901825
 20
-73.14297060813104
 10
-52.24861502090182
 20
-73.15107217063104
 10
-52.29489627090182
 20
-73.16012685813105
 10
-52.34144314590183
 20
-73.16998623313104
 10
-52.388271270901825
 20
-73.18081435813104
 10
-52.43538064590182
 20
-73.19261123313105
 10
-52.48277127090182
 20
-73.20537685813105
 10
-52.53044314590183
 20
-73.21911123313104
 10
-52.57839627090183
 20
-73.23381435813104
 10
-52.62663064590183
 20
-73.24948623313105
 10
-52.67514627090183
 20
-73.26612685813105
 10
-52.72394314590183
 20
-73.28373623313104
 10
-52.77302127090182
 20
-73.30231435813104
 10
-52.77302127090182
 20
-73.71793935813105
 10
-52.731911895901824
 20
-73.69600185813104
 10
-52.69045877090183
 20
-73.67518935813105
 10
-52.648661895901824
 20
-73.65550185813105
 10
-52.60652127090182
 20
-73.63693935813104
 10
-52.56403689590182
 20
-73.61950185813104
 10
-52.52120877090182
 20
-73.60318935813105
 10
-52.47803689590182
 20
-73.58800185813105
 10
-52.434521270901826
 20
-73.57393935813104
 10
-52.39066189590182
 20
-73.56100185813105
 10
-52.346458770901826
 20
-73.54918935813104
 10
-52.301810333401825
 20
-73.53850185813104
 10
-52.256927520901826
 20
-73.52893935813104
 10
-52.21181033340182
 20
-73.52050185813104
 10
-52.166458770901826
 20
-73.51318935813104
 10
-52.120872833401826
 20
-73.50700185813105
 10
-52.07505252090182
 20
-73.50193935813104
 10
-52.028997833401824
 20
-73.49800185813105
 10
-51.98270877090182
 20
-73.49518935813104
 10
-51.93618533340182
 20
-73.49350185813104
 10
-51.889427520901826
 20
-73.49293935813104
 10
-51.817325958401824
 20
-73.49463467063104
 10
-51.748521270901826
 20
-73.49972060813104
 10
-51.683013458401824
 20
-73.50819717063105
 10
-51.620802520901826
 20
-73.52006435813104
 10
-51.561888458401825
 20
-73.53532217063105
 10
-51.50627127090183
 20
-73.55397060813104
 10
-51.453950958401826
 20
-73.57600967063104
 10
-51.40492752090182
 20
-73.60143935813105
 10
-51.35920095840182
 20
-73.63025967063105
 10
-51.316771270901825
 20
-73.66247060813104
 10
-51.278029083401826
 20
-73.69778310813105
 10
-51.24336502090183
 20
-73.73590810813104
 10
-51.21277908340183
 20
-73.77684560813104
 10
-51.18627127090183
 20
-73.82059560813104
 10
-51.163841583401826
 20
-73.86715810813105
 10
-51.145490020901825
 20
-73.91653310813105
 10
-51.13121658340182
 20
-73.96872060813105
 10
-51.12102127090182
 20
-74.02372060813104
 10
-51.114904083401825
 20
-74.08153310813104
 10
-51.11286502090182
 20
-74.14215810813104
 10
-51.11286502090182
 20
-74.18668935813105
 10
-51.74333377090183
 20
-74.18668935813105
 10
-51.86280252090182
 20
-74.18903310813104
 10
-51.97620877090182
 20
-74.19606435813104
 10
-52.083552520901826
 20
-74.20778310813104
 10
-52.184833770901825
 20
-74.22418935813104
 10
-52.280052520901826
 20
-74.24528310813105
 10
-52.36920877090182
 20
-74.27106435813104
 10
-52.452302520901824
 20
-74.30153310813104
 10
-52.52933377090182
 20
-74.33668935813104
 10
-52.60030252090182
 20
-74.37653310813104
 10
-52.66520877090183
 20
-74.42106435813105
 10
-52.72384158340182
 20
-74.47020498313104
 10
-52.77630252090182
 20
-74.52387685813105
 10
-52.822591583401824
 20
-74.58207998313104
 10
-52.862708770901826
 20
-74.64481435813104
 10
-52.89665408340183
 20
-74.71207998313105
 10
-52.92442752090182
 20
-74.78387685813105
 10
-52.946029083401825
 20
-74.86020498313104
 10
-52.96145877090182
 20
-74.94106435813104
 10
-52.970716583401824
 20
-75.02645498313105
 10
-52.97380252090183
 20
-75.11637685813105
 10
-52.97132595840183
 20
-75.19384560813104
 10
-52.96389627090183
 20
-75.26812685813104
 10
-52.95151345840183
 20
-75.33922060813104
 10
-52.93417752090183
 20
-75.40712685813105
 10
-52.911888458401826
 20
-75.47184560813105
 10
-52.884646270901825
 20
-75.53337685813105
 10
-52.852450958401825
 20
-75.59172060813104
 10
-52.815302520901824
 20
-75.64687685813105
 10
-52.77320095840182
 20
-75.69884560813105
 10
-52.72614627090182
 20
-75.74762685813104
 10
-52.674747833401824
 20
-75.79245498313105
 10
-52.619927520901825
 20
-75.83256435813105
 10
-52.561685333401826
 20
-75.86795498313104
 10
-52.500021270901826
 20
-75.89862685813104
 10
-52.434935333401825
 20
-75.92457998313104
 10
-52.36642752090182
 20
-75.94581435813105
 10
-52.29449783340183
 20
-75.96232998313104
 10
-52.219146270901824
 20
-75.97412685813104
 10
-52.14037283340183
 20
-75.98120498313105
 10
-52.05817752090182
 20
-75.98356435813105
 10
-51.992794708401824
 20
-75.98237685813105
 10
-51.929458770901824
 20
-75.97881435813105
 10
-51.86816970840182
 20
-75.97287685813104
 10
-51.808927520901825
 20
-75.96456435813104
 10
-51.751732208401826
 20
-75.95387685813104
 10
-51.696583770901825
 20
-75.94081435813105
 10
-51.64348220840182
 20
-75.92537685813105
 10
-51.59242752090182
 20
-75.90756435813104
 10
-51.54341970840183
 20
-75.88737685813105
 10
-51.496458770901825
 20
-75.86481435813104
 10
-51.45127908340182
 20
-75.83976748313104
 10
-51.40761502090182
 20
-75.81212685813105
 10
-51.365466583401826
 20
-75.78189248313105
 10
-51.324833770901826
 20
-75.74906435813105
 10
-51.28571658340182
 20
-75.71364248313104
 10
-51.24811502090182
 20
-75.67562685813104
 10
-51.21202908340182
 20
-75.63501748313105
 10
-51.17745877090182
 20
-75.59181435813105
 10
-51.144404083401824
 20
-75.54601748313104
 10
-51.11286502090182
 20
-75.49762685813104
 10
-51.11286502090182
 20
-75.91247060813104
 10
-50.66364627090182
 20
-75.91247060813104
 10
-50.66364627090182
 20
-74.35231435813104
  0
LWPOLYLINE
  5
42
330
17
100
AcDbEntity
  8
0
100
AcDbPolyline
 90
51
 70
0
 10
-48.60124392715183
 20
-76.16637685813104
 10
-47.399681427151826
 20
-73.17809560813104
 10
-47.87546267715182
 20
-73.17809560813104
 10
-48.73015017715183
 20
-75.31637685813105
 10
-49.584837677151825
 20
-73.17809560813104
 10
-50.06061892715182
 20
-73.17809560813104
 10
-48.95515017715182
 20
-75.86872060813104
 10
-49.03561892715182
 20
-76.07340810813105
 10
-49.060251739651825
 20
-76.13647842063105
 10
-49.084462677151826
 20
-76.19475185813104
 10
-49.10825173965182
 20
-76.24822842063105
 10
-49.13161892715183
 20
-76.29690810813105
 10
-49.154564239651826
 20
-76.34079092063105
 10
-49.177087677151825
 20
-76.37987685813104
 10
-49.19918923965182
 20
-76.41416592063105
 10
-49.22086892715183
 20
-76.44365810813105
 10
-49.24212673965182
 20
-76.46835342063105
 10
-49.262962677151826
 20
-76.48825185813105
 10
-49.28425955215182
 20
-76.50502529563104
 10
-49.307212677151824
 20
-76.52003310813105
 10
-49.33182205215182
 20
-76.53327529563104
 10
-49.35808767715182
 20
-76.54475185813105
 10
-49.386009552151826
 20
-76.55446279563104
 10
-49.41558767715183
 20
-76.56240810813104
 10
-49.44682205215182
 20
-76.56858779563105
 10
-49.479712677151824
 20
-76.57300185813105
 10
-49.51425955215182
 20
-76.57565029563105
 10
-49.55046267715183
 20
-76.57653310813104
 10
-49.81452517715182
 20
-76.57653310813104
 10
-49.81452517715182
 20
-76.95231435813105
 10
-49.45515017715182
 20
-76.95231435813105
 10
-49.39590017715182
 20
-76.95082217063104
 10
-49.339087677151824
 20
-76.94634560813104
 10
-49.28471267715182
 20
-76.93888467063104
 10
-49.23277517715182
 20
-76.92843935813104
 10
-49.18327517715183
 20
-76.91500967063105
 10
-49.136212677151825
 20
-76.89859560813105
 10
-49.09158767715182
 20
-76.87919717063104
 10
-49.049400177151824
 20
-76.85681435813105
 10
-49.009650177151826
 20
-76.83144717063105
 10
-48.97233767715183
 20
-76.80309560813104
 10
-48.93600173965182
 20
-76.77000967063104
 10
-48.89949392715182
 20
-76.73012685813104
 10
-48.862814239651826
 20
-76.68344717063104
 10
-48.82596267715182
 20
-76.62997060813105
 10
-48.788939239651825
 20
-76.56969717063104
 10
-48.75174392715182
 20
-76.50262685813105
 10
-48.714376739651826
 20
-76.42875967063104
 10
-48.67683767715182
 20
-76.34809560813105
 10
-48.63912673965182
 20
-76.26063467063105
 10
-48.60124392715183
 20
-76.16637685813104
  0
LWPOLYLINE
  5
43
330
17
100
AcDbEntity
  8
0
100
AcDbPolyline
 90
18
 70
0
 10
-7.48995305255238
 20
14.924833140858281
 10
-7.107075242490154
 20
15.104199322148693
 10
-7.069463335146293
 20
15.090585196177603
 10
-3.549215609887398
 20
7.57621024418269
 10
-3.5226199751511933
 20
7.566583603388604
 10
-2.6961834538984113
 20
7.953743054786304
 10
-2.6865568131043247
 20
7.980338689522508
 10
-6.218803429049607
 20
15.520326658174898
 10
-6.406784209693747
 20
15.921593324549889
 10
-6.423631708963998
 20
15.90940696809103
 10
-6.425123347872169
 20
15.909792994972442
 10
-6.450063543536969
 20
15.96303072033234
 10
-7.267537408826993
 20
15.580069990636126
 10
-7.316302536756552
 20
15.557225065807707
 10
-7.603360944076791
 20
15.082270329581062
 10
-7.603304469635318
 20
15.081027435923692
 10
-7.489891793116068
 20
14.925071097317359
 10
-7.48995305255238
 20
14.924833140858281
  0
LWPOLYLINE
  5
44
330
17
100
AcDbEntity
  8
0
100
AcDbPolyline
 90
48
 70
0
 10
26.3294077742328
 20
16.162302738265378
 10
25.94620663992407
 20
15.943048481006263
 10
12.753915303061552
 20
8.39488178826535
 10
12.746488363105154
 20
8.3675900209557
 10
13.195604136366953
 20
7.582648939759401
 10
13.185100857153685
 20
7.544052552288963
 10
1.1169531627605083
 20
0.6390814487959693
 10
0.9078079474864986
 20
0.7792004764202565
 10
0.8140878657304198
 20
0.9792568047841933
 10
0.6196546472434069
 20
0.6572287254418517
 10
0.6196129830345138
 20
0.6560485653850636
 10
0.84046587658624
 20
0.22368030452345328
 10
1.2379832088487277
 20
-0.043061340068184455
 10
1.237922629841133
 20
-0.044759686280355426
 10
0.9768178514603405
 20
-0.19415468832937452
 10
0.9654972033714853
 20
-0.20600662387478394
 10
0.9684575378682938
 20
-0.20611113511808632
 10
1.0845985129920974
 20
-0.4354990194477203
 10
0.7339315595628668
 20
-0.6466306352688062
 10
0.7276868838108328
 20
-0.6799565845370754
 10
0.748990722886505
 20
-0.8852815165287856
 10
0.8178993066457156
 20
-1.091375920601558
 10
0.8182238104294653
 20
-1.0919148865579096
 10
0.96812710167776
 20
-1.249243522154452
 10
1.3123617603867797
 20
-1.4798671373755243
 10
1.2453860019481795
 20
-0.8343593965621207
 10
11.468063419418387
 20
-7.68314920787121
 10
11.495810987092222
 20
-7.677665369052831
 10
12.003773514461077
 20
-6.919467614337076
 10
11.998289675642699
 20
-6.8917200466632424
 10
1.9079562333223195
 20
-0.13159546771737415
 10
1.913522557594626
 20
-0.002687960776496929
 10
13.665386077929526
 20
6.721316424569751
 10
13.672813017885924
 20
6.7486081918794
 10
13.223697244624127
 20
7.533549273075697
 10
13.234200523837394
 20
7.572145660546135
 10
26.39475154764923
 20
15.102151658706502
 10
26.43334793511967
 20
15.091648379493234
 10
26.642768562710902
 20
14.725633949288735
 10
26.642858382611234
 20
14.72586980243674
 10
26.82590033318674
 20
14.787209562762417
 10
26.82665967807784
 20
14.788191214127401
 10
26.865114211918474
 20
15.34182085472384
 10
26.838430192075048
 20
15.388457790416435
 10
26.390030823362693
 20
16.173018688074762
 10
26.33719593528367
 20
16.142822013062858
 10
26.335751554748157
 20
16.143372472452594
 10
26.3294077742328
 20
16.162302738265378
  0
LWPOLYLINE
  5
45
330
17
100
AcDbEntity
  8
0
100
AcDbPolyline
 90
23
 70
0
 10
-0.05604400323666806
 20
1.2958954080077212
 10
-0.4906056860273902
 20
1.0472544451738552
 10
-3.532246615945279
 20
7.539987968652397
 10
-3.558842250681484
 20
7.5496146094464835
 10
-4.385278771934265
 20
7.162455158048783
 10
-4.394905412728352
 20
7.135859523312579
 10
-1.359939631727437
 20
0.6573748754068043
 10
-1.4763464930676118
 20
0.47893567557525846
 10
-1.4574578707190688
 20
0.39409070586466605
 10
-1.3564416122516592
 20
0.1784598464438492
 10
-1.3564385309672597
 20
0.1784682752163965
 10
-1.1794887512085002
 20
0.259994051380605
 10
-1.1781550742674696
 20
0.25948875441125374
 10
-1.1545462363937617
 20
0.20586466035353032
 10
-0.31885337204819014
 20
0.5737913860770684
 10
-0.2951473612708376
 20
0.5849798828562212
 10
-0.2950771144884747
 20
0.5850153200702747
 10
-0.27199071710990946
 20
0.597432069369591
 10
-0.24375531460478267
 20
0.6135873770178555
 10
-0.015603637635482562
 20
0.8964187374878205
 10
-0.015308347071978475
 20
0.8973518225431104
 10
-0.03920364242111955
 20
1.259947714728047
 10
-0.05604400323666806
 20
1.2958954080077212
  0
LWPOLYLINE
  5
46
330
17
100
AcDbEntity
  8
0
100
AcDbPolyline
 90
46
 70
0
 10
-1.256502312750162
 20
-0.03487211979973143
 10
-1.1263772055588517
 20
-0.31263917553502857
 10
-1.1081928178341858
 20
-0.48789905032965347
 10
-10.233154945153192
 20
-4.50530494266701
 10
-10.270438355464574
 20
-4.490815383820959
 10
-10.634836560631248
 20
-3.6631370484675085
 10
-10.661199912888186
 20
-3.652891383151064
 10
-20.901936833833425
 20
-8.161534408080499
 10
-21.307487789153736
 20
-8.340084496816655
 10
-21.295698560857524
 20
-8.35721224084748
 10
-21.296119348303673
 20
-8.358694449102728
 10
-21.349925488118153
 20
-8.38238343544183
 10
-20.986177279336818
 20
-9.208585396926791
 10
-20.964478447469514
 20
-9.25787118585728
 10
-20.49636326980378
 20
-9.555952904676385
 10
-20.49511939567431
 20
-9.55592549744996
 10
-20.336554723407055
 20
-9.446189179334425
 10
-20.33631826385925
 20
-9.446255984102233
 10
-20.50668593373117
 20
-9.059290221378074
 10
-20.49219637488512
 20
-9.022006811066694
 10
-10.284927914310625
 20
-4.52809879413234
 10
-10.247644503999243
 20
-4.542588352978392
 10
-9.883246298832569
 20
-5.370266688331843
 10
-9.856882946575631
 20
-5.380512353648288
 10
-0.9460082771667178
 20
-1.4573617801695773
 10
-0.7975832670105955
 20
-1.543598377477667
 10
0.3668203749143256
 20
-12.76604037465063
 10
0.3887776355283578
 20
-12.783869527920697
 10
1.2965324632447883
 20
-12.689683874955485
 10
1.3143616165148533
 20
-12.667726614341452
 10
0.15470567283755282
 20
-1.4910426054515886
 10
0.6938628380023837
 20
-1.8522565955521368
 10
0.6511009518079578
 20
-1.4401204855172405
 10
0.582192368076775
 20
-1.2340260815354926
 10
0.5818678642932039
 20
-1.2334871155793317
 10
0.43196457313962
 20
-1.076158480023991
 10
0.23722497676837406
 20
-0.9456906475933943
 10
-0.021893402689898644
 20
-1.1017021611077615
 10
-0.19523300363293883
 20
-0.8335883903992846
 10
-0.3165715317347192
 20
-0.8535471366565092
 10
-0.5563371321845283
 20
-0.9588508114541451
 10
-0.5577339129848538
 20
-0.9580384273635303
 10
-0.6116909398705046
 20
-0.4380043233715144
 10
-0.8575747207133382
 20
-0.057682531465580396
 10
-0.8585578081888544
 20
-0.057111346604910004
 10
-1.256502312750162
 20
-0.03487211979973143
  0
LWPOLYLINE
  5
47
330
17
100
AcDbEntity
  8
0
100
AcDbPolyline
 90
17
 70
0
 10
-30.756913188488365
 20
-12.500340369532575
 10
-41.401715184510564
 20
-17.186879301409615
 10
-41.41196084982701
 20
-17.213242653666555
 10
-41.04422456239792
 20
-18.048502964812023
 10
-41.017861210140985
 20
-18.058748630128466
 10
-30.803010773774467
 20
-13.561502530931703
 10
-30.76572736346309
 20
-13.575992089777754
 10
-30.595810149748328
 20
-13.961934705853489
 10
-30.59569611177854
 20
-13.961709562201284
 10
-30.407234587446105
 20
-13.919886416403779
 10
-30.406376565806497
 20
-13.918989731993117
 10
-30.31012488863277
 20
-13.372436765617538
 10
-30.331775450746207
 20
-13.323260614304129
 10
-30.695501030001275
 20
-12.496035434000937
 10
-30.751209069974273
 20
-12.520529900059055
 10
-30.75258782330696
 20
-12.51983112977296
 10
-30.756913188488365
 20
-12.500340369532575
  0
LWPOLYLINE
  5
48
330
17
100
AcDbEntity
  8
0
100
AcDbPolyline
 90
18
 70
0
 10
23.22043383001131
 20
-15.013800357431936
 10
22.98510107897718
 20
-15.365063991718866
 10
22.94586009244998
 20
-15.372819310949685
 10
11.501294825910604
 20
-7.705412936726667
 10
11.473547258236769
 20
-7.710896775545046
 10
10.965584730867912
 20
-8.4690945302608
 10
10.97106856968629
 20
-8.496842097934636
 10
22.43913198910468
 20
-16.179991305805846
 10
22.807266113966104
 20
-16.426626618707076
 10
22.815404804918117
 20
-16.407492690148338
 10
22.816881611787874
 20
-16.40705332144143
 10
22.865723504396563
 20
-16.439775458987043
 10
23.368177207828083
 20
-15.68980031480113
 10
23.398150299537996
 20
-15.645061717700772
 10
23.398833372774693
 20
-15.090098598445632
 10
23.3981434194296
 20
-15.089063253871512
 10
23.220504197084836
 20
-15.014035781451891
 10
23.22043383001131
 20
-15.013800357431936
  0
LWPOLYLINE
  5
49
330
17
100
AcDbEntity
  8
0
100
AcDbPolyline
 90
18
 70
0
 10
3.6259557823644677
 20
-25.716060865329524
 10
3.580392581974202
 20
-25.276925882257824
 10
2.2660309654593482
 20
-12.609199267916372
 10
2.244073704845316
 20
-12.591370114646306
 10
1.3363188771288859
 20
-12.685555767611518
 10
1.318489723858821
 20
-12.70751302822555
 10
2.6299323276772895
 20
-25.347106399510462
 10
2.6047180973171327
 20
-25.37815865526339
 10
2.18527847096448
 20
-25.42167833026957
 10
2.1854578563863476
 20
-25.421855855458332
 10
2.167537562380747
 20
-25.614068719067294
 10
2.1681282933730612
 20
-25.615160177248505
 10
2.6589192859100965
 20
-25.87421370894013
 10
2.7123635687952725
 20
-25.868668506056586
 10
3.611240941199258
 20
-25.775839282197765
 10
3.604989518695291
 20
-25.71530595004704
 10
3.6060770573161665
 20
-25.71420754191829
 10
3.6259557823644677
 20
-25.716060865329524
  0
LWPOLYLINE
  5
4A
330
17
100
AcDbEntity
  8
0
100
AcDbPolyline
 90
42
 70
0
 10
237.67471623129208
 20
-74.30075185813105
 10
237.67762248129208
 20
-74.22864248313104
 10
237.68446623129208
 20
-74.15950185813105
 10
237.69524748129209
 20
-74.09332998313104
 10
237.70996623129207
 20
-74.03012685813104
 10
237.7286224812921
 20
-73.96989248313105
 10
237.7512162312921
 20
-73.91262685813105
 10
237.77774748129207
 20
-73.85832998313104
 10
237.80821623129208
 20
-73.80700185813104
 10
237.8426224812921
 20
-73.75864248313104
 10
237.8809662312921
 20
-73.71325185813104
 10
237.9225834187921
 20
-73.67139248313104
 10
237.9668099812921
 20
-73.63393935813104
 10
238.0136459187921
 20
-73.60089248313105
 10
238.06309123129208
 20
-73.57225185813104
 10
238.11514591879208
 20
-73.54801748313105
 10
238.16980998129208
 20
-73.52818935813104
 10
238.2270834187921
 20
-73.51276748313104
 10
238.28696623129207
 20
-73.50175185813104
 10
238.3494584187921
 20
-73.49514248313105
 10
238.4145599812921
 20
-73.49293935813104
 10
238.48821623129209
 20
-73.49506435813105
 10
238.5588724812921
 20
-73.50143935813105
 10
238.62652873129207
 20
-73.51206435813104
 10
238.69118498129208
 20
-73.52693935813105
 10
238.75284123129208
 20
-73.54606435813105
 10
238.8114974812921
 20
-73.56943935813105
 10
238.8671537312921
 20
-73.59706435813105
 10
238.91980998129208
 20
-73.62893935813105
 10
238.96946623129207
 20
-73.66506435813105
 10
239.0161224812921
 20
-73.70543935813104
 10
239.05936466879209
 20
-73.74967373313105
 10
239.0987787312921
 20
-73.79737685813105
 10
239.1343646687921
 20
-73.84854873313104
 10
239.1661224812921
 20
-73.90318935813104
 10
239.1940521687921
 20
-73.96129873313104
 10
239.2181537312921
 20
-74.02287685813104
 10
239.2384271687921
 20
-74.08792373313105
 10
239.25487248129207
 20
-74.15643935813104
 10
239.26748966879208
 20
-74.22842373313104
 10
239.27627873129208
 20
-74.30387685813105
 10
237.67471623129208
 20
-74.30075185813105
  0
LWPOLYLINE
  5
4B
330
17
100
AcDbEntity
  8
0
100
AcDbPolyline
 90
5
 70
0
 10
101.39240021457013
 20
-85.864317874853
 10
101.39240021457013
 20
59.039376658590925
 10
266.29609474801407
 20
59.039376658590925
 10
266.29609474801407
 20
-85.864317874853
 10
101.39240021457013
 20
-85.864317874853
  0
LWPOLYLINE
  5
4C
330
17
100
AcDbEntity
  8
0
100
AcDbPolyline
 90
53
 70
0
 10
185.92094385754132
 20
-63.84453047733636
 10
185.95769149257154
 20
-63.862576190967275
 10
185.99624687258387
 20
-63.87953130531028
 10
185.99636454112968
 20
-63.87957723349599
 10
186.03621127022285
 20
-63.89322389640047
 10
186.04244829360033
 20
-63.89507007101887
 10
186.08330305388924
 20
-63.905311252097974
 10
186.08342676322758
 20
-63.90533677237353
 10
186.12499906952
 20
-63.91209965485954
 10
186.14399018531282
 20
-63.91437208746802
 10
186.3420742020291
 20
-63.89825535771624
 10
186.34263032719423
 20
-63.898094562081674
 10
186.51875089098002
 20
-63.806015391427756
 10
186.51888563947878
 20
-63.805905976520336
 10
186.64330819312852
 20
-63.655897837368734
 10
186.64357873648447
 20
-63.65539797065655
 10
186.70112455761054
 20
-63.46919407129227
 10
186.7154677386311
 20
-63.33095548180077
 10
186.2337354438391
 20
-63.422048008771334
 10
186.2272885065528
 20
-63.420205463047814
 10
186.22710279174515
 20
-63.421757514098005
 10
186.20379664690714
 20
-63.41896875518119
 10
186.20473613187806
 20
-63.41820589947545
 10
187.51617873569654
 20
-50.77861252819055
 10
187.54723099144945
 20
-50.7533982978304
 10
188.4467457830514
 20
-50.8467289917712
 10
188.4687030436654
 20
-50.82889983850114
 10
189.7830646601803
 20
-38.16117322415968
 10
189.82862786056876
 20
-37.72203824110528
 10
189.8087491355239
 20
-37.723891564485754
 10
189.80766159690452
 20
-37.72279315635687
 10
189.8139130194093
 20
-37.66225982419309
 10
188.91503564697487
 20
-37.56943060033905
 10
188.86159136405678
 20
-37.56388539746024
 10
188.37080037171015
 20
-37.8229389289463
 10
188.37020964071735
 20
-37.8240303871271
 10
188.38812993458762
 20
-38.01624325095948
 10
188.38795054916636
 20
-38.016420776147505
 10
188.8073901755232
 20
-38.05994045115412
 10
188.83260440588336
 20
-38.090992706907045
 10
187.5220167610893
 20
-50.72234604207746
 10
187.49096450533636
 20
-50.74756027243761
 10
186.59144971373442
 20
-50.65422957849681
 10
186.5694924531204
 20
-50.672058731766874
 10
185.29246297948404
 20
-62.97998072767582
 10
184.81510643791165
 20
-62.74556456886795
 10
184.7962152515991
 20
-62.92763651970776
 10
184.8560094913617
 20
-63.22104447664393
 10
184.85641480458293
 20
-63.22177685569719
 10
185.07327198394134
 20
-63.428263039407796
 10
185.38604620097632
 20
-63.58185752098748
 10
185.7816877505104
 20
-63.36290157163346
 10
185.92094385754132
 20
-63.84453047733636
  0
LWPOLYLINE
  5
4D
330
17
100
AcDbEntity
  8
0
100
AcDbPolyline
 90
37
 70
0
 10
127.8955075725689
 20
38.27949553208771
 10
126.77872410761624
 20
38.27949553208771
 10
126.7294013010597
 20
38.27705439103731
 10
126.72925399852984
 20
38.277039774300235
 10
126.68041329006728
 20
38.269740211700665
 10
126.67294872572563
 20
38.26824407199107
 10
126.62506750128024
 20
38.25615743628244
 10
126.62492594381992
 20
38.25611415615077
 10
126.5784722109769
 20
38.23935858627553
 10
126.57836362648767
 20
38.239313236769995
 10
126.4006270514917
 20
38.11369543300841
 10
126.40020414052931
 20
38.11322845274428
 10
126.29276168783477
 20
37.92395023933293
 10
126.29130062750465
 20
37.919170522952804
 10
126.30459973369135
 20
37.58917921355096
 10
126.30493413741439
 20
37.58833516606453
 10
126.52124743889372
 20
37.33877618283866
 10
126.81682457299627
 20
37.16965730714081
 10
126.75146095474254
 20
37.74760930012109
 10
126.76034275416387
 20
37.76656575827262
 10
126.76798115560032
 20
37.77159048479724
 10
126.76822038957687
 20
37.772373115420244
 10
139.9288383135251
 20
30.242328839346797
 10
139.9338045203634
 20
30.25100851616331
 10
139.93059366902912
 20
30.256544927968914
 10
139.95613008083473
 20
30.24975577930319
 10
140.40935999454848
 20
31.04188734020831
 10
140.4019330545921
 20
31.069179107517957
 10
128.67224488912782
 20
37.78049553208771
 10
129.67703590216075
 20
37.78049553208771
 10
128.92034583446383
 20
38.213447065666884
 10
128.80062389171653
 20
38.26262798316525
 10
128.80025301142683
 20
38.2627265859542
 10
128.67191397346096
 20
38.27949553208771
 10
128.5390482792274
 20
38.27949553208771
 10
128.45408010777544
 20
37.95989990627367
 10
127.8955075725689
 20
38.27949553208771
  0
LWPOLYLINE
  5
4E
330
17
100
AcDbEntity
  8
0
100
AcDbPolyline
 90
45
 70
0
 10
209.75033909522455
 20
38.27949553208771
 10
209.43256944287302
 20
38.27949553208771
 10
209.16456738977263
 20
38.20150895420845
 10
209.1639024027891
 20
38.201086139268675
 10
208.97958798961082
 20
37.99147887820673
 10
208.88074894458208
 20
37.78049553208771
 10
209.43179107840132
 20
37.78049553208771
 10
206.0935505809936
 20
30.65463600877513
 10
206.1031772217877
 20
30.628040374038925
 10
206.92211186414815
 20
30.24439531635655
 10
206.93572599011924
 20
30.20678340901269
 10
203.41899265857566
 20
22.6999103359101
 10
203.3813807512318
 20
22.68629620993901
 10
202.99850294122584
 20
22.865662391203074
 10
202.99856420066186
 20
22.86542443474587
 10
202.8851515240468
 20
22.709468095480265
 10
202.88509504960692
 20
22.708225201823
 10
203.17215345720388
 20
22.233270466114845
 10
203.22091858511882
 20
22.21042554132586
 10
204.03839245018196
 20
21.827464811746726
 10
204.06333264586124
 20
21.88070253713901
 10
204.06482428476932
 20
21.881088564020487
 10
204.08167178404034
 20
21.868902207563657
 10
204.26965256467236
 20
22.270168873912798
 10
207.80189918061762
 20
29.810156842565195
 10
207.79227253982356
 20
29.836752477301403
 10
206.9733378974631
 20
30.22039753498378
 10
206.959723771492
 20
30.258009442327637
 10
210.47712808701166
 20
37.76631480814843
 10
210.49073255923355
 20
37.75914865440376
 10
210.49888855998447
 20
37.751177470342334
 10
210.7823938196529
 20
37.24163423337069
 10
210.92852538940068
 20
37.55361139581839
 10
210.94970876120618
 20
37.92446544894707
 10
210.9493920152821
 20
37.9254088081869
 10
210.7086706183947
 20
38.208344639967116
 10
210.70016922268204
 20
38.2128227489101
 10
210.70015390606702
 20
38.2128309878734
 10
210.69124101156052
 20
38.21772573054994
 10
210.57491701851876
 20
38.263737288645
 10
210.57455741582487
 20
38.26382953664861
 10
210.45044116335683
 20
38.27949553208771
 10
209.83650703724564
 20
38.27949553208771
 10
209.76549848631785
 20
38.2556534281139
 10
209.75033909522455
 20
38.27949553208771
  0
LWPOLYLINE
  5
4F
330
17
100
AcDbEntity
  8
0
100
AcDbPolyline
 90
36
 70
0
 10
243.81573316465608
 20
-21.102772126080804
 10
243.73408645797795
 20
-20.956028720834976
 10
243.63399926728374
 20
-20.829649628210657
 10
243.63364843892006
 20
-20.829330001002884
 10
243.49852013241156
 20
-20.741412644485738
 10
242.8960592941816
 20
-20.476169930309272
 10
243.2978338543063
 20
-21.198278261344228
 10
234.2231246312242
 20
-17.202996988350108
 10
234.19676127896727
 20
-17.21324265366655
 10
233.82902499153818
 20
-18.048502964812027
 10
233.83927065685464
 20
-18.074866317068967
 10
244.05946167301087
 20
-22.57446368922625
 10
244.0544787687986
 20
-22.582314701439884
 10
244.05517569771104
 20
-22.58527591680777
 10
244.0510843536602
 20
-22.602646665394015
 10
243.73856509081688
 20
-22.97840485804567
 10
243.857442691488
 20
-23.030742562765916
 10
244.2040535214611
 20
-23.051470597964855
 10
244.2049575192492
 20
-23.051195639435175
 10
244.29074742292818
 20
-22.98594178310029
 10
244.2922266681253
 20
-22.986251505299784
 10
244.29892590335913
 20
-22.998292022679372
 10
244.33594060486905
 20
-22.951605877411392
 10
244.33611880455183
 20
-22.951431223101736
 10
244.48132587557288
 20
-22.840983245602267
 10
244.48203813090743
 20
-22.839861023481898
 10
244.55187374552227
 20
-22.660872777423343
 10
244.55197330222614
 20
-22.6603208874674
 10
244.54908057485787
 20
-22.46821300780819
 10
244.54831686371125
 20
-22.464604894455597
 10
244.4965490901808
 20
-22.355304773838213
 10
244.4964594566385
 20
-22.35499151182109
 10
244.49226647157684
 20
-22.318703610141082
 10
244.01599327587112
 20
-21.462699082724058
 10
243.63902312040796
 20
-21.29673213374802
 10
243.81573316465608
 20
-21.102772126080804
  0
LWPOLYLINE
  5
50
330
17
100
AcDbEntity
  8
0
100
AcDbPolyline
 90
33
 70
0
 10
111.34424748129209
 20
-73.41247060813104
 10
111.39228428028402
 20
-73.90019641317137
 10
111.53454865001387
 20
-74.36917918904376
 10
111.76557345053573
 20
-74.80139619068005
 10
112.07648052832572
 20
-75.18023756109741
 10
112.45532189874308
 20
-75.4911446388874
 10
112.88753890037935
 20
-75.72216943940926
 10
113.35652167625176
 20
-75.86443380913911
 10
113.84424748129209
 20
-75.91247060813104
 10
114.3319732863324
 20
-75.86443380913911
 10
114.8009560622048
 20
-75.72216943940927
 10
115.2331730638411
 20
-75.4911446388874
 10
115.61201443425846
 20
-75.18023756109741
 10
115.92292151204845
 20
-74.80139619068005
 10
116.1539463125703
 20
-74.36917918904378
 10
116.29621068230016
 20
-73.90019641317137
 10
116.34424748129209
 20
-73.41247060813106
 10
116.29621068230017
 20
-72.92474480309073
 10
116.15394631257031
 20
-72.45576202721833
 10
115.92292151204846
 20
-72.02354502558205
 10
115.61201443425847
 20
-71.64470365516469
 10
115.23317306384111
 20
-71.33379657737468
 10
114.80095606220482
 20
-71.10277177685283
 10
114.33197328633241
 20
-70.96050740712298
 10
113.8442474812921
 20
-70.91247060813104
 10
113.35652167625177
 20
-70.96050740712296
 10
112.88753890037937
 20
-71.10277177685282
 10
112.4553218987431
 20
-71.33379657737468
 10
112.07648052832572
 20
-71.64470365516468
 10
111.76557345053573
 20
-72.02354502558204
 10
111.53454865001387
 20
-72.45576202721831
 10
111.39228428028402
 20
-72.92474480309072
 10
111.34424748129209
 20
-73.41247060813104
  0
LWPOLYLINE
  5
51
330
17
100
AcDbEntity
  8
0
100
AcDbPolyline
 90
33
 70
0
 10
251.3442474812921
 20
-73.41247060813104
 10
251.392284280284
 20
-73.90019641317137
 10
251.53454865001387
 20
-74.36917918904376
 10
251.76557345053573
 20
-74.80139619068005
 10
252.0764805283257
 20
-75.18023756109741
 10
252.45532189874308
 20
-75.4911446388874
 10
252.88753890037935
 20
-75.72216943940926
 10
253.35652167625176
 20
-75.86443380913911
 10
253.8442474812921
 20
-75.91247060813104
 10
254.3319732863324
 20
-75.86443380913911
 10
254.80095606220482
 20
-75.72216943940927
 10
255.2331730638411
 20
-75.4911446388874
 10
255.61201443425844
 20
-75.18023756109741
 10
255.92292151204845
 20
-74.80139619068005
 10
256.15394631257027
 20
-74.36917918904378
 10
256.29621068230017
 20
-73.90019641317137
 10
256.3442474812921
 20
-73.41247060813106
 10
256.29621068230017
 20
-72.92474480309073
 10
256.1539463125703
 20
-72.45576202721833
 10
255.92292151204845
 20
-72.02354502558205
 10
255.61201443425847
 20
-71.64470365516469
 10
255.2331730638411
 20
-71.33379657737468
 10
254.80095606220482
 20
-71.10277177685283
 10
254.3319732863324
 20
-70.96050740712298
 10
253.8442474812921
 20
-70.91247060813104
 10
253.35652167625176
 20
-70.96050740712296
 10
252.88753890037935
 20
-71.10277177685282
 10
252.45532189874308
 20
-71.33379657737468
 10
252.07648052832573
 20
-71.64470365516468
 10
251.76557345053573
 20
-72.02354502558204
 10
251.53454865001387
 20
-72.45576202721831
 10
251.392284280284
 20
-72.92474480309072
 10
251.3442474812921
 20
-73.41247060813104
  0
LWPOLYLINE
  5
52
330
17
100
AcDbEntity
  8
0
100
AcDbPolyline
 90
33
 70
0
 10
111.34424748129209
 20
46.587529391868955
 10
111.39228428028402
 20
46.099803586828635
 10
111.53454865001387
 20
45.63082081095623
 10
111.76557345053573
 20
45.19860380931995
 10
112.07648052832572
 20
44.819762438902586
 10
112.45532189874308
 20
44.508855361112595
 10
112.88753890037935
 20
44.277830560590736
 10
113.35652167625176
 20
44.13556619086088
 10
113.84424748129209
 20
44.087529391868955
 10
114.3319732863324
 20
44.13556619086088
 10
114.8009560622048
 20
44.277830560590736
 10
115.2331730638411
 20
44.50885536111259
 10
115.61201443425846
 20
44.81976243890258
 10
115.92292151204845
 20
45.19860380931994
 10
116.1539463125703
 20
45.63082081095622
 10
116.29621068230016
 20
46.09980358682863
 10
116.34424748129209
 20
46.58752939186895
 10
116.29621068230017
 20
47.07525519690927
 10
116.15394631257031
 20
47.54423797278167
 10
115.92292151204846
 20
47.976454974417955
 10
115.61201443425847
 20
48.35529634483532
 10
115.23317306384111
 20
48.666203422625316
 10
114.80095606220482
 20
48.89722822314717
 10
114.33197328633241
 20
49.03949259287703
 10
113.8442474812921
 20
49.087529391868955
 10
113.35652167625177
 20
49.03949259287703
 10
112.88753890037937
 20
48.897228223147174
 10
112.4553218987431
 20
48.66620342262532
 10
112.07648052832572
 20
48.35529634483533
 10
111.76557345053573
 20
47.97645497441797
 10
111.53454865001387
 20
47.54423797278169
 10
111.39228428028402
 20
47.07525519690928
 10
111.34424748129209
 20
46.587529391868955
  0
LWPOLYLINE
  5
53
330
17
100
AcDbEntity
  8
0
100
AcDbPolyline
 90
33
 70
0
 10
251.3442474812921
 20
46.587529391868955
 10
251.392284280284
 20
46.099803586828635
 10
251.53454865001387
 20
45.63082081095623
 10
251.76557345053573
 20
45.19860380931995
 10
252.0764805283257
 20
44.819762438902586
 10
252.45532189874308
 20
44.508855361112595
 10
252.88753890037935
 20
44.277830560590736
 10
253.35652167625176
 20
44.13556619086088
 10
253.8442474812921
 20
44.087529391868955
 10
254.3319732863324
 20
44.13556619086088
 10
254.80095606220482
 20
44.277830560590736
 10
255.2331730638411
 20
44.50885536111259
 10
255.61201443425844
 20
44.81976243890258
 10
255.92292151204845
 20
45.19860380931994
 10
256.15394631257027
 20
45.63082081095622
 10
256.29621068230017
 20
46.09980358682863
 10
256.3442474812921
 20
46.58752939186895
 10
256.29621068230017
 20
47.07525519690927
 10
256.1539463125703
 20
47.54423797278167
 10
255.92292151204845
 20
47.976454974417955
 10
255.61201443425847
 20
48.35529634483532
 10
255.2331730638411
 20
48.666203422625316
 10
254.80095606220482
 20
48.89722822314717
 10
254.3319732863324
 20
49.03949259287703
 10
253.8442474812921
 20
49.087529391868955
 10
253.35652167625176
 20
49.03949259287703
 10
252.88753890037935
 20
48.897228223147174
 10
252.45532189874308
 20
48.66620342262532
 10
252.07648052832573
 20
48.35529634483533
 10
251.76557345053573
 20
47.97645497441797
 10
251.53454865001387
 20
47.54423797278169
 10
251.392284280284
 20
47.07525519690928
 10
251.3442474812921
 20
46.587529391868955
  0
LWPOLYLINE
  5
54
330
17
100
AcDbEntity
  8
0
100
AcDbPolyline
 90
246
 70
0
 10
231.28555607504208
 20
-73.94684560813104
 10
231.21632951254207
 20
-73.96364248313104
 10
231.15021232504208
 20
-73.98372060813105
 10
231.0872045125421
 20
-74.00707998313105
 10
231.02730607504208
 20
-74.03372060813105
 10
230.97051701254208
 20
-74.06364248313105
 10
230.91683732504208
 20
-74.09684560813105
 10
230.8662670125421
 20
-74.13332998313105
 10
230.8188060750421
 20
-74.17309560813105
 10
230.7744545125421
 20
-74.21614248313105
 10
230.73321232504208
 20
-74.26247060813104
 10
230.69536076254207
 20
-74.31140810813105
 10
230.66149357504207
 20
-74.36259560813104
 10
230.6316107625421
 20
-74.41603310813105
 10
230.60571232504208
 20
-74.47172060813105
 10
230.58379826254208
 20
-74.52965810813104
 10
230.5658685750421
 20
-74.58984560813104
 10
230.5519232625421
 20
-74.65228310813104
 10
230.54196232504208
 20
-74.71697060813105
 10
230.53598576254208
 20
-74.78390810813104
 10
230.53399357504208
 20
-74.85309560813104
 10
230.5377045125421
 20
-74.95847842063104
 10
230.5488373250421
 20
-75.05900185813104
 10
230.5673920125421
 20
-75.15466592063105
 10
230.5933685750421
 20
-75.24547060813104
 10
230.62676701254208
 20
-75.33141592063104
 10
230.6675873250421
 20
-75.41250185813105
 10
230.7158295125421
 20
-75.48872842063105
 10
230.7714935750421
 20
-75.56009560813105
 10
230.8345795125421
 20
-75.62660342063104
 10
230.90508732504208
 20
-75.68825185813104
 10
230.9824310750421
 20
-75.74436123313104
 10
231.06602482504206
 20
-75.79456435813104
 10
231.1558685750421
 20
-75.83886123313104
 10
231.2519623250421
 20
-75.87725185813105
 10
231.35430607504208
 20
-75.90973623313104
 10
231.4628998250421
 20
-75.93631435813104
 10
231.5777435750421
 20
-75.95698623313105
 10
231.6988373250421
 20
-75.97175185813104
 10
231.8261810750421
 20
-75.98061123313104
 10
231.95977482504208
 20
-75.98356435813105
 10
232.00569670004208
 20
-75.98311123313104
 10
232.05189982504209
 20
-75.98175185813105
 10
232.0983842000421
 20
-75.97948623313104
 10
232.1451498250421
 20
-75.97631435813105
 10
232.19219670004208
 20
-75.97223623313104
 10
232.23952482504208
 20
-75.96725185813105
 10
232.2871342000421
 20
-75.96136123313104
 10
232.33502482504207
 20
-75.95456435813105
 10
232.38319670004208
 20
-75.94686123313105
 10
232.4316498250421
 20
-75.93825185813104
 10
232.48039982504207
 20
-75.92873623313105
 10
232.5294623250421
 20
-75.91831435813104
 10
232.5788373250421
 20
-75.90698623313105
 10
232.6285248250421
 20
-75.89475185813104
 10
232.67852482504208
 20
-75.88161123313104
 10
232.7288373250421
 20
-75.86756435813105
 10
232.7794623250421
 20
-75.85261123313104
 10
232.8303998250421
 20
-75.83675185813105
 10
232.88164982504208
 20
-75.81998623313105
 10
232.9332123250421
 20
-75.80231435813104
 10
232.9332123250421
 20
-75.32653310813104
 10
232.89188420004209
 20
-75.34985342063105
 10
232.8497748250421
 20
-75.37200185813104
 10
232.80688420004208
 20
-75.39297842063104
 10
232.7632123250421
 20
-75.41278310813105
 10
232.7187592000421
 20
-75.43141592063104
 10
232.67352482504208
 20
-75.44887685813104
 10
232.62750920004208
 20
-75.46516592063105
 10
232.5807123250421
 20
-75.48028310813105
 10
232.53313420004207
 20
-75.49422842063105
 10
232.48477482504208
 20
-75.50700185813105
 10
232.43564982504208
 20
-75.51857998313105
 10
232.38608732504207
 20
-75.52893935813104
 10
232.3360873250421
 20
-75.53807998313104
 10
232.28564982504207
 20
-75.54600185813105
 10
232.23477482504208
 20
-75.55270498313105
 10
232.1834623250421
 20
-75.55818935813105
 10
232.1317123250421
 20
-75.56245498313105
 10
232.07952482504209
 20
-75.56550185813104
 10
232.02689982504208
 20
-75.56732998313105
 10
231.9738373250421
 20
-75.56793935813104
 10
231.8833842000421
 20
-75.56611123313104
 10
231.7973373250421
 20
-75.56062685813104
 10
231.7156967000421
 20
-75.55148623313104
 10
231.6384623250421
 20
-75.53868935813105
 10
231.5656342000421
 20
-75.52223623313104
 10
231.49721232504209
 20
-75.50212685813105
 10
231.4331967000421
 20
-75.47836123313104
 10
231.37358732504208
 20
-75.45093935813105
 10
231.3183842000421
 20
-75.41986123313104
 10
231.2675873250421
 20
-75.38512685813104
 10
231.2214232625421
 20
-75.34690029563104
 10
231.1801185750421
 20
-75.30534560813105
 10
231.14367326254208
 20
-75.26046279563104
 10
231.11208732504207
 20
-75.21225185813104
 10
231.08536076254208
 20
-75.16071279563104
 10
231.0634935750421
 20
-75.10584560813105
 10
231.0464857625421
 20
-75.04765029563104
 10
231.0343373250421
 20
-74.98612685813104
 10
231.02704826254208
 20
-74.92127529563105
 10
231.0246185750421
 20
-74.85309560813104
 10
231.02687638754207
 20
-74.78997842063104
 10
231.0336498250421
 20
-74.72968935813104
 10
231.0449388875421
 20
-74.67222842063104
 10
231.06074357504207
 20
-74.61759560813104
 10
231.0810638875421
 20
-74.56579092063104
 10
231.1058998250421
 20
-74.51681435813104
 10
231.1352513875421
 20
-74.47066592063105
 10
231.1691185750421
 20
-74.42734560813105
 10
231.2075013875421
 20
-74.38685342063104
 10
231.25039982504208
 20
-74.34918935813104
 10
231.2973217000421
 20
-74.31460342063104
 10
231.34777482504208
 20
-74.28365810813105
 10
231.40175920004208
 20
-74.25635342063104
 10
231.4592748250421
 20
-74.23268935813104
 10
231.52032170004208
 20
-74.21266592063104
 10
231.5848998250421
 20
-74.19628310813104
 10
231.65300920004208
 20
-74.18354092063105
 10
231.7246498250421
 20
-74.17443935813104
 10
231.7998217000421
 20
-74.16897842063105
 10
231.8785248250421
 20
-74.16715810813105
 10
232.30352482504208
 20
-74.16715810813105
 10
232.30352482504208
 20
-73.76168935813105
 10
231.8589935750421
 20
-73.76168935813105
 10
231.78804045004208
 20
-73.76023623313104
 10
231.7204935750421
 20
-73.75587685813105
 10
231.6563529500421
 20
-73.74861123313104
 10
231.59561857504207
 20
-73.73843935813105
 10
231.5382904500421
 20
-73.72536123313104
 10
231.48436857504208
 20
-73.70937685813105
 10
231.43385295004208
 20
-73.69048623313104
 10
231.3867435750421
 20
-73.66868935813105
 10
231.34304045004208
 20
-73.64398623313105
 10
231.3027435750421
 20
-73.61637685813105
 10
231.2660795125421
 20
-73.58603310813105
 10
231.2332748250421
 20
-73.55312685813105
 10
231.20432951254207
 20
-73.51765810813104
 10
231.17924357504208
 20
-73.47962685813104
 10
231.15801701254208
 20
-73.43903310813104
 10
231.1406498250421
 20
-73.39587685813105
 10
231.1271420125421
 20
-73.35015810813104
 10
231.1174935750421
 20
-73.30187685813104
 10
231.11170451254208
 20
-73.25103310813104
 10
231.10977482504208
 20
-73.19762685813104
 10
231.1117670125421
 20
-73.14283779563104
 10
231.11774357504208
 20
-73.09065810813104
 10
231.1277045125421
 20
-73.04108779563104
 10
231.14164982504207
 20
-72.99412685813104
 10
231.15957951254208
 20
-72.94977529563104
 10
231.18149357504208
 20
-72.90803310813105
 10
231.20739201254207
 20
-72.86890029563105
 10
231.23727482504208
 20
-72.83237685813104
 10
231.2711420125421
 20
-72.79846279563104
 10
231.30899357504208
 20
-72.76715810813104
 10
231.35040763754208
 20
-72.73850967063105
 10
231.39527482504207
 20
-72.71287685813104
 10
231.4435951375421
 20
-72.69025967063105
 10
231.49536857504208
 20
-72.67065810813105
 10
231.55059513754208
 20
-72.65407217063104
 10
231.6092748250421
 20
-72.64050185813105
 10
231.67140763754207
 20
-72.62994717063104
 10
231.73699357504208
 20
-72.62240810813104
 10
231.8060326375421
 20
-72.61788467063104
 10
231.8785248250421
 20
-72.61637685813105
 10
231.91943888754207
 20
-72.61682217063104
 10
231.96093107504208
 20
-72.61815810813104
 10
232.0030013875421
 20
-72.62038467063104
 10
232.0456498250421
 20
-72.62350185813105
 10
232.0888763875421
 20
-72.62750967063104
 10
232.1326810750421
 20
-72.63240810813105
 10
232.1770638875421
 20
-72.63819717063105
 10
232.22202482504207
 20
-72.64487685813104
 10
232.26756388754208
 20
-72.65244717063105
 10
232.3136810750421
 20
-72.66090810813104
 10
232.36054826254207
 20
-72.67014248313104
 10
232.40833732504208
 20
-72.68034560813105
 10
232.4570482625421
 20
-72.69151748313105
 10
232.50668107504208
 20
-72.70365810813105
 10
232.5572357625421
 20
-72.71676748313105
 10
232.6087123250421
 20
-72.73084560813105
 10
232.66111076254208
 20
-72.74589248313104
 10
232.71443107504209
 20
-72.76190810813104
 10
232.76867326254208
 20
-72.77889248313105
 10
232.8238373250421
 20
-72.79684560813105
 10
232.8238373250421
 20
-72.35778310813104
 10
232.7679467000421
 20
-72.34254873313104
 10
232.7127748250421
 20
-72.32809560813105
 10
232.65832170004208
 20
-72.31442373313105
 10
232.60458732504208
 20
-72.30153310813104
 10
232.55157170004208
 20
-72.28942373313104
 10
232.49927482504208
 20
-72.27809560813104
 10
232.4476967000421
 20
-72.26754873313105
 10
232.3968373250421
 20
-72.25778310813105
 10
232.3466967000421
 20
-72.24879873313104
 10
232.29727482504208
 20
-72.24059560813104
 10
232.2484935750421
 20
-72.23317373313104
 10
232.20027482504207
 20
-72.22653310813105
 10
232.15261857504208
 20
-72.22067373313105
 10
232.1055248250421
 20
-72.21559560813104
 10
232.05899357504208
 20
-72.21129873313104
 10
232.0130248250421
 20
-72.20778310813104
 10
231.96761857504208
 20
-72.20504873313105
 10
231.9227748250421
 20
-72.20309560813105
 10
231.87849357504209
 20
-72.20192373313104
 10
231.83477482504208
 20
-72.20153310813104
 10
231.7247826375421
 20
-72.20408779563104
 10
231.6194935750421
 20
-72.21175185813104
 10
231.5189076375421
 20
-72.22452529563104
 10
231.4230248250421
 20
-72.24240810813104
 10
231.33184513754208
 20
-72.26540029563104
 10
231.24536857504208
 20
-72.29350185813105
 10
231.16359513754207
 20
-72.32671279563104
 10
231.0865248250421
 20
-72.36503310813104
 10
231.0141576375421
 20
-72.40846279563104
 10
230.9464935750421
 20
-72.45700185813105
 10
230.88429826254207
 20
-72.50973623313105
 10
230.82864982504208
 20
-72.56606435813104
 10
230.77954826254208
 20
-72.62598623313104
 10
230.73699357504208
 20
-72.68950185813104
 10
230.70098576254208
 20
-72.75661123313104
 10
230.67152482504207
 20
-72.82731435813105
 10
230.6486107625421
 20
-72.90161123313105
 10
230.63224357504208
 20
-72.97950185813104
 10
230.6224232625421
 20
-73.06098623313105
 10
230.6191498250421
 20
-73.14606435813104
 10
230.6208842000421
 20
-73.20574404563105
 10
230.62608732504208
 20
-73.26353310813104
 10
230.63475920004208
 20
-73.31943154563105
 10
230.64689982504208
 20
-73.37343935813105
 10
230.66250920004208
 20
-73.42555654563104
 10
230.68158732504207
 20
-73.47578310813104
 10
230.7041342000421
 20
-73.52411904563104
 10
230.73014982504208
 20
-73.57056435813105
 10
230.7596342000421
 20
-73.61511904563105
 10
230.7925873250421
 20
-73.65778310813104
 10
230.82873576254207
 20
-73.69822060813104
 10
230.8678060750421
 20
-73.73609560813104
 10
230.9097982625421
 20
-73.77140810813104
 10
230.9547123250421
 20
-73.80415810813105
 10
231.0025482625421
 20
-73.83434560813104
 10
231.0533060750421
 20
-73.86197060813105
 10
231.10698576254208
 20
-73.88703310813105
 10
231.1635873250421
 20
-73.90953310813104
 10
231.2231107625421
 20
-73.92947060813104
 10
231.28555607504208
 20
-73.94684560813104
  0
LWPOLYLINE
  5
55
330
17
100
AcDbEntity
  8
0
100
AcDbPolyline
 90
7
 70
0
 10
248.3536224812921
 20
-72.26715810813104
 10
247.86065373129208
 20
-72.26715810813104
 10
247.86065373129208
 20
-75.49762685813104
 10
246.0856537312921
 20
-75.49762685813104
 10
246.0856537312921
 20
-75.91247060813104
 10
248.3536224812921
 20
-75.91247060813104
 10
248.3536224812921
 20
-72.26715810813104
  0
LWPOLYLINE
  5
56
330
17
100
AcDbEntity
  8
0
100
AcDbPolyline
 90
87
 70
0
 10
234.9040131062921
 20
-73.59762685813105
 10
234.9193021687921
 20
-73.58911123313105
 10
234.93485685629207
 20
-73.58106435813104
 10
234.95067716879208
 20
-73.57348623313105
 10
234.9667631062921
 20
-73.56637685813105
 10
234.9831146687921
 20
-73.55973623313105
 10
234.9997318562921
 20
-73.55356435813104
 10
235.0166146687921
 20
-73.54786123313104
 10
235.0337631062921
 20
-73.54262685813104
 10
235.0511771687921
 20
-73.53786123313104
 10
235.0688568562921
 20
-73.53356435813104
 10
235.08684904379209
 20
-73.52955654563104
 10
235.1052006062921
 20
-73.52597060813105
 10
235.12391154379208
 20
-73.52280654563104
 10
235.14298185629207
 20
-73.52006435813104
 10
235.16241154379208
 20
-73.51774404563105
 10
235.1822006062921
 20
-73.51584560813104
 10
235.20234904379208
 20
-73.51436904563104
 10
235.22285685629208
 20
-73.51331435813104
 10
235.2437240437921
 20
-73.51268154563104
 10
235.26495060629208
 20
-73.51247060813104
 10
235.3394271687921
 20
-73.51494717063105
 10
235.41035685629208
 20
-73.52237685813104
 10
235.47773966879208
 20
-73.53475967063105
 10
235.5415756062921
 20
-73.55209560813104
 10
235.60186466879208
 20
-73.57438467063105
 10
235.65860685629207
 20
-73.60162685813104
 10
235.71180216879208
 20
-73.63382217063105
 10
235.7614506062921
 20
-73.67097060813104
 10
235.80755216879209
 20
-73.71307217063105
 10
235.8501068562921
 20
-73.76012685813104
 10
235.88884904379208
 20
-73.81182217063105
 10
235.9235131062921
 20
-73.86784560813105
 10
235.9540990437921
 20
-73.92819717063105
 10
235.98060685629207
 20
-73.99287685813104
 10
236.0030365437921
 20
-74.06188467063104
 10
236.02138810629208
 20
-74.13522060813105
 10
236.0356615437921
 20
-74.21288467063104
 10
236.0458568562921
 20
-74.29487685813105
 10
236.0519740437921
 20
-74.38119717063104
 10
236.05401310629208
 20
-74.47184560813105
 10
236.05401310629208
 20
-75.91247060813104
 10
236.5055756062921
 20
-75.91247060813104
 10
236.5055756062921
 20
-73.17809560813104
 10
236.05401310629208
 20
-73.17809560813104
 10
236.05401310629208
 20
-73.60309560813104
 10
236.02473185629208
 20
-73.55454092063104
 10
235.99376310629208
 20
-73.50856435813104
 10
235.96110685629208
 20
-73.46516592063105
 10
235.92676310629207
 20
-73.42434560813105
 10
235.8907318562921
 20
-73.38610342063104
 10
235.85301310629208
 20
-73.35043935813104
 10
235.8136068562921
 20
-73.31735342063105
 10
235.77251310629208
 20
-73.28684560813105
 10
235.7297318562921
 20
-73.25891592063104
 10
235.6852631062921
 20
-73.23356435813105
 10
235.6388177937921
 20
-73.21055654563105
 10
235.59041935629207
 20
-73.18997060813105
 10
235.54006779379208
 20
-73.17180654563104
 10
235.48776310629208
 20
-73.15606435813105
 10
235.43350529379208
 20
-73.14274404563105
 10
235.37729435629208
 20
-73.13184560813104
 10
235.31913029379209
 20
-73.12336904563105
 10
235.2590131062921
 20
-73.11731435813104
 10
235.1969427937921
 20
-73.11368154563104
 10
235.1329193562921
 20
-73.11247060813105
 10
235.12359904379207
 20
-73.11253310813105
 10
235.1140756062921
 20
-73.11272060813104
 10
235.10434904379207
 20
-73.11303310813105
 10
235.0944193562921
 20
-73.11347060813104
 10
235.08428654379208
 20
-73.11403310813104
 10
235.0739506062921
 20
-73.11472060813105
 10
235.06341154379209
 20
-73.11553310813105
 10
235.05266935629209
 20
-73.11647060813104
 10
235.0417240437921
 20
-73.11753310813104
 10
235.03057560629208
 20
-73.11872060813104
 10
235.0192084187921
 20
-73.11988467063104
 10
235.00760685629209
 20
-73.12118935813105
 10
234.9957709187921
 20
-73.12263467063104
 10
234.98370060629208
 20
-73.12422060813104
 10
234.9713959187921
 20
-73.12594717063105
 10
234.95885685629207
 20
-73.12781435813105
 10
234.94608341879209
 20
-73.12982217063104
 10
234.93307560629208
 20
-73.13197060813104
 10
234.91983341879208
 20
-73.13425967063104
 10
234.9063568562921
 20
-73.13668935813105
 10
234.9040131062921
 20
-73.59762685813105
  0
LWPOLYLINE
  5
57
330
17
100
AcDbEntity
  8
0
100
AcDbPolyline
 90
124
 70
0
 10
237.22549748129208
 20
-74.43278310813105
 10
237.22549748129208
 20
-74.65231435813105
 10
239.2911224812921
 20
-74.65231435813105
 10
239.28298185629208
 20
-74.74291592063105
 10
239.27043498129208
 20
-74.82909560813104
 10
239.25348185629207
 20
-74.91085342063104
 10
239.2321224812921
 20
-74.98818935813104
 10
239.20635685629208
 20
-75.06110342063104
 10
239.17618498129207
 20
-75.12959560813104
 10
239.14160685629207
 20
-75.19366592063105
 10
239.1026224812921
 20
-75.25331435813105
 10
239.0592318562921
 20
-75.30854092063105
 10
239.0114349812921
 20
-75.35934560813105
 10
238.95946623129208
 20
-75.40550967063105
 10
238.9035599812921
 20
-75.44681435813105
 10
238.8437162312921
 20
-75.48325967063104
 10
238.7799349812921
 20
-75.51484560813104
 10
238.71221623129208
 20
-75.54157217063104
 10
238.64055998129209
 20
-75.56343935813105
 10
238.5649662312921
 20
-75.58044717063105
 10
238.4854349812921
 20
-75.59259560813105
 10
238.40196623129208
 20
-75.59988467063104
 10
238.3145599812921
 20
-75.60231435813104
 10
238.26299748129208
 20
-75.60168154563104
 10
238.2117474812921
 20
-75.59978310813105
 10
238.1608099812921
 20
-75.59661904563104
 10
238.1101849812921
 20
-75.59218935813105
 10
238.05987248129208
 20
-75.58649404563104
 10
238.0098724812921
 20
-75.57953310813105
 10
237.9601849812921
 20
-75.57130654563105
 10
237.9108099812921
 20
-75.56181435813104
 10
237.86174748129207
 20
-75.55105654563104
 10
237.8129974812921
 20
-75.53903310813105
 10
237.76443498129208
 20
-75.52573623313104
 10
237.7159349812921
 20
-75.51115810813104
 10
237.6674974812921
 20
-75.49529873313105
 10
237.6191224812921
 20
-75.47815810813104
 10
237.5708099812921
 20
-75.45973623313104
 10
237.5225599812921
 20
-75.44003310813105
 10
237.47437248129208
 20
-75.41904873313105
 10
237.42624748129208
 20
-75.39678310813105
 10
237.3781849812921
 20
-75.37323623313104
 10
237.3301849812921
 20
-75.34840810813104
 10
237.3301849812921
 20
-75.77340810813105
 10
237.3787396687921
 20
-75.79339248313104
 10
237.42752873129209
 20
-75.81240810813104
 10
237.47655216879207
 20
-75.83045498313105
 10
237.52580998129207
 20
-75.84753310813105
 10
237.5753021687921
 20
-75.86364248313104
 10
237.62502873129208
 20
-75.87878310813105
 10
237.67498966879208
 20
-75.89295498313105
 10
237.7251849812921
 20
-75.90615810813104
 10
237.7756146687921
 20
-75.91839248313104
 10
237.8262787312921
 20
-75.92965810813105
 10
237.87713029379208
 20
-75.93990029563105
 10
237.92812248129206
 20
-75.94906435813104
 10
237.97925529379208
 20
-75.95715029563104
 10
238.0305287312921
 20
-75.96415810813104
 10
238.08194279379208
 20
-75.97008779563104
 10
238.13349748129207
 20
-75.97493935813104
 10
238.18519279379208
 20
-75.97871279563104
 10
238.23702873129207
 20
-75.98140810813105
 10
238.2890052937921
 20
-75.98302529563105
 10
238.34112248129208
 20
-75.98356435813105
 10
238.46933341879208
 20
-75.97975967063104
 10
238.59209123129207
 20
-75.96834560813105
 10
238.7093959187921
 20
-75.94932217063105
 10
238.8212474812921
 20
-75.92268935813105
 10
238.92764591879208
 20
-75.88844717063104
 10
239.02859123129207
 20
-75.84659560813104
 10
239.12408341879208
 20
-75.79713467063104
 10
239.2141224812921
 20
-75.74006435813105
 10
239.2987084187921
 20
-75.67538467063105
 10
239.37784123129208
 20
-75.60309560813104
 10
239.4504271687921
 20
-75.52415810813105
 10
239.51537248129208
 20
-75.43984560813105
 10
239.5726771687921
 20
-75.35015810813104
 10
239.62234123129207
 20
-75.25509560813104
 10
239.66436466879208
 20
-75.15465810813104
 10
239.6987474812921
 20
-75.04884560813105
 10
239.72548966879208
 20
-74.93765810813105
 10
239.74459123129208
 20
-74.82109560813105
 10
239.75605216879208
 20
-74.69915810813104
 10
239.7598724812921
 20
-74.57184560813104
 10
239.7562474812921
 20
-74.44040029563105
 10
239.7453724812921
 20
-74.31450185813104
 10
239.7272474812921
 20
-74.19415029563105
 10
239.70187248129207
 20
-74.07934560813105
 10
239.66924748129208
 20
-73.97008779563104
 10
239.62937248129208
 20
-73.86637685813105
 10
239.5822474812921
 20
-73.76821279563104
 10
239.5278724812921
 20
-73.67559560813105
 10
239.4662474812921
 20
-73.58852529563104
 10
239.39737248129208
 20
-73.50700185813105
 10
239.32234123129209
 20
-73.43204092063104
 10
239.24224748129208
 20
-73.36497060813105
 10
239.1570912312921
 20
-73.30579092063104
 10
239.06687248129208
 20
-73.25450185813105
 10
238.97159123129208
 20
-73.21110342063105
 10
238.87124748129207
 20
-73.17559560813105
 10
238.7658412312921
 20
-73.14797842063105
 10
238.6553724812921
 20
-73.12825185813105
 10
238.5398412312921
 20
-73.11641592063104
 10
238.41924748129208
 20
-73.11247060813105
 10
238.3112396687921
 20
-73.11602529563105
 10
238.2078412312921
 20
-73.12668935813105
 10
238.1090521687921
 20
-73.14446279563104
 10
238.0148724812921
 20
-73.16934560813104
 10
237.9253021687921
 20
-73.20133779563105
 10
237.8403412312921
 20
-73.24043935813104
 10
237.7599896687921
 20
-73.28665029563105
 10
237.6842474812921
 20
-73.33997060813104
 10
237.6131146687921
 20
-73.40040029563104
 10
237.5465912312921
 20
-73.46793935813105
 10
237.4855834187921
 20
-73.54143154563104
 10
237.43099748129208
 20
-73.62003310813104
 10
237.38283341879207
 20
-73.70374404563104
 10
237.34109123129207
 20
-73.79256435813105
 10
237.3057709187921
 20
-73.88649404563104
 10
237.2768724812921
 20
-73.98553310813105
 10
237.25439591879208
 20
-74.08968154563104
 10
237.23834123129208
 20
-74.19893935813104
 10
237.22870841879208
 20
-74.31330654563105
 10
237.22549748129208
 20
-74.43278310813105
  0
LWPOLYLINE
  5
58
330
17
100
AcDbEntity
  8
0
100
AcDbPolyline
 90
147
 70
0
 10
243.4484467000421
 20
-74.35231435813104
 10
243.4484467000421
 20
-75.91247060813104
 10
243.8976654500421
 20
-75.91247060813104
 10
243.8976654500421
 20
-75.49762685813104
 10
243.92920451254207
 20
-75.54601748313104
 10
243.96225920004207
 20
-75.59181435813105
 10
243.9968295125421
 20
-75.63501748313105
 10
244.03291545004208
 20
-75.67562685813104
 10
244.0705170125421
 20
-75.71364248313104
 10
244.10963420004208
 20
-75.74906435813105
 10
244.1502670125421
 20
-75.78189248313105
 10
244.1924154500421
 20
-75.81212685813105
 10
244.2360795125421
 20
-75.83976748313104
 10
244.2812592000421
 20
-75.86481435813104
 10
244.32822013754208
 20
-75.88737685813105
 10
244.37722795004208
 20
-75.90756435813104
 10
244.42828263754208
 20
-75.92537685813105
 10
244.4813842000421
 20
-75.94081435813105
 10
244.53653263754208
 20
-75.95387685813104
 10
244.59372795004208
 20
-75.96456435813104
 10
244.65297013754207
 20
-75.97287685813104
 10
244.71425920004208
 20
-75.97881435813105
 10
244.77759513754208
 20
-75.98237685813105
 10
244.8429779500421
 20
-75.98356435813105
 10
244.9251732625421
 20
-75.98120498313105
 10
245.0039467000421
 20
-75.97412685813104
 10
245.0792982625421
 20
-75.96232998313104
 10
245.15122795004208
 20
-75.94581435813105
 10
245.2197357625421
 20
-75.92457998313104
 10
245.28482170004207
 20
-75.89862685813104
 10
245.3464857625421
 20
-75.86795498313104
 10
245.4047279500421
 20
-75.83256435813105
 10
245.45954826254209
 20
-75.79245498313105
 10
245.5109467000421
 20
-75.74762685813104
 10
245.55800138754208
 20
-75.69884560813105
 10
245.60010295004207
 20
-75.64687685813105
 10
245.63725138754208
 20
-75.59172060813104
 10
245.6694467000421
 20
-75.53337685813105
 10
245.69668888754208
 20
-75.47184560813105
 10
245.71897795004207
 20
-75.40712685813105
 10
245.73631388754208
 20
-75.33922060813104
 10
245.7486967000421
 20
-75.26812685813104
 10
245.75612638754208
 20
-75.19384560813104
 10
245.75860295004208
 20
-75.11637685813105
 10
245.7555170125421
 20
-75.02645498313105
 10
245.7462592000421
 20
-74.94106435813104
 10
245.73082951254207
 20
-74.86020498313104
 10
245.70922795004208
 20
-74.78387685813105
 10
245.68145451254208
 20
-74.71207998313105
 10
245.6475092000421
 20
-74.64481435813104
 10
245.60739201254208
 20
-74.58207998313104
 10
245.56110295004208
 20
-74.52387685813105
 10
245.50864201254208
 20
-74.47020498313104
 10
245.45000920004208
 20
-74.42106435813105
 10
245.3851029500421
 20
-74.37653310813104
 10
245.31413420004208
 20
-74.33668935813104
 10
245.23710295004207
 20
-74.30153310813104
 10
245.15400920004208
 20
-74.27106435813104
 10
245.06485295004208
 20
-74.24528310813105
 10
244.9696342000421
 20
-74.22418935813104
 10
244.8683529500421
 20
-74.20778310813104
 10
244.76100920004208
 20
-74.19606435813104
 10
244.64760295004209
 20
-74.18903310813104
 10
244.52813420004208
 20
-74.18668935813105
 10
243.8976654500421
 20
-74.18668935813105
 10
243.8976654500421
 20
-74.14215810813104
 10
243.8997045125421
 20
-74.08153310813104
 10
243.90582170004208
 20
-74.02372060813104
 10
243.91601701254208
 20
-73.96872060813105
 10
243.9302904500421
 20
-73.91653310813105
 10
243.94864201254208
 20
-73.86715810813105
 10
243.9710717000421
 20
-73.82059560813104
 10
243.99757951254207
 20
-73.77684560813104
 10
244.02816545004208
 20
-73.73590810813104
 10
244.0628295125421
 20
-73.69778310813105
 10
244.1015717000421
 20
-73.66247060813104
 10
244.1440013875421
 20
-73.63025967063105
 10
244.18972795004208
 20
-73.60143935813105
 10
244.2387513875421
 20
-73.57600967063104
 10
244.2910717000421
 20
-73.55397060813104
 10
244.3466888875421
 20
-73.53532217063105
 10
244.4056029500421
 20
-73.52006435813104
 10
244.4678138875421
 20
-73.50819717063105
 10
244.53332170004208
 20
-73.49972060813104
 10
244.60212638754209
 20
-73.49463467063104
 10
244.67422795004208
 20
-73.49293935813104
 10
244.72098576254209
 20
-73.49350185813104
 10
244.76750920004207
 20
-73.49518935813104
 10
244.8137982625421
 20
-73.49800185813105
 10
244.85985295004207
 20
-73.50193935813104
 10
244.90567326254208
 20
-73.50700185813105
 10
244.9512592000421
 20
-73.51318935813104
 10
244.99661076254208
 20
-73.52050185813104
 10
245.0417279500421
 20
-73.52893935813104
 10
245.08661076254208
 20
-73.53850185813104
 10
245.13125920004208
 20
-73.54918935813104
 10
245.17546232504208
 20
-73.56100185813105
 10
245.2193217000421
 20
-73.57393935813104
 10
245.26283732504209
 20
-73.58800185813105
 10
245.30600920004207
 20
-73.60318935813105
 10
245.3488373250421
 20
-73.61950185813104
 10
245.39132170004208
 20
-73.63693935813104
 10
245.4334623250421
 20
-73.65550185813105
 10
245.4752592000421
 20
-73.67518935813105
 10
245.51671232504208
 20
-73.69600185813104
 10
245.5578217000421
 20
-73.71793935813105
 10
245.5578217000421
 20
-73.30231435813104
 10
245.5087435750421
 20
-73.28373623313104
 10
245.45994670004208
 20
-73.26612685813105
 10
245.4114310750421
 20
-73.24948623313105
 10
245.3631967000421
 20
-73.23381435813104
 10
245.31524357504208
 20
-73.21911123313104
 10
245.26757170004208
 20
-73.20537685813105
 10
245.2201810750421
 20
-73.19261123313105
 10
245.1730717000421
 20
-73.18081435813104
 10
245.12624357504208
 20
-73.16998623313104
 10
245.0796967000421
 20
-73.16012685813105
 10
245.03341545004207
 20
-73.15107217063104
 10
244.98738420004207
 20
-73.14297060813104
 10
244.9416029500421
 20
-73.13582217063104
 10
244.89607170004209
 20
-73.12962685813105
 10
244.8507904500421
 20
-73.12438467063104
 10
244.80575920004208
 20
-73.12009560813104
 10
244.7609779500421
 20
-73.11675967063104
 10
244.71644670004207
 20
-73.11437685813104
 10
244.6721654500421
 20
-73.11294717063105
 10
244.6281342000421
 20
-73.11247060813105
 10
244.51239201254208
 20
-73.11554873313105
 10
244.4026654500421
 20
-73.12478310813104
 10
244.29895451254208
 20
-73.14017373313105
 10
244.2012592000421
 20
-73.16172060813105
 10
244.1095795125421
 20
-73.18942373313105
 10
244.0239154500421
 20
-73.22328310813104
 10
243.94426701254207
 20
-73.26329873313105
 10
243.87063420004208
 20
-73.30947060813105
 10
243.80301701254209
 20
-73.36179873313104
 10
243.7414154500421
 20
-73.42028310813104
 10
243.6857513875421
 20
-73.48486904563104
 10
243.6359467000421
 20
-73.55581435813104
 10
243.5920013875421
 20
-73.63311904563105
 10
243.5539154500421
 20
-73.71678310813104
 10
243.5216888875421
 20
-73.80680654563105
 10
243.4953217000421
 20
-73.90318935813104
 10
243.4748138875421
 20
-74.00593154563104
 10
243.4601654500421
 20
-74.11503310813104
 10
243.4513763875421
 20
-74.23049404563105
 10
243.4484467000421
 20
-74.35231435813104
  0
LWPOLYLINE
  5
59
330
17
100
AcDbEntity
  8
0
100
AcDbPolyline
 90
51
 70
0
 10
241.38604435629208
 20
-76.16637685813104
 10
241.4239271687921
 20
-76.26063467063105
 10
241.46163810629207
 20
-76.34809560813105
 10
241.49917716879207
 20
-76.42875967063104
 10
241.5365443562921
 20
-76.50262685813105
 10
241.5737396687921
 20
-76.56969717063104
 10
241.6107631062921
 20
-76.62997060813105
 10
241.64761466879207
 20
-76.68344717063104
 10
241.68429435629207
 20
-76.73012685813104
 10
241.7208021687921
 20
-76.77000967063104
 10
241.75713810629208
 20
-76.80309560813104
 10
241.7944506062921
 20
-76.83144717063105
 10
241.8342006062921
 20
-76.85681435813105
 10
241.8763881062921
 20
-76.87919717063104
 10
241.9210131062921
 20
-76.89859560813105
 10
241.96807560629208
 20
-76.91500967063105
 10
242.0175756062921
 20
-76.92843935813104
 10
242.06951310629208
 20
-76.93888467063104
 10
242.1238881062921
 20
-76.94634560813104
 10
242.18070060629208
 20
-76.95082217063104
 10
242.2399506062921
 20
-76.95231435813105
 10
242.5993256062921
 20
-76.95231435813105
 10
242.5993256062921
 20
-76.57653310813104
 10
242.33526310629208
 20
-76.57653310813104
 10
242.2990599812921
 20
-76.57565029563105
 10
242.2645131062921
 20
-76.57300185813105
 10
242.23162248129208
 20
-76.56858779563105
 10
242.20038810629208
 20
-76.56240810813104
 10
242.17080998129208
 20
-76.55446279563104
 10
242.14288810629208
 20
-76.54475185813105
 10
242.1166224812921
 20
-76.53327529563104
 10
242.0920131062921
 20
-76.52003310813105
 10
242.06905998129207
 20
-76.50502529563104
 10
242.04776310629208
 20
-76.48825185813105
 10
242.0269271687921
 20
-76.46835342063105
 10
242.0056693562921
 20
-76.44365810813105
 10
241.98398966879208
 20
-76.41416592063105
 10
241.9618881062921
 20
-76.37987685813104
 10
241.93936466879208
 20
-76.34079092063105
 10
241.9164193562921
 20
-76.29690810813105
 10
241.89305216879208
 20
-76.24822842063105
 10
241.8692631062921
 20
-76.19475185813104
 10
241.84505216879208
 20
-76.13647842063105
 10
241.8204193562921
 20
-76.07340810813105
 10
241.7399506062921
 20
-75.86872060813104
 10
242.8454193562921
 20
-73.17809560813104
 10
242.3696381062921
 20
-73.17809560813104
 10
241.51495060629208
 20
-75.31637685813105
 10
240.6602631062921
 20
-73.17809560813104
 10
240.18448185629208
 20
-73.17809560813104
 10
241.38604435629208
 20
-76.16637685813104
  0
LWPOLYLINE
  5
5A
330
17
100
AcDbEntity
  8
0
100
AcDbPolyline
 90
18
 70
0
 10
200.91621349795372
 20
15.111866250724999
 10
200.8968291653896
 20
15.116646017246985
 10
200.89616281343
 20
15.118040727156668
 10
200.92195272433997
 20
15.17316100547095
 10
200.1034553912902
 20
15.556123028739918
 10
200.0547987431434
 20
15.578917134178061
 10
199.50614528724515
 20
15.495467055242782
 10
199.50522879215626
 20
15.494630227412028
 10
199.45901191408328
 20
15.307197780550663
 10
199.4587841663865
 20
15.30708903631702
 10
199.84064963831545
 20
15.128197103521464
 10
199.85426376428654
 20
15.090585196177603
 10
196.33401603902766
 20
7.57621024418269
 10
196.34364267982176
 20
7.549614609446485
 10
197.17007920107451
 20
7.162455158048785
 10
197.19667483581074
 20
7.172081798842871
 10
200.728921451756
 20
14.712069767495262
 10
200.91621349795372
 20
15.111866250724999
  0
LWPOLYLINE
  5
5B
330
17
100
AcDbEntity
  8
0
100
AcDbPolyline
 90
30
 70
0
 10
135.30761503851355
 20
-37.90680575638019
 10
135.10575062229435
 20
-38.04204693641637
 10
134.89320250613565
 20
-38.36300886714465
 10
134.89301025786355
 20
-38.364012163227684
 10
134.97185595645104
 20
-38.74081001151412
 10
134.98193145978198
 20
-38.75547829862354
 10
135.02143763222293
 20
-38.80576308149481
 10
135.0215652983164
 20
-38.80590574287116
 10
135.06717214311635
 20
-38.850731101263285
 10
135.0745984553242
 20
-38.857149190924076
 10
135.12555847696933
 20
-38.895780437878216
 10
135.12571812965618
 20
-38.89588608786312
 10
135.18119609415464
 20
-38.92769005781615
 10
136.13803098477052
 20
-39.397564334457876
 10
136.39159317403383
 20
-39.44758992179787
 10
136.39232795322687
 20
-39.447540691531415
 10
136.6369503494431
 20
-39.36413669593415
 10
136.87595158849555
 20
-39.204015312458296
 10
136.35862159235987
 20
-38.94996933221309
 10
147.35969449146046
 20
-31.57968531483146
 10
147.36517833027887
 20
-31.551937747157623
 10
146.85721580291
 20
-30.793739992441864
 10
146.83253699158234
 20
-30.801242816574185
 10
146.83503416745003
 20
-30.796564005246545
 10
146.82946823523616
 20
-30.788256153623493
 10
135.38248366102414
 20
-38.457283368362376
 10
135.3714189209831
 20
-38.44117491418574
 10
135.37305642647016
 20
-38.44005012764004
 10
135.3669674247624
 20
-38.431605803212236
 10
135.30761503851355
 20
-37.90680575638019
  0
LWPOLYLINE
  5
5C
330
17
100
AcDbEntity
  8
0
100
AcDbPolyline
 90
18
 70
0
 10
189.70326427094233
 20
-25.328685582756975
 10
189.70340030022805
 20
-25.328890209313048
 10
189.6475139639741
 20
-25.513447876166115
 10
189.64786891892223
 20
-25.514640344610324
 10
190.07502075601158
 20
-25.868936602584963
 10
190.12858419270714
 20
-25.874494168467507
 10
191.02649447191186
 20
-25.967658383483382
 10
191.03256176177567
 20
-25.909182262209992
 10
191.03384380743742
 20
-25.908327649837894
 10
191.05375957910994
 20
-25.91430322964799
 10
191.0994903303671
 20
-25.47355340287618
 10
192.41385194688198
 20
-12.805826788534729
 10
192.3960227936119
 20
-12.783869527920697
 10
191.48826796589546
 20
-12.689683874955485
 10
191.46631070528144
 20
-12.70751302822555
 10
190.15486810146297
 20
-25.347106399510462
 10
190.12381584571006
 20
-25.37232062987062
 10
189.70326427094233
 20
-25.328685582756975
  0
LWPOLYLINE
  5
5D
330
17
100
AcDbEntity
  8
0
100
AcDbPolyline
 90
49
 70
0
 10
191.20499942044395
 20
0.328991686400241
 10
191.4193877148301
 20
0.2063350923855493
 10
191.68505434241376
 20
0.14070495363340804
 10
191.68582844852185
 20
0.14073228256934137
 10
191.9462183792022
 20
0.2249424617460569
 10
192.15444507906275
 20
0.36444612034828416
 10
192.2032762141689
 20
0.4077851763944903
 10
192.1980171984455
 20
0.5567494904077842
 10
192.24739288805586
 20
0.5797790262865777
 10
192.33557558482016
 20
0.5818360071420793
 10
192.4933151959478
 20
0.9185494078183506
 10
192.49471732701483
 20
0.9189931772583492
 10
193.02649189014227
 20
0.6147682296178401
 10
193.42522162445835
 20
0.5721114419578804
 10
193.42622427096543
 20
0.5724287464209541
 10
193.72782822609133
 20
0.8367386270698611
 10
193.73072978199036
 20
0.8429323329312778
 10
193.30466185587053
 20
1.0305153358026207
 10
193.27540611516764
 20
1.047254445173855
 10
196.31704704508553
 20
7.539987968652397
 10
196.30742040429146
 20
7.566583603388602
 10
195.48098388303868
 20
7.953743054786302
 10
195.45438824830248
 20
7.944116413992216
 10
192.44398427191692
 20
1.518061772092313
 10
192.3606674936768
 20
1.5402124954643852
 10
192.19510311783202
 20
1.4349426280353776
 10
180.06560383334477
 20
8.375016960912097
 10
180.0383120660351
 20
8.3675900209557
 10
179.5891962927733
 20
7.582648939759402
 10
179.55059990530287
 20
7.572145660546135
 10
166.39004888149103
 20
15.102151658706507
 10
166.37954560227777
 20
15.140748046176942
 10
166.58952141085996
 20
15.50773279270796
 10
166.58927925315695
 20
15.507691131684178
 10
166.4430854689628
 20
15.633437672142225
 10
166.44185131341746
 20
15.633595260515964
 10
165.94508013250612
 20
15.386203012942316
 10
165.91833662087666
 20
15.339462100725063
 10
165.47002195931722
 20
14.55592116070224
 10
165.5210498137621
 20
14.526724810994097
 10
165.5213129805469
 20
14.525206671794702
 10
165.5077940162977
 20
14.509408471865338
 10
165.8924043070822
 20
14.289347944663914
 10
179.08469564394468
 20
6.741181251923003
 10
179.11198741125435
 20
6.7486081918794
 10
179.56110318451613
 20
7.533549273075697
 10
179.59969957198658
 20
7.544052552288964
 10
191.66784726637977
 20
0.63908144879597
 10
191.20499942044395
 20
0.328991686400241
  0
LWPOLYLINE
  5
5E
330
17
100
AcDbEntity
  8
0
100
AcDbPolyline
 90
20
 70
0
 10
153.06595475080678
 20
21.628192793873026
 10
153.0722985313843
 20
21.647123059717583
 10
153.07374291191897
 20
21.64767351910503
 10
153.12657780004344
 20
21.61747684407141
 10
153.574977168572
 20
22.402037741518413
 10
153.6016611882984
 20
22.448674676896164
 10
153.56320665487465
 20
23.002304317723233
 10
153.562447309984
 20
23.003285969088708
 10
153.37940535921012
 20
23.06462572954029
 10
153.37931553930994
 20
23.06486158268799
 10
153.16989491178222
 20
22.69884715259448
 10
153.13129852431177
 20
22.688343873381218
 10
139.96355702079114
 20
30.222464011993537
 10
139.9585908139528
 20
30.213784335177024
 10
139.96180166528708
 20
30.208247923371417
 10
139.93626525348148
 20
30.215037072037145
 10
139.48303533976772
 20
29.422905511132026
 10
139.4904622797241
 20
29.395613743822377
 10
152.68275361658664
 20
21.847447051081463
 10
153.06595475080678
 20
21.628192793873026
  0
LWPOLYLINE
  5
5F
330
17
100
AcDbEntity
  8
0
100
AcDbPolyline
 90
38
 70
0
 10
193.93169583566558
 20
0.7544539154946206
 10
193.9317771259823
 20
0.754038363845357
 10
193.7908773508384
 20
0.6086455492626148
 10
193.4591859953142
 20
-0.10120493897149378
 10
193.43041595313866
 20
-0.17906845878302752
 10
193.4303491770484
 20
-0.17930903984847224
 10
193.41482036595448
 20
-0.26135071481826483
 10
193.39674932015888
 20
-0.4355182079170935
 10
193.46168711695353
 20
-0.7379952374027121
 10
193.46211933658498
 20
-0.7387391466615358
 10
193.69273731182062
 20
-0.9449541323371101
 10
193.83889419684974
 20
-1.0093019644627552
 10
193.89299324697444
 20
-0.4878990503296531
 10
203.01795537429345
 20
-4.505304942667011
 10
203.03244493313952
 20
-4.542588352978392
 10
202.66804672797284
 20
-5.370266688331843
 10
202.67829239328927
 20
-5.396630040588781
 10
212.9190293142345
 20
-9.905273065518216
 10
213.32309438927638
 20
-10.083168972450373
 10
213.32741975443807
 20
-10.063678212250222
 10
213.3287985077709
 20
-10.062979441963622
 10
213.3845065477514
 20
-10.087473908026704
 10
213.74823212692675
 20
-9.260248727960867
 10
213.76988268893254
 20
-9.21107257707336
 10
213.67363101255356
 20
-8.664519610620426
 10
213.67277299091535
 20
-8.663622926208491
 10
213.4843114659492
 20
-8.621799779957042
 10
213.48419742798043
 20
-8.621574636306397
 10
213.31428021433675
 20
-9.007517252220639
 10
213.27699680402537
 20
-9.02200681106669
 10
203.0697283434509
 20
-4.52809879413234
 10
203.05523878460482
 20
-4.490815383820959
 10
203.4196369897715
 20
-3.663137048467508
 10
203.40939132445507
 20
-3.63677369621057
 10
194.24329393553785
 20
0.3987426320959099
 10
194.26114692220787
 20
0.47893567557525846
 10
194.14173535691035
 20
0.6619807634421717
 10
193.93169583566558
 20
0.7544539154946206
  0
LWPOLYLINE
  5
60
330
17
100
AcDbEntity
  8
0
100
AcDbPolyline
 90
20
 70
0
 10
223.74368931390146
 20
-13.137253357985065
 10
223.7434528543551
 20
-13.137320162752623
 10
223.58488818158904
 20
-13.027583844585727
 10
223.58364430745968
 20
-13.027556437360468
 10
223.11552913020856
 20
-13.325638156307718
 10
223.0938302983754
 20
-13.37492394519511
 10
222.730082089677
 20
-14.20112590666079
 10
222.78388822957115
 20
-14.224814893030118
 10
222.78430901701782
 20
-14.226297101284747
 10
222.77251978879
 20
-14.243424845245091
 10
223.17807074396643
 20
-14.421974933917896
 10
233.41880766491167
 20
-18.93061795884733
 10
233.4451710171686
 20
-18.920372293530885
 10
233.8129073045977
 20
-18.08511198238541
 10
233.7949281441626
 20
-18.067991501136902
 10
233.79863221754613
 20
-18.06790088452182
 10
233.80266163928124
 20
-18.058748630128473
 10
223.58781120291474
 20
-13.561502530931701
 10
223.57332164406867
 20
-13.524219120620321
 10
223.74368931390146
 20
-13.137253357985065
  0
LWPOLYLINE
  5
61
330
17
100
AcDbEntity
  8
0
100
AcDbPolyline
 90
26
 70
0
 10
193.03971505364035
 20
-1.3716224911009476
 10
192.88701427381403
 20
-1.0655181822972215
 10
192.88596139539345
 20
-1.0648842590830994
 10
192.35034180162535
 20
-1.0778293978262072
 10
191.99297750849016
 20
-1.3172493491559027
 10
191.99142617440083
 20
-1.3163161403360577
 10
192.0355403154038
 20
-0.8878786097467102
 10
191.79633412662184
 20
-0.40883508293826876
 10
191.79528106628283
 20
-0.40820105019363423
 10
191.25966147251472
 20
-0.421146188936739
 10
191.23214043465063
 20
-0.43958419651761177
 10
191.5608602385054
 20
-0.6276661461458484
 10
191.53941442719207
 20
-0.8343593965621205
 10
181.31673700972186
 20
-7.68314920787121
 10
181.31125317090348
 20
-7.710896775545044
 10
181.81921569827236
 20
-8.4690945302608
 10
181.8469632659462
 20
-8.474578369079179
 10
191.54971538133984
 20
-1.9741179597541803
 10
191.6179667973654
 20
-2.0152111725780077
 10
190.52289757102488
 20
-12.569412854032274
 10
190.54072672429496
 20
-12.591370114646306
 10
191.44848155201137
 20
-12.685555767611518
 10
191.47043881262542
 20
-12.667726614341452
 10
192.6300947563027
 20
-1.4910426054515884
 10
192.90009546287197
 20
-1.3101528040148662
 10
193.03971505364035
 20
-1.3716224911009476
  0
LWPOLYLINE
  5
62
330
17
100
AcDbEntity
  8
0
100
AcDbPolyline
 90
20
 70
0
 10
181.28350560322966
 20
-7.705412936726667
 10
181.2794915259736
 20
-7.682394666022023
 10
181.280681590425
 20
-7.683231301266696
 10
181.28898944204803
 20
-7.677665369052832
 10
180.7810269146792
 20
-6.919467614337077
 10
180.75327934700536
 20
-6.913983775518698
 10
169.28521592758696
 20
-14.597132983389908
 10
168.91843059304185
 20
-14.842864660091088
 10
168.93256529751758
 20
-14.856964612089058
 10
168.9324160528579
 20
-14.858503107034698
 10
168.8818746289202
 20
-14.892398963013639
 10
169.38520423038784
 20
-15.642903531800881
 10
169.41511064585748
 20
-15.68754260621866
 10
169.92809111393566
 20
-15.899286719983
 10
169.92930803397027
 20
-15.899043102053373
 10
170.06564435067665
 20
-15.762370754074228
 10
170.06589554300828
 20
-15.762395182219363
 10
169.83118501745946
 20
-15.41206029747689
 10
169.83894033669029
 20
-15.372819310949687
 10
181.28350560322966
 20
-7.705412936726667
  0
LWPOLYLINE
  5
63
330
17
100
AcDbEntity
  8
0
100
AcDbPolyline
 90
17
 70
0
 10
158.58183864575955
 20
-23.457605003958964
 10
158.5819090128329
 20
-23.45736957993935
 10
158.7595482352528
 20
-23.382342107422062
 10
158.7602381885976
 20
-23.38130676284769
 10
158.75955511517373
 20
-22.826343643574035
 10
158.72958202348897
 20
-22.781605046546048
 10
158.2271283202983
 20
-22.031629902550524
 10
158.17828642764104
 20
-22.064352040121296
 10
158.17680962077247
 20
-22.063912671416958
 10
158.16867092973885
 20
-22.044778742817787
 10
146.33247338550407
 20
-29.974563263560068
 10
146.3269895466857
 20
-30.002310831233903
 10
146.83495207405454
 20
-30.76050858594966
 10
146.86269964172837
 20
-30.765992424768037
 10
158.30726490826774
 20
-23.098586050545013
 10
158.34650589479494
 20
-23.10634136977583
 10
158.58183864575955
 20
-23.457605003958964
  0
ENDSEC
  0
SECTION
  2
OBJECTS
  0
DICTIONARY
  5
A
330
0
100
AcDbDictionary
281
1
  3
ACAD_COLOR
350
B
  3
ACAD_GROUP
350
C
  3
ACAD_LAYOUT
350
D
  3
ACAD_MATERIAL
350
E
  3
ACAD_MLEADERSTYLE
350
F
  3
ACAD_MLINESTYLE
350
10
  3
ACAD_PLOTSETTINGS
350
11
  3
ACAD_PLOTSTYLENAME
350
12
  3
ACAD_SCALELIST
350
14
  3
ACAD_TABLESTYLE
350
15
  3
ACAD_VISUALSTYLE
350
16
  3
EZDXF_META
350
2D
  0
DICTIONARY
  5
B
330
A
100
AcDbDictionary
281
1
  0
DICTIONARY
  5
C
330
A
100
AcDbDictionary
281
1
  0
DICTIONARY
  5
D
330
A
100
AcDbDictionary
281
1
  3
Model
350
1A
  3
Layout1
350
1E
  0
DICTIONARY
  5
E
330
A
100
AcDbDictionary
281
1
  3
ByBlock
350
1F
  3
ByLayer
350
20
  3
Global
350
21
  0
DICTIONARY
  5
F
330
A
100
AcDbDictionary
281
1
  3
Standard
350
2C
  0
DICTIONARY
  5
10
330
A
100
AcDbDictionary
281
1
  3
Standard
350
22
  0
DICTIONARY
  5
11
330
A
100
AcDbDictionary
281
1
  0
ACDBDICTIONARYWDFLT
  5
12
330
A
100
AcDbDictionary
281
1
  3
Normal
350
13
100
AcDbDictionaryWithDefault
340
13
  0
ACDBPLACEHOLDER
  5
13
330
12
  0
DICTIONARY
  5
14
330
A
100
AcDbDictionary
281
1
  0
DICTIONARY
  5
15
330
A
100
AcDbDictionary
281
1
  0
DICTIONARY
  5
16
330
A
100
AcDbDictionary
281
1
  0
LAYOUT
  5
1A
330
D
100
AcDbPlotSettings
  1

  2
Adobe PDF
  4
A3
  6

 40
7.5
 41
20.0
 42
7.5
 43
20.0
 44
420.0
 45
297.0
 46
0.0
 47
0.0
 48
0.0
 49
0.0
140
0.0
141
0.0
142
1.0
143
1.0
 70
1024
 72
1
 73
1
 74
5
  7

 75
16
 76
0
 77
2
 78
300
147
1.0
148
0.0
149
0.0
100
AcDbLayout
  1
Model
 70
1
 71
0
 10
0.0
 20
0.0
 11
420.0
 21
297.0
 12
0.0
 22
0.0
 32
0.0
 14
1e+20
 24
1e+20
 34
1e+20
 15
-1e+20
 25
-1e+20
 35
-1e+20
146
0.0
 13
0.0
 23
0.0
 33
0.0
 16
1.0
 26
0.0
 36
0.0
 17
0.0
 27
1.0
 37
0.0
 76
1
330
17
  0
LAYOUT
  5
1E
330
D
100
AcDbPlotSettings
  1

  2
Adobe PDF
  4
A3
  6

 40
7.5
 41
20.0
 42
7.5
 43
20.0
 44
420.0
 45
297.0
 46
0.0
 47
0.0
 48
0.0
 49
0.0
140
0.0
141
0.0
142
1.0
143
1.0
 70
0
 72
1
 73
1
 74
5
  7

 75
16
 76
0
 77
2
 78
300
147
1.0
148
0.0
149
0.0
100
AcDbLayout
  1
Layout1
 70
1
 71
1
 10
0.0
 20
0.0
 11
420.0
 21
297.0
 12
0.0
 22
0.0
 32
0.0
 14
1e+20
 24
1e+20
 34
1e+20
 15
-1e+20
 25
-1e+20
 35
-1e+20
146
0.0
 13
0.0
 23
0.0
 33
0.0
 16
1.0
 26
0.0
 36
0.0
 17
0.0
 27
1.0
 37
0.0
 76
1
330
1B
  0
MATERIAL
  5
1F
102
{ACAD_REACTORS
330
E
102
}
330
E
100
AcDbMaterial
  1
ByBlock
  2

 70
0
 40
1.0
 71
1
 41
1.0
 91
-1023410177
 42
1.0
 72
1
  3

 73
1
 74
1
 75
1
 44
0.5
 73
0
 45
1.0
 46
1.0
 77
1
  4

 78
1
 79
1
170
1
 48
1.0
171
1
  6

172
1
173
1
174
1
140
1.0
141
1.0
175
1
  7

176
1
177
1
178
1
143
1.0
179
1
  8

270
1
271
1
272
1
145
1.0
146
1.0
273
1
  9

274
1
275
1
276
1
 42
1.0
 72
1
  3

 73
1
 74
1
 75
1
 94
63
  0
MATERIAL
  5
20
102
{ACAD_REACTORS
330
E
102
}
330
E
100
AcDbMaterial
  1
ByLayer
  2

 70
0
 40
1.0
 71
1
 41
1.0
 91
-1023410177
 42
1.0
 72
1
  3

 73
1
 74
1
 75
1
 44
0.5
 73
0
 45
1.0
 46
1.0
 77
1
  4

 78
1
 79
1
170
1
 48
1.0
171
1
  6

172
1
173
1
174
1
140
1.0
141
1.0
175
1
  7

176
1
177
1
178
1
143
1.0
179
1
  8

270
1
271
1
272
1
145
1.0
146
1.0
273
1
  9

274
1
275
1
276
1
 42
1.0
 72
1
  3

 73
1
 74
1
 75
1
 94
63
  0
MATERIAL
  5
21
102
{ACAD_REACTORS
330
E
102
}
330
E
100
AcDbMaterial
  1
Global
  2

 70
0
 40
1.0
 71
1
 41
1.0
 91
-1023410177
 42
1.0
 72
1
  3

 73
1
 74
1
 75
1
 44
0.5
 73
0
 45
1.0
 46
1.0
 77
1
  4

 78
1
 79
1
170
1
 48
1.0
171
1
  6

172
1
173
1
174
1
140
1.0
141
1.0
175
1
  7

176
1
177
1
178
1
143
1.0
179
1
  8

270
1
271
1
272
1
145
1.0
146
1.0
273
1
  9

274
1
275
1
276
1
 42
1.0
 72
1
  3

 73
1
 74
1
 75
1
 94
63
  0
MLINESTYLE
  5
22
102
{ACAD_REACTORS
330
10
102
}
330
10
100
AcDbMlineStyle
  2
Standard
 70
0
  3

 62
256
 51
90.0
 52
90.0
 71
2
 49
0.5
 62
256
  6
BYLAYER
 49
-0.5
 62
256
  6
BYLAYER
  0
MLEADERSTYLE
  5
2C
102
{ACAD_REACTORS
330
F
102
}
330
F
100
AcDbMLeaderStyle
179
2
170
2
171
1
172
0
 90
2
 40
0.0
 41
0.0
173
1
 91
-1056964608
 92
-2
290
1
 42
2.0
291
1
 43
8.0
  3
Standard
 44
4.0
300

342
29
174
1
175
1
176
0
178
1
 93
-1056964608
 45
4.0
292
0
297
0
 46
4.0
 94
-1056964608
 47
1.0
 49
1.0
140
1.0
294
1
141
0.0
177
0
142
1.0
295
0
296
0
143
3.75
271
0
272
9
273
9
  0
DICTIONARY
  5
2D
330
A
100
AcDbDictionary
280
1
281
1
  3
CREATED_BY_EZDXF
350
2E
  3
WRITTEN_BY_EZDXF
350
66
  0
DICTIONARYVAR
  5
2E
330
2D
100
DictionaryVariables
280
0
  1
0.17.2 @ 2022-03-24T15:42:05.202666+00:00
  0
DICTIONARYVAR
  5
66
330
2D
100
DictionaryVariables
280
0
  1
0.17.2 @ 2022-03-24T15:42:05.211688+00:00
  0
ENDSEC
  0
EOF
