  0
SECTION
  2
HEADER
  9
$ACADVER
  1
AC1024
  9
$ACADMAINTVER
 70
6
  9
$DWGCODEPAGE
  3
ANSI_1252
  9
$LASTSAVEDBY
  1
ezdxf
  9
$INSBASE
 10
0.0
 20
0.0
 30
0.0
  9
$EXTMIN
 10
1e+20
 20
1e+20
 30
1e+20
  9
$EXTMAX
 10
-1e+20
 20
-1e+20
 30
-1e+20
  9
$LIMMIN
 10
0.0
 20
0.0
  9
$LIMMAX
 10
420.0
 20
297.0
  9
$ORTHOMODE
 70
0
  9
$REGENMODE
 70
1
  9
$FILLMODE
 70
1
  9
$QTEXTMODE
 70
0
  9
$MIRRTEXT
 70
1
  9
$LTSCALE
 40
1.0
  9
$ATTMODE
 70
1
  9
$TEXTSIZE
 40
2.5
  9
$TRACEWID
 40
1.0
  9
$TEXTSTYLE
  7
Standard
  9
$CLAYER
  8
0
  9
$CELTYPE
  6
ByLayer
  9
$CECOLOR
 62
256
  9
$CELTSCALE
 40
1.0
  9
$DISPSILH
 70
0
  9
$DIMSCALE
 40
1.0
  9
$DIMASZ
 40
2.5
  9
$DIMEXO
 40
0.625
  9
$DIMDLI
 40
3.75
  9
$DIMRND
 40
0.0
  9
$DIMDLE
 40
0.0
  9
$DIMEXE
 40
1.25
  9
$DIMTP
 40
0.0
  9
$DIMTM
 40
0.0
  9
$DIMTXT
 40
2.5
  9
$DIMCEN
 40
2.5
  9
$DIMTSZ
 40
0.0
  9
$DIMTOL
 70
0
  9
$DIMLIM
 70
0
  9
$DIMTIH
 70
0
  9
$DIMTOH
 70
0
  9
$DIMSE1
 70
0
  9
$DIMSE2
 70
0
  9
$DIMTAD
 70
1
  9
$DIMZIN
 70
8
  9
$DIMBLK
  1

  9
$DIMASO
 70
1
  9
$DIMSHO
 70
1
  9
$DIMPOST
  1

  9
$DIMAPOST
  1

  9
$DIMALT
 70
0
  9
$DIMALTD
 70
3
  9
$DIMALTF
 40
0.03937007874
  9
$DIMLFAC
 40
1.0
  9
$DIMTOFL
 70
1
  9
$DIMTVP
 40
0.0
  9
$DIMTIX
 70
0
  9
$DIMSOXD
 70
0
  9
$DIMSAH
 70
0
  9
$DIMBLK1
  1

  9
$DIMBLK2
  1

  9
$DIMSTYLE
  2
ISO-25
  9
$DIMCLRD
 70
0
  9
$DIMCLRE
 70
0
  9
$DIMCLRT
 70
0
  9
$DIMTFAC
 40
1.0
  9
$DIMGAP
 40
0.625
  9
$DIMJUST
 70
0
  9
$DIMSD1
 70
0
  9
$DIMSD2
 70
0
  9
$DIMTOLJ
 70
0
  9
$DIMTZIN
 70
8
  9
$DIMALTZ
 70
0
  9
$DIMALTTZ
 70
0
  9
$DIMUPT
 70
0
  9
$DIMDEC
 70
2
  9
$DIMTDEC
 70
2
  9
$DIMALTU
 70
2
  9
$DIMALTTD
 70
3
  9
$DIMTXSTY
  7
Standard
  9
$DIMAUNIT
 70
0
  9
$DIMADEC
 70
0
  9
$DIMALTRND
 40
0.0
  9
$DIMAZIN
 70
0
  9
$DIMDSEP
 70
44
  9
$DIMATFIT
 70
3
  9
$DIMFRAC
 70
0
  9
$DIMLDRBLK
  1

  9
$DIMLUNIT
 70
2
  9
$DIMLWD
 70
-2
  9
$DIMLWE
 70
-2
  9
$DIMTMOVE
 70
0
  9
$DIMFXL
 40
1.0
  9
$DIMFXLON
 70
0
  9
$DIMJOGANG
 40
0.785398163397
  9
$DIMTFILL
 70
0
  9
$DIMTFILLCLR
 70
0
  9
$DIMARCSYM
 70
0
  9
$DIMLTYPE
  6

  9
$DIMLTEX1
  6

  9
$DIMLTEX2
  6

  9
$DIMTXTDIRECTION
 70
0
  9
$LUNITS
 70
2
  9
$LUPREC
 70
4
  9
$SKETCHINC
 40
1.0
  9
$FILLETRAD
 40
10.0
  9
$AUNITS
 70
0
  9
$AUPREC
 70
2
  9
$MENU
  1
.
  9
$ELEVATION
 40
0.0
  9
$PELEVATION
 40
0.0
  9
$THICKNESS
 40
0.0
  9
$LIMCHECK
 70
0
  9
$CHAMFERA
 40
0.0
  9
$CHAMFERB
 40
0.0
  9
$CHAMFERC
 40
0.0
  9
$CHAMFERD
 40
0.0
  9
$SKPOLY
 70
0
  9
$TDCREATE
 40
2459663.3625578703
  9
$TDUCREATE
 40
2458532.153996898
  9
$TDUPDATE
 40
2459663.3625578703
  9
$TDUUPDATE
 40
2458532.1544311
  9
$TDINDWG
 40
0.0
  9
$TDUSRTIMER
 40
0.0
  9
$USRTIMER
 70
1
  9
$ANGBASE
 50
0.0
  9
$ANGDIR
 70
0
  9
$PDMODE
 70
0
  9
$PDSIZE
 40
0.0
  9
$PLINEWID
 40
0.0
  9
$SPLFRAME
 70
0
  9
$SPLINETYPE
 70
6
  9
$SPLINESEGS
 70
8
  9
$HANDSEED
  5
3F
  9
$SURFTAB1
 70
6
  9
$SURFTAB2
 70
6
  9
$SURFTYPE
 70
6
  9
$SURFU
 70
6
  9
$SURFV
 70
6
  9
$UCSBASE
  2

  9
$UCSNAME
  2

  9
$UCSORG
 10
0.0
 20
0.0
 30
0.0
  9
$UCSXDIR
 10
1.0
 20
0.0
 30
0.0
  9
$UCSYDIR
 10
0.0
 20
1.0
 30
0.0
  9
$UCSORTHOREF
  2

  9
$UCSORTHOVIEW
 70
0
  9
$UCSORGTOP
 10
0.0
 20
0.0
 30
0.0
  9
$UCSORGBOTTOM
 10
0.0
 20
0.0
 30
0.0
  9
$UCSORGLEFT
 10
0.0
 20
0.0
 30
0.0
  9
$UCSORGRIGHT
 10
0.0
 20
0.0
 30
0.0
  9
$UCSORGFRONT
 10
0.0
 20
0.0
 30
0.0
  9
$UCSORGBACK
 10
0.0
 20
0.0
 30
0.0
  9
$PUCSBASE
  2

  9
$PUCSNAME
  2

  9
$PUCSORG
 10
0.0
 20
0.0
 30
0.0
  9
$PUCSXDIR
 10
1.0
 20
0.0
 30
0.0
  9
$PUCSYDIR
 10
0.0
 20
1.0
 30
0.0
  9
$PUCSORTHOREF
  2

  9
$PUCSORTHOVIEW
 70
0
  9
$PUCSORGTOP
 10
0.0
 20
0.0
 30
0.0
  9
$PUCSORGBOTTOM
 10
0.0
 20
0.0
 30
0.0
  9
$PUCSORGLEFT
 10
0.0
 20
0.0
 30
0.0
  9
$PUCSORGRIGHT
 10
0.0
 20
0.0
 30
0.0
  9
$PUCSORGFRONT
 10
0.0
 20
0.0
 30
0.0
  9
$PUCSORGBACK
 10
0.0
 20
0.0
 30
0.0
  9
$USERI1
 70
0
  9
$USERI2
 70
0
  9
$USERI3
 70
0
  9
$USERI4
 70
0
  9
$USERI5
 70
0
  9
$USERR1
 40
0.0
  9
$USERR2
 40
0.0
  9
$USERR3
 40
0.0
  9
$USERR4
 40
0.0
  9
$USERR5
 40
0.0
  9
$WORLDVIEW
 70
1
  9
$SHADEDGE
 70
3
  9
$SHADEDIF
 70
70
  9
$TILEMODE
 70
1
  9
$MAXACTVP
 70
64
  9
$PINSBASE
 10
0.0
 20
0.0
 30
0.0
  9
$PLIMCHECK
 70
0
  9
$PEXTMIN
 10
1e+20
 20
1e+20
 30
1e+20
  9
$PEXTMAX
 10
-1e+20
 20
-1e+20
 30
-1e+20
  9
$PLIMMIN
 10
0.0
 20
0.0
  9
$PLIMMAX
 10
420.0
 20
297.0
  9
$UNITMODE
 70
0
  9
$VISRETAIN
 70
1
  9
$PLINEGEN
 70
0
  9
$PSLTSCALE
 70
1
  9
$TREEDEPTH
 70
3020
  9
$CMLSTYLE
  2
Standard
  9
$CMLJUST
 70
0
  9
$CMLSCALE
 40
20.0
  9
$PROXYGRAPHICS
 70
1
  9
$MEASUREMENT
 70
1
  9
$CELWEIGHT
370
-1
  9
$ENDCAPS
280
0
  9
$JOINSTYLE
280
0
  9
$LWDISPLAY
290
0
  9
$INSUNITS
 70
6
  9
$HYPERLINKBASE
  1

  9
$STYLESHEET
  1

  9
$XEDIT
290
1
  9
$CEPSNTYPE
380
0
  9
$PSTYLEMODE
290
1
  9
$FINGERPRINTGUID
  2
{1C9DB0A9-DFF0-49D7-987E-7CDFB1E7E3C3}
  9
$VERSIONGUID
  2
{E4881748-BBB2-4E71-80C3-6600A19020B0}
  9
$EXTNAMES
290
1
  9
$PSVPSCALE
 40
0.0
  9
$OLESTARTUP
290
0
  9
$SORTENTS
280
127
  9
$INDEXCTL
280
0
  9
$HIDETEXT
280
1
  9
$XCLIPFRAME
280
0
  9
$HALOGAP
280
0
  9
$OBSCOLOR
 70
257
  9
$OBSLTYPE
280
0
  9
$INTERSECTIONDISPLAY
280
0
  9
$INTERSECTIONCOLOR
 70
257
  9
$DIMASSOC
280
2
  9
$PROJECTNAME
  1

  9
$CAMERADISPLAY
290
0
  9
$LENSLENGTH
 40
50.0
  9
$CAMERAHEIGHT
 40
0.0
  9
$STEPSPERSEC
 40
24.0
  9
$STEPSIZE
 40
100.0
  9
$3DDWFPREC
 40
2.0
  9
$PSOLWIDTH
 40
0.005
  9
$PSOLHEIGHT
 40
0.08
  9
$LOFTANG1
 40
1.570796326795
  9
$LOFTANG2
 40
1.570796326795
  9
$LOFTMAG1
 40
0.0
  9
$LOFTMAG2
 40
0.0
  9
$LOFTPARAM
 70
7
  9
$LOFTNORMALS
280
1
  9
$LATITUDE
 40
37.795
  9
$LONGITUDE
 40
-122.394
  9
$NORTHDIRECTION
 40
0.0
  9
$TIMEZONE
 70
-8000
  9
$LIGHTGLYPHDISPLAY
280
1
  9
$TILEMODELIGHTSYNCH
280
1
  9
$CMATERIAL
347
20
  9
$SOLIDHIST
280
0
  9
$SHOWHIST
280
1
  9
$DWFFRAME
280
2
  9
$DGNFRAME
280
2
  9
$REALWORLDSCALE
290
1
  9
$INTERFERECOLOR
 62
256
  9
$CSHADOW
280
0
  9
$SHADOWPLANELOCATION
 40
0.0
  0
ENDSEC
  0
SECTION
  2
CLASSES
  0
CLASS
  1
ACDBDICTIONARYWDFLT
  2
AcDbDictionaryWithDefault
  3
ObjectDBX Classes
 90
0
 91
0
280
0
281
0
  0
CLASS
  1
SUN
  2
AcDbSun
  3
SCENEOE
 90
1153
 91
0
280
0
281
0
  0
CLASS
  1
VISUALSTYLE
  2
AcDbVisualStyle
  3
ObjectDBX Classes
 90
4095
 91
0
280
0
281
0
  0
CLASS
  1
MATERIAL
  2
AcDbMaterial
  3
ObjectDBX Classes
 90
1153
 91
0
280
0
281
0
  0
CLASS
  1
SCALE
  2
AcDbScale
  3
ObjectDBX Classes
 90
1153
 91
0
280
0
281
0
  0
CLASS
  1
TABLESTYLE
  2
AcDbTableStyle
  3
ObjectDBX Classes
 90
4095
 91
0
280
0
281
0
  0
CLASS
  1
MLEADERSTYLE
  2
AcDbMLeaderStyle
  3
ACDB_MLEADERSTYLE_CLASS
 90
4095
 91
0
280
0
281
0
  0
CLASS
  1
DICTIONARYVAR
  2
AcDbDictionaryVar
  3
ObjectDBX Classes
 90
0
 91
0
280
0
281
0
  0
CLASS
  1
CELLSTYLEMAP
  2
AcDbCellStyleMap
  3
ObjectDBX Classes
 90
1152
 91
0
280
0
281
0
  0
CLASS
  1
MENTALRAYRENDERSETTINGS
  2
AcDbMentalRayRenderSettings
  3
SCENEOE
 90
1024
 91
0
280
0
281
0
  0
CLASS
  1
ACDBDETAILVIEWSTYLE
  2
AcDbDetailViewStyle
  3
ObjectDBX Classes
 90
1025
 91
0
280
0
281
0
  0
CLASS
  1
ACDBSECTIONVIEWSTYLE
  2
AcDbSectionViewStyle
  3
ObjectDBX Classes
 90
1025
 91
0
280
0
281
0
  0
CLASS
  1
RASTERVARIABLES
  2
AcDbRasterVariables
  3
ISM
 90
0
 91
0
280
0
281
0
  0
CLASS
  1
ACDBPLACEHOLDER
  2
AcDbPlaceHolder
  3
ObjectDBX Classes
 90
0
 91
0
280
0
281
0
  0
CLASS
  1
LAYOUT
  2
AcDbLayout
  3
ObjectDBX Classes
 90
0
 91
0
280
0
281
0
  0
ENDSEC
  0
SECTION
  2
TABLES
  0
TABLE
  2
VPORT
  5
8
330
0
100
AcDbSymbolTable
 70
1
  0
VPORT
  5
23
330
8
100
AcDbSymbolTableRecord
100
AcDbViewportTableRecord
  2
*Active
 70
0
 10
0.0
 20
0.0
 11
1.0
 21
1.0
 12
0.0
 22
0.0
 13
0.0
 23
0.0
 14
0.5
 24
0.5
 15
0.5
 25
0.5
 16
0.0
 26
0.0
 36
1.0
 17
0.0
 27
0.0
 37
0.0
 40
1000.0
 41
1.34
 42
50.0
 43
0.0
 44
0.0
 50
0.0
 51
0.0
 71
0
 72
1000
 73
1
 74
3
 75
0
 76
0
 77
0
 78
0
281
0
 65
0
146
0.0
  0
ENDTAB
  0
TABLE
  2
LTYPE
  5
2
330
0
100
AcDbSymbolTable
 70
3
  0
LTYPE
  5
24
330
2
100
AcDbSymbolTableRecord
100
AcDbLinetypeTableRecord
  2
ByBlock
 70
0
  3

 72
65
 73
0
 40
0.0
  0
LTYPE
  5
25
330
2
100
AcDbSymbolTableRecord
100
AcDbLinetypeTableRecord
  2
ByLayer
 70
0
  3

 72
65
 73
0
 40
0.0
  0
LTYPE
  5
26
330
2
100
AcDbSymbolTableRecord
100
AcDbLinetypeTableRecord
  2
Continuous
 70
0
  3

 72
65
 73
0
 40
0.0
  0
ENDTAB
  0
TABLE
  2
LAYER
  5
1
330
0
100
AcDbSymbolTable
 70
2
  0
LAYER
  5
27
330
1
100
AcDbSymbolTableRecord
100
AcDbLayerTableRecord
  2
0
 70
0
 62
7
  6
Continuous
370
-3
390
13
347
21
  0
LAYER
  5
28
330
1
100
AcDbSymbolTableRecord
100
AcDbLayerTableRecord
  2
Defpoints
 70
0
 62
7
  6
Continuous
290
0
370
-3
390
13
347
21
  0
ENDTAB
  0
TABLE
  2
STYLE
  5
5
330
0
100
AcDbSymbolTable
 70
1
  0
STYLE
  5
29
330
5
100
AcDbSymbolTableRecord
100
AcDbTextStyleTableRecord
  2
Standard
 70
0
 40
0.0
 41
1.0
 50
0.0
 71
0
 42
2.5
  3
txt
  4

  0
ENDTAB
  0
TABLE
  2
VIEW
  5
7
330
0
100
AcDbSymbolTable
 70
0
  0
ENDTAB
  0
TABLE
  2
UCS
  5
6
330
0
100
AcDbSymbolTable
 70
0
  0
ENDTAB
  0
TABLE
  2
APPID
  5
3
330
0
100
AcDbSymbolTable
 70
3
  0
APPID
  5
2A
330
3
100
AcDbSymbolTableRecord
100
AcDbRegAppTableRecord
  2
ACAD
 70
0
  0
APPID
  5
3C
330
3
100
AcDbSymbolTableRecord
100
AcDbRegAppTableRecord
  2
HATCHBACKGROUNDCOLOR
 70
0
  0
APPID
  5
3D
330
3
100
AcDbSymbolTableRecord
100
AcDbRegAppTableRecord
  2
EZDXF
 70
0
  0
ENDTAB
  0
TABLE
  2
DIMSTYLE
  5
4
330
0
100
AcDbSymbolTable
 70
1
100
AcDbDimStyleTable
  0
DIMSTYLE
105
2B
330
4
100
AcDbSymbolTableRecord
100
AcDbDimStyleTableRecord
  2
Standard
 70
0
 40
1.0
 41
2.5
 42
0.625
 43
3.75
 44
1.25
 45
0.0
 46
0.0
 47
0.0
 48
0.0
 49
2.5
140
2.5
141
2.5
142
0.0
143
0.03937007874
144
1.0
145
0.0
146
1.0
147
0.625
148
0.0
 69
0
 70
0
 71
0
 72
0
 73
0
 74
0
 75
0
 76
0
 77
1
 78
8
 79
3
170
0
171
3
172
1
173
0
174
0
175
0
176
0
177
0
178
0
179
2
271
2
272
2
273
2
274
3
275
0
276
0
277
2
278
44
279
0
280
0
281
0
282
0
283
0
284
8
285
0
286
0
288
0
289
3
290
0
371
-2
372
-2
  0
ENDTAB
  0
TABLE
  2
BLOCK_RECORD
  5
9
330
0
100
AcDbSymbolTable
 70
2
  0
BLOCK_RECORD
  5
17
330
9
100
AcDbSymbolTableRecord
100
AcDbBlockTableRecord
  2
*Model_Space
340
1A
 70
0
280
1
281
0
  0
BLOCK_RECORD
  5
1B
330
9
100
AcDbSymbolTableRecord
100
AcDbBlockTableRecord
  2
*Paper_Space
340
1E
 70
0
280
1
281
0
  0
ENDTAB
  0
ENDSEC
  0
SECTION
  2
BLOCKS
  0
BLOCK
  5
18
330
17
100
AcDbEntity
  8
0
100
AcDbBlockBegin
  2
*Model_Space
 70
0
 10
0.0
 20
0.0
 30
0.0
  3
*Model_Space
  1

  0
ENDBLK
  5
19
330
17
100
AcDbEntity
  8
0
100
AcDbBlockEnd
  0
BLOCK
  5
1C
330
1B
100
AcDbEntity
  8
0
100
AcDbBlockBegin
  2
*Paper_Space
 70
0
 10
0.0
 20
0.0
 30
0.0
  3
*Paper_Space
  1

  0
ENDBLK
  5
1D
330
1B
100
AcDbEntity
  8
0
100
AcDbBlockEnd
  0
ENDSEC
  0
SECTION
  2
ENTITIES
  0
LWPOLYLINE
  5
2F
330
17
100
AcDbEntity
  8
0
100
AcDbPolyline
 90
42
 70
0
 10
-44.889915802151826
 20
-74.30075185813105
 10
-46.491478302151826
 20
-74.30387685813105
 10
-46.482689239651826
 20
-74.22842373313104
 10
-46.47007205215182
 20
-74.15643935813104
 10
-46.453626739651824
 20
-74.08792373313105
 10
-46.43335330215182
 20
-74.02287685813104
 10
-46.40925173965182
 20
-73.96129873313104
 10
-46.38132205215182
 20
-73.90318935813104
 10
-46.349564239651826
 20
-73.84854873313104
 10
-46.313978302151824
 20
-73.79737685813105
 10
-46.27456423965182
 20
-73.74967373313105
 10
-46.231322052151825
 20
-73.70543935813104
 10
-46.18466580215183
 20
-73.66506435813105
 10
-46.13500955215183
 20
-73.62893935813105
 10
-46.08235330215182
 20
-73.59706435813105
 10
-46.026697052151825
 20
-73.56943935813105
 10
-45.968040802151826
 20
-73.54606435813105
 10
-45.90638455215182
 20
-73.52693935813105
 10
-45.84172830215182
 20
-73.51206435813104
 10
-45.77407205215182
 20
-73.50143935813105
 10
-45.703415802151824
 20
-73.49506435813105
 10
-45.629759552151825
 20
-73.49293935813104
 10
-45.56465798965182
 20
-73.49514248313105
 10
-45.50216580215182
 20
-73.50175185813104
 10
-45.44228298965183
 20
-73.51276748313104
 10
-45.38500955215183
 20
-73.52818935813104
 10
-45.330345489651826
 20
-73.54801748313105
 10
-45.27829080215182
 20
-73.57225185813104
 10
-45.228845489651825
 20
-73.60089248313105
 10
-45.182009552151825
 20
-73.63393935813104
 10
-45.137782989651825
 20
-73.67139248313104
 10
-45.09616580215182
 20
-73.71325185813104
 10
-45.05782205215182
 20
-73.75864248313104
 10
-45.023415802151824
 20
-73.80700185813104
 10
-44.99294705215182
 20
-73.85832998313104
 10
-44.96641580215182
 20
-73.91262685813105
 10
-44.94382205215182
 20
-73.96989248313105
 10
-44.925165802151824
 20
-74.03012685813104
 10
-44.910447052151824
 20
-74.09332998313104
 10
-44.89966580215182
 20
-74.15950185813105
 10
-44.89282205215183
 20
-74.22864248313104
 10
-44.889915802151826
 20
-74.30075185813105
  0
LWPOLYLINE
  5
30
330
17
100
AcDbEntity
  8
0
100
AcDbPolyline
 90
63
 70
0
 10
-51.55974002090183
 20
-74.53825185813105
 10
-51.11286502090182
 20
-74.53825185813105
 10
-51.11286502090182
 20
-74.63825185813104
 10
-51.11512283340183
 20
-74.72432217063104
 10
-51.12189627090182
 20
-74.80690810813104
 10
-51.133185333401826
 20
-74.88600967063104
 10
-51.14899002090183
 20
-74.96162685813104
 10
-51.169310333401825
 20
-75.03375967063104
 10
-51.194146270901825
 20
-75.10240810813104
 10
-51.22349783340182
 20
-75.16757217063105
 10
-51.25736502090182
 20
-75.22925185813105
 10
-51.295747833401826
 20
-75.28744717063104
 10
-51.338646270901826
 20
-75.34215810813104
 10
-51.38528689590183
 20
-75.39247842063105
 10
-51.434896270901824
 20
-75.43750185813104
 10
-51.48747439590183
 20
-75.47722842063105
 10
-51.543021270901825
 20
-75.51165810813104
 10
-51.60153689590182
 20
-75.54079092063104
 10
-51.66302127090182
 20
-75.56462685813105
 10
-51.72747439590182
 20
-75.58316592063105
 10
-51.79489627090182
 20
-75.59640810813104
 10
-51.865286895901825
 20
-75.60435342063104
 10
-51.93864627090183
 20
-75.60700185813104
 10
-51.991583770901826
 20
-75.60560342063104
 10
-52.04227127090182
 20
-75.60140810813104
 10
-52.09070877090183
 20
-75.59441592063105
 10
-52.13689627090182
 20
-75.58462685813105
 10
-52.18083377090183
 20
-75.57204092063104
 10
-52.22252127090182
 20
-75.55665810813105
 10
-52.26195877090183
 20
-75.53847842063105
 10
-52.29914627090182
 20
-75.51750185813104
 10
-52.33408377090183
 20
-75.49372842063104
 10
-52.36677127090182
 20
-75.46715810813104
 10
-52.39675564590183
 20
-75.43804873313104
 10
-52.42358377090182
 20
-75.40697060813105
 10
-52.447255645901826
 20
-75.37392373313105
 10
-52.46777127090182
 20
-75.33890810813105
 10
-52.485130645901826
 20
-75.30192373313105
 10
-52.49933377090183
 20
-75.26297060813104
 10
-52.510380645901826
 20
-75.22204873313105
 10
-52.51827127090182
 20
-75.17915810813105
 10
-52.523005645901826
 20
-75.13429873313105
 10
-52.52458377090183
 20
-75.08747060813104
 10
-52.522482208401826
 20
-75.02907998313104
 10
-52.51617752090183
 20
-74.97422060813105
 10
-52.505669708401825
 20
-74.92289248313105
 10
-52.49095877090183
 20
-74.87509560813105
 10
-52.472044708401825
 20
-74.83082998313104
 10
-52.448927520901826
 20
-74.79009560813104
 10
-52.421607208401824
 20
-74.75289248313105
 10
-52.390083770901825
 20
-74.71922060813104
 10
-52.35435720840182
 20
-74.68907998313105
 10
-52.31442752090182
 20
-74.66247060813104
 10
-52.26905252090182
 20
-74.63886904563104
 10
-52.216990020901825
 20
-74.61775185813104
 10
-52.15824002090182
 20
-74.59911904563104
 10
-52.09280252090183
 20
-74.58297060813105
 10
-52.02067752090183
 20
-74.56930654563105
 10
-51.94186502090182
 20
-74.55812685813105
 10
-51.856365020901826
 20
-74.54943154563105
 10
-51.764177520901825
 20
-74.54322060813105
 10
-51.665302520901825
 20
-74.53949404563105
 10
-51.55974002090183
 20
-74.53825185813105
  0
LWPOLYLINE
  5
31
330
17
100
AcDbEntity
  8
0
100
AcDbPolyline
 90
5
 70
0
 10
91.39240021457013
 20
-85.864317874853
 10
-73.5112943188738
 20
-85.864317874853
 10
-73.5112943188738
 20
59.039376658590925
 10
91.39240021457013
 20
59.039376658590925
 10
91.39240021457013
 20
-85.864317874853
  0
LWPOLYLINE
  5
32
330
17
100
AcDbEntity
  8
0
100
AcDbPolyline
 90
33
 70
0
 10
81.44055294784818
 20
-73.41247060813104
 10
81.39251614885625
 20
-72.92474480309072
 10
81.25025177912639
 20
-72.45576202721831
 10
81.01922697860454
 20
-72.02354502558204
 10
80.70831990081454
 20
-71.64470365516468
 10
80.32947853039717
 20
-71.33379657737468
 10
79.8972615287609
 20
-71.10277177685282
 10
79.42827875288849
 20
-70.96050740712296
 10
78.94055294784816
 20
-70.91247060813104
 10
78.45282714280785
 20
-70.96050740712298
 10
77.98384436693544
 20
-71.10277177685283
 10
77.55162736529915
 20
-71.33379657737468
 10
77.17278599488179
 20
-71.64470365516469
 10
76.8618789170918
 20
-72.02354502558205
 10
76.63085411656995
 20
-72.45576202721833
 10
76.48858974684009
 20
-72.92474480309073
 10
76.44055294784818
 20
-73.41247060813106
 10
76.4885897468401
 20
-73.90019641317137
 10
76.63085411656996
 20
-74.36917918904378
 10
76.86187891709181
 20
-74.80139619068005
 10
77.1727859948818
 20
-75.18023756109741
 10
77.55162736529917
 20
-75.4911446388874
 10
77.98384436693546
 20
-75.72216943940927
 10
78.45282714280786
 20
-75.86443380913911
 10
78.94055294784818
 20
-75.91247060813104
 10
79.4282787528885
 20
-75.86443380913911
 10
79.89726152876091
 20
-75.72216943940926
 10
80.32947853039718
 20
-75.4911446388874
 10
80.70831990081454
 20
-75.18023756109741
 10
81.01922697860454
 20
-74.80139619068005
 10
81.25025177912639
 20
-74.36917918904376
 10
81.39251614885625
 20
-73.90019641317137
 10
81.44055294784818
 20
-73.41247060813104
  0
LWPOLYLINE
  5
33
330
17
100
AcDbEntity
  8
0
100
AcDbPolyline
 90
33
 70
0
 10
-58.559447052151825
 20
-73.41247060813104
 10
-58.60748385114375
 20
-72.92474480309072
 10
-58.74974822087361
 20
-72.45576202721831
 10
-58.980773021395464
 20
-72.02354502558204
 10
-59.29168009918546
 20
-71.64470365516468
 10
-59.670521469602825
 20
-71.33379657737468
 10
-60.10273847123911
 20
-71.10277177685282
 10
-60.57172124711151
 20
-70.96050740712296
 10
-61.05944705215183
 20
-70.91247060813104
 10
-61.54717285719215
 20
-70.96050740712298
 10
-62.01615563306456
 20
-71.10277177685283
 10
-62.44837263470084
 20
-71.33379657737468
 10
-62.8272140051182
 20
-71.64470365516469
 10
-63.13812108290819
 20
-72.02354502558205
 10
-63.36914588343004
 20
-72.45576202721833
 10
-63.5114102531599
 20
-72.92474480309073
 10
-63.559447052151825
 20
-73.41247060813106
 10
-63.5114102531599
 20
-73.90019641317137
 10
-63.369145883430036
 20
-74.36917918904378
 10
-63.138121082908185
 20
-74.80139619068005
 10
-62.827214005118186
 20
-75.18023756109741
 10
-62.448372634700824
 20
-75.4911446388874
 10
-62.01615563306454
 20
-75.72216943940927
 10
-61.54717285719214
 20
-75.86443380913911
 10
-61.05944705215182
 20
-75.91247060813104
 10
-60.5717212471115
 20
-75.86443380913911
 10
-60.1027384712391
 20
-75.72216943940926
 10
-59.67052146960282
 20
-75.4911446388874
 10
-59.291680099185456
 20
-75.18023756109741
 10
-58.980773021395464
 20
-74.80139619068005
 10
-58.749748220873606
 20
-74.36917918904376
 10
-58.60748385114375
 20
-73.90019641317137
 10
-58.559447052151825
 20
-73.41247060813104
  0
LWPOLYLINE
  5
34
330
17
100
AcDbEntity
  8
0
100
AcDbPolyline
 90
33
 70
0
 10
81.44055294784818
 20
46.587529391868955
 10
81.39251614885625
 20
47.07525519690928
 10
81.25025177912639
 20
47.54423797278169
 10
81.01922697860454
 20
47.97645497441797
 10
80.70831990081454
 20
48.35529634483533
 10
80.32947853039717
 20
48.66620342262532
 10
79.8972615287609
 20
48.897228223147174
 10
79.42827875288849
 20
49.03949259287703
 10
78.94055294784816
 20
49.087529391868955
 10
78.45282714280785
 20
49.03949259287703
 10
77.98384436693544
 20
48.89722822314717
 10
77.55162736529915
 20
48.666203422625316
 10
77.17278599488179
 20
48.35529634483532
 10
76.8618789170918
 20
47.976454974417955
 10
76.63085411656995
 20
47.54423797278167
 10
76.48858974684009
 20
47.07525519690927
 10
76.44055294784818
 20
46.58752939186895
 10
76.4885897468401
 20
46.09980358682863
 10
76.63085411656996
 20
45.63082081095622
 10
76.86187891709181
 20
45.19860380931994
 10
77.1727859948818
 20
44.81976243890258
 10
77.55162736529917
 20
44.50885536111259
 10
77.98384436693546
 20
44.277830560590736
 10
78.45282714280786
 20
44.13556619086088
 10
78.94055294784818
 20
44.087529391868955
 10
79.4282787528885
 20
44.13556619086088
 10
79.89726152876091
 20
44.277830560590736
 10
80.32947853039718
 20
44.508855361112595
 10
80.70831990081454
 20
44.819762438902586
 10
81.01922697860454
 20
45.19860380931995
 10
81.25025177912639
 20
45.63082081095623
 10
81.39251614885625
 20
46.099803586828635
 10
81.44055294784818
 20
46.587529391868955
  0
LWPOLYLINE
  5
35
330
17
100
AcDbEntity
  8
0
100
AcDbPolyline
 90
33
 70
0
 10
-58.559447052151825
 20
46.587529391868955
 10
-58.60748385114375
 20
47.07525519690928
 10
-58.74974822087361
 20
47.54423797278169
 10
-58.980773021395464
 20
47.97645497441797
 10
-59.29168009918546
 20
48.35529634483533
 10
-59.670521469602825
 20
48.66620342262532
 10
-60.10273847123911
 20
48.897228223147174
 10
-60.57172124711151
 20
49.03949259287703
 10
-61.05944705215183
 20
49.087529391868955
 10
-61.54717285719215
 20
49.03949259287703
 10
-62.01615563306456
 20
48.89722822314717
 10
-62.44837263470084
 20
48.666203422625316
 10
-62.8272140051182
 20
48.35529634483532
 10
-63.13812108290819
 20
47.976454974417955
 10
-63.36914588343004
 20
47.54423797278167
 10
-63.5114102531599
 20
47.07525519690927
 10
-63.559447052151825
 20
46.58752939186895
 10
-63.5114102531599
 20
46.09980358682863
 10
-63.369145883430036
 20
45.63082081095622
 10
-63.138121082908185
 20
45.19860380931994
 10
-62.827214005118186
 20
44.81976243890258
 10
-62.448372634700824
 20
44.50885536111259
 10
-62.01615563306454
 20
44.277830560590736
 10
-61.54717285719214
 20
44.13556619086088
 10
-61.05944705215182
 20
44.087529391868955
 10
-60.5717212471115
 20
44.13556619086088
 10
-60.1027384712391
 20
44.277830560590736
 10
-59.67052146960282
 20
44.508855361112595
 10
-59.291680099185456
 20
44.819762438902586
 10
-58.980773021395464
 20
45.19860380931995
 10
-58.749748220873606
 20
45.63082081095623
 10
-58.60748385114375
 20
46.099803586828635
 10
-58.559447052151825
 20
46.587529391868955
  0
LWPOLYLINE
  5
36
330
17
100
AcDbEntity
  8
0
100
AcDbPolyline
 90
7
 70
0
 10
-55.56882205215182
 20
-72.26715810813104
 10
-55.56882205215182
 20
-75.91247060813104
 10
-53.30085330215182
 20
-75.91247060813104
 10
-53.30085330215182
 20
-75.49762685813104
 10
-55.07585330215183
 20
-75.49762685813104
 10
-55.07585330215183
 20
-72.26715810813104
 10
-55.56882205215182
 20
-72.26715810813104
  0
LWPOLYLINE
  5
37
330
17
100
AcDbEntity
  8
0
100
AcDbPolyline
 90
166
 70
0
 10
-39.57028689590182
 20
-75.49762685813104
 10
-39.45376345840182
 20
-75.37875967063104
 10
-39.34263064590182
 20
-75.26528310813104
 10
-39.23688845840182
 20
-75.15719717063105
 10
-39.13653689590183
 20
-75.05450185813105
 10
-39.04157595840182
 20
-74.95719717063105
 10
-38.95200564590183
 20
-74.86528310813104
 10
-38.86782595840182
 20
-74.77875967063105
 10
-38.789036895901816
 20
-74.69762685813104
 10
-38.71563845840183
 20
-74.62188467063105
 10
-38.64763064590183
 20
-74.55153310813104
 10
-38.58482595840182
 20
-74.48654873313104
 10
-38.52734939590182
 20
-74.42690810813104
 10
-38.47520095840183
 20
-74.37261123313104
 10
-38.428380645901825
 20
-74.32365810813104
 10
-38.38688845840183
 20
-74.28004873313104
 10
-38.35072439590182
 20
-74.24178310813105
 10
-38.31988845840183
 20
-74.20886123313105
 10
-38.294380645901825
 20
-74.18128310813104
 10
-38.27420095840182
 20
-74.15904873313104
 10
-38.25934939590182
 20
-74.14215810813104
 10
-38.21620877090182
 20
-74.08819717063105
 10
-38.17584939590182
 20
-74.03568935813105
 10
-38.138271270901825
 20
-73.98463467063104
 10
-38.10347439590183
 20
-73.93503310813105
 10
-38.07145877090183
 20
-73.88688467063105
 10
-38.042224395901826
 20
-73.84018935813104
 10
-38.01577127090182
 20
-73.79494717063105
 10
-37.99209939590182
 20
-73.75115810813105
 10
-37.971208770901825
 20
-73.70882217063104
 10
-37.95309939590182
 20
-73.66793935813105
 10
-37.93706814590182
 20
-73.62739248313105
 10
-37.922724395901824
 20
-73.58637685813105
 10
-37.910068145901825
 20
-73.54489248313105
 10
-37.89909939590183
 20
-73.50293935813104
 10
-37.88981814590183
 20
-73.46051748313104
 10
-37.88222439590183
 20
-73.41762685813104
 10
-37.87631814590182
 20
-73.37426748313105
 10
-37.87209939590183
 20
-73.33043935813104
 10
-37.86956814590182
 20
-73.28614248313104
 10
-37.86872439590182
 20
-73.24137685813105
 10
-37.872091583401826
 20
-73.14859560813105
 10
-37.88219314590182
 20
-73.05962685813104
 10
-37.89902908340183
 20
-72.97447060813104
 10
-37.92259939590183
 20
-72.89312685813104
 10
-37.952904083401826
 20
-72.81559560813105
 10
-37.989943145901826
 20
-72.74187685813105
 10
-38.03371658340183
 20
-72.67197060813105
 10
-38.08422439590182
 20
-72.60587685813104
 10
-38.14146658340182
 20
-72.54359560813104
 10
-38.205443145901825
 20
-72.48512685813104
 10
-38.27508377090183
 20
-72.43124404563105
 10
-38.34931814590182
 20
-72.38303310813104
 10
-38.42814627090183
 20
-72.34049404563105
 10
-38.51156814590182
 20
-72.30362685813104
 10
-38.59958377090182
 20
-72.27243154563105
 10
-38.692193145901825
 20
-72.24690810813104
 10
-38.789396270901825
 20
-72.22705654563104
 10
-38.89119314590182
 20
-72.21287685813104
 10
-38.99758377090183
 20
-72.20436904563104
 10
-39.10856814590183
 20
-72.20153310813104
 10
-39.151982208401826
 20
-72.20214248313104
 10
-39.19628689590182
 20
-72.20397060813104
 10
-39.24148220840182
 20
-72.20701748313104
 10
-39.28756814590182
 20
-72.21128310813104
 10
-39.33454470840182
 20
-72.21676748313105
 10
-39.382411895901825
 20
-72.22347060813104
 10
-39.431169708401825
 20
-72.23139248313105
 10
-39.48081814590182
 20
-72.24053310813105
 10
-39.531357208401815
 20
-72.25089248313104
 10
-39.58278689590182
 20
-72.26247060813104
 10
-39.63489627090182
 20
-72.27524404563104
 10
-39.68778689590182
 20
-72.28918935813104
 10
-39.74145877090182
 20
-72.30430654563105
 10
-39.795911895901824
 20
-72.32059560813104
 10
-39.85114627090182
 20
-72.33805654563105
 10
-39.90716189590182
 20
-72.35668935813105
 10
-39.963958770901826
 20
-72.37649404563105
 10
-40.02153689590182
 20
-72.39747060813104
 10
-40.07989627090183
 20
-72.41961904563104
 10
-40.139036895901825
 20
-72.44293935813104
 10
-40.139036895901825
 20
-72.94137685813105
 10
-40.08080252090183
 20
-72.90940029563104
 10
-40.02328689590182
 20
-72.87909560813104
 10
-39.96649002090183
 20
-72.85046279563105
 10
-39.910411895901824
 20
-72.82350185813104
 10
-39.85505252090182
 20
-72.79821279563104
 10
-39.800411895901824
 20
-72.77459560813105
 10
-39.746490020901824
 20
-72.75265029563104
 10
-39.69328689590182
 20
-72.73237685813105
 10
-39.64080252090182
 20
-72.71377529563105
 10
-39.58903689590183
 20
-72.69684560813104
 10
-39.53773220840182
 20
-72.68155654563104
 10
-39.48694314590182
 20
-72.66787685813104
 10
-39.43666970840182
 20
-72.65580654563105
 10
-39.386911895901825
 20
-72.64534560813104
 10
-39.337669708401826
 20
-72.63649404563104
 10
-39.288943145901825
 20
-72.62925185813104
 10
-39.24073220840182
 20
-72.62361904563105
 10
-39.19303689590183
 20
-72.61959560813105
 10
-39.14585720840182
 20
-72.61718154563104
 10
-39.09919314590182
 20
-72.61637685813105
 10
-39.034958770901824
 20
-72.61821279563104
 10
-38.973193145901824
 20
-72.62372060813104
 10
-38.91389627090182
 20
-72.63290029563105
 10
-38.85706814590182
 20
-72.64575185813105
 10
-38.80270877090182
 20
-72.66227529563105
 10
-38.750818145901825
 20
-72.68247060813104
 10
-38.701396270901824
 20
-72.70633779563104
 10
-38.65444314590182
 20
-72.73387685813104
 10
-38.60995877090183
 20
-72.76508779563105
 10
-38.56794314590182
 20
-72.79997060813105
 10
-38.52920095840182
 20
-72.83761123313104
 10
-38.494536895901824
 20
-72.87740810813105
 10
-38.463950958401824
 20
-72.91936123313104
 10
-38.437443145901824
 20
-72.96347060813105
 10
-38.41501345840182
 20
-73.00973623313105
 10
-38.39666189590182
 20
-73.05815810813104
 10
-38.38238845840182
 20
-73.10873623313104
 10
-38.37219314590182
 20
-73.16147060813104
 10
-38.36607595840182
 20
-73.21636123313104
 10
-38.36403689590182
 20
-73.27340810813105
 10
-38.36498220840183
 20
-73.30909560813105
 10
-38.36781814590182
 20
-73.34490810813105
 10
-38.37254470840182
 20
-73.38084560813104
 10
-38.379161895901824
 20
-73.41690810813104
 10
-38.38766970840182
 20
-73.45309560813105
 10
-38.398068145901824
 20
-73.48940810813104
 10
-38.41035720840182
 20
-73.52584560813105
 10
-38.424536895901824
 20
-73.56240810813104
 10
-38.44060720840182
 20
-73.59909560813105
 10
-38.45856814590182
 20
-73.63590810813105
 10
-38.478747833401826
 20
-73.67359560813105
 10
-38.50178689590182
 20
-73.71290810813105
 10
-38.52768533340183
 20
-73.75384560813104
 10
-38.556443145901824
 20
-73.79640810813105
 10
-38.58806033340183
 20
-73.84059560813104
 10
-38.622536895901824
 20
-73.88640810813105
 10
-38.65987283340182
 20
-73.93384560813105
 10
-38.700068145901824
 20
-73.98290810813104
 10
-38.74312283340183
 20
-74.03359560813105
 10
-38.78903689590182
 20
-74.08590810813105
 10
-38.81749002090182
 20
-74.11782217063104
 10
-38.85316189590182
 20
-74.15668935813105
 10
-38.896052520901826
 20
-74.20250967063104
 10
-38.946161895901824
 20
-74.25528310813104
 10
-39.00349002090182
 20
-74.31500967063104
 10
-39.06803689590183
 20
-74.38168935813104
 10
-39.139802520901824
 20
-74.45532217063105
 10
-39.21878689590182
 20
-74.53590810813104
 10
-39.304990020901826
 20
-74.62344717063104
 10
-39.39841189590182
 20
-74.71793935813105
 10
-39.493247833401824
 20
-74.81376748313104
 10
-39.584005645901826
 20
-74.90562685813104
 10
-39.67068533340182
 20
-74.99351748313104
 10
-39.75328689590182
 20
-75.07743935813104
 10
-39.831810333401826
 20
-75.15739248313105
 10
-39.90625564590182
 20
-75.23337685813104
 10
-39.97662283340182
 20
-75.30539248313104
 10
-40.042911895901824
 20
-75.37343935813105
 10
-40.10512283340182
 20
-75.43751748313105
 10
-40.16325564590183
 20
-75.49762685813104
 10
-40.16325564590183
 20
-75.91247060813104
 10
-37.84919314590182
 20
-75.91247060813104
 10
-37.84919314590182
 20
-75.49762685813104
 10
-39.57028689590182
 20
-75.49762685813104
  0
LWPOLYLINE
  5
38
330
17
100
AcDbEntity
  8
0
100
AcDbPolyline
 90
87
 70
0
 10
-42.11921267715182
 20
-73.59762685813105
 10
-42.12155642715182
 20
-73.13668935813105
 10
-42.13503298965182
 20
-73.13425967063104
 10
-42.148275177151824
 20
-73.13197060813104
 10
-42.16128298965182
 20
-73.12982217063104
 10
-42.174056427151825
 20
-73.12781435813105
 10
-42.18659548965182
 20
-73.12594717063105
 10
-42.19890017715182
 20
-73.12422060813104
 10
-42.21097048965183
 20
-73.12263467063104
 10
-42.22280642715182
 20
-73.12118935813105
 10
-42.23440798965182
 20
-73.11988467063104
 10
-42.24577517715183
 20
-73.11872060813104
 10
-42.256923614651825
 20
-73.11753310813104
 10
-42.267868927151824
 20
-73.11647060813104
 10
-42.278611114651824
 20
-73.11553310813105
 10
-42.289150177151825
 20
-73.11472060813105
 10
-42.29948611465183
 20
-73.11403310813104
 10
-42.309618927151824
 20
-73.11347060813104
 10
-42.31954861465182
 20
-73.11303310813105
 10
-42.32927517715182
 20
-73.11272060813104
 10
-42.33879861465182
 20
-73.11253310813105
 10
-42.34811892715182
 20
-73.11247060813105
 10
-42.41214236465182
 20
-73.11368154563104
 10
-42.474212677151826
 20
-73.11731435813104
 10
-42.53432986465182
 20
-73.12336904563105
 10
-42.59249392715182
 20
-73.13184560813104
 10
-42.648704864651826
 20
-73.14274404563105
 10
-42.702962677151824
 20
-73.15606435813105
 10
-42.75526736465182
 20
-73.17180654563104
 10
-42.80561892715182
 20
-73.18997060813105
 10
-42.854017364651824
 20
-73.21055654563105
 10
-42.90046267715182
 20
-73.23356435813105
 10
-42.94493142715182
 20
-73.25891592063104
 10
-42.98771267715182
 20
-73.28684560813105
 10
-43.02880642715182
 20
-73.31735342063105
 10
-43.06821267715182
 20
-73.35043935813104
 10
-43.10593142715182
 20
-73.38610342063104
 10
-43.141962677151824
 20
-73.42434560813105
 10
-43.17630642715182
 20
-73.46516592063105
 10
-43.208962677151824
 20
-73.50856435813104
 10
-43.239931427151824
 20
-73.55454092063104
 10
-43.26921267715183
 20
-73.60309560813104
 10
-43.26921267715183
 20
-73.17809560813104
 10
-43.72077517715182
 20
-73.17809560813104
 10
-43.72077517715182
 20
-75.91247060813104
 10
-43.26921267715183
 20
-75.91247060813104
 10
-43.26921267715183
 20
-74.47184560813105
 10
-43.267173614651824
 20
-74.38119717063104
 10
-43.26105642715182
 20
-74.29487685813105
 10
-43.250861114651826
 20
-74.21288467063104
 10
-43.236587677151824
 20
-74.13522060813105
 10
-43.21823611465182
 20
-74.06188467063104
 10
-43.19580642715182
 20
-73.99287685813104
 10
-43.16929861465182
 20
-73.92819717063105
 10
-43.13871267715182
 20
-73.86784560813105
 10
-43.10404861465182
 20
-73.81182217063105
 10
-43.065306427151825
 20
-73.76012685813104
 10
-43.022751739651824
 20
-73.71307217063105
 10
-42.976650177151825
 20
-73.67097060813104
 10
-42.92700173965183
 20
-73.63382217063105
 10
-42.87380642715182
 20
-73.60162685813104
 10
-42.81706423965183
 20
-73.57438467063105
 10
-42.75677517715182
 20
-73.55209560813104
 10
-42.69293923965182
 20
-73.53475967063105
 10
-42.62555642715182
 20
-73.52237685813104
 10
-42.55462673965182
 20
-73.51494717063105
 10
-42.48015017715183
 20
-73.51247060813104
 10
-42.45892361465182
 20
-73.51268154563104
 10
-42.43805642715182
 20
-73.51331435813104
 10
-42.41754861465182
 20
-73.51436904563104
 10
-42.39740017715182
 20
-73.51584560813104
 10
-42.37761111465183
 20
-73.51774404563105
 10
-42.35818142715182
 20
-73.52006435813104
 10
-42.33911111465183
 20
-73.52280654563104
 10
-42.320400177151825
 20
-73.52597060813105
 10
-42.302048614651824
 20
-73.52955654563104
 10
-42.284056427151825
 20
-73.53356435813104
 10
-42.266376739651825
 20
-73.53786123313104
 10
-42.24896267715182
 20
-73.54262685813104
 10
-42.231814239651825
 20
-73.54786123313104
 10
-42.214931427151825
 20
-73.55356435813104
 10
-42.19831423965182
 20
-73.55973623313105
 10
-42.18196267715182
 20
-73.56637685813105
 10
-42.16587673965182
 20
-73.57348623313105
 10
-42.150056427151824
 20
-73.58106435813104
 10
-42.134501739651824
 20
-73.58911123313105
 10
-42.11921267715182
 20
-73.59762685813105
  0
LWPOLYLINE
  5
39
330
17
100
AcDbEntity
  8
0
100
AcDbPolyline
 90
124
 70
0
 10
-44.440697052151826
 20
-74.43278310813105
 10
-44.44390798965183
 20
-74.31330654563105
 10
-44.45354080215182
 20
-74.19893935813104
 10
-44.46959548965182
 20
-74.08968154563104
 10
-44.492072052151826
 20
-73.98553310813105
 10
-44.52097048965182
 20
-73.88649404563104
 10
-44.55629080215182
 20
-73.79256435813105
 10
-44.59803298965183
 20
-73.70374404563104
 10
-44.64619705215182
 20
-73.62003310813104
 10
-44.70078298965182
 20
-73.54143154563104
 10
-44.76179080215182
 20
-73.46793935813105
 10
-44.828314239651824
 20
-73.40040029563104
 10
-44.89944705215183
 20
-73.33997060813104
 10
-44.975189239651826
 20
-73.28665029563105
 10
-45.055540802151825
 20
-73.24043935813104
 10
-45.140501739651825
 20
-73.20133779563105
 10
-45.230072052151826
 20
-73.16934560813104
 10
-45.32425173965182
 20
-73.14446279563104
 10
-45.423040802151824
 20
-73.12668935813105
 10
-45.52643923965182
 20
-73.11602529563105
 10
-45.63444705215183
 20
-73.11247060813105
 10
-45.755040802151825
 20
-73.11641592063104
 10
-45.87057205215182
 20
-73.12825185813105
 10
-45.981040802151824
 20
-73.14797842063105
 10
-46.086447052151826
 20
-73.17559560813105
 10
-46.18679080215182
 20
-73.21110342063105
 10
-46.282072052151825
 20
-73.25450185813105
 10
-46.372290802151824
 20
-73.30579092063104
 10
-46.45744705215182
 20
-73.36497060813105
 10
-46.537540802151824
 20
-73.43204092063104
 10
-46.612572052151826
 20
-73.50700185813105
 10
-46.681447052151825
 20
-73.58852529563104
 10
-46.743072052151824
 20
-73.67559560813105
 10
-46.797447052151824
 20
-73.76821279563104
 10
-46.844572052151825
 20
-73.86637685813105
 10
-46.88444705215183
 20
-73.97008779563104
 10
-46.91707205215182
 20
-74.07934560813105
 10
-46.94244705215183
 20
-74.19415029563105
 10
-46.960572052151825
 20
-74.31450185813104
 10
-46.971447052151824
 20
-74.44040029563105
 10
-46.97507205215182
 20
-74.57184560813104
 10
-46.97125173965183
 20
-74.69915810813104
 10
-46.95979080215182
 20
-74.82109560813105
 10
-46.940689239651824
 20
-74.93765810813105
 10
-46.913947052151826
 20
-75.04884560813105
 10
-46.87956423965183
 20
-75.15465810813104
 10
-46.83754080215182
 20
-75.25509560813104
 10
-46.78787673965182
 20
-75.35015810813104
 10
-46.73057205215182
 20
-75.43984560813105
 10
-46.66562673965183
 20
-75.52415810813105
 10
-46.593040802151826
 20
-75.60309560813104
 10
-46.51390798965183
 20
-75.67538467063105
 10
-46.429322052151825
 20
-75.74006435813105
 10
-46.33928298965182
 20
-75.79713467063104
 10
-46.24379080215182
 20
-75.84659560813104
 10
-46.142845489651826
 20
-75.88844717063104
 10
-46.03644705215182
 20
-75.92268935813105
 10
-45.92459548965182
 20
-75.94932217063105
 10
-45.80729080215182
 20
-75.96834560813105
 10
-45.68453298965182
 20
-75.97975967063104
 10
-45.55632205215183
 20
-75.98356435813105
 10
-45.504204864651825
 20
-75.98302529563105
 10
-45.45222830215182
 20
-75.98140810813105
 10
-45.40039236465182
 20
-75.97871279563104
 10
-45.34869705215182
 20
-75.97493935813104
 10
-45.29714236465182
 20
-75.97008779563104
 10
-45.245728302151825
 20
-75.96415810813104
 10
-45.194454864651824
 20
-75.95715029563104
 10
-45.14332205215182
 20
-75.94906435813104
 10
-45.09232986465182
 20
-75.93990029563105
 10
-45.04147830215182
 20
-75.92965810813105
 10
-44.990814239651826
 20
-75.91839248313104
 10
-44.940384552151826
 20
-75.90615810813104
 10
-44.890189239651825
 20
-75.89295498313105
 10
-44.84022830215182
 20
-75.87878310813105
 10
-44.79050173965182
 20
-75.86364248313104
 10
-44.74100955215182
 20
-75.84753310813105
 10
-44.69175173965182
 20
-75.83045498313105
 10
-44.64272830215182
 20
-75.81240810813104
 10
-44.59393923965182
 20
-75.79339248313104
 10
-44.54538455215182
 20
-75.77340810813105
 10
-44.54538455215182
 20
-75.34840810813104
 10
-44.593384552151825
 20
-75.37323623313104
 10
-44.64144705215182
 20
-75.39678310813105
 10
-44.689572052151824
 20
-75.41904873313105
 10
-44.73775955215182
 20
-75.44003310813105
 10
-44.786009552151825
 20
-75.45973623313104
 10
-44.834322052151826
 20
-75.47815810813104
 10
-44.882697052151826
 20
-75.49529873313105
 10
-44.931134552151825
 20
-75.51115810813104
 10
-44.97963455215182
 20
-75.52573623313104
 10
-45.028197052151825
 20
-75.53903310813105
 10
-45.07694705215182
 20
-75.55105654563104
 10
-45.12600955215183
 20
-75.56181435813104
 10
-45.175384552151826
 20
-75.57130654563105
 10
-45.22507205215182
 20
-75.57953310813105
 10
-45.27507205215183
 20
-75.58649404563104
 10
-45.325384552151824
 20
-75.59218935813105
 10
-45.37600955215183
 20
-75.59661904563104
 10
-45.42694705215182
 20
-75.59978310813105
 10
-45.47819705215183
 20
-75.60168154563104
 10
-45.52975955215182
 20
-75.60231435813104
 10
-45.617165802151824
 20
-75.59988467063104
 10
-45.700634552151826
 20
-75.59259560813105
 10
-45.78016580215182
 20
-75.58044717063105
 10
-45.855759552151824
 20
-75.56343935813105
 10
-45.92741580215183
 20
-75.54157217063104
 10
-45.995134552151825
 20
-75.51484560813104
 10
-46.05891580215182
 20
-75.48325967063104
 10
-46.11875955215182
 20
-75.44681435813105
 10
-46.17466580215182
 20
-75.40550967063105
 10
-46.22663455215182
 20
-75.35934560813105
 10
-46.274431427151825
 20
-75.30854092063105
 10
-46.317822052151826
 20
-75.25331435813105
 10
-46.356806427151824
 20
-75.19366592063105
 10
-46.39138455215182
 20
-75.12959560813104
 10
-46.42155642715183
 20
-75.06110342063104
 10
-46.447322052151826
 20
-74.98818935813104
 10
-46.46868142715182
 20
-74.91085342063104
 10
-46.48563455215182
 20
-74.82909560813104
 10
-46.49818142715182
 20
-74.74291592063105
 10
-46.50632205215182
 20
-74.65231435813105
 10
-44.440697052151826
 20
-74.65231435813105
 10
-44.440697052151826
 20
-74.43278310813105
  0
LWPOLYLINE
  5
3A
330
17
100
AcDbEntity
  8
0
100
AcDbPolyline
 90
147
 70
0
 10
-50.66364627090182
 20
-74.35231435813104
 10
-50.66657595840182
 20
-74.23049404563105
 10
-50.67536502090182
 20
-74.11503310813104
 10
-50.69001345840182
 20
-74.00593154563104
 10
-50.71052127090182
 20
-73.90318935813104
 10
-50.73688845840182
 20
-73.80680654563105
 10
-50.76911502090182
 20
-73.71678310813104
 10
-50.80720095840182
 20
-73.63311904563105
 10
-50.85114627090182
 20
-73.55581435813104
 10
-50.90095095840182
 20
-73.48486904563104
 10
-50.95661502090182
 20
-73.42028310813104
 10
-51.01821658340182
 20
-73.36179873313104
 10
-51.08583377090182
 20
-73.30947060813105
 10
-51.15946658340182
 20
-73.26329873313105
 10
-51.23911502090183
 20
-73.22328310813104
 10
-51.32477908340182
 20
-73.18942373313105
 10
-51.416458770901826
 20
-73.16172060813105
 10
-51.51415408340183
 20
-73.14017373313105
 10
-51.617865020901824
 20
-73.12478310813104
 10
-51.727591583401825
 20
-73.11554873313105
 10
-51.84333377090182
 20
-73.11247060813105
 10
-51.887365020901825
 20
-73.11294717063105
 10
-51.93164627090182
 20
-73.11437685813104
 10
-51.97617752090183
 20
-73.11675967063104
 10
-52.02095877090183
 20
-73.12009560813104
 10
-52.06599002090182
 20
-73.12438467063104
 10
-52.111271270901824
 20
-73.12962685813105
 10
-52.15680252090183
 20
-73.13582217063104
 10
-52.202583770901825
 20
-73.14297060813104
 10
-52.24861502090182
 20
-73.15107217063104
 10
-52.29489627090182
 20
-73.16012685813105
 10
-52.34144314590183
 20
-73.16998623313104
 10
-52.388271270901825
 20
-73.18081435813104
 10
-52.43538064590182
 20
-73.19261123313105
 10
-52.48277127090182
 20
-73.20537685813105
 10
-52.53044314590183
 20
-73.21911123313104
 10
-52.57839627090183
 20
-73.23381435813104
 10
-52.62663064590183
 20
-73.24948623313105
 10
-52.67514627090183
 20
-73.26612685813105
 10
-52.72394314590183
 20
-73.28373623313104
 10
-52.77302127090182
 20
-73.30231435813104
 10
-52.77302127090182
 20
-73.71793935813105
 10
-52.731911895901824
 20
-73.69600185813104
 10
-52.69045877090183
 20
-73.67518935813105
 10
-52.648661895901824
 20
-73.65550185813105
 10
-52.60652127090182
 20
-73.63693935813104
 10
-52.56403689590182
 20
-73.61950185813104
 10
-52.52120877090182
 20
-73.60318935813105
 10
-52.47803689590182
 20
-73.58800185813105
 10
-52.434521270901826
 20
-73.57393935813104
 10
-52.39066189590182
 20
-73.56100185813105
 10
-52.346458770901826
 20
-73.54918935813104
 10
-52.301810333401825
 20
-73.53850185813104
 10
-52.256927520901826
 20
-73.52893935813104
 10
-52.21181033340182
 20
-73.52050185813104
 10
-52.166458770901826
 20
-73.51318935813104
 10
-52.120872833401826
 20
-73.50700185813105
 10
-52.07505252090182
 20
-73.50193935813104
 10
-52.028997833401824
 20
-73.49800185813105
 10
-51.98270877090182
 20
-73.49518935813104
 10
-51.93618533340182
 20
-73.49350185813104
 10
-51.889427520901826
 20
-73.49293935813104
 10
-51.817325958401824
 20
-73.49463467063104
 10
-51.748521270901826
 20
-73.49972060813104
 10
-51.683013458401824
 20
-73.50819717063105
 10
-51.620802520901826
 20
-73.52006435813104
 10
-51.561888458401825
 20
-73.53532217063105
 10
-51.50627127090183
 20
-73.55397060813104
 10
-51.453950958401826
 20
-73.57600967063104
 10
-51.40492752090182
 20
-73.60143935813105
 10
-51.35920095840182
 20
-73.63025967063105
 10
-51.316771270901825
 20
-73.66247060813104
 10
-51.278029083401826
 20
-73.69778310813105
 10
-51.24336502090183
 20
-73.73590810813104
 10
-51.21277908340183
 20
-73.77684560813104
 10
-51.18627127090183
 20
-73.82059560813104
 10
-51.163841583401826
 20
-73.86715810813105
 10
-51.145490020901825
 20
-73.91653310813105
 10
-51.13121658340182
 20
-73.96872060813105
 10
-51.12102127090182
 20
-74.02372060813104
 10
-51.114904083401825
 20
-74.08153310813104
 10
-51.11286502090182
 20
-74.14215810813104
 10
-51.11286502090182
 20
-74.18668935813105
 10
-51.74333377090183
 20
-74.18668935813105
 10
-51.86280252090182
 20
-74.18903310813104
 10
-51.97620877090182
 20
-74.19606435813104
 10
-52.083552520901826
 20
-74.20778310813104
 10
-52.184833770901825
 20
-74.22418935813104
 10
-52.280052520901826
 20
-74.24528310813105
 10
-52.36920877090182
 20
-74.27106435813104
 10
-52.452302520901824
 20
-74.30153310813104
 10
-52.52933377090182
 20
-74.33668935813104
 10
-52.60030252090182
 20
-74.37653310813104
 10
-52.66520877090183
 20
-74.42106435813105
 10
-52.72384158340182
 20
-74.47020498313104
 10
-52.77630252090182
 20
-74.52387685813105
 10
-52.822591583401824
 20
-74.58207998313104
 10
-52.862708770901826
 20
-74.64481435813104
 10
-52.89665408340183
 20
-74.71207998313105
 10
-52.92442752090182
 20
-74.78387685813105
 10
-52.946029083401825
 20
-74.86020498313104
 10
-52.96145877090182
 20
-74.94106435813104
 10
-52.970716583401824
 20
-75.02645498313105
 10
-52.97380252090183
 20
-75.11637685813105
 10
-52.97132595840183
 20
-75.19384560813104
 10
-52.96389627090183
 20
-75.26812685813104
 10
-52.95151345840183
 20
-75.33922060813104
 10
-52.93417752090183
 20
-75.40712685813105
 10
-52.911888458401826
 20
-75.47184560813105
 10
-52.884646270901825
 20
-75.53337685813105
 10
-52.852450958401825
 20
-75.59172060813104
 10
-52.815302520901824
 20
-75.64687685813105
 10
-52.77320095840182
 20
-75.69884560813105
 10
-52.72614627090182
 20
-75.74762685813104
 10
-52.674747833401824
 20
-75.79245498313105
 10
-52.619927520901825
 20
-75.83256435813105
 10
-52.561685333401826
 20
-75.86795498313104
 10
-52.500021270901826
 20
-75.89862685813104
 10
-52.434935333401825
 20
-75.92457998313104
 10
-52.36642752090182
 20
-75.94581435813105
 10
-52.29449783340183
 20
-75.96232998313104
 10
-52.219146270901824
 20
-75.97412685813104
 10
-52.14037283340183
 20
-75.98120498313105
 10
-52.05817752090182
 20
-75.98356435813105
 10
-51.992794708401824
 20
-75.98237685813105
 10
-51.929458770901824
 20
-75.97881435813105
 10
-51.86816970840182
 20
-75.97287685813104
 10
-51.808927520901825
 20
-75.96456435813104
 10
-51.751732208401826
 20
-75.95387685813104
 10
-51.696583770901825
 20
-75.94081435813105
 10
-51.64348220840182
 20
-75.92537685813105
 10
-51.59242752090182
 20
-75.90756435813104
 10
-51.54341970840183
 20
-75.88737685813105
 10
-51.496458770901825
 20
-75.86481435813104
 10
-51.45127908340182
 20
-75.83976748313104
 10
-51.40761502090182
 20
-75.81212685813105
 10
-51.365466583401826
 20
-75.78189248313105
 10
-51.324833770901826
 20
-75.74906435813105
 10
-51.28571658340182
 20
-75.71364248313104
 10
-51.24811502090182
 20
-75.67562685813104
 10
-51.21202908340182
 20
-75.63501748313105
 10
-51.17745877090182
 20
-75.59181435813105
 10
-51.144404083401824
 20
-75.54601748313104
 10
-51.11286502090182
 20
-75.49762685813104
 10
-51.11286502090182
 20
-75.91247060813104
 10
-50.66364627090182
 20
-75.91247060813104
 10
-50.66364627090182
 20
-74.35231435813104
  0
LWPOLYLINE
  5
3B
330
17
100
AcDbEntity
  8
0
100
AcDbPolyline
 90
51
 70
0
 10
-48.60124392715183
 20
-76.16637685813104
 10
-47.399681427151826
 20
-73.17809560813104
 10
-47.87546267715182
 20
-73.17809560813104
 10
-48.73015017715183
 20
-75.31637685813105
 10
-49.584837677151825
 20
-73.17809560813104
 10
-50.06061892715182
 20
-73.17809560813104
 10
-48.95515017715182
 20
-75.86872060813104
 10
-49.03561892715182
 20
-76.07340810813105
 10
-49.060251739651825
 20
-76.13647842063105
 10
-49.084462677151826
 20
-76.19475185813104
 10
-49.10825173965182
 20
-76.24822842063105
 10
-49.13161892715183
 20
-76.29690810813105
 10
-49.154564239651826
 20
-76.34079092063105
 10
-49.177087677151825
 20
-76.37987685813104
 10
-49.19918923965182
 20
-76.41416592063105
 10
-49.22086892715183
 20
-76.44365810813105
 10
-49.24212673965182
 20
-76.46835342063105
 10
-49.262962677151826
 20
-76.48825185813105
 10
-49.28425955215182
 20
-76.50502529563104
 10
-49.307212677151824
 20
-76.52003310813105
 10
-49.33182205215182
 20
-76.53327529563104
 10
-49.35808767715182
 20
-76.54475185813105
 10
-49.386009552151826
 20
-76.55446279563104
 10
-49.41558767715183
 20
-76.56240810813104
 10
-49.44682205215182
 20
-76.56858779563105
 10
-49.479712677151824
 20
-76.57300185813105
 10
-49.51425955215182
 20
-76.57565029563105
 10
-49.55046267715183
 20
-76.57653310813104
 10
-49.81452517715182
 20
-76.57653310813104
 10
-49.81452517715182
 20
-76.95231435813105
 10
-49.45515017715182
 20
-76.95231435813105
 10
-49.39590017715182
 20
-76.95082217063104
 10
-49.339087677151824
 20
-76.94634560813104
 10
-49.28471267715182
 20
-76.93888467063104
 10
-49.23277517715182
 20
-76.92843935813104
 10
-49.18327517715183
 20
-76.91500967063105
 10
-49.136212677151825
 20
-76.89859560813105
 10
-49.09158767715182
 20
-76.87919717063104
 10
-49.049400177151824
 20
-76.85681435813105
 10
-49.009650177151826
 20
-76.83144717063105
 10
-48.97233767715183
 20
-76.80309560813104
 10
-48.93600173965182
 20
-76.77000967063104
 10
-48.89949392715182
 20
-76.73012685813104
 10
-48.862814239651826
 20
-76.68344717063104
 10
-48.82596267715182
 20
-76.62997060813105
 10
-48.788939239651825
 20
-76.56969717063104
 10
-48.75174392715182
 20
-76.50262685813105
 10
-48.714376739651826
 20
-76.42875967063104
 10
-48.67683767715182
 20
-76.34809560813105
 10
-48.63912673965182
 20
-76.26063467063105
 10
-48.60124392715183
 20
-76.16637685813104
  0
ENDSEC
  0
SECTION
  2
OBJECTS
  0
DICTIONARY
  5
A
330
0
100
AcDbDictionary
281
1
  3
ACAD_COLOR
350
B
  3
ACAD_GROUP
350
C
  3
ACAD_LAYOUT
350
D
  3
ACAD_MATERIAL
350
E
  3
ACAD_MLEADERSTYLE
350
F
  3
ACAD_MLINESTYLE
350
10
  3
ACAD_PLOTSETTINGS
350
11
  3
ACAD_PLOTSTYLENAME
350
12
  3
ACAD_SCALELIST
350
14
  3
ACAD_TABLESTYLE
350
15
  3
ACAD_VISUALSTYLE
350
16
  3
EZDXF_META
350
2D
  0
DICTIONARY
  5
B
330
A
100
AcDbDictionary
281
1
  0
DICTIONARY
  5
C
330
A
100
AcDbDictionary
281
1
  0
DICTIONARY
  5
D
330
A
100
AcDbDictionary
281
1
  3
Model
350
1A
  3
Layout1
350
1E
  0
DICTIONARY
  5
E
330
A
100
AcDbDictionary
281
1
  3
ByBlock
350
1F
  3
ByLayer
350
20
  3
Global
350
21
  0
DICTIONARY
  5
F
330
A
100
AcDbDictionary
281
1
  3
Standard
350
2C
  0
DICTIONARY
  5
10
330
A
100
AcDbDictionary
281
1
  3
Standard
350
22
  0
DICTIONARY
  5
11
330
A
100
AcDbDictionary
281
1
  0
ACDBDICTIONARYWDFLT
  5
12
330
A
100
AcDbDictionary
281
1
  3
Normal
350
13
100
AcDbDictionaryWithDefault
340
13
  0
ACDBPLACEHOLDER
  5
13
330
12
  0
DICTIONARY
  5
14
330
A
100
AcDbDictionary
281
1
  0
DICTIONARY
  5
15
330
A
100
AcDbDictionary
281
1
  0
DICTIONARY
  5
16
330
A
100
AcDbDictionary
281
1
  0
LAYOUT
  5
1A
330
D
100
AcDbPlotSettings
  1

  2
Adobe PDF
  4
A3
  6

 40
7.5
 41
20.0
 42
7.5
 43
20.0
 44
420.0
 45
297.0
 46
0.0
 47
0.0
 48
0.0
 49
0.0
140
0.0
141
0.0
142
1.0
143
1.0
 70
1024
 72
1
 73
1
 74
5
  7

 75
16
 76
0
 77
2
 78
300
147
1.0
148
0.0
149
0.0
100
AcDbLayout
  1
Model
 70
1
 71
0
 10
0.0
 20
0.0
 11
420.0
 21
297.0
 12
0.0
 22
0.0
 32
0.0
 14
1e+20
 24
1e+20
 34
1e+20
 15
-1e+20
 25
-1e+20
 35
-1e+20
146
0.0
 13
0.0
 23
0.0
 33
0.0
 16
1.0
 26
0.0
 36
0.0
 17
0.0
 27
1.0
 37
0.0
 76
1
330
17
  0
LAYOUT
  5
1E
330
D
100
AcDbPlotSettings
  1

  2
Adobe PDF
  4
A3
  6

 40
7.5
 41
20.0
 42
7.5
 43
20.0
 44
420.0
 45
297.0
 46
0.0
 47
0.0
 48
0.0
 49
0.0
140
0.0
141
0.0
142
1.0
143
1.0
 70
0
 72
1
 73
1
 74
5
  7

 75
16
 76
0
 77
2
 78
300
147
1.0
148
0.0
149
0.0
100
AcDbLayout
  1
Layout1
 70
1
 71
1
 10
0.0
 20
0.0
 11
420.0
 21
297.0
 12
0.0
 22
0.0
 32
0.0
 14
1e+20
 24
1e+20
 34
1e+20
 15
-1e+20
 25
-1e+20
 35
-1e+20
146
0.0
 13
0.0
 23
0.0
 33
0.0
 16
1.0
 26
0.0
 36
0.0
 17
0.0
 27
1.0
 37
0.0
 76
1
330
1B
  0
MATERIAL
  5
1F
102
{ACAD_REACTORS
330
E
102
}
330
E
100
AcDbMaterial
  1
ByBlock
  2

 70
0
 40
1.0
 71
1
 41
1.0
 91
-1023410177
 42
1.0
 72
1
  3

 73
1
 74
1
 75
1
 44
0.5
 73
0
 45
1.0
 46
1.0
 77
1
  4

 78
1
 79
1
170
1
 48
1.0
171
1
  6

172
1
173
1
174
1
140
1.0
141
1.0
175
1
  7

176
1
177
1
178
1
143
1.0
179
1
  8

270
1
271
1
272
1
145
1.0
146
1.0
273
1
  9

274
1
275
1
276
1
 42
1.0
 72
1
  3

 73
1
 74
1
 75
1
 94
63
  0
MATERIAL
  5
20
102
{ACAD_REACTORS
330
E
102
}
330
E
100
AcDbMaterial
  1
ByLayer
  2

 70
0
 40
1.0
 71
1
 41
1.0
 91
-1023410177
 42
1.0
 72
1
  3

 73
1
 74
1
 75
1
 44
0.5
 73
0
 45
1.0
 46
1.0
 77
1
  4

 78
1
 79
1
170
1
 48
1.0
171
1
  6

172
1
173
1
174
1
140
1.0
141
1.0
175
1
  7

176
1
177
1
178
1
143
1.0
179
1
  8

270
1
271
1
272
1
145
1.0
146
1.0
273
1
  9

274
1
275
1
276
1
 42
1.0
 72
1
  3

 73
1
 74
1
 75
1
 94
63
  0
MATERIAL
  5
21
102
{ACAD_REACTORS
330
E
102
}
330
E
100
AcDbMaterial
  1
Global
  2

 70
0
 40
1.0
 71
1
 41
1.0
 91
-1023410177
 42
1.0
 72
1
  3

 73
1
 74
1
 75
1
 44
0.5
 73
0
 45
1.0
 46
1.0
 77
1
  4

 78
1
 79
1
170
1
 48
1.0
171
1
  6

172
1
173
1
174
1
140
1.0
141
1.0
175
1
  7

176
1
177
1
178
1
143
1.0
179
1
  8

270
1
271
1
272
1
145
1.0
146
1.0
273
1
  9

274
1
275
1
276
1
 42
1.0
 72
1
  3

 73
1
 74
1
 75
1
 94
63
  0
MLINESTYLE
  5
22
102
{ACAD_REACTORS
330
10
102
}
330
10
100
AcDbMlineStyle
  2
Standard
 70
0
  3

 62
256
 51
90.0
 52
90.0
 71
2
 49
0.5
 62
256
  6
BYLAYER
 49
-0.5
 62
256
  6
BYLAYER
  0
MLEADERSTYLE
  5
2C
102
{ACAD_REACTORS
330
F
102
}
330
F
100
AcDbMLeaderStyle
179
2
170
2
171
1
172
0
 90
2
 40
0.0
 41
0.0
173
1
 91
-1056964608
 92
-2
290
1
 42
2.0
291
1
 43
8.0
  3
Standard
 44
4.0
300

342
29
174
1
175
1
176
0
178
1
 93
-1056964608
 45
4.0
292
0
297
0
 46
4.0
 94
-1056964608
 47
1.0
 49
1.0
140
1.0
294
1
141
0.0
177
0
142
1.0
295
0
296
0
143
3.75
271
0
272
9
273
9
  0
DICTIONARY
  5
2D
330
A
100
AcDbDictionary
280
1
281
1
  3
CREATED_BY_EZDXF
350
2E
  3
WRITTEN_BY_EZDXF
350
3E
  0
DICTIONARYVAR
  5
2E
330
2D
100
DictionaryVariables
280
0
  1
0.17.2 @ 2022-03-24T15:42:05.230783+00:00
  0
DICTIONARYVAR
  5
3E
330
2D
100
DictionaryVariables
280
0
  1
0.17.2 @ 2022-03-24T15:42:05.233924+00:00
  0
ENDSEC
  0
EOF
