<svg xmlns="http://www.w3.org/2000/svg" xmlns:xlink="http://www.w3.org/1999/xlink" width="100.0" height="100.0" viewBox="-0.66 -0.66 4.32 2.32" preserveAspectRatio="xMinYMin meet"><g transform="matrix(1,0,0,-1,0,0.9999999999999999)"><g><path fill-rule="evenodd" fill="#00FF00" stroke="#555555" stroke-width="0.0864" opacity="0.6" d="M 1.0,-0.5 L 0.0,-0.5 L -0.24999999999999895,-0.4330127018922199 L -0.43301270189221824,-0.2500000000000019 L -0.5,0.0 L -0.5,1.0 L -0.43301270189221924,1.2500000000000002 L -0.2499999999999999,1.4330127018922194 L 0.0,1.5 L 1.0,1.5 L 1.25,1.4330127018922192 L 1.4330127018922194,1.25 L 1.5,1.0 L 1.5669872981077808,1.2500000000000002 L 1.75,1.4330127018922194 L 2.0,1.5 L 3.0,1.5 L 3.25,1.4330127018922192 L 3.433012701892219,1.25 L 3.5,1.0 L 3.5,0.0 L 3.433012701892219,-0.25 L 3.25,-0.43301270189221935 L 3.0,-0.5 L 2.0,-0.5 L 1.750000000000001,-0.4330127018922199 L 1.5669872981077817,-0.2500000000000019 L 1.5,0.0 L 1.4330127018922192,-0.25 L 1.25,-0.43301270189221935 L 1.0,-0.5 z" /></g></g></svg>