<svg xmlns="http://www.w3.org/2000/svg" xmlns:xlink="http://www.w3.org/1999/xlink" width="100.0" height="100.0" viewBox="-0.39 -0.39 3.7800000000000002 1.7800000000000002" preserveAspectRatio="xMinYMin meet"><g transform="matrix(1,0,0,-1,0,1.0)"><g><path fill-rule="evenodd" fill="#0c0786ff" stroke="#555555" stroke-width="0.0756" opacity="0.6" d="M 1.0,0.0 L 1.0,1.0 L 0.0,1.0 L 0.0,0.0 L 1.0,0.0 z" /><path fill-rule="evenodd" fill="#0c0786ff" stroke="#555555" stroke-width="0.0756" opacity="0.6" d="M 3.0,0.0 L 3.0,1.0 L 2.0,1.0 L 2.0,0.0 L 3.0,0.0 z" /><path fill-rule="evenodd" fill="#cb4777ff" stroke="#555555" stroke-width="0.0756" opacity="0.6" d="M 0.967086875603151,-0.25 L 0.03291312439684866,-0.25 L -0.1205904774487391,-0.20886883385020635 L -0.20886883385020516,-0.12059047744874091 L -0.25,0.032913124396849264 L -0.25,0.9670868756031511 L -0.20886883385020594,1.1205904774487396 L -0.12059047744873964,1.2088688338502058 L 0.03291312439684922,1.25 L 0.9670868756031513,1.25 L 1.1205904774487396,1.2088688338502058 L 1.2088688338502058,1.1205904774487396 L 1.2585185434277328,0.9352952387243699 L 1.323223304703363,0.8232233047033632 L 1.4352952387243696,0.758518543427733 L 1.56470476127563,0.7585185434277328 L 1.6767766952966368,0.823223304703363 L 1.741481456572267,0.9352952387243697 L 1.791131166149794,1.1205904774487396 L 1.8794095225512601,1.2088688338502058 L 2.032913124396849,1.25 L 2.9670868756031514,1.25 L 3.120590477448739,1.208868833850206 L 3.208868833850206,1.1205904774487392 L 3.25,0.9670868756031513 L 3.25,0.03291312439684865 L 3.208868833850206,-0.12059047744873945 L 3.1205904774487396,-0.20886883385020602 L 2.967086875603151,-0.25 L 2.0329131243968486,-0.25 L 1.879409522551261,-0.20886883385020635 L 1.7911311661497948,-0.12059047744874088 L 1.741481456572267,0.06470476127563066 L 1.6767766952966365,0.17677669529663714 L 1.56470476127563,0.24148145657226713 L 1.4352952387243696,0.24148145657226705 L 1.323223304703363,0.1767766952966369 L 1.258518543427733,0.06470476127563031 L 1.208868833850206,-0.12059047744873945 L 1.1205904774487396,-0.20886883385020594 L 0.967086875603151,-0.25 z" /><path fill-rule="evenodd" fill="#eff821ff" stroke="#555555" stroke-width="0.0756" opacity="0.6" d="M 1.0,0.0 L 1.0,1.0 L 0.0,1.0 L 0.0,0.0 L 1.0,0.0 z" /><path fill-rule="evenodd" fill="#eff821ff" stroke="#555555" stroke-width="0.0756" opacity="0.6" d="M 3.0,0.0 L 3.0,1.0 L 2.0,1.0 L 2.0,0.0 L 3.0,0.0 z" /></g></g></svg>