<svg xmlns="http://www.w3.org/2000/svg" xmlns:xlink="http://www.w3.org/1999/xlink" width="100.0" height="100.0" viewBox="-0.04 -0.04 1.08 1.08" preserveAspectRatio="xMinYMin meet"><g transform="matrix(1,0,0,-1,0,1.0)"><g><path fill-rule="evenodd" fill="#00FF00" stroke="#555555" stroke-width="0.0216" opacity="0.6" d="M 1.0,0.0 L 0.0,0.0 L 0.0,1.0 L 1.0,1.0 L 1.0,0.0 z M 0.75,0.5 L 0.75,0.5000000000000021 L 0.7487961816680491,0.5245042850823921 L 0.7451963201008073,0.5487725805040339 L 0.7392350839330517,0.5725711693136173 L 0.7309698831278211,0.5956708580912741 L 0.720480316087088,0.6178491842065008 L 0.7078674030756354,0.6388925582549019 L 0.6932526133406833,0.6585983210409125 L 0.6767766952966359,0.6767766952966379 L 0.6585983210409103,0.6932526133406851 L 0.6388925582548995,0.707867403075637 L 0.6178491842064984,0.7204803160870893 L 0.5956708580912715,0.7309698831278221 L 0.5725711693136146,0.7392350839330525 L 0.5487725805040312,0.7451963201008078 L 0.5245042850823893,0.7487961816680493 L 0.4999999999999993,0.75 L 0.4754957149176092,0.7487961816680492 L 0.4512274194959674,0.7451963201008075 L 0.427428830686384,0.7392350839330522 L 0.4043291419087272,0.7309698831278215 L 0.3821508157935003,0.7204803160870886 L 0.36110744174509923,0.7078674030756362 L 0.3414016789590885,0.6932526133406842 L 0.3232233047033631,0.6767766952966369 L 0.3067473866593157,0.6585983210409113 L 0.29213259692436366,0.6388925582549005 L 0.27951968391291115,0.6178491842064993 L 0.26903011687217826,0.5956708580912723 L 0.26076491606694774,0.5725711693136154 L 0.25480367989919234,0.5487725805040319 L 0.25120381833195077,0.5245042850823899 L 0.25,0.4999999999999997 L 0.2512038183319508,0.47549571491760956 L 0.25480367989919245,0.4512274194959676 L 0.26076491606694785,0.4274288306863841 L 0.2690301168721785,0.4043291419087272 L 0.27951968391291143,0.38215081579350024 L 0.2921325969243639,0.3611074417450991 L 0.306747386659316,0.3414016789590883 L 0.32322330470336347,0.3232233047033628 L 0.341401678959089,0.30674738665931545 L 0.3611074417450999,0.29213259692436344 L 0.3821508157935011,0.279519683912911 L 0.40432914190872804,0.26903011687217815 L 0.4274288306863849,0.2607649160669476 L 0.4512274194959684,0.2548036798991923 L 0.4754957149176103,0.2512038183319507 L 0.5000000000000004,0.25 L 0.5245042850823906,0.2512038183319508 L 0.5487725805040324,0.25480367989919245 L 0.572571169313616,0.26076491606694785 L 0.5956708580912727,0.2690301168721784 L 0.6178491842064997,0.2795196839129114 L 0.6388925582549008,0.29213259692436383 L 0.6585983210409115,0.3067473866593159 L 0.676776695296637,0.32322330470336325 L 0.6932526133406843,0.3414016789590888 L 0.7078674030756364,0.36110744174509957 L 0.7204803160870888,0.3821508157935007 L 0.7309698831278217,0.40432914190872765 L 0.7392350839330523,0.4274288306863845 L 0.7451963201008076,0.451227419495968 L 0.7487961816680493,0.4754957149176099 L 0.75,0.5 z" /></g></g></svg>