<svg xmlns="http://www.w3.org/2000/svg" xmlns:xlink="http://www.w3.org/1999/xlink" width="100.0" height="100.0" viewBox="-0.00435542396576874 0.42669503907156126 1.146830632579837 0.7157801695425069" preserveAspectRatio="xMinYMin meet"><g transform="matrix(1,0,0,-1,0,1.5691702476856295)"><g><path fill-rule="evenodd" fill="#0c0786ff" stroke="#555555" stroke-width="0.02293661265159674" opacity="0.6" d="M 0.03811978464829929,1.1 L 0.5584185213586172,1.1 L 0.5611837282267362,1.095711293966699 L 0.5703274023857849,1.0841903464997866 L 0.5805562975791316,1.0736211123370978 L 0.5917719039543812,1.0641053789813504 L 0.6038662090910659,1.0557347881465893 L 0.6167227382192991,1.048589953198384 L 0.6302176759354837,1.0427396828030493 L 0.6442210586123279,1.0382403182625757 L 0.6585980260196272,1.0351351909170905 L 0.6732101201019985,1.0334542048403663 L 0.6879166184056461,1.0332135488472423 L 0.7025758893125165,1.0344155405864883 L 0.717046756030203,1.0370486042205798 L 0.7311898562016335,1.0410873819073414 L 0.744868984040754,1.0464929780098293 L 0.7579524020686997,1.053213333682577 L 0.7703141098177397,1.061183728226736 L 0.7818350572846522,1.070327402385785 L 0.792404291447341,1.0805562975791316 L 0.801920024803088,1.0917719039543807 L 0.8076147732461454,1.1 L 1.0,1.1 L 1.038268343236509,1.0923879532511287 L 1.0707106781186548,1.0707106781186548 L 1.0923879532511287,1.038268343236509 L 1.1,1.0 L 1.1,0.7309401076758503 L 0.6466013026067458,0.46917024768562926 L 0.6469995097018465,0.4707599795215563 L 0.6491576900740541,0.4853092497830938 L 0.6498794003529608,0.5000000000000001 L 0.6491576900740539,0.5146907502169082 L 0.6469995097018465,0.5292400204784443 L 0.643425643693104,0.543507693358553 L 0.6384705103311651,0.5573563633678934 L 0.6321818302590563,0.5706526602438232 L 0.6246201669036134,0.5832685333789338 L 0.6158583432165771,0.595082485018393 L 0.6059807403497512,0.6059807403497526 L 0.5950824850183917,0.6158583432165781 L 0.5832685333789326,0.6246201669036142 L 0.5706526602438219,0.6321818302590569 L 0.5573563633678914,0.6384705103311659 L 0.5435076933585514,0.6434256436931044 L 0.5292400204784429,0.6469995097018467 L 0.5146907502169061,0.649157690074054 L 0.4999999999999997,0.6498794003529608 L 0.48530924978309314,0.649157690074054 L 0.470759979521556,0.6469995097018465 L 0.45649230664144774,0.6434256436931043 L 0.4426436366321081,0.6384705103311655 L 0.42934733975617656,0.6321818302590562 L 0.41673146662106736,0.6246201669036142 L 0.4049175149816073,0.6158583432165773 L 0.3940192596502482,0.6059807403497521 L 0.38414165678342255,0.5950824850183924 L 0.37537983309638573,0.5832685333789326 L 0.36781816974094356,0.5706526602438229 L 0.3615294896688346,0.5573563633678924 L 0.35765961291763526,0.5465407823956764 L 0.03811978464829929,1.1 z" /><path fill-rule="evenodd" fill="#cb4777ff" stroke="#555555" stroke-width="0.02293661265159674" opacity="0.6" d="M 0.2113248654051872,1.0 L 0.5127589686732108,1.0 L 0.5308223446400395,0.9846743668194103 L 0.5509957392296277,0.9707121565105744 L 0.5724405293374694,0.958794516509047 L 0.5949501899119114,0.9490362202028877 L 0.6183079406165897,0.9415312453199521 L 0.6422888335435727,0.9363518688709995 L 0.6666619195846841,0.9335479710825685 L 0.6911924725976639,0.9331465550231279 L 0.7156442499472327,0.9351514865487668 L 0.7397817676508132,0.939543457072886 L 0.7633725682180103,0.9462801695184431 L 0.7861894593433185,0.9552967456619255 L 0.8080127018922197,0.9665063509461098 L 0.8286321261091703,0.9798010307443157 L 0.847849155667237,0.9950527500224752 L 0.852961012078458,1.0 L 1.0,1.0 L 1.0,0.7886751345948129 L 0.7162745105226238,0.6248661468690914 L 0.7078674030756354,0.6388925582549019 L 0.6932526133406833,0.6585983210409125 L 0.6767766952966359,0.6767766952966379 L 0.6585983210409103,0.6932526133406851 L 0.6388925582548995,0.707867403075637 L 0.6178491842064984,0.7204803160870893 L 0.5956708580912715,0.7309698831278221 L 0.5725711693136146,0.7392350839330525 L 0.5487725805040312,0.7451963201008078 L 0.5245042850823893,0.7487961816680493 L 0.4999999999999993,0.75 L 0.4754957149176092,0.7487961816680492 L 0.4512274194959674,0.7451963201008075 L 0.427428830686384,0.7392350839330522 L 0.4043291419087272,0.7309698831278215 L 0.3821508157935003,0.7204803160870886 L 0.3751338531309086,0.7162745105226239 L 0.2113248654051872,1.0 z" /><path fill-rule="evenodd" fill="#eff821ff" stroke="#555555" stroke-width="0.02293661265159674" opacity="0.6" d="M 0.3845299461620749,0.9 L 0.47744868198808826,0.9 L 0.49408572464173794,0.8884853346115968 L 0.5024193998579938,0.8833031223478984 L 0.5238641899658354,0.8713854823463711 L 0.5326656818847684,0.8670450668642979 L 0.5551753424592104,0.8572867705581385 L 0.5643598879022563,0.8538299524314952 L 0.5877176386069347,0.8463249775485596 L 0.5971967853806932,0.8437850478255949 L 0.6211776783076762,0.8386056713766423 L 0.6308601370468884,0.837007090969055 L 0.6552332230879998,0.834203193180624 L 0.6650257464220355,0.8335613572916123 L 0.6895562994350153,0.8331599412321717 L 0.6993645800110311,0.8334810310922098 L 0.7238163573605999,0.8354859626178488 L 0.733545936074896,0.8367668859560591 L 0.7576834537784765,0.8411588564801782 L 0.7672406294693066,0.8433872773045898 L 0.7908314300365036,0.8501239897501469 L 0.8001241618774807,0.8532784471500419 L 0.822941053002789,0.8622950232935243 L 0.8318798469063607,0.86634513811974 L 0.853703089455262,0.8775547434039244 L 0.862201859949695,0.8824615108366661 L 0.8828212841666456,0.895756190634872 L 0.8887435132769321,0.9 L 0.9,0.9 L 0.9,0.8464101615137755 L 0.740270932536461,0.7541905414162934 L 0.7257542165256118,0.7673477258761814 L 0.7181682514901533,0.7735733664887499 L 0.6984624887041425,0.7881881562237018 L 0.6903028326742212,0.7936402640756646 L 0.66925945862582,0.8062531770871169 L 0.6606046935495262,0.8108792453994338 L 0.6384263674342994,0.8213688124401666 L 0.629359843430493,0.8251242896461243 L 0.6062601546528361,0.8333894904513547 L 0.5968691873039409,0.8362382092525069 L 0.5730705984943575,0.8421994454202623 L 0.5634456279495668,0.844113971097286 L 0.5391773325279249,0.8477138326645275 L 0.5294110525151309,0.8486757272885666 L 0.5049067674327409,0.8498795456205173 L 0.4950932325672573,0.8498795456205173 L 0.47058894748486724,0.8486757272885664 L 0.46082266747207273,0.8477138326645273 L 0.4365543720504309,0.8441139710972856 L 0.42692940150564107,0.8421994454202619 L 0.4190418058477621,0.8402237055607017 L 0.3845299461620749,0.9 z" /></g></g></svg>