<svg xmlns="http://www.w3.org/2000/svg" xmlns:xlink="http://www.w3.org/1999/xlink" width="100.0" height="100.0" viewBox="-0.14800000000000002 -0.14800000000000002 1.2960000000000003 1.2960000000000003" preserveAspectRatio="xMinYMin meet"><g transform="matrix(1,0,0,-1,0,1.0)"><g><path fill-rule="evenodd" fill="#0c0786ff" stroke="#555555" stroke-width="0.025920000000000006" opacity="0.6" d="M 1.1,0.0 L 1.0923879532511287,-0.03826834323650898 L 1.0707106781186548,-0.07071067811865477 L 1.038268343236509,-0.09238795325112868 L 1.0,-0.1 L 0.0,-0.1 L -0.03826834323650945,-0.09238795325112849 L -0.07071067811865499,-0.07071067811865453 L -0.09238795325112874,-0.038268343236508844 L -0.1,0.0 L -0.1,1.0 L -0.09238795325112868,1.038268343236509 L -0.07071067811865475,1.0707106781186548 L -0.038268343236508975,1.0923879532511287 L 0.0,1.1 L 1.0,1.1 L 1.038268343236509,1.0923879532511287 L 1.0707106781186548,1.0707106781186548 L 1.0923879532511287,1.038268343236509 L 1.1,1.0 L 1.1,0.0 z M 0.6498794003529608,0.5000000000000001 L 0.6491576900740539,0.5146907502169082 L 0.6469995097018465,0.5292400204784443 L 0.643425643693104,0.543507693358553 L 0.6384705103311651,0.5573563633678934 L 0.6321818302590563,0.5706526602438232 L 0.6246201669036134,0.5832685333789338 L 0.6158583432165771,0.595082485018393 L 0.6059807403497512,0.6059807403497526 L 0.5950824850183917,0.6158583432165781 L 0.5832685333789326,0.6246201669036142 L 0.5706526602438219,0.6321818302590569 L 0.5573563633678914,0.6384705103311659 L 0.5435076933585514,0.6434256436931044 L 0.5292400204784429,0.6469995097018467 L 0.5146907502169061,0.649157690074054 L 0.4999999999999997,0.6498794003529608 L 0.48530924978309314,0.649157690074054 L 0.470759979521556,0.6469995097018465 L 0.45649230664144774,0.6434256436931043 L 0.4426436366321081,0.6384705103311655 L 0.42934733975617656,0.6321818302590562 L 0.41673146662106736,0.6246201669036142 L 0.4049175149816073,0.6158583432165773 L 0.3940192596502482,0.6059807403497521 L 0.38414165678342255,0.5950824850183924 L 0.37537983309638573,0.5832685333789326 L 0.36781816974094356,0.5706526602438229 L 0.3615294896688346,0.5573563633678924 L 0.35657435630689566,0.5435076933585516 L 0.3530004902981534,0.5292400204784435 L 0.350842309925946,0.5146907502169065 L 0.3501205996470393,0.49999999999999994 L 0.35084230992594606,0.4853092497830929 L 0.3530004902981534,0.4707599795215564 L 0.3565743563068957,0.4564923066414482 L 0.3615294896688348,0.4426436366321072 L 0.3678181697409439,0.4293473397561765 L 0.3753798330963858,0.4167314666210673 L 0.384141656783423,0.404917514981607 L 0.39401925965024825,0.39401925965024787 L 0.4049175149816078,0.3841416567834223 L 0.4167314666210675,0.3753798330963857 L 0.42934733975617706,0.36781816974094356 L 0.442643636632108,0.36152948966883447 L 0.456492306641449,0.35657435630689543 L 0.47075997952155657,0.3530004902981534 L 0.48530924978309387,0.35084230992594595 L 0.5,0.3501205996470393 L 0.5146907502169071,0.35084230992594606 L 0.5292400204784438,0.35300049029815345 L 0.543507693358552,0.3565743563068957 L 0.5573563633678923,0.3615294896688346 L 0.570652660243823,0.3678181697409436 L 0.5832685333789326,0.3753798330963858 L 0.5950824850183929,0.3841416567834229 L 0.6059807403497518,0.3940192596502479 L 0.6158583432165774,0.40491751498160744 L 0.6246201669036147,0.4167314666210678 L 0.6321818302590563,0.4293473397561767 L 0.6384705103311653,0.44264363663210743 L 0.6434256436931045,0.45649230664144863 L 0.6469995097018465,0.4707599795215563 L 0.6491576900740541,0.4853092497830938 L 0.6498794003529608,0.5000000000000001 z" /><path fill-rule="evenodd" fill="#cb4777ff" stroke="#555555" stroke-width="0.025920000000000006" opacity="0.6" d="M 1.0,0.0 L 0.0,0.0 L 0.0,1.0 L 1.0,1.0 L 1.0,0.0 z M 0.75,0.5 L 0.75,0.5000000000000021 L 0.7487961816680491,0.5245042850823921 L 0.7451963201008073,0.5487725805040339 L 0.7392350839330517,0.5725711693136173 L 0.7309698831278211,0.5956708580912741 L 0.720480316087088,0.6178491842065008 L 0.7078674030756354,0.6388925582549019 L 0.6932526133406833,0.6585983210409125 L 0.6767766952966359,0.6767766952966379 L 0.6585983210409103,0.6932526133406851 L 0.6388925582548995,0.707867403075637 L 0.6178491842064984,0.7204803160870893 L 0.5956708580912715,0.7309698831278221 L 0.5725711693136146,0.7392350839330525 L 0.5487725805040312,0.7451963201008078 L 0.5245042850823893,0.7487961816680493 L 0.4999999999999993,0.75 L 0.4754957149176092,0.7487961816680492 L 0.4512274194959674,0.7451963201008075 L 0.427428830686384,0.7392350839330522 L 0.4043291419087272,0.7309698831278215 L 0.3821508157935003,0.7204803160870886 L 0.36110744174509923,0.7078674030756362 L 0.3414016789590885,0.6932526133406842 L 0.3232233047033631,0.6767766952966369 L 0.3067473866593157,0.6585983210409113 L 0.29213259692436366,0.6388925582549005 L 0.27951968391291115,0.6178491842064993 L 0.26903011687217826,0.5956708580912723 L 0.26076491606694774,0.5725711693136154 L 0.25480367989919234,0.5487725805040319 L 0.25120381833195077,0.5245042850823899 L 0.25,0.4999999999999997 L 0.2512038183319508,0.47549571491760956 L 0.25480367989919245,0.4512274194959676 L 0.26076491606694785,0.4274288306863841 L 0.2690301168721785,0.4043291419087272 L 0.27951968391291143,0.38215081579350024 L 0.2921325969243639,0.3611074417450991 L 0.306747386659316,0.3414016789590883 L 0.32322330470336347,0.3232233047033628 L 0.341401678959089,0.30674738665931545 L 0.3611074417450999,0.29213259692436344 L 0.3821508157935011,0.279519683912911 L 0.40432914190872804,0.26903011687217815 L 0.4274288306863849,0.2607649160669476 L 0.4512274194959684,0.2548036798991923 L 0.4754957149176103,0.2512038183319507 L 0.5000000000000004,0.25 L 0.5245042850823906,0.2512038183319508 L 0.5487725805040324,0.25480367989919245 L 0.572571169313616,0.26076491606694785 L 0.5956708580912727,0.2690301168721784 L 0.6178491842064997,0.2795196839129114 L 0.6388925582549008,0.29213259692436383 L 0.6585983210409115,0.3067473866593159 L 0.676776695296637,0.32322330470336325 L 0.6932526133406843,0.3414016789590888 L 0.7078674030756364,0.36110744174509957 L 0.7204803160870888,0.3821508157935007 L 0.7309698831278217,0.40432914190872765 L 0.7392350839330523,0.4274288306863845 L 0.7451963201008076,0.451227419495968 L 0.7487961816680493,0.4754957149176099 L 0.75,0.5 z" /><path fill-rule="evenodd" fill="#eff821ff" stroke="#555555" stroke-width="0.025920000000000006" opacity="0.6" d="M 0.9,0.1 L 0.1,0.1 L 0.1,0.9 L 0.9,0.9 L 0.9,0.1 z M 0.8498795456205173,0.49509323256725846 L 0.85,0.5 L 0.8498795456205173,0.5049067674327445 L 0.8486757272885663,0.5294110525151345 L 0.847713832664527,0.5391773325279291 L 0.8441139710972853,0.5634456279495709 L 0.8421994454202615,0.573070598494361 L 0.8362382092525059,0.5968691873039444 L 0.8333894904513536,0.6062601546528398 L 0.8251242896461229,0.6293598434304966 L 0.8213688124401649,0.6384263674343033 L 0.8108792453994318,0.66060469354953 L 0.806253177087115,0.6692594586258234 L 0.7936402640756625,0.6903028326742244 L 0.7881881562236996,0.6984624887041456 L 0.7735733664887475,0.7181682514901563 L 0.7673477258761787,0.725754216525615 L 0.7508718078321313,0.7439325907813403 L 0.7439325907813373,0.7508718078321341 L 0.7257542165256118,0.7673477258761814 L 0.7181682514901533,0.7735733664887499 L 0.6984624887041425,0.7881881562237018 L 0.6903028326742212,0.7936402640756646 L 0.66925945862582,0.8062531770871169 L 0.6606046935495262,0.8108792453994338 L 0.6384263674342994,0.8213688124401666 L 0.629359843430493,0.8251242896461243 L 0.6062601546528361,0.8333894904513547 L 0.5968691873039409,0.8362382092525069 L 0.5730705984943575,0.8421994454202623 L 0.5634456279495668,0.844113971097286 L 0.5391773325279249,0.8477138326645275 L 0.5294110525151309,0.8486757272885666 L 0.5049067674327409,0.8498795456205173 L 0.4950932325672573,0.8498795456205173 L 0.47058894748486724,0.8486757272885664 L 0.46082266747207273,0.8477138326645273 L 0.4365543720504309,0.8441139710972856 L 0.42692940150564107,0.8421994454202619 L 0.40313081269605766,0.8362382092525066 L 0.3937398453471615,0.833389490451354 L 0.3706401565695047,0.8251242896461234 L 0.361573632565699,0.8213688124401659 L 0.3393953064504721,0.810879245399433 L 0.33074054137417813,0.8062531770871159 L 0.30969716732577707,0.7936402640756635 L 0.3015375112958559,0.7881881562237008 L 0.28183174850984516,0.7735733664887487 L 0.27424578347438655,0.76734772587618 L 0.2560674092186611,0.7508718078321327 L 0.24912819216786708,0.7439325907813387 L 0.23265227412381972,0.7257542165256131 L 0.22642663351125128,0.7181682514901547 L 0.21181184377629922,0.698462488704144 L 0.2063597359243364,0.6903028326742227 L 0.1937468229128839,0.6692594586258214 L 0.18912075460056677,0.6606046935495273 L 0.17863118755983387,0.6384263674343004 L 0.17487571035387617,0.6293598434304942 L 0.16661050954864565,0.6062601546528373 L 0.16376179074749334,0.5968691873039418 L 0.15780055457973793,0.5730705984943583 L 0.1558860289027142,0.5634456279495679 L 0.15228616733547262,0.5391773325279259 L 0.1513242727114335,0.5294110525151317 L 0.15012045437948274,0.5049067674327414 L 0.15012045437948274,0.49509323256725773 L 0.15132427271143356,0.47058894748486757 L 0.15228616733547273,0.46082266747207334 L 0.15588602890271436,0.4365543720504314 L 0.15780055457973804,0.4269294015056412 L 0.16376179074749345,0.40313081269605766 L 0.1666105095486459,0.3937398453471618 L 0.17487571035387653,0.3706401565695049 L 0.17863118755983418,0.3615736325656989 L 0.18912075460056713,0.33939530645047195 L 0.19374682291288425,0.330740541374178 L 0.2063597359243367,0.3096971673257769 L 0.21181184377629947,0.30153751129585565 L 0.22642663351125158,0.2818317485098448 L 0.23265227412382034,0.2742457834743862 L 0.2491281921678678,0.25606740921866067 L 0.2560674092186617,0.2491281921678668 L 0.2742457834743873,0.23265227412381945 L 0.281831748509846,0.22642663351125075 L 0.3015375112958569,0.21181184377629875 L 0.3096971673257778,0.2063597359243362 L 0.33074054137417896,0.19374682291288375 L 0.33939530645047317,0.1891207546005665 L 0.36157363256570013,0.17863118755983365 L 0.37064015656950605,0.17487571035387606 L 0.3937398453471629,0.16661050954864554 L 0.40313081269605866,0.16376179074749317 L 0.4269294015056422,0.15780055457973782 L 0.43655437205043235,0.15588602890271414 L 0.46082266747207423,0.15228616733547257 L 0.47058894748486874,0.15132427271143345 L 0.4950932325672589,0.15012045437948274 L 0.5049067674327424,0.15012045437948277 L 0.5294110525151325,0.1513242727114336 L 0.5391773325279268,0.15228616733547273 L 0.5634456279495687,0.15588602890271436 L 0.5730705984943588,0.15780055457973804 L 0.5968691873039423,0.16376179074749345 L 0.6062601546528382,0.16661050954864587 L 0.629359843430495,0.17487571035387645 L 0.638426367434301,0.17863118755983412 L 0.660604693549528,0.18912075460056707 L 0.669259458625822,0.19374682291288425 L 0.6903028326742231,0.2063597359243367 L 0.6984624887041442,0.21181184377629939 L 0.718168251490155,0.22642663351125145 L 0.7257542165256134,0.2326522741238201 L 0.743932590781339,0.24912819216786747 L 0.750871807832133,0.2560674092186615 L 0.7673477258761803,0.27424578347438705 L 0.7735733664887486,0.2818317485098452 L 0.7881881562237008,0.301537511295856 L 0.7936402640756637,0.3096971673257775 L 0.8062531770871161,0.33074054137417863 L 0.8108792453994332,0.3393953064504726 L 0.8213688124401661,0.3615736325656996 L 0.8251242896461238,0.37064015656950566 L 0.8333894904513544,0.3937398453471625 L 0.8362382092525067,0.40313081269605827 L 0.842199445420262,0.4269294015056418 L 0.8441139710972857,0.4365543720504315 L 0.8477138326645274,0.4608226674720734 L 0.8486757272885666,0.47058894748486835 L 0.8498795456205173,0.49509323256725846 z" /></g></g></svg>