<svg xmlns="http://www.w3.org/2000/svg" xmlns:xlink="http://www.w3.org/1999/xlink" width="100.0" height="100.0" viewBox="-0.256 -0.256 1.512 1.512" preserveAspectRatio="xMinYMin meet"><g transform="matrix(1,0,0,-1,0,1.0)"><g><path fill-rule="evenodd" fill="#00FF00" stroke="#555555" stroke-width="0.03024" opacity="0.6" d="M 1.2,0.0 L 1.1847759065022574,-0.07653668647301796 L 1.1414213562373094,-0.14142135623730953 L 1.076536686473018,-0.18477590650225736 L 1.0,-0.2 L 0.0,-0.2 L -0.0765366864730189,-0.18477590650225698 L -0.14142135623730998,-0.14142135623730906 L -0.18477590650225748,-0.07653668647301769 L -0.2,0.0 L -0.2,1.0 L -0.18477590650225736,1.076536686473018 L -0.1414213562373095,1.1414213562373094 L -0.07653668647301795,1.1847759065022574 L 0.0,1.2 L 1.0,1.2 L 1.076536686473018,1.1847759065022574 L 1.1414213562373094,1.1414213562373094 L 1.1847759065022574,1.076536686473018 L 1.2,1.0 L 1.2,0.0 z M 0.5497588007059215,0.5000000000000008 L 0.5495191984800588,0.5048772153514234 L 0.5488026993028856,0.5097074604528549 L 0.5476162034531565,0.5144442174034877 L 0.545971137534509,0.5190418686445126 L 0.5438833444310238,0.523456136281147 L 0.5413729307315919,0.5276445085029652 L 0.5384640730924707,0.5315666489958735 L 0.5351847854028662,0.535184785402868 L 0.5315666489958739,0.5384640730924704 L 0.5276445085029641,0.5413729307315926 L 0.523456136281147,0.5438833444310238 L 0.5190418686445122,0.5459711375345091 L 0.5144442174034871,0.5476162034531566 L 0.5097074604528544,0.5488026993028857 L 0.5048772153514228,0.5495191984800588 L 0.4999999999999997,0.5497588007059214 L 0.4951227846485767,0.5495191984800588 L 0.4902925395471456,0.5488026993028857 L 0.48555578259651266,0.5476162034531566 L 0.48095813135548704,0.5459711375345089 L 0.47654386371885366,0.5438833444310243 L 0.4723554914970347,0.5413729307315919 L 0.46843335100412603,0.5384640730924705 L 0.4648152145971333,0.5351847854028675 L 0.46153592690752965,0.5315666489958739 L 0.4586270692684079,0.5276445085029648 L 0.45611665556897574,0.5234561362811462 L 0.45402886246549096,0.5190418686445124 L 0.4523837965468436,0.5144442174034879 L 0.4511973006971143,0.5097074604528541 L 0.45048080151994124,0.5048772153514233 L 0.4502411992940786,0.5000000000000003 L 0.45048080151994135,0.49512278464857634 L 0.45119730069711433,0.49029253954714536 L 0.45238379654684346,0.48555578259651233 L 0.45402886246549096,0.4809581313554876 L 0.4561166555689762,0.476543863718853 L 0.4586270692684078,0.4723554914970353 L 0.4615359269075296,0.46843335100412614 L 0.4648152145971329,0.46481521459713304 L 0.4684333510041263,0.4615359269075295 L 0.4723554914970353,0.4586270692684078 L 0.4765438637188533,0.456116655568976 L 0.4809581313554876,0.454028862465491 L 0.4855557825965128,0.45238379654684335 L 0.4902925395471453,0.4511973006971144 L 0.4951227846485774,0.4504808015199412 L 0.5000000000000001,0.4502411992940785 L 0.504877215351423,0.45048080151994124 L 0.5097074604528546,0.4511973006971144 L 0.5144442174034878,0.45238379654684346 L 0.5190418686445124,0.45402886246549096 L 0.5234561362811466,0.45611665556897596 L 0.5276445085029647,0.45862706926840785 L 0.5315666489958741,0.4615359269075298 L 0.5351847854028667,0.46481521459713265 L 0.5384640730924704,0.4684333510041261 L 0.5413729307315928,0.47235549149703615 L 0.543883344431024,0.47654386371885327 L 0.5459711375345089,0.48095813135548726 L 0.5476162034531565,0.4855557825965123 L 0.5488026993028855,0.4902925395471451 L 0.5495191984800588,0.4951227846485777 L 0.5497588007059215,0.5000000000000008 z" /></g></g></svg>