<svg xmlns="http://www.w3.org/2000/svg" xmlns:xlink="http://www.w3.org/1999/xlink" width="100.0" height="100.0" viewBox="-0.256 -0.256 1.5120000000000002 1.5120000000000002" preserveAspectRatio="xMinYMin meet"><g transform="matrix(1,0,0,-1,0,1.0000000000000002)"><g><path fill-rule="evenodd" fill="#0c0786ff" stroke="#555555" stroke-width="0.030240000000000003" opacity="0.6" d="M 1.2000000000000002,0.0 L 1.1980785280403232,-0.019509032201612993 L 1.1904664812914518,-0.057777375438121975 L 1.1755349144813834,-0.0938253665384691 L 1.1538576393489095,-0.1262677014206149 L 1.1262677014206148,-0.1538576393489094 L 1.093825366538469,-0.1755349144813833 L 1.057777375438122,-0.19046648129145172 L 1.019509032201613,-0.19807852804032305 L 1.0,-0.2 L 0.0,-0.2 L -0.019509032201613076,-0.198078528040323 L -0.05777737543812252,-0.1904664812914515 L -0.09382536653847001,-0.1755349144813828 L -0.12626770142061555,-0.15385763934890884 L -0.15385763934890964,-0.12626770142061455 L -0.1755349144813834,-0.09382536653846886 L -0.1904664812914518,-0.0577773754381216 L -0.19807852804032305,-0.019509032201612753 L -0.2,0.0 L -0.2,1.0 L -0.19807852804032305,1.019509032201613 L -0.19046648129145172,1.057777375438122 L -0.17553491448138328,1.0938253665384692 L -0.15385763934890934,1.126267701420615 L -0.1262677014206149,1.1538576393489095 L -0.0938253665384691,1.1755349144813834 L -0.057777375438121975,1.1904664812914516 L -0.019509032201612996,1.198078528040323 L 0.0,1.2000000000000002 L 1.0,1.2000000000000002 L 1.019509032201613,1.198078528040323 L 1.057777375438122,1.1904664812914516 L 1.093825366538469,1.1755349144813834 L 1.1262677014206148,1.1538576393489095 L 1.1538576393489095,1.1262677014206148 L 1.1755349144813834,1.093825366538469 L 1.1904664812914516,1.057777375438122 L 1.198078528040323,1.019509032201613 L 1.2000000000000002,1.0 L 1.2000000000000002,0.0 z M 0.5497588007059215,0.4999999999999992 L 0.5495191984800587,0.5048772153514245 L 0.5488026993028857,0.5097074604528545 L 0.5476162034531564,0.5144442174034881 L 0.5459711375345091,0.5190418686445125 L 0.543883344431024,0.5234561362811466 L 0.5413729307315914,0.5276445085029657 L 0.5384640730924708,0.5315666489958735 L 0.5351847854028674,0.5351847854028666 L 0.531566648995873,0.538464073092471 L 0.5276445085029653,0.5413729307315918 L 0.523456136281146,0.5438833444310244 L 0.5190418686445112,0.5459711375345095 L 0.5144442174034886,0.5476162034531563 L 0.5097074604528542,0.5488026993028857 L 0.5048772153514229,0.5495191984800587 L 0.49999999999999967,0.5497588007059214 L 0.4951227846485763,0.5495191984800587 L 0.4902925395471451,0.5488026993028856 L 0.4855557825965127,0.5476162034531568 L 0.4809581313554884,0.5459711375345093 L 0.476543863718853,0.5438833444310238 L 0.47235549149703493,0.5413729307315919 L 0.46843335100412614,0.5384640730924705 L 0.4648152145971335,0.5351847854028675 L 0.461535926907529,0.5315666489958731 L 0.45862706926840824,0.5276445085029653 L 0.4561166555689756,0.523456136281146 L 0.4540288624654909,0.5190418686445124 L 0.4523837965468435,0.5144442174034879 L 0.4511973006971144,0.5097074604528549 L 0.45048080151994124,0.5048772153514229 L 0.4502411992940786,0.5000000000000002 L 0.4504808015199413,0.49512278464857656 L 0.45119730069711433,0.49029253954714536 L 0.4523837965468434,0.48555578259651266 L 0.45402886246549107,0.48095813135548743 L 0.45611665556897607,0.4765438637188532 L 0.4586270692684077,0.47235549149703554 L 0.46153592690752976,0.4684333510041259 L 0.46481521459713326,0.46481521459713265 L 0.46843335100412653,0.46153592690752926 L 0.47235549149703493,0.4586270692684081 L 0.4765438637188534,0.45611665556897596 L 0.4809581313554877,0.4540288624654909 L 0.4855557825965131,0.45238379654684324 L 0.4902925395471452,0.4511973006971144 L 0.4951227846485771,0.4504808015199412 L 0.49999999999999956,0.4502411992940786 L 0.5048772153514239,0.4504808015199413 L 0.5097074604528543,0.4511973006971143 L 0.514444217403488,0.4523837965468436 L 0.5190418686445123,0.4540288624654909 L 0.5234561362811463,0.4561166555689758 L 0.5276445085029651,0.4586270692684081 L 0.5315666489958737,0.4615359269075294 L 0.535184785402867,0.46481521459713293 L 0.5384640730924702,0.4684333510041259 L 0.5413729307315929,0.4723554914970362 L 0.5438833444310239,0.4765438637188531 L 0.5459711375345089,0.4809581313554871 L 0.5476162034531568,0.4855557825965129 L 0.5488026993028855,0.49029253954714475 L 0.5495191984800589,0.49512278464857773 L 0.5497588007059215,0.4999999999999992 z" /><path fill-rule="evenodd" fill="#cb4777ff" stroke="#555555" stroke-width="0.030240000000000003" opacity="0.6" d="M 1.1,0.0 L 1.0923879532511287,-0.03826834323650898 L 1.0707106781186548,-0.07071067811865477 L 1.038268343236509,-0.09238795325112868 L 1.0,-0.1 L 0.0,-0.1 L -0.03826834323650945,-0.09238795325112849 L -0.07071067811865499,-0.07071067811865453 L -0.09238795325112874,-0.038268343236508844 L -0.1,0.0 L -0.1,1.0 L -0.09238795325112868,1.038268343236509 L -0.07071067811865475,1.0707106781186548 L -0.038268343236508975,1.0923879532511287 L 0.0,1.1 L 1.0,1.1 L 1.038268343236509,1.0923879532511287 L 1.0707106781186548,1.0707106781186548 L 1.0923879532511287,1.038268343236509 L 1.1,1.0 L 1.1,0.0 z M 0.6498794003529608,0.5000000000000001 L 0.6491576900740539,0.5146907502169082 L 0.6469995097018465,0.5292400204784443 L 0.643425643693104,0.543507693358553 L 0.6384705103311651,0.5573563633678934 L 0.6321818302590563,0.5706526602438232 L 0.6246201669036134,0.5832685333789338 L 0.6158583432165771,0.595082485018393 L 0.6059807403497512,0.6059807403497526 L 0.5950824850183917,0.6158583432165781 L 0.5832685333789326,0.6246201669036142 L 0.5706526602438219,0.6321818302590569 L 0.5573563633678914,0.6384705103311659 L 0.5435076933585514,0.6434256436931044 L 0.5292400204784429,0.6469995097018467 L 0.5146907502169061,0.649157690074054 L 0.4999999999999997,0.6498794003529608 L 0.48530924978309314,0.649157690074054 L 0.470759979521556,0.6469995097018465 L 0.45649230664144774,0.6434256436931043 L 0.4426436366321081,0.6384705103311655 L 0.42934733975617656,0.6321818302590562 L 0.41673146662106736,0.6246201669036142 L 0.4049175149816073,0.6158583432165773 L 0.3940192596502482,0.6059807403497521 L 0.38414165678342255,0.5950824850183924 L 0.37537983309638573,0.5832685333789326 L 0.36781816974094356,0.5706526602438229 L 0.3615294896688346,0.5573563633678924 L 0.35657435630689566,0.5435076933585516 L 0.3530004902981534,0.5292400204784435 L 0.350842309925946,0.5146907502169065 L 0.3501205996470393,0.49999999999999994 L 0.35084230992594606,0.4853092497830929 L 0.3530004902981534,0.4707599795215564 L 0.3565743563068957,0.4564923066414482 L 0.3615294896688348,0.4426436366321072 L 0.3678181697409439,0.4293473397561765 L 0.3753798330963858,0.4167314666210673 L 0.384141656783423,0.404917514981607 L 0.39401925965024825,0.39401925965024787 L 0.4049175149816078,0.3841416567834223 L 0.4167314666210675,0.3753798330963857 L 0.42934733975617706,0.36781816974094356 L 0.442643636632108,0.36152948966883447 L 0.456492306641449,0.35657435630689543 L 0.47075997952155657,0.3530004902981534 L 0.48530924978309387,0.35084230992594595 L 0.5,0.3501205996470393 L 0.5146907502169071,0.35084230992594606 L 0.5292400204784438,0.35300049029815345 L 0.543507693358552,0.3565743563068957 L 0.5573563633678923,0.3615294896688346 L 0.570652660243823,0.3678181697409436 L 0.5832685333789326,0.3753798330963858 L 0.5950824850183929,0.3841416567834229 L 0.6059807403497518,0.3940192596502479 L 0.6158583432165774,0.40491751498160744 L 0.6246201669036147,0.4167314666210678 L 0.6321818302590563,0.4293473397561767 L 0.6384705103311653,0.44264363663210743 L 0.6434256436931045,0.45649230664144863 L 0.6469995097018465,0.4707599795215563 L 0.6491576900740541,0.4853092497830938 L 0.6498794003529608,0.5000000000000001 z" /><path fill-rule="evenodd" fill="#eff821ff" stroke="#555555" stroke-width="0.030240000000000003" opacity="0.6" d="M 1.0,0.1 L 0.9923879532511287,0.06173165676349102 L 0.9707106781186547,0.02928932188134524 L 0.938268343236509,0.007612046748871323 L 0.9,-1.3877787807814457e-17 L 0.1,-1.3877787807814457e-17 L 0.06173165676349056,0.007612046748871518 L 0.029289321881345018,0.029289321881345476 L 0.007612046748871268,0.06173165676349116 L -1.3877787807814457e-17,0.1 L -1.3877787807814457e-17,0.9 L 0.007612046748871323,0.938268343236509 L 0.029289321881345254,0.9707106781186547 L 0.06173165676349103,0.9923879532511287 L 0.1,1.0 L 0.9,1.0 L 0.938268343236509,0.9923879532511287 L 0.9707106781186547,0.9707106781186547 L 0.9923879532511287,0.938268343236509 L 1.0,0.9 L 1.0,0.1 z M 0.7499397818812764,0.4987742320338853 L 0.7499698727958698,0.4999999999999992 L 0.7499397818812763,0.5012257679661192 L 0.7489166360475318,0.5220523798605434 L 0.7484359785711222,0.5269325771166072 L 0.7455565231977341,0.5463442884698185 L 0.7445998372391668,0.5511538735708862 L 0.7398315667946921,0.5701898762467652 L 0.7384080657627259,0.5748825302591256 L 0.7317969012981471,0.5933594971457653 L 0.729920294285884,0.597890027246015 L 0.7215299049290245,0.6156300150517608 L 0.7192182646878523,0.6199547897583911 L 0.709129454474871,0.6367869527030119 L 0.7064050433639826,0.6408643220714372 L 0.6947149730523364,0.656626557224377 L 0.6916040286400436,0.660417253958664 L 0.6784252799972753,0.6749577623788868 L 0.6749577623788847,0.6784252799972774 L 0.6604172539586625,0.6916040286400447 L 0.6566265572243739,0.6947149730523388 L 0.6408643220714355,0.7064050433639837 L 0.6367869527030091,0.7091294544748727 L 0.6199547897583887,0.7192182646878537 L 0.6156300150517585,0.7215299049290258 L 0.5978900272460117,0.7299202942858855 L 0.5933594971457631,0.7317969012981479 L 0.5748825302591236,0.7384080657627264 L 0.570189876246762,0.739831566794693 L 0.5511538735708841,0.7445998372391672 L 0.5463442884698153,0.7455565231977347 L 0.5269325771166032,0.7484359785711227 L 0.5220523798605412,0.748916636047532 L 0.5024519052218478,0.7498795456205173 L 0.49754809477815104,0.7498795456205173 L 0.4779476201394583,0.7489166360475319 L 0.47306742288339443,0.7484359785711224 L 0.4536557115301806,0.745556523197734 L 0.44884612642911703,0.7445998372391676 L 0.42981012375323663,0.7398315667946926 L 0.425117469740875,0.7384080657627261 L 0.40664050285423475,0.7317969012981471 L 0.40210997275398713,0.7299202942858849 L 0.38436998494823993,0.721529904929025 L 0.3800452102416096,0.7192182646878528 L 0.3632130472969897,0.709129454474872 L 0.3591356779285638,0.7064050433639834 L 0.3433734427756245,0.6947149730523375 L 0.33958274604133637,0.6916040286400438 L 0.3250422376211148,0.6784252799972769 L 0.3215747200027232,0.6749577623788853 L 0.30839597135995617,0.6604172539586635 L 0.30528502694766224,0.6566265572243751 L 0.2935949566360165,0.6408643220714358 L 0.29087054552512814,0.6367869527030104 L 0.2807817353121475,0.6199547897583908 L 0.2784700950709743,0.6156300150517586 L 0.27007970571411516,0.597890027246013 L 0.2682030987018524,0.5933594971457637 L 0.26159193423727356,0.5748825302591237 L 0.2601684332053072,0.5701898762467628 L 0.25540016276083277,0.5511538735708842 L 0.2544434768022656,0.546344288469817 L 0.2515640214288775,0.5269325771166047 L 0.251083363952468,0.5220523798605404 L 0.25012045437948277,0.5024519052218491 L 0.25012045437948277,0.4975480947781504 L 0.25108336395246805,0.47794762013945924 L 0.25156402142887774,0.4730674228833937 L 0.25444347680226564,0.4536557115301827 L 0.2554001627608327,0.44884612642911603 L 0.26016843320530725,0.42981012375323685 L 0.2615919342372739,0.4251174697408752 L 0.26820309870185277,0.4066405028542352 L 0.27007970571411527,0.4021099727539867 L 0.27847009507097503,0.38436998494824 L 0.28078173531214745,0.3800452102416093 L 0.29087054552512753,0.3632130472969906 L 0.29359495663601726,0.35913567792856316 L 0.30528502694766274,0.34337344277562415 L 0.3083959713599563,0.33958274604133637 L 0.3215747200027234,0.32504223762111456 L 0.3250422376211155,0.3215747200027225 L 0.3395827460413364,0.3083959713599562 L 0.34337344277562576,0.3052850269476616 L 0.35913567792856366,0.293594956636017 L 0.363213047296991,0.2908705455251273 L 0.3800452102416095,0.2807817353121474 L 0.38436998494824154,0.27847009507097426 L 0.4021099727539881,0.27007970571411466 L 0.40664050285423586,0.2682030987018525 L 0.42511746974087666,0.2615919342372734 L 0.42981012375323685,0.26016843320530725 L 0.4488461264291166,0.2554001627608326 L 0.4536557115301834,0.2544434768022655 L 0.4730674228833952,0.2515640214288775 L 0.47794762013945963,0.25108336395246794 L 0.4975480947781517,0.2501204543794827 L 0.5024519052218496,0.25012045437948277 L 0.5220523798605413,0.25108336395246805 L 0.5269325771166059,0.2515640214288777 L 0.5463442884698169,0.2544434768022656 L 0.5511538735708846,0.2554001627608329 L 0.5701898762467638,0.2601684332053074 L 0.574882530259124,0.26159193423727356 L 0.5933594971457647,0.2682030987018527 L 0.5978900272460126,0.2700797057141149 L 0.6156300150517588,0.2784700950709744 L 0.6199547897583912,0.28078173531214773 L 0.6367869527030101,0.290870545525128 L 0.6408643220714363,0.29359495663601687 L 0.6566265572243748,0.30528502694766196 L 0.6604172539586632,0.30839597135995606 L 0.6749577623788856,0.3215747200027236 L 0.6784252799972765,0.3250422376211145 L 0.6916040286400452,0.3395827460413382 L 0.6947149730523374,0.34337344277562437 L 0.7064050433639829,0.35913567792856327 L 0.7091294544748729,0.3632130472969911 L 0.7192182646878524,0.38004521024160903 L 0.7215299049290257,0.38436998494824126 L 0.7299202942858848,0.4021099727539868 L 0.7317969012981477,0.40664050285423614 L 0.7384080657627269,0.42511746974087755 L 0.7398315667946924,0.4298101237532357 L 0.7445998372391673,0.4488461264291164 L 0.7455565231977342,0.45365571153018214 L 0.7484359785711227,0.47306742288339565 L 0.748916636047532,0.4779476201394585 L 0.7499397818812764,0.4987742320338853 z" /></g></g></svg>