<svg xmlns="http://www.w3.org/2000/svg" xmlns:xlink="http://www.w3.org/1999/xlink" width="100.0" height="100.0" viewBox="-0.27 -0.27 0.54 0.54" preserveAspectRatio="xMinYMin meet"><g transform="matrix(1,0,0,-1,0,0.0)"><g><path fill-rule="evenodd" fill="#00FF00" stroke="#555555" stroke-width="0.0108" opacity="0.6" d="M 0.25,0.0 L 0.24879618166804923,-0.024504285082390127 L 0.24519632010080764,-0.04877258050403202 L 0.23923508393305223,-0.07257116931361553 L 0.23096988312782174,-0.09567085809127235 L 0.22048031608708882,-0.1178491842064993 L 0.2078674030756364,-0.13889255825490043 L 0.19325261334068436,-0.15859832104091123 L 0.17677669529663703,-0.17677669529663673 L 0.15859832104091154,-0.19325261334068408 L 0.13889255825490077,-0.20786740307563617 L 0.11784918420649965,-0.22048031608708862 L 0.09567085809127271,-0.23096988312782157 L 0.0725711693136159,-0.23923508393305212 L 0.04877258050403241,-0.24519632010080755 L 0.024504285082390522,-0.24879618166804918 L 4.038861436081467e-16,-0.25 L -0.02450428508238972,-0.24879618166804926 L -0.04877258050403162,-0.2451963201008077 L -0.07257116931361512,-0.23923508393305237 L -0.09567085809127196,-0.23096988312782188 L -0.11784918420649892,-0.220480316087089 L -0.13889255825490013,-0.2078674030756366 L -0.15859832104091098,-0.19325261334068455 L -0.17677669529663656,-0.17677669529663723 L -0.19325261334068397,-0.1585983210409117 L -0.2078674030756361,-0.1388925582549009 L -0.22048031608708857,-0.11784918420649976 L -0.23096988312782155,-0.09567085809127278 L -0.23923508393305212,-0.07257116931361592 L -0.24519632010080755,-0.04877258050403237 L -0.2487961816680492,-0.02450428508239043 L -0.25,-2.5266077490371514e-16 L -0.24879618166804923,0.024504285082389925 L -0.24519632010080766,0.048772580504031875 L -0.23923508393305226,0.07257116931361543 L -0.23096988312782174,0.0956708580912723 L -0.22048031608708882,0.11784918420649931 L -0.20786740307563636,0.1388925582549005 L -0.19325261334068428,0.15859832104091132 L -0.17677669529663692,0.17677669529663687 L -0.15859832104091148,0.19325261334068417 L -0.13889255825490074,0.2078674030756362 L -0.11784918420649967,0.22048031608708862 L -0.09567085809127279,0.23096988312782155 L -0.07257116931361603,0.2392350839330521 L -0.0487725805040326,0.2451963201008075 L -0.024504285082390775,0.24879618166804915 L -7.120580697431197e-16,0.25 L 0.024504285082389356,0.2487961816680493 L 0.0487725805040312,0.24519632010080777 L 0.07257116931361467,0.23923508393305248 L 0.09567085809127147,0.2309698831278221 L 0.11784918420649841,0.2204803160870893 L 0.13889255825489955,0.20786740307563698 L 0.15859832104091037,0.19325261334068505 L 0.1767766952966359,0.17677669529663786 L 0.1932526133406833,0.1585983210409125 L 0.20786740307563545,0.13889255825490185 L 0.22048031608708799,0.11784918420650085 L 0.23096988312782102,0.09567085809127404 L 0.23923508393305168,0.07257116931361732 L 0.24519632010080725,0.04877258050403392 L 0.24879618166804904,0.024504285082392118 L 0.25,2.0596337842826493e-15 L 0.25,0.0 z" /></g></g></svg>