<svg xmlns="http://www.w3.org/2000/svg" xmlns:xlink="http://www.w3.org/1999/xlink" width="100.0" height="100.0" viewBox="-0.14800000000000002 -0.14800000000000002 1.2960000000000003 1.2960000000000003" preserveAspectRatio="xMinYMin meet"><g transform="matrix(1,0,0,-1,0,1.0)"><g><path fill-rule="evenodd" fill="#00FF00" stroke="#555555" stroke-width="0.025920000000000006" opacity="0.6" d="M 1.1,0.0 L 1.0923879532511287,-0.03826834323650898 L 1.0707106781186548,-0.07071067811865477 L 1.038268343236509,-0.09238795325112868 L 1.0,-0.1 L 0.0,-0.1 L -0.03826834323650945,-0.09238795325112849 L -0.07071067811865499,-0.07071067811865453 L -0.09238795325112874,-0.038268343236508844 L -0.1,0.0 L -0.1,1.0 L -0.09238795325112868,1.038268343236509 L -0.07071067811865475,1.0707106781186548 L -0.038268343236508975,1.0923879532511287 L 0.0,1.1 L 1.0,1.1 L 1.038268343236509,1.0923879532511287 L 1.0707106781186548,1.0707106781186548 L 1.0923879532511287,1.038268343236509 L 1.1,1.0 L 1.1,0.0 z M 0.6498794003529608,0.5000000000000001 L 0.6491576900740539,0.5146907502169082 L 0.6469995097018465,0.5292400204784443 L 0.643425643693104,0.543507693358553 L 0.6384705103311651,0.5573563633678934 L 0.6321818302590563,0.5706526602438232 L 0.6246201669036134,0.5832685333789338 L 0.6158583432165771,0.595082485018393 L 0.6059807403497512,0.6059807403497526 L 0.5950824850183917,0.6158583432165781 L 0.5832685333789326,0.6246201669036142 L 0.5706526602438219,0.6321818302590569 L 0.5573563633678914,0.6384705103311659 L 0.5435076933585514,0.6434256436931044 L 0.5292400204784429,0.6469995097018467 L 0.5146907502169061,0.649157690074054 L 0.4999999999999997,0.6498794003529608 L 0.48530924978309314,0.649157690074054 L 0.470759979521556,0.6469995097018465 L 0.45649230664144774,0.6434256436931043 L 0.4426436366321081,0.6384705103311655 L 0.42934733975617656,0.6321818302590562 L 0.41673146662106736,0.6246201669036142 L 0.4049175149816073,0.6158583432165773 L 0.3940192596502482,0.6059807403497521 L 0.38414165678342255,0.5950824850183924 L 0.37537983309638573,0.5832685333789326 L 0.36781816974094356,0.5706526602438229 L 0.3615294896688346,0.5573563633678924 L 0.35657435630689566,0.5435076933585516 L 0.3530004902981534,0.5292400204784435 L 0.350842309925946,0.5146907502169065 L 0.3501205996470393,0.49999999999999994 L 0.35084230992594606,0.4853092497830929 L 0.3530004902981534,0.4707599795215564 L 0.3565743563068957,0.4564923066414482 L 0.3615294896688348,0.4426436366321072 L 0.3678181697409439,0.4293473397561765 L 0.3753798330963858,0.4167314666210673 L 0.384141656783423,0.404917514981607 L 0.39401925965024825,0.39401925965024787 L 0.4049175149816078,0.3841416567834223 L 0.4167314666210675,0.3753798330963857 L 0.42934733975617706,0.36781816974094356 L 0.442643636632108,0.36152948966883447 L 0.456492306641449,0.35657435630689543 L 0.47075997952155657,0.3530004902981534 L 0.48530924978309387,0.35084230992594595 L 0.5,0.3501205996470393 L 0.5146907502169071,0.35084230992594606 L 0.5292400204784438,0.35300049029815345 L 0.543507693358552,0.3565743563068957 L 0.5573563633678923,0.3615294896688346 L 0.570652660243823,0.3678181697409436 L 0.5832685333789326,0.3753798330963858 L 0.5950824850183929,0.3841416567834229 L 0.6059807403497518,0.3940192596502479 L 0.6158583432165774,0.40491751498160744 L 0.6246201669036147,0.4167314666210678 L 0.6321818302590563,0.4293473397561767 L 0.6384705103311653,0.44264363663210743 L 0.6434256436931045,0.45649230664144863 L 0.6469995097018465,0.4707599795215563 L 0.6491576900740541,0.4853092497830938 L 0.6498794003529608,0.5000000000000001 z" /></g></g></svg>