<svg xmlns="http://www.w3.org/2000/svg" xmlns:xlink="http://www.w3.org/1999/xlink" width="100.0" height="100.0" viewBox="-0.16171706117974893 0.33828293882025084 1.6894595261439367 1.6894595261439371" preserveAspectRatio="xMinYMin meet"><g transform="matrix(1,0,0,-1,0,2.366025403784439)"><g><path fill-rule="evenodd" fill="#0c0786ff" stroke="#555555" stroke-width="0.033789190522878744" opacity="0.6" d="M 1.4526279441628827,1.0499999999999998 L 1.4651698899218197,1.013052619222005 L 1.4626179864133455,0.9741180954897478 L 1.4453607378135622,0.9391238570991278 L 1.4160254037844386,0.913397459621556 L 0.55,0.4133974596215561 L 0.5130526192220046,0.40085551386261886 L 0.4741180954897476,0.40340741737109326 L 0.4391238570991278,0.4206646659708766 L 0.4133974596215561,0.45 L -0.08660254037844384,1.3160254037844386 L -0.09914448613738092,1.3529727845624335 L -0.0965925826289068,1.391907308294691 L -0.0793353340291234,1.4269015466853108 L -0.04999999999999993,1.4526279441628827 L 0.8160254037844388,1.9526279441628827 L 0.8529727845624336,1.9651698899218197 L 0.8919073082946909,1.9626179864133455 L 0.9269015466853109,1.9453607378135622 L 0.9526279441628827,1.9160254037844386 L 1.4526279441628827,1.0499999999999998 z M 0.8128120701018617,1.2579524020686998 L 0.8048416755577019,1.2703141098177406 L 0.7956980013986534,1.2818350572846526 L 0.7854691062053063,1.2924042914473417 L 0.7742534998300572,1.3019200248030887 L 0.7621591946933731,1.3102906156378493 L 0.7493026655651385,1.3174354505860553 L 0.7358077278489551,1.3232857209813895 L 0.7218043451721101,1.3277850855218631 L 0.7074273777648108,1.3308902128673483 L 0.6928152836824404,1.3325711989440723 L 0.6781087853787915,1.3328118549371961 L 0.6634495144719217,1.3316098631979503 L 0.6489786477542363,1.3289767995638588 L 0.6348355475828048,1.324938021877097 L 0.6211564197436849,1.319532425774609 L 0.6080730017157387,1.3128120701018615 L 0.5957112939666993,1.3048416755577028 L 0.5841903464997864,1.2956980013986534 L 0.5736211123370976,1.2854691062053067 L 0.564105378981351,1.2742534998300583 L 0.5557347881465894,1.2621591946933728 L 0.5485899531983842,1.2493026655651396 L 0.5427396828030493,1.2358077278489554 L 0.5382403182625758,1.2218043451721112 L 0.5351351909170906,1.2074273777648117 L 0.5334542048403664,1.1928152836824404 L 0.5332135488472425,1.1781087853787926 L 0.5344155405864883,1.1634495144719226 L 0.5370486042205799,1.1489786477542363 L 0.5410873819073414,1.1348355475828054 L 0.5464929780098293,1.1211564197436852 L 0.5532133336825771,1.108073001715739 L 0.5611837282267362,1.095711293966699 L 0.5703274023857849,1.0841903464997866 L 0.5805562975791316,1.0736211123370978 L 0.5917719039543812,1.0641053789813504 L 0.6038662090910659,1.0557347881465893 L 0.6167227382192991,1.048589953198384 L 0.6302176759354837,1.0427396828030493 L 0.6442210586123279,1.0382403182625757 L 0.6585980260196272,1.0351351909170905 L 0.6732101201019985,1.0334542048403663 L 0.6879166184056461,1.0332135488472423 L 0.7025758893125165,1.0344155405864883 L 0.717046756030203,1.0370486042205798 L 0.7311898562016335,1.0410873819073414 L 0.744868984040754,1.0464929780098293 L 0.7579524020686997,1.053213333682577 L 0.7703141098177397,1.061183728226736 L 0.7818350572846522,1.070327402385785 L 0.792404291447341,1.0805562975791316 L 0.801920024803088,1.0917719039543807 L 0.8102906156378491,1.1038662090910654 L 0.8174354505860546,1.116722738219299 L 0.8232857209813895,1.1302176759354834 L 0.827785085521863,1.1442210586123274 L 0.8308902128673482,1.1585980260196267 L 0.8325711989440725,1.1732101201019989 L 0.8328118549371963,1.1879166184056456 L 0.8316098631979504,1.2025758893125158 L 0.828976799563859,1.2170467560302025 L 0.8249380218770974,1.231189856201633 L 0.8195324257746094,1.2448689840407539 L 0.8128120701018617,1.2579524020686998 z" /><path fill-rule="evenodd" fill="#cb4777ff" stroke="#555555" stroke-width="0.033789190522878744" opacity="0.6" d="M 1.3660254037844388,1.0 L 0.5,0.5 L 5.551115123125783e-17,1.3660254037844388 L 0.8660254037844388,1.8660254037844386 L 1.3660254037844388,1.0 z M 0.899519052838329,1.3080127018922192 L 0.899519052838328,1.3080127018922212 L 0.8862243730401221,1.3286321261091714 L 0.8709726537619625,1.3478491556672378 L 0.853910777397936,1.3654787200666794 L 0.8352030591443982,1.3813510369650293 L 0.8150296645548101,1.3953132472738647 L 0.7935848744469682,1.407230887275392 L 0.7710752138725265,1.4169891835815513 L 0.7477174631678483,1.4244941584644868 L 0.7237365702408654,1.4296735349134393 L 0.6993634841997539,1.4324774327018703 L 0.6748329311867742,1.4328788487613107 L 0.6503811538372055,1.4308739172356717 L 0.6262436361336252,1.4264819467115524 L 0.6026528355664282,1.4197452342659955 L 0.57983594444112,1.410728658122513 L 0.5580127018922187,1.3995190528383286 L 0.5373932776752683,1.3862243730401227 L 0.5181762481172019,1.3709726537619633 L 0.5005466837177601,1.3539107773979369 L 0.4846743668194104,1.335203059144399 L 0.4707121565105745,1.3150296645548112 L 0.4587945165090472,1.2935848744469696 L 0.4490362202028879,1.2710752138725276 L 0.4415312453199523,1.2477174631678496 L 0.43635186887099964,1.2237365702408665 L 0.4335479710825685,1.199363484199755 L 0.433146555023128,1.1748329311867751 L 0.4351514865487668,1.1503811538372064 L 0.439543457072886,1.1262436361336259 L 0.446280169518443,1.1026528355664287 L 0.4552967456619256,1.0798359444411205 L 0.4665063509461098,1.0580127018922192 L 0.47980103074431574,1.0373932776752686 L 0.49505275002247523,1.0181762481172019 L 0.5121146263865017,1.0005466837177601 L 0.5308223446400395,0.9846743668194103 L 0.5509957392296277,0.9707121565105744 L 0.5724405293374694,0.958794516509047 L 0.5949501899119114,0.9490362202028877 L 0.6183079406165897,0.9415312453199521 L 0.6422888335435727,0.9363518688709995 L 0.6666619195846841,0.9335479710825685 L 0.6911924725976639,0.9331465550231279 L 0.7156442499472327,0.9351514865487668 L 0.7397817676508132,0.939543457072886 L 0.7633725682180103,0.9462801695184431 L 0.7861894593433185,0.9552967456619255 L 0.8080127018922197,0.9665063509461098 L 0.8286321261091703,0.9798010307443157 L 0.847849155667237,0.9950527500224752 L 0.8654787200666786,1.0121146263865017 L 0.8813510369650284,1.0308223446400393 L 0.8953132472738643,1.0509957392296276 L 0.9072308872753916,1.0724405293374693 L 0.9169891835815509,1.0949501899119112 L 0.9244941584644865,1.1183079406165892 L 0.9296735349134391,1.1422888335435724 L 0.9324774327018703,1.1666619195846837 L 0.9328788487613109,1.1911924725976635 L 0.930873917235672,1.2156442499472324 L 0.9264819467115528,1.2397817676508127 L 0.9197452342659957,1.2633725682180097 L 0.9107286581225135,1.286189459343318 L 0.899519052838329,1.3080127018922192 z" /><path fill-rule="evenodd" fill="#eff821ff" stroke="#555555" stroke-width="0.033789190522878744" opacity="0.6" d="M 1.2294228634059947,1.0366025403784438 L 0.5366025403784439,0.6366025403784439 L 0.13660254037844394,1.3294228634059948 L 0.8294228634059949,1.7294228634059947 L 1.2294228634059947,1.0366025403784438 z M 0.9884706603805146,1.3537030894552615 L 0.9861215932167728,1.3580127018922192 L 0.9835638929477715,1.3622018599496968 L 0.9702692131495656,1.3828212841666472 L 0.9645530479629867,1.3907981834461798 L 0.9493013286848271,1.4100152130042463 L 0.9428308155399319,1.4173934191681996 L 0.9257689391759052,1.4350229835676411 L 0.9186063926514213,1.4417314404573185 L 0.8998986743978836,1.4576037573556682 L 0.8921130737322871,1.4635778588640074 L 0.871939679142699,1.4775400691728429 L 0.8636060039264437,1.482722281436541 L 0.8421612138186021,1.4946399214380683 L 0.833359721899669,1.4989803369201415 L 0.8108500613252271,1.5087386332263006 L 0.801665515882181,1.512195451352944 L 0.7783077651775028,1.5197004262358795 L 0.7688286184037443,1.522240355958844 L 0.7448477254767614,1.5274197324077967 L 0.7351652667375494,1.5290183128153838 L 0.7107921806964381,1.5318222106038148 L 0.700999657362402,1.5324640464928265 L 0.6764691043494222,1.5328654625522669 L 0.6666608237734071,1.5325443726922288 L 0.6422090464238384,1.5305394411665898 L 0.6324794677095418,1.5292585178283793 L 0.6083419500059614,1.52486654730426 L 0.5987847743151318,1.5226381264798488 L 0.5751939737479348,1.5159014140342917 L 0.5659012419069572,1.5127469566343965 L 0.543084350781649,1.503730380490914 L 0.5341455568780777,1.4996802656646984 L 0.5123223143291765,1.4884706603805142 L 0.5038235438347434,1.4835638929477724 L 0.483204119617793,1.4702692131495665 L 0.4752272203382603,1.4645530479629876 L 0.4560101907801938,1.4493013286848282 L 0.44863198461624065,1.4428308155399332 L 0.431002420216799,1.4257689391759067 L 0.42429396332712105,1.418606392651422 L 0.40842164642877127,1.3998986743978845 L 0.4024475449204329,1.392113073732289 L 0.38848533461159696,1.371939679142701 L 0.3833031223478986,1.363606003926445 L 0.3713854823463713,1.3421612138186034 L 0.367045066864298,1.3333597218996704 L 0.35728677055813873,1.3108500613252287 L 0.3538299524314954,1.301665515882183 L 0.3463249775485598,1.2783077651775048 L 0.34378504782559505,1.268828618403746 L 0.33860567137664244,1.244847725476763 L 0.33700709096905523,1.2351652667375512 L 0.3342031931806241,1.21079218069644 L 0.3335613572916123,1.2009996573624035 L 0.3331599412321718,1.1764691043494238 L 0.33348103109220995,1.166660823773408 L 0.3354859626178488,1.1422090464238392 L 0.3367668859560591,1.1324794677095429 L 0.3411588564801783,1.1083419500059626 L 0.34338727730458984,1.0987847743151327 L 0.3501239897501468,1.0751939737479357 L 0.35327844715004186,1.0659012419069582 L 0.36229502329352437,1.0430843507816498 L 0.36634513811973995,1.0341455568780784 L 0.37755474340392425,1.012322314329177 L 0.38246151083666613,1.0038235438347436 L 0.395756190634872,0.9832041196177932 L 0.4014723558214507,0.9752272203382608 L 0.4167240750996102,0.9560101907801941 L 0.4231945882445054,0.9486319846162407 L 0.44025646460853196,0.931002420216799 L 0.4474190111330163,0.9242939633271212 L 0.4661267293865541,0.9084216464287713 L 0.4739123300521498,0.9024475449204328 L 0.49408572464173794,0.8884853346115968 L 0.5024193998579938,0.8833031223478984 L 0.5238641899658354,0.8713854823463711 L 0.5326656818847684,0.8670450668642979 L 0.5551753424592104,0.8572867705581385 L 0.5643598879022563,0.8538299524314952 L 0.5877176386069347,0.8463249775485596 L 0.5971967853806932,0.8437850478255949 L 0.6211776783076762,0.8386056713766423 L 0.6308601370468884,0.837007090969055 L 0.6552332230879998,0.834203193180624 L 0.6650257464220355,0.8335613572916123 L 0.6895562994350153,0.8331599412321717 L 0.6993645800110311,0.8334810310922098 L 0.7238163573605999,0.8354859626178488 L 0.733545936074896,0.8367668859560591 L 0.7576834537784765,0.8411588564801782 L 0.7672406294693066,0.8433872773045898 L 0.7908314300365036,0.8501239897501469 L 0.8001241618774807,0.8532784471500419 L 0.822941053002789,0.8622950232935243 L 0.8318798469063607,0.86634513811974 L 0.853703089455262,0.8775547434039244 L 0.862201859949695,0.8824615108366661 L 0.8828212841666456,0.895756190634872 L 0.890798183446178,0.9014723558214507 L 0.9100152130042447,0.9167240750996102 L 0.917393419168198,0.9231945882445054 L 0.9350229835676398,0.9402564646085319 L 0.9417314404573175,0.9474190111330162 L 0.9576037573556673,0.9661267293865539 L 0.9635778588640059,0.9739123300521496 L 0.9775400691728419,0.9940857246417378 L 0.9827222814365403,1.0024193998579936 L 0.9946399214380675,1.0238641899658354 L 0.9989803369201407,1.0326656818847681 L 1.0087386332263,1.05517534245921 L 1.0121954513529432,1.0643598879022558 L 1.0197004262358789,1.087717638606934 L 1.0222403559588438,1.0971967853806928 L 1.0274197324077963,1.121177678307676 L 1.0290183128153836,1.1308601370468874 L 1.0318222106038146,1.1552332230879987 L 1.0324640464928265,1.1650257464220353 L 1.0328654625522669,1.1895562994350148 L 1.0325443726922288,1.1993645800110304 L 1.03053944116659,1.2238163573605991 L 1.0292585178283797,1.2335459360748957 L 1.0248665473042606,1.257683453778476 L 1.022638126479849,1.2672406294693062 L 1.015901414034292,1.2908314300365031 L 1.0127469566343972,1.3001241618774797 L 1.0037303804909148,1.322941053002788 L 0.9996802656646988,1.3318798469063604 L 0.9884706603805146,1.3537030894552615 z" /></g></g></svg>