<svg xmlns="http://www.w3.org/2000/svg" xmlns:xlink="http://www.w3.org/1999/xlink" width="100.0" height="100.0" viewBox="-0.18260679559687282 -0.18260679559687282 1.7303834811155654 2.2303834811155654" preserveAspectRatio="xMinYMin meet"><g transform="matrix(1,0,0,-1,0,1.8651698899218199)"><g><path fill-rule="evenodd" fill="#0c0786ff" stroke="#555555" stroke-width="0.04460766962231131" opacity="0.6" d="M 1.1,0.0 L 1.0923879532511287,-0.03826834323650898 L 1.0707106781186548,-0.07071067811865477 L 1.038268343236509,-0.09238795325112868 L 1.0,-0.1 L 0.0,-0.1 L -0.03826834323650945,-0.09238795325112849 L -0.07071067811865499,-0.07071067811865453 L -0.09238795325112874,-0.038268343236508844 L -0.1,0.0 L -0.1,1.0 L -0.09238795325112868,1.038268343236509 L -0.07071067811865475,1.0707106781186548 L -0.038268343236508975,1.0923879532511287 L 0.0,1.1 L 0.03811978464829929,1.1 L -0.08660254037844384,1.3160254037844386 L -0.09914448613738092,1.3529727845624335 L -0.0965925826289068,1.391907308294691 L -0.0793353340291234,1.4269015466853108 L -0.04999999999999993,1.4526279441628827 L 0.8160254037844388,1.9526279441628827 L 0.8529727845624336,1.9651698899218197 L 0.8919073082946909,1.9626179864133455 L 0.9269015466853109,1.9453607378135622 L 0.9526279441628827,1.9160254037844386 L 1.4526279441628827,1.0499999999999998 L 1.4651698899218197,1.013052619222005 L 1.4626179864133455,0.9741180954897478 L 1.4453607378135622,0.9391238570991278 L 1.4160254037844386,0.913397459621556 L 1.1,0.7309401076758503 L 1.1,0.0 z M 0.5584185213586172,1.1 L 0.8076147732461454,1.1 L 0.8102906156378491,1.1038662090910654 L 0.8174354505860546,1.116722738219299 L 0.8232857209813895,1.1302176759354834 L 0.827785085521863,1.1442210586123274 L 0.8308902128673482,1.1585980260196267 L 0.8325711989440725,1.1732101201019989 L 0.8328118549371963,1.1879166184056456 L 0.8316098631979504,1.2025758893125158 L 0.828976799563859,1.2170467560302025 L 0.8249380218770974,1.231189856201633 L 0.8195324257746094,1.2448689840407539 L 0.8128120701018617,1.2579524020686998 L 0.8048416755577019,1.2703141098177406 L 0.7956980013986534,1.2818350572846526 L 0.7854691062053063,1.2924042914473417 L 0.7742534998300572,1.3019200248030887 L 0.7621591946933731,1.3102906156378493 L 0.7493026655651385,1.3174354505860553 L 0.7358077278489551,1.3232857209813895 L 0.7218043451721101,1.3277850855218631 L 0.7074273777648108,1.3308902128673483 L 0.6928152836824404,1.3325711989440723 L 0.6781087853787915,1.3328118549371961 L 0.6634495144719217,1.3316098631979503 L 0.6489786477542363,1.3289767995638588 L 0.6348355475828048,1.324938021877097 L 0.6211564197436849,1.319532425774609 L 0.6080730017157387,1.3128120701018615 L 0.5957112939666993,1.3048416755577028 L 0.5841903464997864,1.2956980013986534 L 0.5736211123370976,1.2854691062053067 L 0.564105378981351,1.2742534998300583 L 0.5557347881465894,1.2621591946933728 L 0.5485899531983842,1.2493026655651396 L 0.5427396828030493,1.2358077278489554 L 0.5382403182625758,1.2218043451721112 L 0.5351351909170906,1.2074273777648117 L 0.5334542048403664,1.1928152836824404 L 0.5332135488472425,1.1781087853787926 L 0.5344155405864883,1.1634495144719226 L 0.5370486042205799,1.1489786477542363 L 0.5410873819073414,1.1348355475828054 L 0.5464929780098293,1.1211564197436852 L 0.5532133336825771,1.108073001715739 L 0.5584185213586172,1.1 z M 0.35765961291763526,0.5465407823956764 L 0.35657435630689566,0.5435076933585516 L 0.3530004902981534,0.5292400204784435 L 0.350842309925946,0.5146907502169065 L 0.3501205996470393,0.49999999999999994 L 0.35084230992594606,0.4853092497830929 L 0.3530004902981534,0.4707599795215564 L 0.3565743563068957,0.4564923066414482 L 0.3615294896688348,0.4426436366321072 L 0.3678181697409439,0.4293473397561765 L 0.3753798330963858,0.4167314666210673 L 0.384141656783423,0.404917514981607 L 0.39401925965024825,0.39401925965024787 L 0.4049175149816078,0.3841416567834223 L 0.4167314666210675,0.3753798330963857 L 0.42934733975617706,0.36781816974094356 L 0.442643636632108,0.36152948966883447 L 0.456492306641449,0.35657435630689543 L 0.47075997952155657,0.3530004902981534 L 0.48530924978309387,0.35084230992594595 L 0.5,0.3501205996470393 L 0.5146907502169071,0.35084230992594606 L 0.5292400204784438,0.35300049029815345 L 0.543507693358552,0.3565743563068957 L 0.5573563633678923,0.3615294896688346 L 0.570652660243823,0.3678181697409436 L 0.5832685333789326,0.3753798330963858 L 0.5950824850183929,0.3841416567834229 L 0.6059807403497518,0.3940192596502479 L 0.6158583432165774,0.40491751498160744 L 0.6246201669036147,0.4167314666210678 L 0.6321818302590563,0.4293473397561767 L 0.6384705103311653,0.44264363663210743 L 0.6434256436931045,0.45649230664144863 L 0.6466013026067458,0.46917024768562926 L 0.55,0.4133974596215561 L 0.5130526192220046,0.40085551386261886 L 0.4741180954897476,0.40340741737109326 L 0.4391238570991278,0.4206646659708766 L 0.4133974596215561,0.45 L 0.35765961291763526,0.5465407823956764 z" /><path fill-rule="evenodd" fill="#cb4777ff" stroke="#555555" stroke-width="0.04460766962231131" opacity="0.6" d="M 1.0,0.0 L 0.0,0.0 L 0.0,1.0 L 0.2113248654051872,1.0 L 5.551115123125783e-17,1.3660254037844388 L 0.8660254037844388,1.8660254037844386 L 1.3660254037844388,1.0 L 1.0,0.7886751345948129 L 1.0,0.0 z M 0.5127589686732108,1.0 L 0.852961012078458,1.0 L 0.8654787200666786,1.0121146263865017 L 0.8813510369650284,1.0308223446400393 L 0.8953132472738643,1.0509957392296276 L 0.9072308872753916,1.0724405293374693 L 0.9169891835815509,1.0949501899119112 L 0.9244941584644865,1.1183079406165892 L 0.9296735349134391,1.1422888335435724 L 0.9324774327018703,1.1666619195846837 L 0.9328788487613109,1.1911924725976635 L 0.930873917235672,1.2156442499472324 L 0.9264819467115528,1.2397817676508127 L 0.9197452342659957,1.2633725682180097 L 0.9107286581225135,1.286189459343318 L 0.899519052838329,1.3080127018922192 L 0.899519052838328,1.3080127018922212 L 0.8862243730401221,1.3286321261091714 L 0.8709726537619625,1.3478491556672378 L 0.853910777397936,1.3654787200666794 L 0.8352030591443982,1.3813510369650293 L 0.8150296645548101,1.3953132472738647 L 0.7935848744469682,1.407230887275392 L 0.7710752138725265,1.4169891835815513 L 0.7477174631678483,1.4244941584644868 L 0.7237365702408654,1.4296735349134393 L 0.6993634841997539,1.4324774327018703 L 0.6748329311867742,1.4328788487613107 L 0.6503811538372055,1.4308739172356717 L 0.6262436361336252,1.4264819467115524 L 0.6026528355664282,1.4197452342659955 L 0.57983594444112,1.410728658122513 L 0.5580127018922187,1.3995190528383286 L 0.5373932776752683,1.3862243730401227 L 0.5181762481172019,1.3709726537619633 L 0.5005466837177601,1.3539107773979369 L 0.4846743668194104,1.335203059144399 L 0.4707121565105745,1.3150296645548112 L 0.4587945165090472,1.2935848744469696 L 0.4490362202028879,1.2710752138725276 L 0.4415312453199523,1.2477174631678496 L 0.43635186887099964,1.2237365702408665 L 0.4335479710825685,1.199363484199755 L 0.433146555023128,1.1748329311867751 L 0.4351514865487668,1.1503811538372064 L 0.439543457072886,1.1262436361336259 L 0.446280169518443,1.1026528355664287 L 0.4552967456619256,1.0798359444411205 L 0.4665063509461098,1.0580127018922192 L 0.47980103074431574,1.0373932776752686 L 0.49505275002247523,1.0181762481172019 L 0.5121146263865017,1.0005466837177601 L 0.5127589686732108,1.0 z M 0.75,0.5 L 0.75,0.5000000000000021 L 0.7487961816680491,0.5245042850823921 L 0.7451963201008073,0.5487725805040339 L 0.7392350839330517,0.5725711693136173 L 0.7309698831278211,0.5956708580912741 L 0.720480316087088,0.6178491842065008 L 0.7162745105226238,0.6248661468690914 L 0.5,0.5 L 0.3751338531309086,0.7162745105226239 L 0.36110744174509923,0.7078674030756362 L 0.3414016789590885,0.6932526133406842 L 0.3232233047033631,0.6767766952966369 L 0.3067473866593157,0.6585983210409113 L 0.29213259692436366,0.6388925582549005 L 0.27951968391291115,0.6178491842064993 L 0.26903011687217826,0.5956708580912723 L 0.26076491606694774,0.5725711693136154 L 0.25480367989919234,0.5487725805040319 L 0.25120381833195077,0.5245042850823899 L 0.25,0.4999999999999997 L 0.2512038183319508,0.47549571491760956 L 0.25480367989919245,0.4512274194959676 L 0.26076491606694785,0.4274288306863841 L 0.2690301168721785,0.4043291419087272 L 0.27951968391291143,0.38215081579350024 L 0.2921325969243639,0.3611074417450991 L 0.306747386659316,0.3414016789590883 L 0.32322330470336347,0.3232233047033628 L 0.341401678959089,0.30674738665931545 L 0.3611074417450999,0.29213259692436344 L 0.3821508157935011,0.279519683912911 L 0.40432914190872804,0.26903011687217815 L 0.4274288306863849,0.2607649160669476 L 0.4512274194959684,0.2548036798991923 L 0.4754957149176103,0.2512038183319507 L 0.5000000000000004,0.25 L 0.5245042850823906,0.2512038183319508 L 0.5487725805040324,0.25480367989919245 L 0.572571169313616,0.26076491606694785 L 0.5956708580912727,0.2690301168721784 L 0.6178491842064997,0.2795196839129114 L 0.6388925582549008,0.29213259692436383 L 0.6585983210409115,0.3067473866593159 L 0.676776695296637,0.32322330470336325 L 0.6932526133406843,0.3414016789590888 L 0.7078674030756364,0.36110744174509957 L 0.7204803160870888,0.3821508157935007 L 0.7309698831278217,0.40432914190872765 L 0.7392350839330523,0.4274288306863845 L 0.7451963201008076,0.451227419495968 L 0.7487961816680493,0.4754957149176099 L 0.75,0.5 z" /><path fill-rule="evenodd" fill="#eff821ff" stroke="#555555" stroke-width="0.04460766962231131" opacity="0.6" d="M 0.9,0.1 L 0.1,0.1 L 0.1,0.9 L 0.3845299461620749,0.9 L 0.13660254037844394,1.3294228634059948 L 0.8294228634059949,1.7294228634059947 L 1.2294228634059947,1.0366025403784438 L 0.9,0.8464101615137755 L 0.9,0.1 z M 0.47744868198808826,0.9 L 0.8887435132769321,0.9 L 0.890798183446178,0.9014723558214507 L 0.9100152130042447,0.9167240750996102 L 0.917393419168198,0.9231945882445054 L 0.9350229835676398,0.9402564646085319 L 0.9417314404573175,0.9474190111330162 L 0.9576037573556673,0.9661267293865539 L 0.9635778588640059,0.9739123300521496 L 0.9775400691728419,0.9940857246417378 L 0.9827222814365403,1.0024193998579936 L 0.9946399214380675,1.0238641899658354 L 0.9989803369201407,1.0326656818847681 L 1.0087386332263,1.05517534245921 L 1.0121954513529432,1.0643598879022558 L 1.0197004262358789,1.087717638606934 L 1.0222403559588438,1.0971967853806928 L 1.0274197324077963,1.121177678307676 L 1.0290183128153836,1.1308601370468874 L 1.0318222106038146,1.1552332230879987 L 1.0324640464928265,1.1650257464220353 L 1.0328654625522669,1.1895562994350148 L 1.0325443726922288,1.1993645800110304 L 1.03053944116659,1.2238163573605991 L 1.0292585178283797,1.2335459360748957 L 1.0248665473042606,1.257683453778476 L 1.022638126479849,1.2672406294693062 L 1.015901414034292,1.2908314300365031 L 1.0127469566343972,1.3001241618774797 L 1.0037303804909148,1.322941053002788 L 0.9996802656646988,1.3318798469063604 L 0.9884706603805146,1.3537030894552615 L 0.9861215932167728,1.3580127018922192 L 0.9835638929477715,1.3622018599496968 L 0.9702692131495656,1.3828212841666472 L 0.9645530479629867,1.3907981834461798 L 0.9493013286848271,1.4100152130042463 L 0.9428308155399319,1.4173934191681996 L 0.9257689391759052,1.4350229835676411 L 0.9186063926514213,1.4417314404573185 L 0.8998986743978836,1.4576037573556682 L 0.8921130737322871,1.4635778588640074 L 0.871939679142699,1.4775400691728429 L 0.8636060039264437,1.482722281436541 L 0.8421612138186021,1.4946399214380683 L 0.833359721899669,1.4989803369201415 L 0.8108500613252271,1.5087386332263006 L 0.801665515882181,1.512195451352944 L 0.7783077651775028,1.5197004262358795 L 0.7688286184037443,1.522240355958844 L 0.7448477254767614,1.5274197324077967 L 0.7351652667375494,1.5290183128153838 L 0.7107921806964381,1.5318222106038148 L 0.700999657362402,1.5324640464928265 L 0.6764691043494222,1.5328654625522669 L 0.6666608237734071,1.5325443726922288 L 0.6422090464238384,1.5305394411665898 L 0.6324794677095418,1.5292585178283793 L 0.6083419500059614,1.52486654730426 L 0.5987847743151318,1.5226381264798488 L 0.5751939737479348,1.5159014140342917 L 0.5659012419069572,1.5127469566343965 L 0.543084350781649,1.503730380490914 L 0.5341455568780777,1.4996802656646984 L 0.5123223143291765,1.4884706603805142 L 0.5038235438347434,1.4835638929477724 L 0.483204119617793,1.4702692131495665 L 0.4752272203382603,1.4645530479629876 L 0.4560101907801938,1.4493013286848282 L 0.44863198461624065,1.4428308155399332 L 0.431002420216799,1.4257689391759067 L 0.42429396332712105,1.418606392651422 L 0.40842164642877127,1.3998986743978845 L 0.4024475449204329,1.392113073732289 L 0.38848533461159696,1.371939679142701 L 0.3833031223478986,1.363606003926445 L 0.3713854823463713,1.3421612138186034 L 0.367045066864298,1.3333597218996704 L 0.35728677055813873,1.3108500613252287 L 0.3538299524314954,1.301665515882183 L 0.3463249775485598,1.2783077651775048 L 0.34378504782559505,1.268828618403746 L 0.33860567137664244,1.244847725476763 L 0.33700709096905523,1.2351652667375512 L 0.3342031931806241,1.21079218069644 L 0.3335613572916123,1.2009996573624035 L 0.3331599412321718,1.1764691043494238 L 0.33348103109220995,1.166660823773408 L 0.3354859626178488,1.1422090464238392 L 0.3367668859560591,1.1324794677095429 L 0.3411588564801783,1.1083419500059626 L 0.34338727730458984,1.0987847743151327 L 0.3501239897501468,1.0751939737479357 L 0.35327844715004186,1.0659012419069582 L 0.36229502329352437,1.0430843507816498 L 0.36634513811973995,1.0341455568780784 L 0.37755474340392425,1.012322314329177 L 0.38246151083666613,1.0038235438347436 L 0.395756190634872,0.9832041196177932 L 0.4014723558214507,0.9752272203382608 L 0.4167240750996102,0.9560101907801941 L 0.4231945882445054,0.9486319846162407 L 0.44025646460853196,0.931002420216799 L 0.4474190111330163,0.9242939633271212 L 0.4661267293865541,0.9084216464287713 L 0.4739123300521498,0.9024475449204328 L 0.47744868198808826,0.9 z M 0.8498795456205173,0.49509323256725846 L 0.85,0.5 L 0.8498795456205173,0.5049067674327445 L 0.8486757272885663,0.5294110525151345 L 0.847713832664527,0.5391773325279291 L 0.8441139710972853,0.5634456279495709 L 0.8421994454202615,0.573070598494361 L 0.8362382092525059,0.5968691873039444 L 0.8333894904513536,0.6062601546528398 L 0.8251242896461229,0.6293598434304966 L 0.8213688124401649,0.6384263674343033 L 0.8108792453994318,0.66060469354953 L 0.806253177087115,0.6692594586258234 L 0.7936402640756625,0.6903028326742244 L 0.7881881562236996,0.6984624887041456 L 0.7735733664887475,0.7181682514901563 L 0.7673477258761787,0.725754216525615 L 0.7508718078321313,0.7439325907813403 L 0.7439325907813373,0.7508718078321341 L 0.740270932536461,0.7541905414162934 L 0.5366025403784439,0.6366025403784439 L 0.4190418058477621,0.8402237055607017 L 0.40313081269605766,0.8362382092525066 L 0.3937398453471615,0.833389490451354 L 0.3706401565695047,0.8251242896461234 L 0.361573632565699,0.8213688124401659 L 0.3393953064504721,0.810879245399433 L 0.33074054137417813,0.8062531770871159 L 0.30969716732577707,0.7936402640756635 L 0.3015375112958559,0.7881881562237008 L 0.28183174850984516,0.7735733664887487 L 0.27424578347438655,0.76734772587618 L 0.2560674092186611,0.7508718078321327 L 0.24912819216786708,0.7439325907813387 L 0.23265227412381972,0.7257542165256131 L 0.22642663351125128,0.7181682514901547 L 0.21181184377629922,0.698462488704144 L 0.2063597359243364,0.6903028326742227 L 0.1937468229128839,0.6692594586258214 L 0.18912075460056677,0.6606046935495273 L 0.17863118755983387,0.6384263674343004 L 0.17487571035387617,0.6293598434304942 L 0.16661050954864565,0.6062601546528373 L 0.16376179074749334,0.5968691873039418 L 0.15780055457973793,0.5730705984943583 L 0.1558860289027142,0.5634456279495679 L 0.15228616733547262,0.5391773325279259 L 0.1513242727114335,0.5294110525151317 L 0.15012045437948274,0.5049067674327414 L 0.15012045437948274,0.49509323256725773 L 0.15132427271143356,0.47058894748486757 L 0.15228616733547273,0.46082266747207334 L 0.15588602890271436,0.4365543720504314 L 0.15780055457973804,0.4269294015056412 L 0.16376179074749345,0.40313081269605766 L 0.1666105095486459,0.3937398453471618 L 0.17487571035387653,0.3706401565695049 L 0.17863118755983418,0.3615736325656989 L 0.18912075460056713,0.33939530645047195 L 0.19374682291288425,0.330740541374178 L 0.2063597359243367,0.3096971673257769 L 0.21181184377629947,0.30153751129585565 L 0.22642663351125158,0.2818317485098448 L 0.23265227412382034,0.2742457834743862 L 0.2491281921678678,0.25606740921866067 L 0.2560674092186617,0.2491281921678668 L 0.2742457834743873,0.23265227412381945 L 0.281831748509846,0.22642663351125075 L 0.3015375112958569,0.21181184377629875 L 0.3096971673257778,0.2063597359243362 L 0.33074054137417896,0.19374682291288375 L 0.33939530645047317,0.1891207546005665 L 0.36157363256570013,0.17863118755983365 L 0.37064015656950605,0.17487571035387606 L 0.3937398453471629,0.16661050954864554 L 0.40313081269605866,0.16376179074749317 L 0.4269294015056422,0.15780055457973782 L 0.43655437205043235,0.15588602890271414 L 0.46082266747207423,0.15228616733547257 L 0.47058894748486874,0.15132427271143345 L 0.4950932325672589,0.15012045437948274 L 0.5049067674327424,0.15012045437948277 L 0.5294110525151325,0.1513242727114336 L 0.5391773325279268,0.15228616733547273 L 0.5634456279495687,0.15588602890271436 L 0.5730705984943588,0.15780055457973804 L 0.5968691873039423,0.16376179074749345 L 0.6062601546528382,0.16661050954864587 L 0.629359843430495,0.17487571035387645 L 0.638426367434301,0.17863118755983412 L 0.660604693549528,0.18912075460056707 L 0.669259458625822,0.19374682291288425 L 0.6903028326742231,0.2063597359243367 L 0.6984624887041442,0.21181184377629939 L 0.718168251490155,0.22642663351125145 L 0.7257542165256134,0.2326522741238201 L 0.743932590781339,0.24912819216786747 L 0.750871807832133,0.2560674092186615 L 0.7673477258761803,0.27424578347438705 L 0.7735733664887486,0.2818317485098452 L 0.7881881562237008,0.301537511295856 L 0.7936402640756637,0.3096971673257775 L 0.8062531770871161,0.33074054137417863 L 0.8108792453994332,0.3393953064504726 L 0.8213688124401661,0.3615736325656996 L 0.8251242896461238,0.37064015656950566 L 0.8333894904513544,0.3937398453471625 L 0.8362382092525067,0.40313081269605827 L 0.842199445420262,0.4269294015056418 L 0.8441139710972857,0.4365543720504315 L 0.8477138326645274,0.4608226674720734 L 0.8486757272885666,0.47058894748486835 L 0.8498795456205173,0.49509323256725846 z" /></g></g></svg>