<svg xmlns="http://www.w3.org/2000/svg" xmlns:xlink="http://www.w3.org/1999/xlink" width="100.0" height="100.0" viewBox="-0.6617170611797489 -0.16171706117974916 1.6894595261439367 1.689459526143937" preserveAspectRatio="xMinYMin meet"><g transform="matrix(1,0,0,-1,0,1.3660254037844386)"><g><path fill-rule="evenodd" fill="#0c0786ff" stroke="#555555" stroke-width="0.03378919052287874" opacity="0.6" d="M 0.9526279441628827,0.5499999999999999 L 0.9651698899218197,0.5130526192220051 L 0.9626179864133456,0.4741180954897478 L 0.9453607378135622,0.4391238570991278 L 0.9160254037844388,0.41339745962155605 L 0.049999999999999996,-0.08660254037844388 L 0.013052619222004652,-0.09914448613738111 L -0.0258819045102524,-0.09659258262890674 L -0.0608761429008722,-0.07933533402912343 L -0.08660254037844388,-0.049999999999999996 L -0.5866025403784438,0.8160254037844387 L -0.5991444861373809,0.8529727845624335 L -0.5965925826289068,0.8919073082946908 L -0.5793353340291234,0.9269015466853108 L -0.5499999999999999,0.9526279441628827 L 0.3160254037844388,1.4526279441628827 L 0.35297278456243364,1.4651698899218197 L 0.3919073082946909,1.4626179864133455 L 0.4269015466853109,1.4453607378135622 L 0.4526279441628827,1.4160254037844386 L 0.9526279441628827,0.5499999999999999 z M 0.31281207010186174,0.7579524020686998 L 0.304841675557702,0.7703141098177405 L 0.29569800139865343,0.7818350572846525 L 0.28546910620530636,0.7924042914473417 L 0.2742534998300572,0.8019200248030887 L 0.2621591946933731,0.8102906156378492 L 0.24930266556513853,0.8174354505860552 L 0.2358077278489551,0.8232857209813895 L 0.22180434517211017,0.8277850855218631 L 0.20742737776481085,0.8308902128673482 L 0.19281528368244044,0.8325711989440723 L 0.17810878537879155,0.8328118549371961 L 0.16344951447192163,0.8316098631979502 L 0.14897864775423625,0.8289767995638588 L 0.1348355475828048,0.824938021877097 L 0.12115641974368485,0.8195324257746092 L 0.1080730017157388,0.8128120701018615 L 0.0957112939666993,0.8048416755577027 L 0.08419034649978646,0.7956980013986535 L 0.0736211123370975,0.7854691062053069 L 0.06410537898135105,0.7742534998300583 L 0.05573478814658939,0.7621591946933728 L 0.04858995319838416,0.7493026655651397 L 0.04273968280304935,0.7358077278489554 L 0.03824031826257579,0.7218043451721112 L 0.03513519091709061,0.7074273777648117 L 0.03345420484036643,0.6928152836824404 L 0.03321354884724248,0.6781087853787926 L 0.03441554058648838,0.6634495144719226 L 0.03704860422057987,0.6489786477542363 L 0.0410873819073414,0.6348355475828054 L 0.04649297800982938,0.6211564197436851 L 0.05321333368257708,0.608073001715739 L 0.06118372822673618,0.5957112939666991 L 0.07032740238578494,0.5841903464997866 L 0.08055629757913163,0.5736211123370978 L 0.09177190395438117,0.5641053789813504 L 0.10386620909106592,0.5557347881465893 L 0.1167227382192991,0.548589953198384 L 0.1302176759354837,0.5427396828030492 L 0.14422105861232795,0.5382403182625757 L 0.15859802601962725,0.5351351909170905 L 0.17321012010199852,0.5334542048403663 L 0.1879166184056461,0.5332135488472424 L 0.2025758893125165,0.5344155405864883 L 0.21704675603020301,0.5370486042205799 L 0.23118985620163343,0.5410873819073414 L 0.24486898404075397,0.5464929780098294 L 0.25795240206869974,0.553213333682577 L 0.2703141098177397,0.5611837282267361 L 0.2818350572846522,0.5703274023857849 L 0.29240429144734104,0.5805562975791316 L 0.301920024803088,0.5917719039543806 L 0.3102906156378491,0.6038662090910654 L 0.3174354505860546,0.616722738219299 L 0.3232857209813895,0.6302176759354834 L 0.32778508552186303,0.6442210586123274 L 0.3308902128673482,0.6585980260196267 L 0.3325711989440725,0.6732101201019989 L 0.33281185493719634,0.6879166184056456 L 0.3316098631979504,0.7025758893125158 L 0.32897679956385895,0.7170467560302025 L 0.3249380218770974,0.731189856201633 L 0.3195324257746094,0.7448689840407539 L 0.31281207010186174,0.7579524020686998 z" /><path fill-rule="evenodd" fill="#cb4777ff" stroke="#555555" stroke-width="0.03378919052287874" opacity="0.6" d="M 0.8660254037844387,0.49999999999999994 L 0.0,0.0 L -0.49999999999999994,0.8660254037844387 L 0.36602540378443876,1.3660254037844386 L 0.8660254037844387,0.49999999999999994 z M 0.399519052838329,0.8080127018922193 L 0.399519052838328,0.8080127018922212 L 0.38622437304012214,0.8286321261091715 L 0.37097265376196253,0.8478491556672378 L 0.3539107773979359,0.8654787200666794 L 0.3352030591443982,0.8813510369650293 L 0.31502966455481,0.8953132472738649 L 0.2935848744469683,0.9072308872753921 L 0.2710752138725265,0.9169891835815513 L 0.2477174631678482,0.9244941584644868 L 0.2237365702408653,0.9296735349134393 L 0.19936348419975392,0.9324774327018703 L 0.17483293118677423,0.9328788487613107 L 0.15038115383720552,0.9308739172356717 L 0.12624363613362516,0.9264819467115524 L 0.10265283556642818,0.9197452342659955 L 0.07983594444111997,0.9107286581225129 L 0.0580127018922188,0.8995190528383286 L 0.037393277675268344,0.8862243730401228 L 0.01817624811720181,0.8709726537619633 L 0.0005466837177601769,0.8539107773979369 L -0.015325633180589604,0.8352030591443992 L -0.02928784348942548,0.8150296645548111 L -0.04120548349095282,0.7935848744469695 L -0.050963779797112085,0.7710752138725276 L -0.058468754680047696,0.7477174631678495 L -0.06364813112900036,0.7237365702408665 L -0.06645202891743152,0.699363484199755 L -0.06685344497687201,0.6748329311867751 L -0.06484851345123319,0.6503811538372063 L -0.06045654292711397,0.6262436361336259 L -0.053719830481556985,0.6026528355664287 L -0.04470325433807443,0.5798359444411204 L -0.03349364905389016,0.5580127018922191 L -0.020198969255684263,0.5373932776752686 L -0.00494724997752477,0.5181762481172019 L 0.012114626386501764,0.5005466837177601 L 0.030822344640039523,0.48467436681941034 L 0.05099573922962772,0.4707121565105744 L 0.07244052933746939,0.458794516509047 L 0.09495018991191134,0.4490362202028877 L 0.11830794061658964,0.44153124531995214 L 0.14228883354357266,0.4363518688709995 L 0.1666619195846841,0.4335479710825685 L 0.19119247259766398,0.43314655502312793 L 0.21564424994723277,0.4351514865487668 L 0.2397817676508132,0.439543457072886 L 0.26337256821801025,0.44628016951844307 L 0.2861894593433185,0.4552967456619255 L 0.30801270189221974,0.4665063509461098 L 0.32863212610917025,0.4798010307443157 L 0.3478491556672369,0.4950527500224752 L 0.3654787200666786,0.5121146263865017 L 0.3813510369650284,0.5308223446400394 L 0.3953132472738643,0.5509957392296275 L 0.4072308872753916,0.5724405293374693 L 0.4169891835815509,0.5949501899119112 L 0.42449415846448646,0.6183079406165892 L 0.42967353491343907,0.6422888335435724 L 0.43247743270187033,0.6666619195846837 L 0.43287884876131083,0.6911924725976635 L 0.43087391723567203,0.7156442499472323 L 0.4264819467115528,0.7397817676508127 L 0.41974523426599575,0.7633725682180097 L 0.41072865812251347,0.7861894593433181 L 0.399519052838329,0.8080127018922193 z" /><path fill-rule="evenodd" fill="#eff821ff" stroke="#555555" stroke-width="0.03378919052287874" opacity="0.6" d="M 0.7294228634059948,0.5366025403784438 L 0.03660254037844388,0.13660254037844388 L -0.36339745962155606,0.8294228634059949 L 0.3294228634059949,1.2294228634059947 L 0.7294228634059948,0.5366025403784438 z M 0.48847066038051457,0.8537030894552615 L 0.48612159321677284,0.8580127018922192 L 0.4835638929477715,0.8622018599496968 L 0.47026921314956566,0.8828212841666472 L 0.4645530479629867,0.8907981834461798 L 0.4493013286848271,0.9100152130042463 L 0.44283081553993187,0.9173934191681996 L 0.42576893917590525,0.9350229835676411 L 0.4186063926514213,0.9417314404573186 L 0.39989867439788357,0.9576037573556683 L 0.3921130737322871,0.9635778588640073 L 0.37193967914269893,0.9775400691728429 L 0.36360600392644365,0.982722281436541 L 0.34216121381860204,0.9946399214380682 L 0.333359721899669,0.9989803369201415 L 0.3108500613252271,1.0087386332263006 L 0.301665515882181,1.012195451352944 L 0.27830776517750283,1.0197004262358795 L 0.2688286184037442,1.022240355958844 L 0.2448477254767613,1.0274197324077967 L 0.2351652667375495,1.0290183128153838 L 0.21079218069643813,1.0318222106038148 L 0.20099965736240205,1.0324640464928265 L 0.17646910434942226,1.0328654625522669 L 0.16666082377340702,1.0325443726922288 L 0.1422090464238383,1.0305394411665898 L 0.13247946770954178,1.0292585178283793 L 0.10834195000596136,1.02486654730426 L 0.09878477431513183,1.0226381264798488 L 0.0751939737479348,1.0159014140342917 L 0.06590124190695723,1.0127469566343965 L 0.04308435078164902,1.003730380490914 L 0.03414555687807769,0.9996802656646984 L 0.01232231432917652,0.9884706603805141 L 0.003823543834743426,0.9835638929477724 L -0.016795880382206974,0.9702692131495666 L -0.024772779661739686,0.9645530479629876 L -0.04398980921980622,0.9493013286848282 L -0.05136801538375935,0.9428308155399332 L -0.06899757978320098,0.9257689391759067 L -0.07570603667287895,0.9186063926514222 L -0.09157835357122873,0.8998986743978845 L -0.09755245507956711,0.8921130737322891 L -0.11151466538840304,0.871939679142701 L -0.1166968776521014,0.863606003926445 L -0.1286145176536287,0.8421612138186034 L -0.132954933135702,0.8333597218996706 L -0.1427132294418613,0.8108500613252289 L -0.1461700475685046,0.8016655158821829 L -0.1536750224514402,0.7783077651775047 L -0.15621495217440495,0.768828618403746 L -0.1613943286233576,0.7448477254767629 L -0.1629929090309448,0.7351652667375512 L -0.16579680681937595,0.7107921806964399 L -0.1664386427083877,0.7009996573624037 L -0.1668400587678282,0.6764691043494238 L -0.16651896890779003,0.6666608237734081 L -0.1645140373821512,0.6422090464238394 L -0.1632331140439409,0.6324794677095429 L -0.15884114351982168,0.6083419500059626 L -0.15661272269541016,0.5987847743151327 L -0.14987601024985317,0.5751939737479356 L -0.14672155284995814,0.5659012419069582 L -0.1377049767064756,0.5430843507816498 L -0.13365486188026005,0.5341455568780783 L -0.12244525659607572,0.512322314329177 L -0.1175384891633339,0.5038235438347437 L -0.10424380936512798,0.48320411961779325 L -0.09852764417854928,0.4752272203382608 L -0.08327592490038979,0.4560101907801941 L -0.07680541175549457,0.44863198461624065 L -0.05974353539146804,0.43100242021679896 L -0.05258098886698373,0.42429396332712116 L -0.033873270613445944,0.4084216464287713 L -0.026087669947850223,0.4024475449204328 L -0.0059142753582620555,0.38848533461159684 L 0.002419399857993748,0.3833031223478985 L 0.02386418996583542,0.37138548234637114 L 0.0326656818847684,0.3670450668642979 L 0.05517534245921038,0.3572867705581385 L 0.06435988790225636,0.35382995243149523 L 0.08771763860693466,0.3463249775485596 L 0.09719678538069322,0.34378504782559494 L 0.12117767830767627,0.33860567137664227 L 0.13086013704688837,0.337007090969055 L 0.15523322308799986,0.33420319318062397 L 0.1650257464220355,0.3335613572916123 L 0.18955629943501534,0.33315994123217174 L 0.19936458001103113,0.3334810310922099 L 0.2238163573605999,0.3354859626178488 L 0.23354593607489604,0.3367668859560591 L 0.2576834537784764,0.34115885648017824 L 0.2672406294693066,0.34338727730458984 L 0.2908314300365036,0.35012398975014686 L 0.3001241618774807,0.35327844715004186 L 0.32294105300278897,0.3622950232935243 L 0.33187984690636074,0.36634513811974 L 0.353703089455262,0.37755474340392436 L 0.36220185994969506,0.38246151083666613 L 0.38282128416664557,0.395756190634872 L 0.390798183446178,0.4014723558214507 L 0.41001521300424465,0.4167240750996102 L 0.41739341916819805,0.42319458824450534 L 0.43502298356763974,0.44025646460853185 L 0.4417314404573175,0.4474190111330162 L 0.45760375735566733,0.46612672938655386 L 0.46357785886400593,0.4739123300521496 L 0.47754006917284186,0.4940857246417378 L 0.4827222814365403,0.5024193998579937 L 0.4946399214380675,0.5238641899658354 L 0.4989803369201407,0.5326656818847681 L 0.5087386332263001,0.5551753424592101 L 0.5121954513529433,0.5643598879022559 L 0.519700426235879,0.587717638606934 L 0.5222403559588438,0.5971967853806929 L 0.5274197324077963,0.6211776783076759 L 0.5290183128153836,0.6308601370468874 L 0.5318222106038146,0.6552332230879987 L 0.5324640464928265,0.6650257464220352 L 0.532865462552267,0.6895562994350148 L 0.5325443726922288,0.6993645800110304 L 0.53053944116659,0.7238163573605992 L 0.5292585178283797,0.7335459360748956 L 0.5248665473042606,0.757683453778476 L 0.522638126479849,0.7672406294693062 L 0.5159014140342919,0.7908314300365031 L 0.5127469566343972,0.8001241618774798 L 0.5037303804909148,0.8229410530027881 L 0.4996802656646988,0.8318798469063604 L 0.48847066038051457,0.8537030894552615 z" /></g></g></svg>