<svg xmlns="http://www.w3.org/2000/svg" xmlns:xlink="http://www.w3.org/1999/xlink" width="100.0" height="100.0" viewBox="0.068 0.068 0.8640000000000001 0.8640000000000001" preserveAspectRatio="xMinYMin meet"><g transform="matrix(1,0,0,-1,0,1.0)"><g><path fill-rule="evenodd" fill="#00FF00" stroke="#555555" stroke-width="0.017280000000000004" opacity="0.6" d="M 0.9,0.1 L 0.1,0.1 L 0.1,0.9 L 0.9,0.9 L 0.9,0.1 z M 0.8498795456205173,0.49509323256725846 L 0.85,0.5 L 0.8498795456205173,0.5049067674327445 L 0.8486757272885663,0.5294110525151345 L 0.847713832664527,0.5391773325279291 L 0.8441139710972853,0.5634456279495709 L 0.8421994454202615,0.573070598494361 L 0.8362382092525059,0.5968691873039444 L 0.8333894904513536,0.6062601546528398 L 0.8251242896461229,0.6293598434304966 L 0.8213688124401649,0.6384263674343033 L 0.8108792453994318,0.66060469354953 L 0.806253177087115,0.6692594586258234 L 0.7936402640756625,0.6903028326742244 L 0.7881881562236996,0.6984624887041456 L 0.7735733664887475,0.7181682514901563 L 0.7673477258761787,0.725754216525615 L 0.7508718078321313,0.7439325907813403 L 0.7439325907813373,0.7508718078321341 L 0.7257542165256118,0.7673477258761814 L 0.7181682514901533,0.7735733664887499 L 0.6984624887041425,0.7881881562237018 L 0.6903028326742212,0.7936402640756646 L 0.66925945862582,0.8062531770871169 L 0.6606046935495262,0.8108792453994338 L 0.6384263674342994,0.8213688124401666 L 0.629359843430493,0.8251242896461243 L 0.6062601546528361,0.8333894904513547 L 0.5968691873039409,0.8362382092525069 L 0.5730705984943575,0.8421994454202623 L 0.5634456279495668,0.844113971097286 L 0.5391773325279249,0.8477138326645275 L 0.5294110525151309,0.8486757272885666 L 0.5049067674327409,0.8498795456205173 L 0.4950932325672573,0.8498795456205173 L 0.47058894748486724,0.8486757272885664 L 0.46082266747207273,0.8477138326645273 L 0.4365543720504309,0.8441139710972856 L 0.42692940150564107,0.8421994454202619 L 0.40313081269605766,0.8362382092525066 L 0.3937398453471615,0.833389490451354 L 0.3706401565695047,0.8251242896461234 L 0.361573632565699,0.8213688124401659 L 0.3393953064504721,0.810879245399433 L 0.33074054137417813,0.8062531770871159 L 0.30969716732577707,0.7936402640756635 L 0.3015375112958559,0.7881881562237008 L 0.28183174850984516,0.7735733664887487 L 0.27424578347438655,0.76734772587618 L 0.2560674092186611,0.7508718078321327 L 0.24912819216786708,0.7439325907813387 L 0.23265227412381972,0.7257542165256131 L 0.22642663351125128,0.7181682514901547 L 0.21181184377629922,0.698462488704144 L 0.2063597359243364,0.6903028326742227 L 0.1937468229128839,0.6692594586258214 L 0.18912075460056677,0.6606046935495273 L 0.17863118755983387,0.6384263674343004 L 0.17487571035387617,0.6293598434304942 L 0.16661050954864565,0.6062601546528373 L 0.16376179074749334,0.5968691873039418 L 0.15780055457973793,0.5730705984943583 L 0.1558860289027142,0.5634456279495679 L 0.15228616733547262,0.5391773325279259 L 0.1513242727114335,0.5294110525151317 L 0.15012045437948274,0.5049067674327414 L 0.15012045437948274,0.49509323256725773 L 0.15132427271143356,0.47058894748486757 L 0.15228616733547273,0.46082266747207334 L 0.15588602890271436,0.4365543720504314 L 0.15780055457973804,0.4269294015056412 L 0.16376179074749345,0.40313081269605766 L 0.1666105095486459,0.3937398453471618 L 0.17487571035387653,0.3706401565695049 L 0.17863118755983418,0.3615736325656989 L 0.18912075460056713,0.33939530645047195 L 0.19374682291288425,0.330740541374178 L 0.2063597359243367,0.3096971673257769 L 0.21181184377629947,0.30153751129585565 L 0.22642663351125158,0.2818317485098448 L 0.23265227412382034,0.2742457834743862 L 0.2491281921678678,0.25606740921866067 L 0.2560674092186617,0.2491281921678668 L 0.2742457834743873,0.23265227412381945 L 0.281831748509846,0.22642663351125075 L 0.3015375112958569,0.21181184377629875 L 0.3096971673257778,0.2063597359243362 L 0.33074054137417896,0.19374682291288375 L 0.33939530645047317,0.1891207546005665 L 0.36157363256570013,0.17863118755983365 L 0.37064015656950605,0.17487571035387606 L 0.3937398453471629,0.16661050954864554 L 0.40313081269605866,0.16376179074749317 L 0.4269294015056422,0.15780055457973782 L 0.43655437205043235,0.15588602890271414 L 0.46082266747207423,0.15228616733547257 L 0.47058894748486874,0.15132427271143345 L 0.4950932325672589,0.15012045437948274 L 0.5049067674327424,0.15012045437948277 L 0.5294110525151325,0.1513242727114336 L 0.5391773325279268,0.15228616733547273 L 0.5634456279495687,0.15588602890271436 L 0.5730705984943588,0.15780055457973804 L 0.5968691873039423,0.16376179074749345 L 0.6062601546528382,0.16661050954864587 L 0.629359843430495,0.17487571035387645 L 0.638426367434301,0.17863118755983412 L 0.660604693549528,0.18912075460056707 L 0.669259458625822,0.19374682291288425 L 0.6903028326742231,0.2063597359243367 L 0.6984624887041442,0.21181184377629939 L 0.718168251490155,0.22642663351125145 L 0.7257542165256134,0.2326522741238201 L 0.743932590781339,0.24912819216786747 L 0.750871807832133,0.2560674092186615 L 0.7673477258761803,0.27424578347438705 L 0.7735733664887486,0.2818317485098452 L 0.7881881562237008,0.301537511295856 L 0.7936402640756637,0.3096971673257775 L 0.8062531770871161,0.33074054137417863 L 0.8108792453994332,0.3393953064504726 L 0.8213688124401661,0.3615736325656996 L 0.8251242896461238,0.37064015656950566 L 0.8333894904513544,0.3937398453471625 L 0.8362382092525067,0.40313081269605827 L 0.842199445420262,0.4269294015056418 L 0.8441139710972857,0.4365543720504315 L 0.8477138326645274,0.4608226674720734 L 0.8486757272885666,0.47058894748486835 L 0.8498795456205173,0.49509323256725846 z" /></g></g></svg>