<svg xmlns="http://www.w3.org/2000/svg" xmlns:xlink="http://www.w3.org/1999/xlink" width="100.0" height="100.66714041861101" viewBox="64.7715873919033 -152.98369518957247 98.3952669191691 100.66714041861101" preserveAspectRatio="xMinYMin meet"><g transform="matrix(1,0,0,-1,0,-205.30024996053393)"><g><path fill-rule="evenodd" fill="#00FF00" stroke="#555555" stroke-width="2.0" opacity="0.6" d="M 68.5,-79.9917139812201 L 69.45491502812527,-70.06107373853763 L 76.54508497187474,-67.74471741852423 L 85.27971600931001,-96.55668757946574 L 107.54218653111127,-91.53603070140883 L 101.5615582970243,-65.21782767479884 L 110.93892626146237,-61.454915028125264 L 123.25528258147577,-94.45491502812526 L 127.54508497187474,-124.93892626146237 L 122.0,-128.5 L 115.45491502812524,-124.93892626146234 L 110.96657469645052,-105.08069582115557 L 87.5,-110.5 L 93.4384417029757,-144.78217232520115 L 89.54508497187474,-149.25528258147577 L 82.06107373853763,-148.54508497187473 L 68.5,-79.9917139812201 z" /><path fill-rule="evenodd" fill="#00FF00" stroke="#555555" stroke-width="2.0" opacity="0.6" d="M 143.5,-95.9917139812201 L 143.04496737905816,-84.73004750130227 L 151.26995249869773,-82.04496737905816 L 159.4384417029757,-106.21782767479884 L 155.26995249869773,-116.95503262094184 L 147.04496737905816,-114.26995249869772 L 143.5,-95.9917139812201 z" /><path fill-rule="evenodd" fill="#00FF00" stroke="#555555" stroke-width="2.0" opacity="0.6" d="M 152.5,-66.0 L 143.73004750130227,-70.95503262094184 L 139.04496737905816,-58.730047501302266 L 147.26995249869773,-56.044967379058164 L 152.5,-66.0 z" /></g></g></svg>