<svg xmlns="http://www.w3.org/2000/svg" xmlns:xlink="http://www.w3.org/1999/xlink" width="100.0" height="101.51999999999998" viewBox="63.74 -153.26 99.51999999999998 101.51999999999998" preserveAspectRatio="xMinYMin meet"><g transform="matrix(1,0,0,-1,0,-205.0)"><g><path fill-rule="evenodd" fill="#00FF00" stroke="#555555" stroke-width="2.0" opacity="0.6" d="M 68.5,-79.9917139812201 L 68.45491502812524,-79.93892626146234 L 68.04496737905815,-79.26995249869772 L 67.74471741852423,-78.54508497187473 L 67.5615582970243,-77.78217232520115 L 67.5,-77.0 L 67.5,-75.0 L 67.5615582970243,-74.21782767479884 L 67.74471741852423,-73.45491502812526 L 68.04496737905816,-72.73004750130227 L 68.45491502812527,-72.06107373853763 L 68.65560466353472,-71.8260963659952 L 68.74471741852423,-71.45491502812526 L 69.04496737905816,-70.73004750130227 L 69.45491502812527,-70.06107373853763 L 69.96446609406726,-69.46446609406726 L 70.46446609406726,-68.96446609406726 L 71.06107373853763,-68.45491502812526 L 71.73004750130227,-68.04496737905816 L 72.45491502812526,-67.74471741852423 L 73.21782767479884,-67.5615582970243 L 74.0,-67.5 L 75.0,-67.5 L 75.78217232520116,-67.5615582970243 L 76.54508497187474,-67.74471741852423 L 77.26995249869773,-68.04496737905816 L 77.93892626146237,-68.45491502812526 L 78.53553390593274,-68.96446609406726 L 79.03553390593274,-69.46446609406726 L 79.54508497187474,-70.06107373853763 L 79.95503262094184,-70.73004750130227 L 80.25528258147577,-71.45491502812526 L 80.34439533646528,-71.82609636599518 L 80.54508497187474,-72.06107373853763 L 80.95503262094184,-72.73004750130227 L 81.25528258147577,-73.45491502812526 L 81.4384417029757,-74.21782767479884 L 81.5,-75.0 L 81.5,-80.00828601877988 L 81.54508497187474,-80.06107373853763 L 81.95503262094184,-80.73004750130227 L 82.25528258147577,-81.45491502812526 L 82.4384417029757,-82.21782767479884 L 82.5,-83.0 L 82.5,-85.00828601877988 L 82.54508497187474,-85.06107373853763 L 82.95503262094184,-85.73004750130227 L 83.25528258147577,-86.45491502812526 L 83.4384417029757,-87.21782767479884 L 83.5,-88.0 L 83.5,-90.00828601877988 L 83.54508497187474,-90.06107373853763 L 83.95503262094184,-90.73004750130227 L 84.25528258147577,-91.45491502812526 L 84.4384417029757,-92.21782767479884 L 84.5,-93.0 L 84.5,-95.00828601877988 L 84.54508497187474,-95.06107373853763 L 84.95503262094184,-95.73004750130227 L 85.25528258147577,-96.45491502812526 L 85.27971600931001,-96.55668757946574 L 86.0,-96.5 L 91.00828601877988,-96.5 L 91.06107373853763,-96.45491502812526 L 91.73004750130227,-96.04496737905816 L 92.45491502812526,-95.74471741852423 L 93.21782767479884,-95.5615582970243 L 94.0,-95.5 L 95.00828601877988,-95.5 L 95.06107373853763,-95.45491502812526 L 95.73004750130227,-95.04496737905816 L 96.45491502812526,-94.74471741852423 L 97.21782767479884,-94.5615582970243 L 98.0,-94.5 L 99.00828601877988,-94.5 L 99.06107373853763,-94.45491502812526 L 99.73004750130227,-94.04496737905816 L 100.45491502812526,-93.74471741852423 L 101.21782767479884,-93.5615582970243 L 102.0,-93.5 L 102.00828601877988,-93.5 L 102.06107373853763,-93.45491502812526 L 102.73004750130227,-93.04496737905816 L 103.45491502812526,-92.74471741852423 L 104.21782767479884,-92.5615582970243 L 105.0,-92.5 L 105.00828601877988,-92.5 L 105.06107373853763,-92.45491502812526 L 105.73004750130227,-92.04496737905816 L 106.45491502812526,-91.74471741852423 L 107.21782767479884,-91.5615582970243 L 107.54218653111127,-91.53603070140883 L 107.5,-91.0 L 107.5,-89.9917139812201 L 107.45491502812524,-89.93892626146234 L 107.04496737905815,-89.26995249869772 L 106.74471741852423,-88.54508497187473 L 106.5615582970243,-87.78217232520115 L 106.5,-87.0 L 106.5,-86.9917139812201 L 106.45491502812524,-86.93892626146234 L 106.04496737905815,-86.26995249869772 L 105.74471741852423,-85.54508497187473 L 105.5615582970243,-84.78217232520115 L 105.5,-84.0 L 105.5,-82.9917139812201 L 105.45491502812524,-82.93892626146234 L 105.04496737905815,-82.26995249869772 L 104.74471741852423,-81.54508497187473 L 104.5615582970243,-80.78217232520115 L 104.5,-80.0 L 104.5,-78.9917139812201 L 104.45491502812524,-78.93892626146234 L 104.04496737905815,-78.26995249869772 L 103.74471741852423,-77.54508497187473 L 103.5615582970243,-76.78217232520115 L 103.5,-76.0 L 103.5,-75.9917139812201 L 103.45491502812524,-75.93892626146234 L 103.04496737905815,-75.26995249869772 L 102.74471741852423,-74.54508497187473 L 102.5615582970243,-73.78217232520115 L 102.5,-73.0 L 102.5,-72.9917139812201 L 102.45491502812524,-72.93892626146234 L 102.04496737905815,-72.26995249869772 L 101.74471741852423,-71.54508497187473 L 101.5615582970243,-70.78217232520115 L 101.5,-70.0 L 101.5,-66.0 L 101.5615582970243,-65.21782767479884 L 101.74471741852423,-64.45491502812526 L 102.04496737905816,-63.730047501302266 L 102.45491502812527,-63.06107373853764 L 102.96446609406726,-62.46446609406726 L 103.46446609406726,-61.96446609406726 L 104.06107373853763,-61.454915028125264 L 104.73004750130227,-61.044967379058164 L 105.45491502812526,-60.74471741852423 L 106.21782767479884,-60.56155829702431 L 107.0,-60.5 L 108.0,-60.5 L 108.78217232520116,-60.56155829702431 L 109.54508497187474,-60.74471741852423 L 110.26995249869773,-61.044967379058164 L 110.93892626146237,-61.454915028125264 L 111.53553390593274,-61.96446609406726 L 113.03553390593274,-63.46446609406726 L 113.54508497187474,-64.06107373853763 L 113.95503262094184,-64.73004750130227 L 114.25528258147577,-65.45491502812526 L 114.34439533646528,-65.82609636599518 L 114.54508497187474,-66.06107373853763 L 114.95503262094184,-66.73004750130227 L 115.25528258147577,-67.45491502812526 L 115.4384417029757,-68.21782767479884 L 115.5,-69.0 L 115.5,-71.00828601877988 L 115.54508497187474,-71.06107373853763 L 115.95503262094184,-71.73004750130227 L 116.25528258147577,-72.45491502812526 L 116.4384417029757,-73.21782767479884 L 116.5,-74.0 L 116.5,-74.00828601877988 L 116.54508497187474,-74.06107373853763 L 116.95503262094184,-74.73004750130227 L 117.25528258147577,-75.45491502812526 L 117.4384417029757,-76.21782767479884 L 117.5,-77.0 L 117.5,-77.00828601877988 L 117.54508497187474,-77.06107373853763 L 117.95503262094184,-77.73004750130227 L 118.25528258147577,-78.45491502812526 L 118.4384417029757,-79.21782767479884 L 118.5,-80.0 L 118.5,-81.00828601877988 L 118.54508497187474,-81.06107373853763 L 118.95503262094184,-81.73004750130227 L 119.25528258147577,-82.45491502812526 L 119.4384417029757,-83.21782767479884 L 119.5,-84.0 L 119.5,-84.00828601877988 L 119.54508497187474,-84.06107373853763 L 119.95503262094184,-84.73004750130227 L 120.25528258147577,-85.45491502812526 L 120.4384417029757,-86.21782767479884 L 120.5,-87.0 L 120.5,-88.00828601877988 L 120.54508497187474,-88.06107373853763 L 120.95503262094184,-88.73004750130227 L 121.25528258147577,-89.45491502812526 L 121.4384417029757,-90.21782767479884 L 121.5,-91.0 L 121.5,-91.00828601877988 L 121.54508497187474,-91.06107373853763 L 121.95503262094184,-91.73004750130227 L 122.25528258147577,-92.45491502812526 L 122.34439533646528,-92.82609636599518 L 122.54508497187474,-93.06107373853763 L 122.95503262094184,-93.73004750130227 L 123.25528258147577,-94.45491502812526 L 123.4384417029757,-95.21782767479884 L 123.5,-96.0 L 123.5,-98.00828601877988 L 123.54508497187474,-98.06107373853763 L 123.95503262094184,-98.73004750130227 L 124.25528258147577,-99.45491502812526 L 124.4384417029757,-100.21782767479884 L 124.5,-101.0 L 124.5,-102.00828601877988 L 124.54508497187474,-102.06107373853763 L 124.95503262094184,-102.73004750130227 L 125.25528258147577,-103.45491502812526 L 125.4384417029757,-104.21782767479884 L 125.5,-105.0 L 125.5,-107.00828601877988 L 125.54508497187474,-107.06107373853763 L 125.95503262094184,-107.73004750130227 L 126.25528258147577,-108.45491502812526 L 126.4384417029757,-109.21782767479884 L 126.5,-110.0 L 126.5,-111.00828601877988 L 126.54508497187474,-111.06107373853763 L 126.95503262094184,-111.73004750130227 L 127.25528258147577,-112.45491502812526 L 127.4384417029757,-113.21782767479884 L 127.5,-114.0 L 127.5,-114.00828601877988 L 127.54508497187474,-114.06107373853763 L 127.95503262094184,-114.73004750130227 L 128.25528258147577,-115.45491502812526 L 128.4384417029757,-116.21782767479884 L 128.5,-117.0 L 128.5,-122.0 L 128.4384417029757,-122.78217232520116 L 128.25528258147577,-123.54508497187474 L 127.95503262094184,-124.26995249869773 L 127.54508497187474,-124.93892626146237 L 127.03553390593274,-125.53553390593274 L 125.53553390593274,-127.03553390593274 L 124.93892626146237,-127.54508497187474 L 124.26995249869773,-127.95503262094184 L 123.54508497187474,-128.25528258147577 L 122.78217232520116,-128.4384417029757 L 122.0,-128.5 L 121.21782767479884,-128.4384417029757 L 120.45491502812526,-128.25528258147577 L 119.73004750130227,-127.95503262094184 L 119.06107373853763,-127.54508497187474 L 118.82609636599518,-127.34439533646528 L 118.45491502812526,-127.25528258147577 L 117.73004750130227,-126.95503262094184 L 117.06107373853763,-126.54508497187474 L 116.46446609406726,-126.03553390593274 L 115.96446609406726,-125.53553390593274 L 115.45491502812524,-124.93892626146234 L 115.04496737905815,-124.26995249869772 L 114.74471741852423,-123.54508497187473 L 114.65560466353472,-123.17390363400482 L 114.45491502812524,-122.93892626146234 L 114.04496737905815,-122.26995249869772 L 113.74471741852423,-121.54508497187473 L 113.5615582970243,-120.78217232520115 L 113.5,-120.0 L 113.5,-114.9917139812201 L 113.45491502812524,-114.93892626146234 L 113.04496737905815,-114.26995249869772 L 112.74471741852423,-113.54508497187473 L 112.5615582970243,-112.78217232520115 L 112.5,-112.0 L 112.5,-110.9917139812201 L 112.45491502812524,-110.93892626146234 L 112.04496737905815,-110.26995249869772 L 111.74471741852423,-109.54508497187473 L 111.5615582970243,-108.78217232520115 L 111.5,-108.0 L 111.5,-105.9917139812201 L 111.45491502812524,-105.93892626146234 L 111.04496737905815,-105.26995249869772 L 110.96657469645052,-105.08069582115557 L 110.54508497187474,-105.25528258147577 L 109.78217232520116,-105.4384417029757 L 109.0,-105.5 L 107.99171398122012,-105.5 L 107.93892626146237,-105.54508497187474 L 107.26995249869773,-105.95503262094184 L 106.54508497187474,-106.25528258147577 L 105.78217232520116,-106.4384417029757 L 105.0,-106.5 L 104.99171398122012,-106.5 L 104.93892626146237,-106.54508497187474 L 104.26995249869773,-106.95503262094184 L 103.54508497187474,-107.25528258147577 L 102.78217232520116,-107.4384417029757 L 102.0,-107.5 L 101.99171398122012,-107.5 L 101.93892626146237,-107.54508497187474 L 101.26995249869773,-107.95503262094184 L 100.54508497187474,-108.25528258147577 L 99.78217232520116,-108.4384417029757 L 99.0,-108.5 L 97.99171398122012,-108.5 L 97.93892626146237,-108.54508497187474 L 97.26995249869773,-108.95503262094184 L 96.54508497187474,-109.25528258147577 L 95.78217232520116,-109.4384417029757 L 95.0,-109.5 L 93.99171398122012,-109.5 L 93.93892626146237,-109.54508497187474 L 93.26995249869773,-109.95503262094184 L 92.54508497187474,-110.25528258147577 L 91.78217232520116,-110.4384417029757 L 91.0,-110.5 L 87.5,-110.5 L 87.5,-112.00828601877988 L 87.54508497187474,-112.06107373853763 L 87.95503262094184,-112.73004750130227 L 88.25528258147577,-113.45491502812526 L 88.4384417029757,-114.21782767479884 L 88.5,-115.0 L 88.5,-118.00828601877988 L 88.54508497187474,-118.06107373853763 L 88.95503262094184,-118.73004750130227 L 89.25528258147577,-119.45491502812526 L 89.4384417029757,-120.21782767479884 L 89.5,-121.0 L 89.5,-127.00828601877988 L 89.54508497187474,-127.06107373853763 L 89.95503262094184,-127.73004750130227 L 90.25528258147577,-128.45491502812527 L 90.4384417029757,-129.21782767479885 L 90.5,-130.0 L 90.5,-133.0082860187799 L 90.54508497187474,-133.06107373853763 L 90.95503262094184,-133.73004750130227 L 91.25528258147577,-134.45491502812527 L 91.4384417029757,-135.21782767479885 L 91.5,-136.0 L 91.5,-136.0082860187799 L 91.54508497187474,-136.06107373853763 L 91.95503262094184,-136.73004750130227 L 92.25528258147577,-137.45491502812527 L 92.34439533646527,-137.82609636599517 L 92.54508497187474,-138.06107373853763 L 92.95503262094184,-138.73004750130227 L 93.25528258147577,-139.45491502812527 L 93.4384417029757,-140.21782767479885 L 93.5,-141.0 L 93.5,-144.0 L 93.4384417029757,-144.78217232520115 L 93.25528258147577,-145.54508497187473 L 92.95503262094184,-146.26995249869773 L 92.54508497187474,-146.93892626146237 L 92.03553390593274,-147.53553390593274 L 91.53553390593274,-148.03553390593274 L 90.93892626146237,-148.54508497187473 L 90.26995249869773,-148.95503262094184 L 89.54508497187474,-149.25528258147577 L 88.78217232520116,-149.4384417029757 L 88.0,-149.5 L 85.0,-149.5 L 84.21782767479884,-149.4384417029757 L 83.45491502812526,-149.25528258147577 L 82.73004750130227,-148.95503262094184 L 82.06107373853763,-148.54508497187473 L 81.46446609406726,-148.03553390593274 L 79.96446609406726,-146.53553390593274 L 79.45491502812524,-145.93892626146234 L 79.04496737905815,-145.2699524986977 L 78.74471741852423,-144.54508497187473 L 78.5615582970243,-143.78217232520115 L 78.5,-143.0 L 78.5,-140.9917139812201 L 78.45491502812524,-140.93892626146234 L 78.04496737905815,-140.2699524986977 L 77.74471741852423,-139.54508497187473 L 77.5615582970243,-138.78217232520115 L 77.5,-138.0 L 77.5,-136.9917139812201 L 77.45491502812524,-136.93892626146234 L 77.04496737905815,-136.2699524986977 L 76.74471741852423,-135.54508497187473 L 76.5615582970243,-134.78217232520115 L 76.5,-134.0 L 76.5,-126.9917139812201 L 76.45491502812524,-126.93892626146234 L 76.04496737905815,-126.26995249869772 L 75.74471741852423,-125.54508497187473 L 75.5615582970243,-124.78217232520115 L 75.5,-124.0 L 75.5,-118.9917139812201 L 75.45491502812524,-118.93892626146234 L 75.04496737905815,-118.26995249869772 L 74.74471741852423,-117.54508497187473 L 74.5615582970243,-116.78217232520115 L 74.5,-116.0 L 74.5,-112.9917139812201 L 74.45491502812524,-112.93892626146234 L 74.04496737905815,-112.26995249869772 L 73.74471741852423,-111.54508497187473 L 73.5615582970243,-110.78217232520115 L 73.5,-110.0 L 73.5,-105.9917139812201 L 73.45491502812524,-105.93892626146234 L 73.04496737905815,-105.26995249869772 L 72.74471741852423,-104.54508497187473 L 72.5615582970243,-103.78217232520115 L 72.5,-103.0 L 72.5,-101.9917139812201 L 72.45491502812524,-101.93892626146234 L 72.04496737905815,-101.26995249869772 L 71.74471741852423,-100.54508497187473 L 71.5615582970243,-99.78217232520115 L 71.5,-99.0 L 71.5,-96.9917139812201 L 71.45491502812524,-96.93892626146234 L 71.04496737905815,-96.26995249869772 L 70.74471741852423,-95.54508497187473 L 70.5615582970243,-94.78217232520115 L 70.5,-94.0 L 70.5,-91.9917139812201 L 70.45491502812524,-91.93892626146234 L 70.04496737905815,-91.26995249869772 L 69.74471741852423,-90.54508497187473 L 69.5615582970243,-89.78217232520115 L 69.5,-89.0 L 69.5,-86.9917139812201 L 69.45491502812524,-86.93892626146234 L 69.04496737905815,-86.26995249869772 L 68.74471741852423,-85.54508497187473 L 68.5615582970243,-84.78217232520115 L 68.5,-84.0 L 68.5,-79.9917139812201 z" /><path fill-rule="evenodd" fill="#00FF00" stroke="#555555" stroke-width="2.0" opacity="0.6" d="M 143.5,-95.9917139812201 L 143.45491502812524,-95.93892626146234 L 143.04496737905816,-95.26995249869772 L 142.74471741852423,-94.54508497187473 L 142.5615582970243,-93.78217232520115 L 142.5,-93.0 L 142.5,-87.0 L 142.5615582970243,-86.21782767479884 L 142.74471741852423,-85.45491502812526 L 143.04496737905816,-84.73004750130227 L 143.45491502812527,-84.06107373853763 L 143.96446609406726,-83.46446609406726 L 144.46446609406726,-82.96446609406726 L 145.06107373853763,-82.45491502812526 L 145.73004750130227,-82.04496737905816 L 146.45491502812527,-81.74471741852423 L 147.21782767479885,-81.5615582970243 L 148.0,-81.5 L 149.0,-81.5 L 149.78217232520115,-81.5615582970243 L 150.54508497187473,-81.74471741852423 L 151.26995249869773,-82.04496737905816 L 151.93892626146237,-82.45491502812526 L 152.53553390593274,-82.96446609406726 L 154.03553390593274,-84.46446609406726 L 154.54508497187473,-85.06107373853763 L 154.95503262094184,-85.73004750130227 L 155.25528258147577,-86.45491502812526 L 155.4384417029757,-87.21782767479884 L 155.5,-88.0 L 155.5,-89.00828601877991 L 155.54508497187473,-89.06107373853763 L 155.95503262094184,-89.73004750130227 L 156.25528258147577,-90.45491502812526 L 156.4384417029757,-91.21782767479884 L 156.5,-92.0 L 156.5,-92.00828601877991 L 156.54508497187473,-92.06107373853763 L 156.95503262094184,-92.73004750130227 L 157.25528258147577,-93.45491502812526 L 157.4384417029757,-94.21782767479884 L 157.5,-95.0 L 157.5,-96.00828601877991 L 157.54508497187473,-96.06107373853763 L 157.95503262094184,-96.73004750130227 L 158.25528258147577,-97.45491502812526 L 158.4384417029757,-98.21782767479884 L 158.5,-99.0 L 158.5,-104.00828601877991 L 158.54508497187473,-104.06107373853763 L 158.95503262094184,-104.73004750130227 L 159.25528258147577,-105.45491502812526 L 159.4384417029757,-106.21782767479884 L 159.5,-107.0 L 159.5,-111.0 L 159.4384417029757,-111.78217232520116 L 159.25528258147577,-112.54508497187474 L 158.95503262094184,-113.26995249869773 L 158.54508497187473,-113.93892626146237 L 158.03553390593274,-114.53553390593274 L 156.53553390593274,-116.03553390593274 L 155.93892626146237,-116.54508497187474 L 155.26995249869773,-116.95503262094184 L 154.54508497187473,-117.25528258147577 L 153.78217232520115,-117.4384417029757 L 153.0,-117.5 L 152.0,-117.5 L 151.21782767479885,-117.4384417029757 L 150.45491502812527,-117.25528258147577 L 149.73004750130227,-116.95503262094184 L 149.06107373853763,-116.54508497187474 L 148.46446609406726,-116.03553390593274 L 147.96446609406726,-115.53553390593274 L 147.45491502812524,-114.93892626146234 L 147.04496737905816,-114.26995249869772 L 146.74471741852423,-113.54508497187473 L 146.65560466353472,-113.17390363400482 L 146.45491502812524,-112.93892626146234 L 146.04496737905816,-112.26995249869772 L 145.74471741852423,-111.54508497187473 L 145.5615582970243,-110.78217232520115 L 145.5,-110.0 L 145.5,-104.9917139812201 L 145.45491502812524,-104.93892626146234 L 145.04496737905816,-104.26995249869772 L 144.74471741852423,-103.54508497187473 L 144.5615582970243,-102.78217232520115 L 144.5,-102.0 L 144.5,-99.9917139812201 L 144.45491502812524,-99.93892626146234 L 144.04496737905816,-99.26995249869772 L 143.74471741852423,-98.54508497187473 L 143.5615582970243,-97.78217232520115 L 143.5,-97.0 L 143.5,-95.9917139812201 z" /><path fill-rule="evenodd" fill="#00FF00" stroke="#555555" stroke-width="2.0" opacity="0.6" d="M 152.5,-66.0 L 152.4384417029757,-66.78217232520116 L 152.25528258147577,-67.54508497187474 L 151.95503262094184,-68.26995249869773 L 151.54508497187473,-68.93892626146237 L 151.03553390593274,-69.53553390593274 L 150.53553390593274,-70.03553390593274 L 149.93892626146237,-70.54508497187474 L 149.26995249869773,-70.95503262094184 L 148.54508497187473,-71.25528258147577 L 147.78217232520115,-71.4384417029757 L 147.0,-71.5 L 146.0,-71.5 L 145.21782767479885,-71.4384417029757 L 144.45491502812527,-71.25528258147577 L 143.73004750130227,-70.95503262094184 L 143.06107373853763,-70.54508497187474 L 142.46446609406726,-70.03553390593274 L 139.96446609406726,-67.53553390593274 L 139.45491502812524,-66.93892626146234 L 139.04496737905816,-66.26995249869772 L 138.74471741852423,-65.54508497187473 L 138.5615582970243,-64.78217232520115 L 138.5,-64.0 L 138.5,-61.0 L 138.5615582970243,-60.21782767479885 L 138.74471741852423,-59.454915028125264 L 139.04496737905816,-58.730047501302266 L 139.45491502812527,-58.06107373853764 L 139.96446609406726,-57.46446609406726 L 140.46446609406726,-56.96446609406726 L 141.06107373853763,-56.454915028125264 L 141.73004750130227,-56.044967379058164 L 142.45491502812527,-55.74471741852423 L 143.21782767479885,-55.56155829702431 L 144.0,-55.5 L 145.0,-55.5 L 145.78217232520115,-55.56155829702431 L 146.54508497187473,-55.74471741852423 L 147.26995249869773,-56.044967379058164 L 147.93892626146237,-56.454915028125264 L 148.53553390593274,-56.96446609406726 L 151.03553390593274,-59.46446609406726 L 151.54508497187473,-60.06107373853764 L 151.95503262094184,-60.730047501302266 L 152.25528258147577,-61.454915028125264 L 152.4384417029757,-62.21782767479885 L 152.5,-63.0 L 152.5,-66.0 z" /></g></g></svg>