<svg xmlns="http://www.w3.org/2000/svg" xmlns:xlink="http://www.w3.org/1999/xlink" width="100.0" height="100.0" viewBox="69.14 -147.86 88.72000000000001 90.72000000000001" preserveAspectRatio="xMinYMin meet"><g transform="matrix(1,0,0,-1,0,-205.0)"><g><path fill-rule="evenodd" fill="#00FF00" stroke="#555555" stroke-width="1.8144000000000002" opacity="0.6" d="M 88.5,-144.0 L 88.0,-144.5 L 87.0,-144.5 L 86.0,-144.5 L 85.0,-144.5 L 84.5,-144.0 L 84.0,-143.5 L 83.5,-143.0 L 83.5,-142.0 L 83.5,-141.0 L 83.5,-140.0 L 83.5,-139.0 L 83.0,-138.5 L 82.5,-138.0 L 82.5,-137.0 L 82.5,-136.0 L 82.5,-135.0 L 82.0,-134.5 L 81.5,-134.0 L 81.5,-133.0 L 81.5,-132.0 L 81.5,-131.0 L 81.5,-130.0 L 81.5,-129.0 L 81.5,-128.0 L 81.5,-127.0 L 81.5,-126.0 L 81.5,-125.0 L 81.0,-124.5 L 80.5,-124.0 L 80.5,-123.0 L 80.5,-122.0 L 80.5,-121.0 L 80.5,-120.0 L 80.5,-119.0 L 80.5,-118.0 L 80.5,-117.0 L 80.0,-116.5 L 79.5,-116.0 L 79.5,-115.0 L 79.5,-114.0 L 79.5,-113.0 L 79.5,-112.0 L 79.5,-111.0 L 79.0,-110.5 L 78.5,-110.0 L 78.5,-109.0 L 78.5,-108.0 L 78.5,-107.0 L 78.5,-106.0 L 78.5,-105.0 L 78.5,-104.0 L 78.0,-103.5 L 77.5,-103.0 L 77.5,-102.0 L 77.5,-101.0 L 77.5,-100.0 L 77.0,-99.5 L 76.5,-99.0 L 76.5,-98.0 L 76.5,-97.0 L 76.5,-96.0 L 76.5,-95.0 L 76.0,-94.5 L 75.5,-94.0 L 75.5,-93.0 L 75.5,-92.0 L 75.5,-91.0 L 75.5,-90.0 L 75.0,-89.5 L 74.5,-89.0 L 74.5,-88.0 L 74.5,-87.0 L 74.5,-86.0 L 74.5,-85.0 L 74.0,-84.5 L 73.5,-84.0 L 73.5,-83.0 L 73.5,-82.0 L 73.5,-81.0 L 73.5,-80.0 L 73.5,-79.0 L 73.5,-78.0 L 73.0,-77.5 L 72.5,-77.0 L 72.5,-76.0 L 72.5,-75.0 L 73.0,-74.5 L 73.5,-74.0 L 73.5,-73.0 L 74.0,-72.5 L 75.0,-72.5 L 75.5,-73.0 L 75.5,-74.0 L 76.0,-74.5 L 76.5,-75.0 L 76.5,-76.0 L 76.5,-77.0 L 76.5,-78.0 L 76.5,-79.0 L 76.5,-80.0 L 76.5,-81.0 L 76.5,-82.0 L 77.0,-82.5 L 77.5,-83.0 L 77.5,-84.0 L 77.5,-85.0 L 77.5,-86.0 L 77.5,-87.0 L 78.0,-87.5 L 78.5,-88.0 L 78.5,-89.0 L 78.5,-90.0 L 78.5,-91.0 L 78.5,-92.0 L 79.0,-92.5 L 79.5,-93.0 L 79.5,-94.0 L 79.5,-95.0 L 79.5,-96.0 L 79.5,-97.0 L 80.0,-97.5 L 80.5,-98.0 L 80.5,-99.0 L 80.5,-100.0 L 80.5,-101.0 L 81.0,-101.5 L 81.5,-102.0 L 82.0,-102.5 L 83.0,-102.5 L 84.0,-102.5 L 85.0,-102.5 L 85.5,-102.0 L 86.0,-101.5 L 87.0,-101.5 L 88.0,-101.5 L 89.0,-101.5 L 90.0,-101.5 L 91.0,-101.5 L 92.0,-101.5 L 93.0,-101.5 L 93.5,-101.0 L 94.0,-100.5 L 95.0,-100.5 L 96.0,-100.5 L 97.0,-100.5 L 97.5,-100.0 L 98.0,-99.5 L 99.0,-99.5 L 100.0,-99.5 L 101.0,-99.5 L 101.5,-99.0 L 102.0,-98.5 L 103.0,-98.5 L 104.0,-98.5 L 104.5,-98.0 L 105.0,-97.5 L 106.0,-97.5 L 107.0,-97.5 L 107.5,-97.0 L 108.0,-96.5 L 109.0,-96.5 L 110.0,-96.5 L 111.0,-96.5 L 111.5,-96.0 L 112.0,-95.5 L 113.0,-95.5 L 113.5,-95.0 L 113.5,-94.0 L 113.5,-93.0 L 113.5,-92.0 L 113.0,-91.5 L 112.5,-91.0 L 112.5,-90.0 L 112.5,-89.0 L 112.5,-88.0 L 112.0,-87.5 L 111.5,-87.0 L 111.5,-86.0 L 111.5,-85.0 L 111.0,-84.5 L 110.5,-84.0 L 110.5,-83.0 L 110.5,-82.0 L 110.5,-81.0 L 110.0,-80.5 L 109.5,-80.0 L 109.5,-79.0 L 109.5,-78.0 L 109.5,-77.0 L 109.0,-76.5 L 108.5,-76.0 L 108.5,-75.0 L 108.5,-74.0 L 108.0,-73.5 L 107.5,-73.0 L 107.5,-72.0 L 107.5,-71.0 L 107.0,-70.5 L 106.5,-70.0 L 106.5,-69.0 L 106.5,-68.0 L 106.5,-67.0 L 106.5,-66.0 L 107.0,-65.5 L 108.0,-65.5 L 108.5,-66.0 L 109.0,-66.5 L 109.5,-67.0 L 109.5,-68.0 L 110.0,-68.5 L 110.5,-69.0 L 110.5,-70.0 L 110.5,-71.0 L 110.5,-72.0 L 110.5,-73.0 L 111.0,-73.5 L 111.5,-74.0 L 111.5,-75.0 L 111.5,-76.0 L 112.0,-76.5 L 112.5,-77.0 L 112.5,-78.0 L 112.5,-79.0 L 113.0,-79.5 L 113.5,-80.0 L 113.5,-81.0 L 113.5,-82.0 L 113.5,-83.0 L 114.0,-83.5 L 114.5,-84.0 L 114.5,-85.0 L 114.5,-86.0 L 115.0,-86.5 L 115.5,-87.0 L 115.5,-88.0 L 115.5,-89.0 L 115.5,-90.0 L 116.0,-90.5 L 116.5,-91.0 L 116.5,-92.0 L 116.5,-93.0 L 117.0,-93.5 L 117.5,-94.0 L 117.5,-95.0 L 118.0,-95.5 L 118.5,-96.0 L 118.5,-97.0 L 118.5,-98.0 L 118.5,-99.0 L 118.5,-100.0 L 119.0,-100.5 L 119.5,-101.0 L 119.5,-102.0 L 119.5,-103.0 L 119.5,-104.0 L 120.0,-104.5 L 120.5,-105.0 L 120.5,-106.0 L 120.5,-107.0 L 120.5,-108.0 L 120.5,-109.0 L 121.0,-109.5 L 121.5,-110.0 L 121.5,-111.0 L 121.5,-112.0 L 121.5,-113.0 L 122.0,-113.5 L 122.5,-114.0 L 122.5,-115.0 L 122.5,-116.0 L 123.0,-116.5 L 123.5,-117.0 L 123.5,-118.0 L 123.5,-119.0 L 123.5,-120.0 L 123.5,-121.0 L 123.5,-122.0 L 123.0,-122.5 L 122.5,-123.0 L 122.0,-123.5 L 121.5,-123.0 L 121.0,-122.5 L 120.0,-122.5 L 119.5,-122.0 L 119.5,-121.0 L 119.0,-120.5 L 118.5,-120.0 L 118.5,-119.0 L 118.5,-118.0 L 118.5,-117.0 L 118.5,-116.0 L 118.5,-115.0 L 118.5,-114.0 L 118.5,-113.0 L 118.0,-112.5 L 117.5,-112.0 L 117.5,-111.0 L 117.5,-110.0 L 117.5,-109.0 L 117.0,-108.5 L 116.5,-108.0 L 116.5,-107.0 L 116.5,-106.0 L 116.5,-105.0 L 116.5,-104.0 L 116.0,-103.5 L 115.5,-103.0 L 115.5,-102.0 L 115.5,-101.0 L 115.5,-100.0 L 115.0,-99.5 L 114.0,-99.5 L 113.0,-99.5 L 112.0,-99.5 L 111.0,-99.5 L 110.0,-99.5 L 109.5,-100.0 L 109.0,-100.5 L 108.0,-100.5 L 107.0,-100.5 L 106.0,-100.5 L 105.5,-101.0 L 105.0,-101.5 L 104.0,-101.5 L 103.0,-101.5 L 102.5,-102.0 L 102.0,-102.5 L 101.0,-102.5 L 100.0,-102.5 L 99.5,-103.0 L 99.0,-103.5 L 98.0,-103.5 L 97.0,-103.5 L 96.0,-103.5 L 95.5,-104.0 L 95.0,-104.5 L 94.0,-104.5 L 93.0,-104.5 L 92.0,-104.5 L 91.5,-105.0 L 91.0,-105.5 L 90.0,-105.5 L 89.0,-105.5 L 88.0,-105.5 L 87.0,-105.5 L 86.0,-105.5 L 85.0,-105.5 L 84.0,-105.5 L 83.5,-106.0 L 83.0,-106.5 L 82.5,-107.0 L 82.5,-108.0 L 82.5,-109.0 L 82.5,-110.0 L 82.5,-111.0 L 82.5,-112.0 L 82.5,-113.0 L 82.5,-114.0 L 83.0,-114.5 L 83.5,-115.0 L 83.5,-116.0 L 83.5,-117.0 L 83.5,-118.0 L 83.5,-119.0 L 83.5,-120.0 L 84.0,-120.5 L 84.5,-121.0 L 84.5,-122.0 L 84.5,-123.0 L 84.5,-124.0 L 84.5,-125.0 L 84.5,-126.0 L 84.5,-127.0 L 84.5,-128.0 L 84.5,-129.0 L 85.0,-129.5 L 85.5,-130.0 L 85.5,-131.0 L 85.5,-132.0 L 85.5,-133.0 L 85.5,-134.0 L 85.5,-135.0 L 86.0,-135.5 L 86.5,-136.0 L 86.5,-137.0 L 86.5,-138.0 L 87.0,-138.5 L 87.5,-139.0 L 87.5,-140.0 L 88.0,-140.5 L 88.5,-141.0 L 88.5,-142.0 L 88.5,-143.0 L 88.5,-144.0 z" /><path fill-rule="evenodd" fill="#00FF00" stroke="#555555" stroke-width="1.8144000000000002" opacity="0.6" d="M 153.5,-112.0 L 153.0,-112.5 L 152.0,-112.5 L 151.5,-112.0 L 151.5,-111.0 L 151.0,-110.5 L 150.5,-110.0 L 150.5,-109.0 L 150.5,-108.0 L 150.5,-107.0 L 150.5,-106.0 L 150.5,-105.0 L 150.5,-104.0 L 150.5,-103.0 L 150.0,-102.5 L 149.5,-102.0 L 149.5,-101.0 L 149.5,-100.0 L 149.5,-99.0 L 149.5,-98.0 L 149.0,-97.5 L 148.5,-97.0 L 148.5,-96.0 L 148.5,-95.0 L 148.5,-94.0 L 148.0,-93.5 L 147.5,-93.0 L 147.5,-92.0 L 147.5,-91.0 L 147.5,-90.0 L 147.5,-89.0 L 147.5,-88.0 L 147.5,-87.0 L 148.0,-86.5 L 149.0,-86.5 L 149.5,-87.0 L 150.0,-87.5 L 150.5,-88.0 L 150.5,-89.0 L 150.5,-90.0 L 150.5,-91.0 L 151.0,-91.5 L 151.5,-92.0 L 151.5,-93.0 L 151.5,-94.0 L 152.0,-94.5 L 152.5,-95.0 L 152.5,-96.0 L 152.5,-97.0 L 152.5,-98.0 L 153.0,-98.5 L 153.5,-99.0 L 153.5,-100.0 L 153.5,-101.0 L 153.5,-102.0 L 153.5,-103.0 L 153.5,-104.0 L 153.5,-105.0 L 153.5,-106.0 L 154.0,-106.5 L 154.5,-107.0 L 154.5,-108.0 L 154.5,-109.0 L 154.5,-110.0 L 154.5,-111.0 L 154.0,-111.5 L 153.5,-112.0 z" /><path fill-rule="evenodd" fill="#00FF00" stroke="#555555" stroke-width="1.8144000000000002" opacity="0.6" d="M 147.5,-66.0 L 147.0,-66.5 L 146.0,-66.5 L 145.5,-66.0 L 145.0,-65.5 L 144.5,-65.0 L 144.0,-64.5 L 143.5,-64.0 L 143.5,-63.0 L 143.5,-62.0 L 143.5,-61.0 L 144.0,-60.5 L 145.0,-60.5 L 145.5,-61.0 L 146.0,-61.5 L 146.5,-62.0 L 147.0,-62.5 L 147.5,-63.0 L 147.5,-64.0 L 147.5,-65.0 L 147.5,-66.0 z" /></g></g></svg>